<svg width="96" height="96" viewBox="0 0 96 96" fill="none" xmlns="http://www.w3.org/2000/svg">
<svg x="0" y="0" width="96" height="96" viewBox="0 0 96.0 96.0" preserveAspectRatio="none">
<circle id="Ellipse 3" cx="48" cy="48" r="48" fill="var(--fill-0, #2D374B)"/></svg>
<svg x="20.333" y="16.666" width="55.661" height="62.496" viewBox="0 0 55.6623 62.4929" preserveAspectRatio="none">
<g id="Symbol_-_Original_7_">
<path id="Vector" d="M34.8721 28.6337L39.4616 20.8463L51.8319 40.1135L51.8377 43.8109L51.7974 18.367C51.7681 17.7451 51.4378 17.1761 50.9109 16.8406L28.6398 4.02989C28.1189 3.77389 27.4581 3.77661 26.9382 4.03784C26.868 4.07314 26.8018 4.11134 26.7388 4.15304L26.6612 4.20191L5.04351 16.7292L4.95953 16.7673C4.8517 16.8169 4.74271 16.8799 4.64031 16.9532C4.23053 17.2473 3.95824 17.6819 3.87019 18.1694C3.85701 18.2433 3.84731 18.3186 3.84265 18.3944L3.87659 39.1287L15.3989 21.2697C16.8496 18.9015 20.0104 18.1388 22.9444 18.1803L26.3882 18.2712L6.09775 50.8113L8.48957 52.1884L29.0232 18.3042L38.099 18.2712L17.6184 53.0105L26.1531 57.9195L27.1728 58.5059C27.6042 58.6812 28.1127 58.69 28.5477 58.5331L51.1318 45.4452L46.814 47.9472L34.8721 28.6337ZM36.6232 53.853L28.0029 40.3236L33.265 31.3943L44.586 49.2383L36.6232 53.853Z" fill="var(--fill-0, #2D374B)"/>
<path id="Vector_2" d="M28.0029 40.3236L36.6232 53.853L44.5863 49.2383L33.2652 31.3944L28.0029 40.3236Z" fill="var(--fill-0, #28A0F0)"/>
<path id="Vector_3" d="M51.8376 43.811L51.8318 40.1136L39.4616 20.8464L34.8721 28.6337L46.8139 47.9473L51.1317 45.4453C51.5553 45.1014 51.8115 44.5966 51.8384 44.0518L51.8376 43.811Z" fill="var(--fill-0, #28A0F0)"/>
<path id="Vector_4" d="M0.00019531 47.2979L6.09756 50.8113L26.388 18.2712L22.9443 18.1803C20.0102 18.1388 16.8496 18.9015 15.3988 21.2697L3.87641 39.1287L0 45.0847V47.2979H0.00019531Z" fill="var(--fill-0, white)"/>
<path id="Vector_5" d="M38.0989 18.2713L29.0232 18.3042L8.48962 52.1885L15.6666 56.3208L17.6184 53.0105L38.0989 18.2713Z" fill="var(--fill-0, white)"/>
<path id="Vector_6" d="M55.6623 18.2245C55.5864 16.3265 54.5588 14.5888 52.9489 13.5772L30.3859 0.601883C28.7935 -0.200045 26.8041 -0.201015 25.2092 0.6013C25.0207 0.696329 3.26698 13.3127 3.26698 13.3127C2.966 13.457 2.67606 13.629 2.40319 13.8241C0.966119 14.8541 0.0901087 16.4545 0.00012207 18.2129V45.0849L3.87653 39.1289L3.84259 18.3946C3.84724 18.3188 3.85675 18.2443 3.87013 18.1706C3.95759 17.6827 4.23007 17.2475 4.64025 16.9535C4.74265 16.8801 26.8677 4.07335 26.9381 4.03805C27.4583 3.77682 28.119 3.7741 28.6397 4.0301L50.9108 16.8408C51.4377 17.1763 51.768 17.7453 51.7973 18.3673V44.052C51.7703 44.5968 51.5551 45.1014 51.1315 45.4455L46.8137 47.9474L44.586 49.2385L36.6229 53.8532L28.5474 58.5333C28.1124 58.6904 27.6039 58.6816 27.1726 58.5061L17.6181 53.0107L15.6663 56.3208L24.2527 61.2645C24.5366 61.4258 24.7897 61.569 24.9972 61.6857C25.3187 61.8661 25.5377 61.9865 25.6151 62.0239C26.2254 62.3203 27.1033 62.4929 27.8946 62.4929C28.6201 62.4929 29.3274 62.3596 29.9969 62.0974L53.4525 48.5135C54.7989 47.4705 55.5909 45.8975 55.6623 44.1934V18.2245Z" fill="var(--fill-0, #96BEDC)"/>
</g></svg>
</svg>