<svg width="96.0097" height="96.0097" viewBox="0 0 96.0097 96.0097" fill="none" xmlns="http://www.w3.org/2000/svg"><g id="content">
<path id="Vector" d="M48.0048 96.0097C74.5172 96.0097 96.0097 74.5172 96.0097 48.0048C96.0097 21.4925 74.5172 0 48.0048 0C21.4925 0 0 21.4925 0 48.0048C0 74.5172 21.4925 96.0097 48.0048 96.0097Z" fill="var(--fill-0, white)"/>
<path id="Vector_2" d="M19.6963 23.0948V54.5509C19.6006 57.2197 20.0712 59.8784 21.0769 62.3522C25.4603 73.3203 39.3346 81.1023 50.2062 85.2829V79.7699C36.5733 74.45 29.9982 67.5177 27.3237 62.526C25.9508 60.1593 25.2312 57.4704 25.2383 54.7344V26.2617L50.2062 19.059V14.4826L21.9073 22.5059L19.6963 23.0948Z" fill="var(--fill-0, #FEBA11)"/>
<path id="Vector_3" d="M50.9786 78.2058C52.7165 77.3561 54.3257 76.5 55.8061 75.6375L55.9992 60.8846V23.0852L50.9786 21.5597V78.2058Z" fill="var(--fill-0, #FEBA11)"/>
<path id="Vector_4" d="M60.624 71.7465C62.4191 70.6341 64.095 69.3399 65.6253 67.8845V25.2093L60.624 23.6838V71.7465Z" fill="var(--fill-0, #FEBA11)"/>
<path id="Vector_5" d="M70.1921 26.9279L70.3273 48.9703V63.0667L70.4721 62.9122C70.781 62.497 71.0804 62.1012 71.3507 61.7053C74.8844 56.6075 75.0582 53.0158 75.0582 53.0158V49.2407L75.1934 28.4534L70.1921 26.9279Z" fill="var(--fill-0, #FEBA11)"/>
</g></svg>