<?xml version="1.0" encoding="UTF-8"?>
<svg id="_图层_1" data-name="图层_1" xmlns="http://www.w3.org/2000/svg" version="1.1" viewBox="0 0 64 64">
  <!-- Generator: Adobe Illustrator 30.2.1, SVG Export Plug-In . SVG Version: 2.1.1 Build 1)  -->
  <defs>
    <style>
      .st0 {
        fill: #4285f4;
      }

      .st1 {
        fill: #fbbc05;
      }

      .st2 {
        fill: #34a853;
      }

      .st3 {
        fill: #fff;
      }

      .st4 {
        fill: #ea4335;
      }
    </style>
  </defs>
  <rect class="st3" y="0" width="64" height="64"/>
  <path class="st4" d="M38.9,22.9h1.6s4.4-4.4,4.4-4.4l.2-1.9c-3.5-3.1-8.1-5-13.2-5-9.2,0-16.9,6.2-19.2,14.7.5-.3,1.5,0,1.5,0l8.8-1.5s.5-.8.7-.7c2.1-2.3,5.1-3.6,8.2-3.6,2.6,0,5,.9,6.9,2.5h0Z"/>
  <path class="st0" d="M51.2,26.3c-1-3.8-3.1-7.1-6-9.7l-6.3,6.3c2.5,2,4.1,5.1,4.1,8.6v1.1c3,0,5.5,2.5,5.5,5.5s-2.5,5.5-5.5,5.5h-11.1l-1.1,1.1v6.6l1.1,1.1h11.1c7.9,0,14.4-6.4,14.4-14.4,0-4.9-2.5-9.2-6.2-11.8h0Z"/>
  <path class="st2" d="M20.9,52.5h11v-8.9h-11c-.8,0-1.6-.2-2.3-.5l-1.6.5-4.4,4.4-.4,1.5c2.5,1.9,5.5,2.9,8.7,2.9h0Z"/>
  <path class="st1" d="M20.9,23.7c-7.9,0-14.4,6.4-14.4,14.4,0,4.7,2.2,8.8,5.7,11.4l6.4-6.4c-2-.9-3.3-2.9-3.3-5,0-3,2.5-5.5,5.5-5.5s4.2,1.4,5,3.3l6.4-6.4c-2.6-3.5-6.8-5.7-11.4-5.7h0Z"/>
</svg>