<svg width="96" height="96" viewBox="0 0 96 96" fill="none" xmlns="http://www.w3.org/2000/svg">
<svg x="0" y="0" width="96" height="96" viewBox="0 0 96.0 96.0" preserveAspectRatio="none">
<circle id="Ellipse 6337" cx="48" cy="48" r="48" fill="var(--fill-0, white)"/></svg>
<svg x="29.222" y="15.005" width="37.546" height="65.990" viewBox="0 0 37.5063 65.8683" preserveAspectRatio="none">
<path id="Vector" d="M29.9791 38.2189C34.4804 35.6098 37.5063 30.7377 37.5063 25.1569V18.7552C37.5063 8.39816 29.1123 0 18.7551 0C8.39817 0 0 8.39816 0 18.7552V25.6154H11.4323V26.0614C10.0445 26.4074 8.73159 26.945 7.52708 27.6494C3.02584 30.2584 0 35.1306 0 40.7113V47.1131C0 57.4701 8.39399 65.8683 18.7511 65.8683C29.1081 65.8683 37.5063 57.4701 37.5063 47.1131V40.2529H26.0739V39.8068C27.4617 39.4609 28.7746 38.9233 29.9791 38.2189ZM22.4145 49.4012C22.4145 51.4226 20.7766 53.0606 18.7551 53.0606C16.7338 53.0606 15.0959 51.4226 15.0959 49.4012V16.4671C15.0959 14.4457 16.7338 12.8077 18.7551 12.8077C20.7766 12.8077 22.4145 14.4457 22.4145 16.4671V49.4012Z" fill="var(--fill-0, #0A0A0A)"/></svg>
</svg>