<svg width="96.0" height="96.0" viewBox="0 0 96.0 96.0" fill="none" xmlns="http://www.w3.org/2000/svg"><rect width="96.0" height="96.0" fill="white"/><g id="Vector">
<path d="M19.759 33.6608L5.20101 26.2481C4.05873 28.4841 3.09873 30.8294 2.32101 33.2233L17.8633 38.2542C18.3737 36.6744 19.0056 35.1311 19.759 33.6608Z" fill="var(--fill-0, black)"/>
<path d="M32.1175 20.5975L40.1863 34.4871C41.3651 33.8066 42.6289 33.2841 43.9291 32.9316L39.761 17.4258C40.8182 17.1463 41.8997 16.9033 42.9934 16.7332L40.4294 0.595442C37.9504 0.984303 35.4835 1.57975 33.1018 2.35747L38.084 17.6446C36.4922 18.1671 34.9489 18.8111 33.4663 19.5646L26.1387 5.26177C23.9149 6.40405 21.7519 7.72861 19.7347 9.21114L29.3711 22.4081C30.2461 21.7519 31.1696 21.1565 32.1175 20.5975Z" fill="var(--fill-0, black)"/>
<path d="M75.3904 32.1053L61.5008 40.1742C62.1813 41.3529 62.716 42.6167 63.0684 43.917L78.5742 39.7367C78.8658 40.7939 79.0967 41.8754 79.2668 42.957L95.4046 40.3929C95.0157 37.9139 94.4203 35.4471 93.6304 33.0653L78.3554 38.0598C77.8329 36.4679 77.1889 34.9246 76.4355 33.442L90.7382 26.1023C89.596 23.8785 88.2714 21.7154 86.7889 19.6982L73.6041 29.3347C74.236 30.2339 74.8314 31.1575 75.3904 32.1053Z" fill="var(--fill-0, black)"/>
<path d="M69.7276 5.18886C67.4917 4.04658 65.1463 3.08658 62.7524 2.30886L57.7337 17.8511C59.3013 18.3615 60.8446 18.9934 62.3271 19.7468L69.7276 5.18886Z" fill="var(--fill-0, black)"/>
<path d="M63.919 20.318L55.7651 34.4749C56.9438 35.1554 58.0375 35.9939 58.9975 36.9539L81.8674 13.999C80.0932 12.2248 78.161 10.5843 76.1438 9.11392L66.7139 22.1286C65.8147 21.4724 64.8911 20.8648 63.919 20.318Z" fill="var(--fill-0, black)"/>
<path d="M20.318 32.0567L34.4628 40.2228C35.1433 39.0441 35.9818 37.9504 36.9418 36.9782L14.0111 14.0962C12.237 15.8704 10.5965 17.8025 9.12607 19.8197L22.1286 29.2618C21.4846 30.161 20.877 31.0967 20.318 32.0567Z" fill="var(--fill-0, black)"/>
<path d="M52.9458 16.4537L55.4127 0.571137C52.9701 0.194428 50.479 0 47.9878 0H47.9514V32.397H47.9878C49.3489 32.397 50.7099 32.5671 52.0101 32.9195L56.2025 17.1342C55.1332 16.8425 54.0517 16.6238 52.9458 16.4537Z" fill="var(--fill-0, black)"/>
<path d="M32.9195 43.9777L17.1342 39.7732C16.8547 40.8425 16.6238 41.9362 16.4537 43.0299L0.571137 40.5509C0.194428 42.9934 0 45.5089 0 48H32.397C32.397 46.6268 32.5792 45.278 32.9195 43.9777Z" fill="var(--fill-0, black)"/>
<path d="M76.241 62.3392L90.799 69.7519C91.9413 67.516 92.9013 65.1706 93.679 62.7767L78.1367 57.7458C77.6263 59.3256 76.9944 60.8689 76.241 62.3392Z" fill="var(--fill-0, black)"/>
<path d="M63.8704 75.3904L55.8137 61.5008C54.6349 62.1813 53.3711 62.7038 52.0709 63.0562L56.239 78.562C55.1818 78.8415 54.1003 79.0846 53.0066 79.2547L55.5706 95.3924C58.0496 95.0035 60.5165 94.4081 62.8982 93.6304L57.916 78.3433C59.5079 77.8208 61.0511 77.1767 62.5337 76.4233L69.8613 90.7261C72.0851 89.5838 74.2481 88.2593 76.2653 86.7767L66.641 73.5798C65.7539 74.2481 64.8304 74.8435 63.8704 75.3904Z" fill="var(--fill-0, black)"/>
<path d="M20.6096 63.8947L34.4992 55.8258C33.8187 54.6471 33.2841 53.3833 32.9316 52.083L17.4258 56.2633C17.1342 55.2061 16.9033 54.1246 16.7332 53.043L0.595442 55.6071C0.984303 58.0861 1.57975 60.5529 2.36962 62.9347L17.6446 57.9403C18.1671 59.52 18.8111 61.0754 19.5646 62.558L5.26177 69.8977C6.40405 72.1215 7.72861 74.2846 9.21114 76.3018L22.396 66.6653C21.7641 65.7661 21.1686 64.8425 20.6096 63.8947Z" fill="var(--fill-0, black)"/>
<path d="M26.2724 90.8111C28.5084 91.9534 30.8537 92.9134 33.2476 93.6911L38.2663 78.1489C36.6987 77.6385 35.1554 77.0066 33.6729 76.2532L26.2724 90.8111Z" fill="var(--fill-0, black)"/>
<path d="M32.0689 75.682L40.2228 61.5251C39.0441 60.8446 37.9504 60.0061 36.9904 59.0461L14.1205 82.001C15.8947 83.7752 17.8268 85.4157 19.8441 86.8861L29.2739 73.8714C30.1732 74.5154 31.1089 75.123 32.0689 75.682Z" fill="var(--fill-0, black)"/>
<path d="M75.6699 63.9433L61.5251 55.7772C60.8446 56.956 60.0061 58.0496 59.0461 59.0218L81.9889 81.9038C83.763 80.1296 85.4035 78.1975 86.8739 76.1803L73.8714 66.7382C74.5154 65.8268 75.123 64.9033 75.6699 63.9433Z" fill="var(--fill-0, black)"/>
<path d="M43.9777 63.0805L39.7853 78.8658C40.8547 79.1453 41.9484 79.3762 43.042 79.5463L40.5752 95.4289C43.0177 95.8056 45.5089 96 48 96H48.0365V63.603H48C46.639 63.603 45.278 63.4208 43.9777 63.0805Z" fill="var(--fill-0, black)"/>
<path d="M63.603 48C63.603 49.3732 63.4329 50.722 63.0805 52.0223L78.8658 56.2268C79.1453 55.1575 79.3762 54.0638 79.5463 52.9701L95.4289 55.4491C95.8056 53.0066 96 50.4911 96 48H63.603Z" fill="var(--fill-0, black)"/>
</g></svg>