<svg width="640" height="640" viewBox="0 0 640 640" fill="none" xmlns="http://www.w3.org/2000/svg">
<circle cx="320" cy="320" r="320" fill="#14A800"/>
<path d="M296.571 212.271C299.246 213.133 302.073 213.186 304.828 213.888C324.694 218.985 337.82 236.517 339.113 256.597C339.505 262.742 337.944 273.515 339.487 278.844C341.654 286.304 352.702 288.569 358.034 282.902C376.687 264.989 393.415 242.591 412.122 225.051C419.407 218.222 428.201 213.945 438 212.133C442.52 212.005 446.692 211.863 450.455 212.262C470 212.262 489.902 231.121 489.902 251.925L490 409.049C487.86 433.756 451.008 433.206 448.671 410.212C446.959 393.338 449.991 373.738 448.689 356.615C447.664 343.178 434.414 336.047 424.088 345.896C401.226 367.708 380.869 394.431 357.936 416.456C334.654 436.882 297.793 428.099 286.709 399.191C281.493 385.576 286.148 373.782 283.731 361.074C282.144 352.716 272.122 348.924 265.425 354.244L206.165 416.776C159.977 452.619 103.668 395.097 143.579 349.777C181.448 306.775 223.856 267.414 261.832 224.447C268.84 218.071 279.897 213.133 289.384 212.254H296.571V212.271Z" fill="white"/>
</svg>
