<svg width="96.0" height="96.0" viewBox="0 0 96.0 96.0" fill="none" xmlns="http://www.w3.org/2000/svg"><g id="Group">
<path id="Vector" d="M96 47.1212C96 47.4197 96 47.7513 96 48.0497C96 48.4145 96 48.7793 96 49.1109C96 73.5171 75.1939 96 47.8839 96C23.1289 96.0331 0 75.6725 0 47.8176C0 24.0746 19.4456 0 48.1825 0C74.3975 0 96 21.6539 96 47.1212ZM64.4424 61.4466C64.3097 61.4798 64.177 61.5461 64.0442 61.5792C32.2212 23.942 34.1127 24.0746 29.832 24.0746C22.6644 24.0746 24.1576 28.6176 24.1576 48.4477C24.1576 65.9233 22.8303 71.9585 29.3011 71.9585C31.0266 71.9585 32.5862 71.0632 33.7809 69.3057C44.2005 53.9523 43.4041 55.1461 43.4041 54.1844C43.4041 54.0186 43.4041 53.8528 43.4041 53.6539C43.4041 53.5212 43.4041 53.3554 43.4041 53.2228C42.7404 53.3886 41.8776 53.3223 41.4131 53.7202C36.0705 58.1305 34.2786 60.0207 31.7235 61.8445C31.7235 52.5596 31.7235 43.5399 31.7235 34.0559C63.8451 72.058 61.9537 71.9585 66.2675 71.9585C73.3688 71.9585 71.9419 67.5482 71.9419 47.8176C71.9419 30.1098 73.2693 24.0746 66.7985 24.0746C65.0729 24.0746 63.5133 24.9699 62.3187 26.7275C51.8991 42.114 52.6955 40.887 52.6955 41.8487C52.6955 42.0145 52.6955 42.1803 52.6955 42.3793C52.6955 42.5119 52.6955 42.6777 52.6955 42.8103C53.3591 42.6445 54.2219 42.7109 54.6865 42.3129C59.8963 38.0352 61.7878 36.0456 64.4424 34.1223C64.4424 43.4072 64.4424 52.4269 64.4424 61.4466Z" fill="var(--fill-0, black)"/>
<path id="Vector_2" d="M64.4424 61.4471C64.4424 52.4274 64.4424 43.4409 64.4424 34.0896C63.8451 34.5207 63.4469 34.7528 63.1151 35.0513C52.5295 44.1704 55.2506 42.1808 52.6955 42.7777C52.6955 42.6451 52.6955 42.5124 52.6955 42.3466C52.6955 42.1808 52.6955 42.015 52.6955 41.816C52.6955 41.4181 52.7286 41.0202 52.9277 40.7217C63.0819 25.2357 63.6792 24.042 66.7985 24.042C73.2361 24.042 71.9419 29.4471 71.9419 47.785C71.9419 66.7197 73.6011 71.9259 66.2675 71.9259C61.9868 71.9259 64.2101 72.4896 31.7235 34.0565C31.7235 43.5404 31.7235 52.5601 31.7235 61.8451C32.2544 61.4803 32.6526 61.2482 32.9844 60.9497C43.57 51.8306 40.8489 53.8202 43.4041 53.2233C43.4041 53.3559 43.4041 53.5217 43.4041 53.6544C43.4041 53.8202 43.4041 53.986 43.4041 54.185C43.4041 54.616 43.3709 54.9808 43.1718 55.2793C33.0176 70.7653 32.4203 71.959 29.3011 71.959C22.8966 71.959 24.1576 66.6533 24.1576 48.4482C24.1576 29.215 22.4984 24.0751 29.832 24.0751C34.0795 24.0751 31.9226 23.5777 64.0442 61.5798C64.177 61.5134 64.3097 61.4803 64.4424 61.4471Z" fill="var(--fill-0, white)"/>
</g></svg>