<svg width="96" height="96" viewBox="0 0 96 96" fill="none" xmlns="http://www.w3.org/2000/svg">
<svg x="0" y="0" width="96" height="96" viewBox="0 0 96.03 96.03" preserveAspectRatio="none">
<g id="background">
<path id="Vector" d="M48.015 96.03C74.5329 96.03 96.03 74.5329 96.03 48.015C96.03 21.497 74.5329 0 48.015 0C21.497 0 0 21.497 0 48.015C0 74.5329 21.497 96.03 48.015 96.03Z" fill="var(--fill-0, #FF0420)"/>
</g></svg>
<svg x="24.432" y="34.848" width="49.286" height="25.939" viewBox="0 0 49.2806 25.9411" preserveAspectRatio="none">
<g id="Group 48097646">
<path id="Vector" d="M9.72672 25.9392C6.86784 25.9392 4.52736 25.2672 2.70144 23.9213C0.900478 22.5523 0 20.6074 0 18.0845C0 17.5565 0.0595205 16.9075 0.18048 16.1395C0.49344 14.4096 0.936961 12.3322 1.51296 9.9072C3.14688 3.3024 7.36128 0 14.1581 0C16.007 0 17.664 0.312958 19.129 0.936958C20.5939 1.53792 21.7478 2.44992 22.5869 3.67488C23.4278 4.87488 23.8483 6.3168 23.8483 7.99872C23.8483 8.50368 23.7888 9.1392 23.6678 9.90912C23.3069 12.0461 22.8749 14.1235 22.3718 16.1414C21.5309 19.4323 20.0774 21.8938 18.0134 23.5277C15.9475 25.1366 13.1866 25.9411 9.72672 25.9411V25.9392ZM10.2317 20.7514C11.5776 20.7514 12.7181 20.3558 13.655 19.5629C14.615 18.7699 15.3005 17.5565 15.7094 15.9245C16.2624 13.6666 16.6829 11.6966 16.9709 10.0166C17.0669 9.51168 17.1149 8.9952 17.1149 8.4672C17.1149 6.28224 15.9744 5.18976 13.6934 5.18976C12.3475 5.18976 11.1955 5.58528 10.2355 6.37824C9.29856 7.1712 8.62656 8.38464 8.2176 10.0166C7.7856 11.6256 7.3536 13.5955 6.91968 15.9245C6.82368 16.4045 6.77568 16.9094 6.77568 17.4374C6.77568 19.6474 7.9296 20.7514 10.2336 20.7514H10.2317Z" fill="var(--fill-0, white)"/>
<path id="Vector_2" d="M25.5033 25.5784C25.2383 25.5784 25.0348 25.4939 24.8908 25.3269C24.7699 25.1349 24.7353 24.9179 24.7833 24.6779L29.7542 1.2616C29.8022 0.996643 29.9347 0.781602 30.1497 0.612642C30.3667 0.443682 30.5932 0.361122 30.8351 0.361122H40.4179C43.0847 0.361122 45.2217 0.914083 46.8307 2.01808C48.4646 3.12208 49.2806 4.71952 49.2806 6.8104C49.2806 7.41136 49.2076 8.03536 49.0636 8.68432C48.4627 11.4472 47.2511 13.4882 45.4252 14.8091C43.6243 16.1301 41.1494 16.7906 38.0044 16.7906H33.1411L31.4841 24.6798C31.4361 24.9448 31.3036 25.1598 31.0886 25.3288C30.8716 25.4978 30.6431 25.5803 30.4031 25.5803H25.5033V25.5784ZM38.2559 11.8158C39.2639 11.8158 40.1414 11.5394 40.8863 10.9864C41.6543 10.4334 42.1593 9.64048 42.3993 8.60944C42.4723 8.20048 42.5068 7.84144 42.5068 7.52848C42.5068 6.83152 42.3033 6.30352 41.8943 5.94256C41.4854 5.55856 40.7903 5.36656 39.8054 5.36656H35.4815L34.1126 11.8158H38.2559V11.8158Z" fill="var(--fill-0, white)"/>
</g></svg>
</svg>