<svg width="96" height="96" viewBox="0 0 96 96" fill="none" xmlns="http://www.w3.org/2000/svg">
<svg x="0" y="0" width="96" height="96" viewBox="0 0 96.0 96.0" preserveAspectRatio="none">
<path id="Vector" d="M96 48C96 21.4903 74.5097 0 48 0C21.4903 0 0 21.4903 0 48C0 74.5097 21.4903 96 48 96C74.5097 96 96 74.5097 96 48Z" fill="var(--fill-0, #6C00F6)"/></svg>
<svg x="24.125" y="26.554" width="47.750" height="42.893" viewBox="0 0 47.7439 42.8896" preserveAspectRatio="none">
<path id="Vector" d="M34.2199 0L20.8247 7.69336V31.7043L13.4337 35.9886L5.99747 31.7008V23.1283L13.4337 18.8822L18.2151 21.655V14.7192L13.3919 11.9811L0 19.7614V35.1512L13.4372 42.8896L26.8289 35.1512V11.1438L34.2652 6.85576L41.6977 11.1438V19.6779L34.2652 24.004L29.442 21.2067V28.1078L34.2199 30.8632L47.7439 23.1702V7.69336L34.2199 0Z" fill="var(--fill-0, white)"/></svg>
</svg>