<svg width="96" height="96" viewBox="0 0 96 96" fill="none" xmlns="http://www.w3.org/2000/svg">
<svg x="0" y="0" width="96" height="96" viewBox="0 0 96.0 96.0" preserveAspectRatio="none">
<circle id="Ellipse 6244" cx="48" cy="48" r="48" fill="var(--fill-0, #E6DAFE)"/></svg>
<svg x="37.738" y="32.765" width="23.462" height="47.069" viewBox="0 0 23.4695 47.0672" preserveAspectRatio="none">
<path id="Vector" d="M17.6021 11.7668C17.6021 15.0158 14.9749 17.6502 11.7347 17.6502V23.5336C18.2151 23.5336 23.4695 18.2649 23.4695 11.7668C23.4695 5.26874 18.2151 0 11.7347 0C9.5985 0 7.59229 0.572129 5.86737 1.57529C2.35916 3.60827 0 7.41081 0 11.7668V41.1839L5.2756 46.4737L5.86737 47.0672V11.7668C5.86737 8.51774 8.49455 5.88341 11.7347 5.88341C14.9749 5.88341 17.6021 8.51774 17.6021 11.7668Z" fill="var(--fill-0, #110F23)"/></svg>
<svg x="25.997" y="21.005" width="46.944" height="47.059" viewBox="0 0 46.9389 47.0671" preserveAspectRatio="none">
<path id="Vector" d="M23.4695 0C19.1943 0 15.1872 1.14687 11.7347 3.15058C9.52418 4.4305 7.54452 6.06167 5.86737 7.9696C2.21585 12.118 0 17.5677 0 23.5336V41.1837L5.86737 47.0671V23.5336C5.86737 18.3075 8.13365 13.6109 11.7347 10.3778C13.4278 8.861 15.4155 7.66358 17.6021 6.89192C19.4358 6.23729 21.4129 5.88341 23.4695 5.88341C33.19 5.88341 41.0716 13.7865 41.0716 23.5336C41.0716 33.2807 33.19 41.1837 23.4695 41.1837V47.0671C36.4329 47.0671 46.9389 36.5298 46.9389 23.5336C46.9389 10.5374 36.4329 0 23.4695 0Z" fill="var(--fill-0, #110F23)"/></svg>
</svg>