<svg width="95.995" height="96" viewBox="0 0 95.995 96" fill="none" xmlns="http://www.w3.org/2000/svg">
<svg x="0" y="0" width="95.995" height="96" viewBox="0 0 95.995 95.9999" preserveAspectRatio="none">
<path id="Vector" d="M45.2275 0.08111C68.8657 -1.28686 89.9702 14.7858 94.9364 37.9361C96.2894 44.2949 96.3454 50.8601 95.1045 57.2408C92.0078 72.98 81.2635 86.1363 66.4618 92.3175C56.3804 96.554 44.8353 97.1484 34.3589 94.0312C19.989 89.7592 8.43297 79.0327 3.10457 65.0209C-0.721925 54.9832 -1.01711 43.6499 2.25181 33.4181C8.27991 14.4715 25.3762 1.20856 45.2275 0.08111Z" fill="var(--fill-0, white)"/></svg>
<svg x="7.872" y="4.262" width="79.743" height="84.326" viewBox="0 0 79.7382 84.3338" preserveAspectRatio="none">
<g id="Group">
<path id="Vector" d="M10.5774 40.2657C10.7673 41.1417 10.8821 42.0313 11.0707 42.9101C11.1869 43.4471 11.3618 43.3201 11.6378 43.085C12.1667 42.6409 12.6751 42.1707 13.2696 41.8127C13.4377 41.8455 13.5238 41.9794 13.6153 42.0997C15.1719 44.1318 17.2409 45.3795 19.679 46.0546C20.805 46.3662 21.9557 46.5808 23.1187 46.6928C22.7552 46.2842 22.4518 45.8264 22.2154 45.3331C21.8259 44.4571 21.9626 43.6726 22.6185 42.9798C23.4207 42.1338 24.4798 41.7826 25.554 41.5038C27.8062 40.9162 30.1007 40.8574 32.4116 41.0214C34.2688 41.1499 36.1083 41.4656 37.9013 41.963C39.4046 42.3812 40.8696 42.8827 42.1979 43.7232C42.3838 43.8722 42.5122 44.0785 42.6912 44.2343C44.3981 46.0669 45.3944 48.2316 45.4627 50.7325C45.5092 52.4599 45.0309 54.1108 44.1644 55.6277C42.6038 58.3609 40.3257 60.3507 37.6047 61.8745C34.8401 63.4174 31.7912 64.3808 28.6425 64.7061C23.0066 65.317 17.7848 64.0952 12.9826 61.1037C8.99073 58.6178 5.92406 55.2164 3.41634 51.2751C2.25336 49.4028 1.2243 47.4513 0.338743 45.4328C0.228048 45.1868 0.202082 44.9122 0.0900203 44.7099C0.161084 44.9491 0.293645 45.2196 0.0312562 45.4752C-0.048007 44.4571 0.0421892 43.4389 0.0954869 42.4263C0.230781 39.6302 0.665362 36.856 1.39103 34.1529C4.68045 21.9764 13.5156 12.063 25.2342 7.40017C28.7573 5.9994 32.4636 5.11521 36.2395 4.77766C42.1938 4.23101 47.9636 5.01408 53.5954 7.01069C52.7385 8.63559 47.8557 12.9855 44.0565 15.5041C43.9485 14.4054 43.6984 13.3258 43.3131 12.2913C43.2939 12.0179 43.5399 11.9291 43.693 11.7979C44.4829 11.1187 45.2769 10.445 46.075 9.77944C46.157 9.71657 46.2335 9.64824 46.3059 9.57581C46.3961 9.47878 46.5478 9.39815 46.5164 9.24783C46.4849 9.0975 46.3046 9.09067 46.1788 9.07017C45.8112 8.99227 45.4381 8.94581 45.0623 8.93351C44.5416 8.87201 44.0292 8.75448 43.5044 8.74491C43.1012 8.72032 42.7049 8.61782 42.2977 8.65062C42.0913 8.65198 41.8863 8.63832 41.6827 8.60689C41.341 8.49893 40.9898 8.54676 40.6427 8.54812C40.435 8.54812 40.2327 8.53309 40.0195 8.54812C39.4251 8.58229 38.8265 8.48253 38.2334 8.59459C38.0899 8.62739 37.9423 8.64242 37.7947 8.63832C37.6225 8.63832 37.4517 8.64652 37.2795 8.63832C37.0554 8.61509 36.8299 8.63695 36.6139 8.70118C35.9867 8.75858 35.358 8.80914 34.7376 8.92257C33.9901 9.0811 33.222 9.11936 32.4786 9.30386C31.7953 9.48152 31.0942 9.57718 30.4287 9.81497C29.539 10.0596 28.6589 10.3397 27.7843 10.6349C26.5079 11.1419 25.2123 11.6052 23.9974 12.2557C21.2465 13.5882 18.6882 15.2869 16.3909 17.304C14.259 19.1462 12.3485 21.2302 10.6963 23.5138C9.87082 24.659 9.11646 25.8521 8.43589 27.0889C8.00267 27.8952 7.58586 28.7083 7.20594 29.5488C6.93262 30.1924 6.6019 30.8156 6.38598 31.4866C6.11266 32.1562 5.88853 32.8423 5.67261 33.5365C5.41569 34.228 5.26263 34.951 5.06447 35.6589C4.97837 35.9322 4.92781 36.2205 4.85538 36.5034C4.76928 36.8437 4.71872 37.1867 4.65449 37.5352C4.54926 38.116 4.45223 38.6968 4.36886 39.2817C4.26364 39.883 4.19121 40.4885 4.15431 41.098C4.05318 41.4997 4.12698 41.9179 4.05318 42.3279C3.94112 42.8322 4.01491 43.346 3.98212 43.853C3.96708 44.2097 3.96025 44.5678 3.96982 44.9245C3.96982 45.072 3.90285 45.277 4.05728 45.3481C4.23357 45.4301 4.36203 45.2429 4.48913 45.139C4.92371 44.7837 5.34872 44.4161 5.77374 44.0457C7.20457 42.8158 8.65318 41.6022 10.0895 40.3764C10.2207 40.2561 10.356 39.9814 10.5774 40.2657Z" fill="var(--fill-0, #4189C9)"/>
<path id="Vector_2" d="M42.187 43.8462C40.4965 42.8417 38.6488 42.2568 36.752 41.8072C34.262 41.2141 31.6996 40.9804 29.1427 41.1103C27.3374 41.2004 25.5472 41.4519 23.884 42.2445C23.6845 42.3402 23.4918 42.4523 23.3087 42.5766C21.9626 43.4786 21.7576 44.6812 22.7306 45.9808C22.9328 46.2542 23.157 46.5015 23.4276 46.8309C22.5543 46.8309 21.7808 46.6682 21.01 46.5152C18.9437 46.1052 17.0031 45.3891 15.3386 44.0553C14.5378 43.4157 13.8053 42.6982 13.2696 41.8072C13.4882 41.4505 13.8545 41.2838 14.1961 41.087C14.8548 40.8137 15.452 40.416 16.1094 40.1181C19.0189 38.7843 22.1334 37.952 25.3203 37.6582C26.594 37.5393 27.869 37.4177 29.1468 37.4655C32.92 37.6145 36.6577 38.265 40.2587 39.4006C41.188 39.6903 42.1063 40.0088 43.0725 40.3354C43.0725 40.0621 42.9167 39.8994 42.8142 39.7231C42.4275 39.0603 41.9833 38.4331 41.4886 37.8468C41.3069 37.6336 41.054 37.4464 41.0595 37.117C41.5693 37.2346 42.079 37.348 42.5874 37.4682C42.724 37.4997 42.8839 37.5817 42.9714 37.4682C43.0876 37.3207 42.9126 37.1949 42.8347 37.0801C42.0845 35.9609 41.1497 35.007 40.1466 34.1173C40.6782 33.8085 41.2249 34.0599 41.7428 34.1255C47.0548 34.8088 51.894 36.6961 56.1168 40.0019C61.7062 44.386 65.3181 50.052 66.8405 57.0176C67.3339 59.3449 67.4883 61.731 67.2997 64.102C67.0004 68.2169 65.7076 72.0147 63.2751 75.3875C63.1152 75.6089 62.8993 75.7852 62.7817 76.038C62.2351 76.8579 61.4151 77.4155 60.6717 78.0223C56.6334 81.3021 51.9254 83.0049 46.8498 83.8003C42.9017 84.433 38.8852 84.5027 34.918 84.0108C28.6726 83.24 22.7033 80.9837 17.5088 77.4319C16.2419 76.5723 14.9997 75.6758 13.8859 74.614C13.8476 74.5825 13.8435 74.5265 13.875 74.4882C13.8791 74.4841 13.8818 74.4801 13.8859 74.4773C14.1237 74.383 14.274 74.5552 14.4326 74.6727C17.0892 76.668 20.1053 78.133 23.3155 78.9858C24.391 79.2591 25.4802 79.4764 26.5776 79.6349C26.8263 79.7251 27.0901 79.6827 27.3456 79.7251C27.3975 79.7319 27.4495 79.7415 27.5 79.7565C29.9927 80.0517 32.4704 79.8781 34.9289 79.4449C40.3325 78.4883 45.132 76.2266 49.2428 72.5914C52.0457 70.1151 54.2568 67.1919 55.428 63.5814C56.5992 59.9708 56.4325 56.46 54.7898 52.9929C54.4523 54.5481 53.6364 55.8354 52.6155 57.008C51.5892 58.1559 50.3866 59.1331 49.0528 59.9038C48.897 59.994 48.7248 60.1648 48.5458 60.0268C48.3914 59.9093 48.4843 59.7029 48.5321 59.5471C48.8546 58.4675 49.0801 57.3606 49.2072 56.24C49.6855 51.5238 47.8652 47.8531 44.1098 45.0693C43.4975 44.6183 42.8552 44.2097 42.187 43.8462Z" fill="var(--fill-0, #262F71)"/>
<path id="Vector_3" d="M26.6036 79.736C25.2192 79.598 23.8512 79.3192 22.5229 78.9038C20.0124 78.1453 17.6236 77.026 15.4343 75.5815C14.9109 75.2385 14.4681 74.7807 13.8982 74.5033C13.5716 74.4568 13.4349 74.137 13.1739 73.9976C7.65556 69.0915 3.88099 63.0648 1.71765 56.0281C0.665362 52.6062 0.0968535 49.0543 0.0298898 45.4752C0.0435559 45.2019 0.057222 44.9381 0.0790877 44.5186C0.352409 45.1144 0.554667 45.5873 0.769224 46.0574C2.7549 50.4114 5.29679 54.3841 8.79667 57.6899C12.5166 61.2076 16.846 63.5554 21.9462 64.3754C27.9196 65.347 33.509 64.3057 38.6488 61.0873C41.2112 59.4815 43.3144 57.4057 44.5252 54.5754C45.9902 51.1439 45.4381 47.9556 43.2065 45.016C43.011 44.7591 42.8033 44.5117 42.6011 44.2589C42.8662 44.0321 43.011 44.2945 43.1573 44.4202C44.4842 45.5299 45.5406 46.9265 46.2458 48.5063C46.9318 50.0178 47.2967 51.655 47.3186 53.3154C47.3404 55.0127 46.966 56.6909 46.2253 58.2174C46.3865 58.2133 46.5423 58.1573 46.6681 58.0575C47.3773 57.6476 48.047 57.1747 48.6702 56.6431C48.8642 56.475 49.035 56.2222 49.3535 56.2605C49.1854 57.5464 48.9066 58.8146 48.5212 60.0528C49.348 59.5922 50.1365 59.0675 50.8813 58.4839C51.4731 58.022 51.9514 57.4426 52.5322 56.9725C52.7795 57.0777 52.7795 57.3223 52.8369 57.53C53.7826 60.9465 53.098 64.128 51.4129 67.1373C49.363 70.7861 46.3565 73.5016 42.8552 75.6991C40.0291 77.4702 36.9187 78.7439 33.6621 79.4641C31.6149 79.9232 29.5076 80.0462 27.4208 79.8317C27.1611 79.695 26.8659 79.8617 26.6036 79.736Z" fill="var(--fill-0, #161F42)"/>
<path id="Vector_4" d="M78.2736 54.4087C78.0959 50.5043 77.1311 46.6764 75.4351 43.1547C74.3282 40.8574 72.9315 38.7119 71.2807 36.7699C69.7911 35.0056 68.0801 33.4996 66.2843 32.0715C66.4524 31.9062 66.6615 31.9349 66.8638 31.9622C69.3742 32.2546 71.841 32.8409 74.2148 33.7087C74.8079 33.9246 75.3805 34.1911 75.9271 34.5054C76.1225 34.6052 76.3125 34.7159 76.4956 34.8389C76.5421 34.8649 76.5681 34.9332 76.6323 34.9182C76.5872 34.8662 76.5763 34.7938 76.6036 34.7309C74.9855 32.6236 73.0299 30.8662 70.9773 29.1962C68.5283 27.2173 65.8607 25.5255 63.0264 24.1534C59.0933 22.2142 54.8636 20.946 50.5123 20.4021C50.1256 20.3542 49.7265 20.4021 49.3494 20.2654C49.3166 20.0071 49.5338 19.921 49.6842 19.7953C52.2356 17.6702 54.2883 15.1488 55.7355 12.1505C56.1715 11.2431 56.5432 10.3056 56.8479 9.34486C56.9354 9.07153 56.9846 8.77498 57.2579 8.60142C61.8319 10.8003 65.9372 13.8629 69.3483 17.621C78.4198 27.5932 81.8445 41.471 78.4553 54.5194C78.3405 54.5741 78.3159 54.4757 78.2736 54.4087Z" fill="var(--fill-0, #4189C9)"/>
<path id="Vector_5" d="M62.7817 76.0421C62.7817 75.6403 63.1015 75.4134 63.2997 75.1319C65.1665 72.4657 66.3062 69.5124 66.8952 66.32C67.2615 64.3426 67.2915 62.346 67.1685 60.3657C66.9676 57.3127 66.1873 54.3759 64.956 51.5621C64.0595 49.4985 62.9252 47.5456 61.5764 45.7444C60.1373 43.8421 58.4796 42.1161 56.6347 40.6032C53.7854 38.2581 50.5069 36.4925 46.981 35.4033C45.1047 34.7979 43.1696 34.4002 41.2071 34.2157C40.8532 34.1843 40.5033 34.0996 40.1439 34.1214C38.8962 33.2017 37.6307 32.312 36.2094 31.6697L36.219 31.5331C36.7301 31.5331 37.2426 31.5413 37.7537 31.5331C44.9188 31.4046 51.5223 33.1607 57.2962 37.5243C63.2723 42.0436 67.0086 48.0198 68.4108 55.3968C69.6052 61.69 68.6841 67.6334 65.1911 73.0861C64.5023 74.1589 63.7493 75.1921 62.7817 76.0421Z" fill="var(--fill-0, #161F42)"/>
<path id="Vector_6" d="M57.2593 8.60552C56.5418 10.7989 55.6412 12.9062 54.3525 14.8359C53.0488 16.7778 51.4635 18.5162 49.6486 19.9935C49.5448 20.0782 49.4505 20.1766 49.3521 20.2668C48.7262 20.5852 48.211 21.0662 47.6315 21.453C45.5092 22.8469 43.2461 24.0167 40.8819 24.9419C40.8245 24.9611 40.7657 24.9761 40.7056 24.9857C40.6017 24.8326 40.7247 24.7766 40.7876 24.7123C42.1296 23.4346 42.9618 21.8534 43.5208 20.1123C43.57 19.8828 43.734 19.6942 43.954 19.6135C48.1235 17.9627 51.4512 15.2199 54.1762 11.7009C54.4236 11.3811 54.6654 11.0572 54.9716 10.6541C54.1284 10.6377 53.482 11.064 52.7686 11.1761C52.6319 11.1843 52.4584 11.2964 52.4269 11.0394C55.0126 8.01515 56.9572 4.49887 58.1448 0.701069C58.22 0.457813 58.1448 0.122995 58.4837 1.04924e-07C58.507 0.010933 58.5206 0.035532 58.5179 0.0614975C58.5179 0.0860964 58.507 0.0983957 58.5001 0.0983957C58.4646 2.80291 58.082 5.49239 57.359 8.09988C57.3167 8.2666 57.2839 8.43606 57.2593 8.60552Z" fill="var(--fill-0, #161F42)"/>
<path id="Vector_7" d="M41.054 37.117C41.9013 38.0518 42.6379 39.0822 43.2488 40.1864C43.3076 40.293 43.4593 40.4147 43.324 40.5417C43.2215 40.6374 43.1026 40.5199 42.9946 40.4802C40.2232 39.4389 37.3615 38.6599 34.4451 38.1502C32.976 37.8974 31.4851 37.7867 29.9927 37.6787C28.6521 37.5953 27.306 37.6145 25.9681 37.7361C22.9041 37.9821 19.9222 38.6381 17.0851 39.8625C16.2105 40.2411 15.3167 40.5814 14.5036 41.0925C14.4107 41.1513 14.3 41.2483 14.1934 41.1007C16.6574 39.3692 19.3906 38.0573 22.2823 37.2182C26.2674 36.0292 30.3371 35.7368 34.467 36.062C36.5702 36.2315 38.6598 36.5485 40.7179 37.0118C40.8313 37.0405 40.9447 37.076 41.054 37.117Z" fill="var(--fill-0, #161F42)"/>
<path id="Vector_8" d="M40.0291 8.39643H40.6441C40.9748 8.53309 41.3369 8.35816 41.669 8.49756H42.2826C42.3346 8.79411 42.0899 8.91847 41.9205 9.06197C39.0807 11.4617 36.2614 13.8847 33.4202 16.2818C32.4813 17.073 31.5507 17.8738 30.6132 18.6665C30.4697 18.7594 30.3576 18.8947 30.292 19.0532C29.0621 19.5138 27.9196 20.0918 27.0122 21.0949C26.5844 21.5705 26.3056 22.1199 25.9954 22.6611C25.1522 23.2077 24.4429 23.9265 23.6722 24.5743C21.6537 26.2716 19.6612 27.999 17.6372 29.6895C17.4678 29.8262 17.3544 30.0312 17.1562 30.1419C16.8077 29.6226 16.8829 29.0486 16.9662 28.4855C17.2204 28.0674 17.6222 27.8022 17.983 27.4907C19.9454 25.8261 21.9038 24.1589 23.8594 22.4902C25.7727 20.8708 27.675 19.2418 29.5869 17.621C31.783 15.7583 33.9778 13.8902 36.1684 12.0179C37.3888 10.9793 38.601 9.9325 39.8391 8.91437C40.0414 8.76268 40.1726 8.63969 40.0291 8.39643Z" fill="var(--fill-0, #5C94CE)"/>
<path id="Vector_9" d="M75.9968 34.6394C73.5875 33.4709 71.0401 32.7562 68.4067 32.3298C67.7029 32.215 66.9991 32.0743 66.2816 32.0688C65.3632 31.488 64.4627 30.8757 63.5224 30.3332C60.479 28.5648 57.1349 27.3718 53.6583 26.8142C53.5804 26.7923 53.5052 26.7636 53.4328 26.7267C54.4782 26.5354 58.0369 27.0697 60.5009 27.7476C62.7954 28.3735 65.0161 29.244 67.1248 30.3441C66.9034 29.6813 66.4989 29.2331 66.2515 28.7042C66.2269 28.5675 66.0302 28.4391 66.1613 28.2942C66.2925 28.1494 66.4442 28.3052 66.5713 28.3612C66.9266 28.5224 67.2656 28.7179 67.6222 28.8764C70.6069 30.4193 73.4194 32.2738 76.0132 34.4098C76.1089 34.5364 76.1034 34.613 75.9968 34.6394Z" fill="var(--fill-0, #161F42)"/>
<path id="Vector_10" d="M40.0291 8.39643C40.092 8.54676 40.2915 8.43743 40.3858 8.60552C39.8145 9.10023 39.2433 9.60314 38.6625 10.0965C37.6143 10.9875 36.5634 11.8744 35.5097 12.7586C34.0174 14.0186 32.5251 15.28 31.0341 16.5441C29.9982 17.4242 28.9773 18.3207 27.9415 19.2036C26.6869 20.2695 25.4201 21.3232 24.1628 22.3877C23.1652 23.2337 22.1771 24.0919 21.1809 24.9406C20.1327 25.8316 19.0818 26.7199 18.0295 27.6041L16.9758 28.4883L17.2751 27.1545C17.1056 26.7185 17.461 26.5217 17.7028 26.3208C18.6595 25.5227 19.5997 24.7069 20.5495 23.9019C22.7593 22.0256 24.9677 20.1465 27.1762 18.2674C29.0744 16.6548 30.9726 15.0422 32.8694 13.431C34.6351 11.9277 36.4131 10.4368 38.1609 8.91164C38.2976 8.79411 38.5504 8.65609 38.1814 8.50166C38.7869 8.27617 39.4141 8.45109 40.0291 8.39643Z" fill="var(--fill-0, #6497D0)"/>
<path id="Vector_11" d="M38.1814 8.49619C38.3249 8.52079 38.4821 8.44563 38.6324 8.56316C38.2703 9.09613 37.7373 9.44462 37.2658 9.85323C35.9224 11.023 34.5613 12.1765 33.2015 13.3203C31.9579 14.3699 30.702 15.4058 29.4611 16.4635C28.2202 17.5213 26.9698 18.6145 25.7166 19.6805C24.4634 20.7465 23.2171 21.7673 21.9762 22.8237C20.7353 23.8801 19.4863 24.9597 18.2386 26.0352C17.8641 26.3591 17.368 26.5819 17.2751 27.149C16.6137 27.2242 16.2652 27.7831 15.78 28.1275C15.0161 28.6741 14.4339 29.4217 13.7301 30.0339C13.0208 30.5382 12.3949 31.1409 11.7335 31.7012C9.76833 33.3671 7.81135 35.0439 5.83933 36.7016C5.56601 36.9312 5.32412 37.2018 5.01937 37.3931C4.88271 37.4778 4.75835 37.6377 4.56566 37.5038C4.55472 37.1498 4.62579 36.7986 4.77201 36.4775C5.7546 35.8502 6.57183 35.0193 7.45876 34.2772C9.90225 32.2273 12.3252 30.1555 14.7537 28.0879C17.1822 26.0202 19.5778 23.9703 21.9967 21.9176C24.365 19.9128 26.732 17.9053 29.0949 15.8936C31.511 13.8437 33.9381 11.7938 36.3379 9.7234C36.8148 9.31342 37.3164 8.92667 37.7797 8.49346L38.1814 8.49619Z" fill="var(--fill-0, #689AD1)"/>
<path id="Vector_12" d="M43.5126 8.60005C44.0688 8.59322 44.6059 8.73671 45.1525 8.80504C45.3015 9.13166 45.0158 9.25876 44.8478 9.41045C44.1645 10.0077 43.4497 10.5693 42.7842 11.187C42.7131 11.0927 42.6366 11.0012 42.571 10.9014C42.4193 10.6759 42.3127 10.7361 42.2143 10.9465C41.408 12.6766 40.0209 13.8793 38.5108 14.9507C36.8121 16.1451 34.985 17.1441 33.0621 17.9285C32.9583 17.7317 32.9487 17.7235 33.1264 17.5404C33.494 17.1605 33.9149 16.838 34.318 16.4963C37.2276 14.0227 40.1453 11.5601 43.0384 9.06607C43.2065 8.91984 43.3513 8.75448 43.5126 8.60005Z" fill="var(--fill-0, #4E8FCC)"/>
<path id="Vector_13" d="M43.5126 8.60005C43.4948 8.76951 43.4087 8.92531 43.2734 9.02917C41.3971 10.6172 39.5235 12.2079 37.6526 13.8027C36.2204 15.0231 34.7923 16.249 33.3669 17.4775C33.2384 17.5896 32.9965 17.6689 33.0621 17.9285C32.1615 18.3576 31.2364 18.7334 30.292 19.0546C29.9736 18.9671 30.2374 18.8537 30.292 18.8018C30.851 18.3071 31.4167 17.8205 31.9853 17.3368C33.0307 16.4485 34.0775 15.5615 35.1284 14.676C36.163 13.8014 37.203 12.9308 38.2347 12.0535C39.2665 11.1761 40.3011 10.2946 41.3192 9.39952C41.6485 9.1098 42.0517 8.89661 42.2758 8.49893C42.7008 8.43879 43.1012 8.58092 43.5126 8.60005Z" fill="var(--fill-0, #5591CD)"/>
<path id="Vector_14" d="M36.2422 20.9173C37.3246 20.3816 38.4548 19.932 39.3991 19.1503C39.5959 19.1421 39.574 19.2541 39.5275 19.3812C38.6557 22.9918 35.917 25.3628 32.2135 25.7086C31.5001 25.7756 30.7881 25.8576 30.0693 25.7892C30.1622 25.5255 30.4123 25.5487 30.6159 25.4927C31.4195 25.274 32.2162 25.0403 32.961 24.6549C34.3577 23.9334 35.3813 22.8688 35.9675 21.397C36.0181 21.2166 36.1124 21.0512 36.2422 20.9173Z" fill="var(--fill-0, #161F42)"/>
<path id="Vector_15" d="M36.2422 20.9173C35.7967 22.6392 34.6993 23.8295 33.1824 24.6823C32.208 25.2289 31.1325 25.4831 30.0706 25.7892C29.8096 25.0253 30.0925 24.3789 30.5517 23.7981C31.0901 23.1148 31.8226 22.6939 32.6016 22.3372C33.7905 21.8015 35.0055 21.3273 36.2422 20.9173Z" fill="var(--fill-0, #418AC9)"/>
<path id="Vector_16" d="M4.56292 37.5038C5.17106 37.2783 5.56191 36.7644 6.04023 36.3722C7.58312 35.1054 9.09869 33.8057 10.6197 32.5129C11.4192 31.8296 12.2064 31.1395 12.999 30.4521C13.2149 30.2649 13.4158 30.0503 13.7288 30.0339C12.9088 31.0616 12.1257 32.1166 11.5422 33.3042C9.97059 34.6339 8.40172 35.9677 6.83559 37.3043C6.11129 37.9233 5.37195 38.526 4.65859 39.1587C4.54926 39.2558 4.42626 39.3774 4.2568 39.2462C4.28824 38.6558 4.3921 38.0709 4.56292 37.5038Z" fill="var(--fill-0, #6497D0)"/>
<path id="Vector_17" d="M10.5774 40.2657C10.0936 40.3026 9.87492 40.7358 9.55514 40.9941C8.20903 42.0805 6.89709 43.2107 5.59198 44.3409C5.15466 44.7181 4.73102 45.1089 4.26774 45.4561C3.96298 45.6857 3.84819 45.5927 3.85775 45.2401V43.961C4.3306 43.4485 4.89774 43.0413 5.42662 42.5944C6.95312 41.2988 8.46459 39.9842 10.0116 38.7105C10.1482 38.6012 10.2562 38.4016 10.4844 38.5315L10.5774 40.2657Z" fill="var(--fill-0, #468CCA)"/>
<path id="Vector_18" d="M17.163 30.1391C17.1808 29.9669 17.2778 29.8112 17.4241 29.7182C18.654 28.6796 19.8839 27.6478 21.1139 26.6078C22.1238 25.7537 23.1255 24.8914 24.13 24.029C24.6575 23.5767 25.1809 23.1189 25.7043 22.6624C25.8041 22.575 25.897 22.5094 25.994 22.6624C25.8806 23.1284 25.7453 23.5904 25.759 24.0769C25.2123 24.6823 24.5441 25.1606 23.925 25.6895C22.0118 27.3294 20.1053 28.9598 18.1853 30.5765C18.1101 30.6462 18.0418 30.7227 17.983 30.806C17.6127 30.7404 17.3024 30.489 17.163 30.1391Z" fill="var(--fill-0, #5591CD)"/>
<path id="Vector_19" d="M4.2568 39.2462C4.69958 39.1095 4.95787 38.7255 5.28996 38.4508C7.08978 36.9626 8.8609 35.4443 10.643 33.9301C10.9231 33.6937 11.1199 33.3384 11.5422 33.3042C11.2169 34.1064 10.9436 34.9277 10.7222 35.7641C10.4024 35.7327 10.2398 35.9882 10.0389 36.1577C8.18443 37.7525 6.31081 39.3282 4.44676 40.9135C4.3347 41.0078 4.23494 41.1472 4.05181 41.0857C4.02585 40.4652 4.09554 39.8448 4.2568 39.2462Z" fill="var(--fill-0, #5C94CE)"/>
<path id="Vector_20" d="M17.983 30.806C17.8559 30.5765 18.0718 30.5013 18.1839 30.4056C19.7514 29.065 21.3216 27.7284 22.8973 26.396C23.787 25.6416 24.6794 24.89 25.5745 24.1425C25.6333 24.111 25.6975 24.0878 25.7631 24.0769C25.7631 24.4937 25.826 24.9091 25.9517 25.3068C25.4146 25.93 24.7395 26.4001 24.1218 26.9276C22.7429 28.1125 21.3558 29.2932 19.9605 30.4712C19.8593 30.5327 19.7842 30.6298 19.75 30.7445C19.1706 30.9659 18.5829 31.052 17.983 30.806Z" fill="var(--fill-0, #4E8FCC)"/>
<path id="Vector_21" d="M10.4749 38.5315C9.89952 38.8608 9.44034 39.3391 8.9347 39.7614C7.60089 40.8547 6.28758 41.9821 4.97974 43.1096C4.61895 43.4212 4.29644 43.7697 3.84819 43.9665C3.90285 43.4198 3.73339 42.8622 3.94932 42.3265C5.97053 40.6005 7.99584 38.8813 10.0252 37.1662C10.1619 37.0487 10.3068 36.9052 10.5227 36.9981L10.4749 38.5315Z" fill="var(--fill-0, #4E8FCC)"/>
<path id="Vector_22" d="M10.5227 36.9927C9.87356 37.3412 9.37201 37.881 8.8117 38.3429C7.48883 39.4293 6.19602 40.5513 4.88544 41.6528C4.59299 41.9002 4.388 42.276 3.94932 42.3211C4.00125 41.9111 3.83999 41.4861 4.05181 41.0911C5.32686 39.9978 6.606 38.9087 7.88651 37.8222C8.75294 37.0856 9.62757 36.3586 10.4926 35.622C10.7659 35.3869 10.6935 35.6452 10.7181 35.7696C10.6525 36.1782 10.5883 36.5854 10.5227 36.9927Z" fill="var(--fill-0, #5591CD)"/>
<path id="Vector_23" d="M19.7596 30.7568C19.571 30.6202 19.7036 30.5191 19.8033 30.4357C21.0087 29.4244 22.2195 28.4199 23.4235 27.4073C24.1751 26.7746 24.9172 26.1309 25.6606 25.494C25.7371 25.4011 25.8437 25.3396 25.9612 25.3191L26.2687 25.9327C26.0323 26.2976 25.6538 26.5245 25.3873 26.8607C23.9072 28.5006 22.2509 29.8863 20.1545 30.6748C20.0247 30.7117 19.8935 30.7391 19.7596 30.7568Z" fill="var(--fill-0, #488DCA)"/>
<path id="Vector_24" d="M42.7842 11.187C42.97 10.6062 43.5727 10.4395 43.9294 10.0295C44.3093 9.59358 44.9311 9.39952 45.1525 8.79958C45.598 8.79958 46.0244 8.91711 46.4576 8.99774C46.8321 9.06743 46.8485 9.23006 46.5943 9.46102C46.0367 9.95846 45.475 10.4532 44.9079 10.9397C44.3804 11.3934 43.8447 11.8375 43.3117 12.2858C43.1354 11.9209 42.9605 11.5547 42.7842 11.187Z" fill="var(--fill-0, #468CCA)"/>
<path id="Vector_25" d="M17.4869 34.5574C17.5771 34.7842 17.3052 34.8977 17.3366 35.104C17.1999 34.4808 16.8569 34.239 16.2324 34.3633C15.5655 34.5068 14.9601 34.8594 14.505 35.3678C14.3765 35.5044 14.2317 35.6261 14.095 35.7559C13.9829 35.6192 14.095 35.5003 14.1401 35.3787C14.4134 34.489 15.0134 33.8563 15.7705 33.352C15.9386 33.2359 16.1271 33.1498 16.3253 33.0992C17.2027 32.8901 17.6837 33.3192 17.5621 34.2089C17.5566 34.3278 17.5307 34.4467 17.4869 34.5574Z" fill="var(--fill-0, #428AC9)"/>
<path id="Vector_26" d="M17.4869 34.5574C17.4869 34.4207 17.4951 34.2841 17.4965 34.1474C17.5115 33.2536 17.0045 32.9174 16.175 33.2933C15.2184 33.7306 14.6143 34.5123 14.1948 35.4511C14.0977 35.4689 14.0472 35.4416 14.0772 35.3336C14.3793 34.2185 14.9614 33.2946 15.9304 32.6373C16.1709 32.4774 16.4428 32.3722 16.7285 32.3257C17.1808 32.2259 17.6304 32.5061 17.7425 32.9557C17.8832 33.5024 17.7903 34.0818 17.4869 34.5574Z" fill="var(--fill-0, #182144)"/>
<path id="Vector_27" d="M25.3804 26.8497C25.2082 26.7131 25.3599 26.6584 25.4515 26.5942C25.7399 26.3933 25.8984 26.0339 26.2619 25.9218C26.7265 26.657 27.4686 26.9809 28.2421 27.257C28.3979 27.313 28.5605 27.3485 28.8147 27.4196C27.623 27.7298 26.5954 27.6096 25.651 26.9645C25.5786 26.8934 25.4816 26.8538 25.3804 26.8497Z" fill="var(--fill-0, #458CCA)"/>
<path id="Vector_28" d="M67.6209 28.875C67.2451 28.8313 66.9594 28.5744 66.6178 28.4473C66.4811 28.3981 66.3595 28.2232 66.2187 28.338C66.1026 28.4336 66.2925 28.5757 66.2515 28.7083C66.0424 28.5252 65.97 28.2628 65.8607 27.9963C66.4702 28.2491 67.0783 28.4937 67.6209 28.875Z" fill="var(--fill-0, #63657D)"/>
<path id="Vector_29" d="M75.9968 34.6394C76.1075 34.5697 75.9968 34.4849 76.0119 34.4084L76.6063 34.7309L76.9261 35.1409C76.5366 35.0371 76.2729 34.8252 75.9968 34.6394Z" fill="var(--fill-0, #263154)"/>
<path id="Vector_30" d="M52.4474 26.5559C52.7221 26.5176 53.0009 26.5381 53.2674 26.6174C52.9476 26.7937 52.729 26.7664 52.4474 26.5559Z" fill="var(--fill-0, #A09AA9)"/>
<path id="Vector_31" d="M13.1739 73.9908C13.4923 74.0482 13.6372 74.3557 13.8982 74.4965L13.8832 74.6249C13.5976 74.476 13.3543 74.2573 13.1739 73.9908Z" fill="var(--fill-0, #424A7F)"/>
<path id="Vector_32" d="M78.2736 54.4087L78.4567 54.5112C78.4827 54.7176 78.3952 54.887 78.2736 55.1398V54.4087Z" fill="var(--fill-0, #8CB7DE)"/>
<path id="Vector_33" d="M52.4215 11.049C52.4912 11.2062 52.6483 11.1419 52.7631 11.1857L52.2165 11.3975C52.1728 11.1775 52.3204 11.1283 52.4215 11.049Z" fill="var(--fill-0, #5A5D76)"/>
<path id="Vector_34" d="M14.0772 35.3363L14.1948 35.4539C14.1633 35.555 14.1333 35.6575 14.1018 35.7586L13.8832 36.0415C13.9474 35.7108 13.9515 35.5085 14.0772 35.3363Z" fill="var(--fill-0, #4F668A)"/>
<path id="Vector_35" d="M39.5275 19.3771C39.4975 19.2924 39.5098 19.1858 39.3991 19.1462C39.4319 19.0669 39.5207 18.9562 39.5617 18.9958C39.6847 19.1147 39.6328 19.2569 39.5275 19.3771Z" fill="var(--fill-0, #555A73)"/>
<path id="Vector_36" d="M4.97291 35.6575C5.10957 34.9182 5.26399 34.187 5.58788 33.5037C6.79323 32.6619 7.85371 31.6438 8.9757 30.7008C10.9204 29.0609 12.8582 27.4141 14.7879 25.7619C16.5508 24.2545 18.3178 22.7513 20.0889 21.2521C22.0022 19.6299 23.9154 18.0064 25.8287 16.3788C27.5697 14.8987 29.3163 13.4228 31.0505 11.9332C32.2668 10.8878 33.5104 9.87373 34.7048 8.80641C35.3416 8.64925 35.9962 8.57956 36.6508 8.59869C36.7096 8.55086 36.793 8.53992 36.8613 8.57409C37.0062 8.82145 36.8217 8.96221 36.6713 9.0893C35.0191 10.4873 33.371 11.8908 31.7256 13.2984C29.9695 14.7908 28.2121 16.2831 26.456 17.7741C24.8352 19.1571 23.2116 20.5374 21.5854 21.9135C19.612 23.5876 17.6372 25.2645 15.6598 26.944C13.1999 29.0281 10.7564 31.1245 8.29376 33.2017C7.33713 34.0039 6.40648 34.8252 5.44165 35.611C5.32686 35.7081 5.16423 36.0169 4.97291 35.6575Z" fill="var(--fill-0, #6D9CD2)"/>
<path id="Vector_37" d="M34.698 8.80641C34.5258 9.38175 33.9696 9.59768 33.5746 9.9489C32.2804 11.0996 30.9425 12.2024 29.6197 13.3203C28.1396 14.568 26.6514 15.8075 25.1768 17.0621C23.8949 18.1554 22.6322 19.2637 21.3503 20.3556C20.1081 21.4134 18.8508 22.452 17.6085 23.507C16.3663 24.562 15.1336 25.6321 13.89 26.6885C12.6464 27.7448 11.396 28.7889 10.1523 29.844C9.12876 30.7131 8.11337 31.5918 7.09251 32.4624C6.68253 32.815 6.25752 33.1593 5.8407 33.5078C5.7505 33.583 5.66851 33.6199 5.58651 33.5078C5.73411 32.7958 5.97463 32.1071 6.30398 31.4579C7.24694 30.8634 8.03547 30.0776 8.8814 29.3643C10.8247 27.7243 12.7612 26.079 14.6908 24.4267C16.6875 22.7185 18.6882 21.0157 20.693 19.317C22.3425 17.9121 23.9933 16.51 25.6469 15.1092C27.7966 13.2916 29.9285 11.4522 32.0877 9.64278C32.2449 9.53891 32.3679 9.38995 32.4403 9.21503C33.1674 8.93214 33.9477 8.94991 34.698 8.80641Z" fill="var(--fill-0, #729FD4)"/>
<path id="Vector_38" d="M32.4417 9.21366C32.7601 9.29702 32.5005 9.41318 32.4417 9.46648C31.8609 9.98853 31.2746 10.5065 30.6801 11.0121C29.6456 11.8908 28.6029 12.76 27.5656 13.636C26.0473 14.911 24.5304 16.1929 23.0162 17.4803C21.774 18.5367 20.5454 19.6067 19.3045 20.6631C18.0254 21.7564 16.7367 22.8292 15.4561 23.9183C14.2153 24.9747 12.984 26.0421 11.7431 27.0984C10.5022 28.1548 9.25038 29.2003 8.00677 30.2498C7.55169 30.6325 7.09934 31.0179 6.64017 31.3937C6.54997 31.4675 6.45294 31.6356 6.30671 31.4538C6.44337 30.75 6.81509 30.1405 7.12668 29.5078C8.8117 28.0674 10.5049 26.6379 12.1913 25.1948C13.9296 23.7106 15.6707 22.2292 17.4131 20.7506C19.0763 19.3361 20.7394 17.923 22.4053 16.5141C24.1587 15.0204 25.9121 13.528 27.6668 12.0343C28.5756 11.2636 29.4557 10.4573 30.3932 9.7111C31.0423 9.41865 31.7461 9.33392 32.4417 9.21366Z" fill="var(--fill-0, #78A2D5)"/>
<path id="Vector_39" d="M30.3932 9.72067C29.7426 10.5666 28.8598 11.1624 28.0699 11.8567C27.0354 12.7641 25.9763 13.6401 24.9267 14.5284C23.9031 15.3948 22.8768 16.2572 21.8519 17.1249C20.8269 17.9927 19.8129 18.8674 18.7893 19.742C17.7657 20.6166 16.7107 21.4913 15.6748 22.37C14.6649 23.2282 13.6645 24.096 12.6546 24.9542C11.3727 26.0475 10.0895 27.134 8.80487 28.2136C8.35116 28.5976 7.89471 28.9789 7.43826 29.3615C7.3549 29.449 7.24147 29.5023 7.12121 29.5078C7.44646 28.6482 7.85918 27.8241 8.35116 27.0479C10.6908 25.1456 12.9662 23.1653 15.2607 21.2111C17.9201 18.9466 20.5905 16.7013 23.2349 14.415C24.7299 13.1235 26.2824 11.899 27.7242 10.5447C28.5879 10.1908 29.4803 9.91473 30.3932 9.72067Z" fill="var(--fill-0, #7DA5D6)"/>
<path id="Vector_40" d="M27.7283 10.5461C27.8308 10.7292 27.6463 10.7839 27.567 10.855C26.43 11.8512 25.2889 12.842 24.1423 13.8246C23.1378 14.6869 22.1238 15.5383 21.1139 16.3938C19.858 17.457 18.6021 18.5203 17.3448 19.5835C16.3239 20.4513 15.3086 21.3273 14.2863 22.1951C13.0058 23.2883 11.7198 24.3639 10.4393 25.4503C9.90772 25.9054 9.37884 26.3618 8.8527 26.8169C8.71604 26.9467 8.54248 27.0315 8.35526 27.0561C8.98936 25.7892 9.74509 24.588 10.6129 23.4687C11.4055 22.8852 12.1298 22.2169 12.8801 21.5814C14.8289 19.9306 16.7749 18.2756 18.7182 16.6179C20.2215 15.3374 21.7248 14.0555 23.228 12.7723C23.459 12.5741 23.7514 12.4471 23.9291 12.186C25.1181 11.4576 26.4273 11.0135 27.7283 10.5461Z" fill="var(--fill-0, #81A7D8)"/>
<path id="Vector_41" d="M49.3535 56.2632C48.3217 57.105 47.3104 57.9769 45.9369 58.5605C46.3292 57.7651 46.6325 56.9287 46.843 56.0678C47.652 52.5146 46.9031 49.2812 44.8109 46.3321C44.2943 45.605 43.6 45.042 42.9851 44.4065C42.8853 44.304 42.7773 44.1756 42.5983 44.2617C42.4138 44.1715 42.325 43.9883 42.1883 43.8517C42.2772 43.7382 42.3687 43.8011 42.4617 43.8517C44.9393 45.2565 47.0043 47.0796 48.2656 49.6857C48.8861 50.9717 49.266 52.3615 49.3835 53.7855C49.46 54.6096 49.4505 55.4405 49.3535 56.2632Z" fill="var(--fill-0, #0E1F66)"/>
<path id="Vector_42" d="M4.97291 35.6575C5.38289 35.8051 5.51955 35.3965 5.73001 35.2284C7.80861 33.5078 9.85852 31.7517 11.9112 29.9997C13.8476 28.3462 15.7718 26.6775 17.7124 25.028C19.873 23.1927 22.05 21.3792 24.2106 19.5438C26.1512 17.8943 28.0754 16.2271 30.0119 14.5721C32.1055 12.7887 34.2005 11.0053 36.2955 9.21913C36.5101 9.036 36.8189 8.94581 36.8572 8.60005C36.9747 8.48799 37.1483 8.61099 37.2672 8.50029H37.781C37.6239 9.04694 37.0977 9.23689 36.7287 9.56761C35.6683 10.5242 34.5627 11.4262 33.4735 12.3459C32.2285 13.3982 30.9781 14.445 29.7345 15.5001C28.7245 16.3569 27.7228 17.2247 26.7115 18.0829C25.2219 19.3457 23.7255 20.6002 22.2372 21.8643C21.226 22.7226 20.2256 23.5917 19.217 24.45C17.9352 25.5432 16.6478 26.6201 15.3659 27.7093C14.356 28.5675 13.3557 29.4367 12.3471 30.2949C11.3112 31.175 10.2671 32.0456 9.23262 32.9257C8.1981 33.8057 7.17178 34.7022 6.13725 35.581C5.77647 35.8885 5.40202 36.1823 5.03304 36.4829C4.94557 36.554 4.86221 36.5991 4.77748 36.4829C4.76792 36.1946 4.83488 35.9103 4.97291 35.6575Z" fill="var(--fill-0, #699AD1)"/>
<path id="Vector_43" d="M23.9264 12.1792C23.8403 12.6643 23.3674 12.7914 23.0668 13.062C22.02 14.0036 20.9308 14.8974 19.8566 15.8062C18.5993 16.868 17.3393 17.9244 16.0848 18.989C15.0749 19.8445 14.0731 20.7096 13.0673 21.5705C12.3334 22.1992 11.5996 22.8292 10.8671 23.4605C10.781 23.5343 10.6976 23.5794 10.6129 23.4605C11.1513 22.6365 11.7513 21.8548 12.4086 21.1223C14.8207 18.3207 17.5607 15.8882 20.708 13.9353C21.7466 13.2916 22.7771 12.6233 23.9264 12.1792Z" fill="var(--fill-0, #88ABD9)"/>
<path id="Vector_44" d="M41.669 8.49756C41.3287 8.45246 40.968 8.60279 40.6441 8.39643C40.9844 8.44016 41.3438 8.28983 41.669 8.49756Z" fill="var(--fill-0, #5591CD)"/>
<path id="Vector_45" d="M37.259 8.50029C37.151 8.64652 36.9857 8.58502 36.849 8.60005H36.6426C36.8258 8.41966 37.054 8.52762 37.259 8.50029Z" fill="var(--fill-0, #689AD1)"/>
<path id="Vector_46" d="M27.4208 79.8344C30.7621 79.9834 34.1008 79.4572 37.2344 78.2888C40.2846 77.1873 43.1299 75.5856 45.654 73.5508C48.1262 71.5446 50.254 69.2418 51.6753 66.361C52.442 64.8222 52.9162 63.1536 53.072 61.4413C53.2086 59.8956 52.9517 58.4347 52.5322 56.9807C52.5786 56.624 52.9039 56.4613 53.0939 56.2113C53.8291 55.2451 54.3716 54.2037 54.5971 53.0052C54.6422 52.8453 54.6983 52.6895 54.7638 52.5364C55.2258 53.4603 55.592 54.4292 55.8571 55.4282C56.2166 56.8372 56.4188 58.2707 56.3122 59.7193C56.125 62.2366 55.3747 64.6801 54.1174 66.8694C52.8656 69.0765 51.2476 70.9692 49.389 72.6597C47.7532 74.1261 45.9465 75.3902 44.0087 76.4234C41.6731 77.6916 39.1791 78.6427 36.5934 79.2536C34.9754 79.6335 33.3259 79.8713 31.6668 79.9642C30.8674 80.0093 30.0665 80.0777 29.2725 80.0271C28.6576 79.982 28.0248 80.023 27.4208 79.8344Z" fill="var(--fill-0, #0E1F66)"/>
</g></svg>
</svg>