<svg width="96" height="96" viewBox="0 0 96 96" fill="none" xmlns="http://www.w3.org/2000/svg">
<rect width="96" height="96" fill="#000"/>
<defs>
<linearGradient id="sg" x1="0" y1="0" x2="1" y2="1">
<stop offset="0%" stop-color="#9945FF"/>
<stop offset="100%" stop-color="#14F195"/>
</linearGradient>
</defs>
<g transform="translate(14, 17.5) scale(0.635)">
<path d="M106.594 75.6891L88.9066 94.6924C88.5221 95.1053 88.0567 95.4344 87.5401 95.6593C87.0231 95.8843 86.4653 96.0003 85.9017 96H2.05341C1.65333 96 1.26196 95.8829 0.927397 95.6631C0.592835 95.4433 0.329649 95.1303 0.170178 94.7629C0.0107065 94.3952 -0.0381038 93.9891 0.0297444 93.594C0.0975925 93.1989 0.279144 92.8325 0.55209 92.5394L18.2531 73.5361C18.6366 73.1242 19.1003 72.7958 19.6156 72.5709C20.1309 72.3459 20.6868 72.2295 21.2489 72.2285H105.093C105.493 72.2285 105.884 72.3456 106.218 72.5654C106.553 72.7852 106.816 73.0981 106.976 73.4659C107.135 73.8333 107.184 74.2397 107.116 74.6345C107.048 75.0296 106.867 75.396 106.594 75.6891ZM88.9066 37.4218C88.5221 37.0089 88.0567 36.6799 87.5401 36.4549C87.0231 36.23 86.4653 36.1139 85.9017 36.1142H2.05341C1.65333 36.1142 1.26196 36.2313 0.927397 36.4511C0.592835 36.671 0.329649 36.9839 0.170178 37.3513C0.0107065 37.719 -0.0381038 38.1251 0.0297444 38.5202C0.0975925 38.9154 0.279144 39.2817 0.55209 39.5748L18.2531 58.5782C18.6366 58.9901 19.1003 59.3184 19.6156 59.5434C20.1309 59.7683 20.6868 59.8847 21.2489 59.8858H105.093C105.493 59.8858 105.884 59.7687 106.218 59.5488C106.553 59.329 106.816 59.0161 106.976 58.6483C107.135 58.281 107.184 57.8745 107.116 57.4797C107.048 57.0846 106.867 56.7183 106.594 56.4252L88.9066 37.4218ZM2.05341 23.7714H85.9017C86.4653 23.7717 87.0231 23.6558 87.5401 23.4309C88.0567 23.2059 88.5221 22.8768 88.9066 22.464L106.594 3.46056C106.867 3.16753 107.048 2.80099 107.116 2.406C107.184 2.01101 107.135 1.60476 106.976 1.23718C106.816 0.869597 106.553 0.556688 106.218 0.336898C105.884 0.117108 105.493 1.35354e-05 105.093 0H21.2489C20.6868 0.00095825 20.1309 0.11749 19.6156 0.34238C19.1003 0.567272 18.6366 0.895732 18.2531 1.30743L0.556654 20.3108C0.28397 20.6036 0.102499 20.9697 0.0344971 21.3643C-0.0335047 21.7589 0.0149182 22.1647 0.173827 22.5322C0.332737 22.8996 0.595225 23.2125 0.929099 23.4326C1.26297 23.6528 1.65372 23.7705 2.05341 23.7714Z" fill="url(#sg)"/>
</g>
</svg>
