<svg width="96" height="32" viewBox="0 0 96 32" fill="none" xmlns="http://www.w3.org/2000/svg">
<g transform="translate(48 16) scale(0.6) translate(-48 -16)">
<path d="M13.6238 31.3347L23.1604 24.301L11.7861 0.760396L0.411881 24.3327L9.94852 31.3663L9.94852 25.7901L6.05149 22.9386L11.7861 11.0574L17.5208 22.9069L13.6238 25.7901V31.3347Z" fill="#F5F5F5"/>
<path d="M11.7861 0.760396L23.1604 24.301L13.6238 31.3347V25.7901L17.5208 22.9069L11.7861 11.0574L6.05149 22.9386L9.94852 25.7901L9.94852 31.3663L0.411881 24.3327L11.7861 0.760396ZM11.7861 0L0 24.4277L10.297 31.9683L10.297 25.6317L6.49505 22.8436L11.8178 11.8178L17.1406 22.8436L13.3386 25.6317L13.3386 32L23.6356 24.4594L11.7861 0Z" fill="#F5F5F5"/>
<path d="M34.7248 24.4277H31.6198L37.2594 8.42772H40.8396L46.4792 24.4277H43.3743L39.097 11.7228H38.9703L34.7248 24.4277ZM34.8198 18.1545C38.111 18.1545 39.9563 18.1545 43.2475 18.1545V20.4673H34.8198V18.1545Z" fill="#F5F5F5"/>
<path d="M53.3861 24.6495C52.3015 24.6805 51.2287 24.4178 50.2812 23.8891C49.4102 23.3932 48.7133 22.6409 48.2851 21.7347C47.7959 20.718 47.5569 19.5991 47.5881 18.4713C47.5568 17.3536 47.7959 16.245 48.2851 15.2396C48.722 14.3311 49.4161 13.5709 50.2812 13.0535C51.1768 12.5077 52.2111 12.2326 53.2594 12.2614C53.9707 12.2637 54.6769 12.3814 55.3505 12.6099C56.0028 12.838 56.5974 13.2056 57.0931 13.6871C57.633 14.2216 58.0447 14.8715 58.297 15.5881C58.6058 16.4627 58.756 17.3855 58.7406 18.3129V19.1683H48.9188V17.2673H56.0475C56.0487 16.7607 55.9292 16.2612 55.699 15.8099C55.4729 15.3786 55.1303 15.0194 54.7103 14.7729C54.2903 14.5265 53.8096 14.4028 53.3228 14.4158C52.8039 14.4055 52.2924 14.5392 51.8449 14.8021C51.3975 15.0649 51.0317 15.4467 50.7881 15.9049C50.5476 16.3651 50.4174 16.8749 50.4079 17.3941V19.0416C50.392 19.665 50.5222 20.2835 50.7881 20.8475C51.0161 21.3331 51.3936 21.7328 51.8653 21.9881C52.3613 22.2544 52.9186 22.3855 53.4812 22.3683C53.8565 22.3692 54.23 22.3158 54.5901 22.2099C54.917 22.1074 55.2118 21.9218 55.4455 21.6713C55.7064 21.4463 55.894 21.1483 55.9842 20.8158L58.6139 21.101C58.4596 21.7848 58.1323 22.4176 57.6634 22.9386C57.1714 23.4699 56.5645 23.8816 55.8891 24.1426C55.1087 24.5135 54.2493 24.6876 53.3861 24.6495Z" fill="#F5F5F5"/>
<path d="M66.3446 29.1802C65.4501 29.2055 64.5587 29.0659 63.7149 28.7683C63.0653 28.5346 62.4717 28.1677 61.9723 27.6911C61.5387 27.2729 61.222 26.7486 61.0535 26.1703L63.5881 25.5683C63.7252 25.8223 63.8957 26.0567 64.0951 26.2653C64.3501 26.5123 64.6516 26.7062 64.9822 26.8356C65.4386 27.0013 65.9228 27.0766 66.4079 27.0574C67.1167 27.0818 67.8151 26.8823 68.404 26.4871C68.9426 26.1069 69.196 25.4733 69.196 24.5861V22.305H69.0693C68.9012 22.6292 68.6878 22.9279 68.4356 23.1921C68.1313 23.5296 67.7512 23.7902 67.3267 23.9525C66.7882 24.1876 66.2029 24.296 65.6158 24.2693C64.7413 24.274 63.8799 24.0559 63.1129 23.6356C62.3446 23.1654 61.7285 22.4833 61.3386 21.6713C60.862 20.6514 60.634 19.533 60.6733 18.4079C60.6347 17.2625 60.8625 16.1237 61.3386 15.0812C61.7177 14.2371 62.3342 13.5216 63.1129 13.0218C63.8627 12.5533 64.7318 12.3112 65.6158 12.3248C66.2153 12.3109 66.8104 12.4299 67.3584 12.6733C67.7801 12.8691 68.1493 13.1623 68.4356 13.5287C68.6836 13.8012 68.8868 14.1114 69.0376 14.4475H69.196V12.4515H71.9842V24.6495C72.0139 25.55 71.7589 26.4369 71.2554 27.1842C70.7433 27.8657 70.0524 28.3921 69.2594 28.705C68.319 29.0165 67.3352 29.1769 66.3446 29.1802ZM66.3446 22.0198C66.8852 22.0328 67.4165 21.8778 67.8653 21.5762C68.3043 21.2609 68.6361 20.8186 68.8158 20.3089C69.0466 19.6805 69.1542 19.0136 69.1327 18.3446C69.1513 17.6654 69.0438 16.9886 68.8158 16.3485C68.6282 15.8256 68.2992 15.3649 67.8653 15.0178C67.4016 14.7028 66.8527 14.5369 66.2921 14.5426C65.7315 14.5483 65.186 14.7251 64.7287 15.0495C64.2941 15.409 63.9656 15.8799 63.7782 16.4119C63.5527 17.0306 63.4452 17.6862 63.4614 18.3446C63.4452 19.0029 63.5527 19.6585 63.7782 20.2772C63.9667 20.7822 64.2967 21.2223 64.7287 21.5446C65.2005 21.8763 65.7683 22.0433 66.3446 22.0198Z" fill="#F5F5F5"/>
<path d="M74.8673 24.4277V12.4198H77.6871V24.396H74.8673V24.4277ZM76.2931 10.7406C75.8703 10.7434 75.4623 10.5847 75.1525 10.297C75.0032 10.16 74.8838 9.99359 74.802 9.80819C74.7202 9.62279 74.6777 9.42245 74.6772 9.2198C74.6748 9.0167 74.7159 8.81542 74.7979 8.62959C74.8799 8.44375 75.0008 8.27767 75.1525 8.14257C75.3017 7.99399 75.4801 7.87787 75.6764 7.80154C75.8727 7.72521 76.0826 7.6903 76.2931 7.69901C76.7159 7.69623 77.1238 7.85487 77.4337 8.14257C77.5835 8.27916 77.7033 8.44551 77.7852 8.631C77.8671 8.81649 77.9094 9.01703 77.9094 9.2198C77.9094 9.42258 77.8671 9.62312 77.7852 9.80861C77.7033 9.9941 77.5835 10.1604 77.4337 10.297C77.1238 10.5847 76.7159 10.7434 76.2931 10.7406Z" fill="#F5F5F5"/>
<path d="M90.0752 15.5881L87.5089 15.8733C87.4402 15.6042 87.3101 15.3548 87.1287 15.1446C86.9349 14.9067 86.6843 14.7215 86.4 14.6059C86.0487 14.4593 85.6718 14.3839 85.2911 14.3842C84.7686 14.3661 84.2519 14.498 83.802 14.7644C83.6241 14.8578 83.4763 14.9996 83.3754 15.1733C83.2745 15.3471 83.2247 15.5457 83.2317 15.7465C83.2271 15.9085 83.2588 16.0694 83.3246 16.2174C83.3904 16.3655 83.4886 16.4969 83.6119 16.602C83.9952 16.8835 84.4408 17.0683 84.9109 17.1406L86.9703 17.5842C88.1109 17.8376 88.9347 18.2178 89.505 18.7564C89.7825 19.0283 90.0015 19.3541 90.1486 19.7136C90.2957 20.0732 90.3678 20.4591 90.3604 20.8475C90.3725 21.5692 90.1377 22.2734 89.6951 22.8436C89.2199 23.4375 88.5971 23.8963 87.8891 24.1743C87.0421 24.5071 86.1376 24.6686 85.2277 24.6495C83.7703 24.6495 82.5663 24.3327 81.6792 23.7307C81.247 23.4307 80.8807 23.0454 80.6028 22.5987C80.325 22.1519 80.1414 21.653 80.0634 21.1327L82.8198 20.8792C82.9152 21.3776 83.1988 21.8201 83.6119 22.1149C84.084 22.4142 84.6379 22.5582 85.196 22.5267C85.7641 22.5579 86.3281 22.4141 86.8119 22.1149C86.9922 22.0134 87.1427 21.8663 87.2483 21.6884C87.354 21.5104 87.4111 21.3079 87.4139 21.101C87.4194 20.9357 87.3849 20.7716 87.3131 20.6226C87.2414 20.4736 87.1346 20.3443 87.002 20.2455C86.6453 19.9857 86.2332 19.8121 85.798 19.7386L83.7386 19.295C82.598 19.0416 81.7426 18.6614 81.1723 18.0911C80.6258 17.5088 80.3299 16.735 80.3485 15.9366C80.3289 15.2434 80.5407 14.5634 80.9505 14.004C81.393 13.4319 81.9852 12.9933 82.6614 12.7366C83.467 12.417 84.3297 12.266 85.196 12.2931C86.5901 12.2931 87.699 12.5782 88.5228 13.1802C88.9308 13.4558 89.2788 13.8113 89.5456 14.2252C89.8124 14.639 89.9926 15.1027 90.0752 15.5881Z" fill="#F5F5F5"/>
</g>
</svg>
