<svg width="194" height="80" viewBox="0 0 194 80" fill="none" xmlns="http://www.w3.org/2000/svg">
<g clip-path="url(#clip0_15_4452)">
<path d="M96.67 39.8357C96.6933 39.8486 96.7759 39.9167 96.8713 39.9416C99.07 40.5217 100.523 42.7602 100.456 45.2061C100.36 48.7713 97.8589 50.6641 94.8867 50.9363C92.5587 51.1492 90.2022 51.0573 87.8594 51.0725C87.1844 51.0768 86.8358 50.6652 86.8358 49.9802C86.8337 43.7077 86.8337 37.4351 86.8358 31.1615C86.8358 30.3891 87.1113 30.0347 87.8615 30.0401C90.1333 30.0574 92.4146 29.9936 94.6726 30.1968C98.5709 30.5468 100.559 35.1005 98.2626 38.3005C97.8398 38.8893 97.2093 39.3247 96.67 39.8335V39.8357ZM89.5526 48.7778C90.9895 48.7778 92.3627 48.7832 93.7349 48.7735C94.0146 48.7713 94.2954 48.7194 94.573 48.6741C96.1603 48.4105 97.416 47.1972 97.5261 45.8273C97.6999 43.6601 96.9762 42.301 95.2099 41.7069C93.3842 41.0932 91.4907 41.3352 89.6162 41.4011C89.6014 41.4011 89.5876 41.4206 89.5526 41.4454V48.7778ZM89.5251 39.1C90.6907 39.1 91.7948 39.1108 92.8978 39.0978C94.9481 39.0729 96.2091 37.8349 96.3182 35.7573C96.421 33.8041 95.3275 32.5011 93.4011 32.3629C92.279 32.2818 91.1505 32.3013 90.0263 32.2516C89.6258 32.2343 89.5145 32.391 89.5177 32.781C89.5325 34.6413 89.524 36.5028 89.524 38.3632C89.524 38.59 89.524 38.818 89.524 39.101L89.5251 39.1Z" fill="white"/>
<path d="M146.348 37.4513C146.365 37.071 146.382 36.8625 146.383 36.6551C146.385 34.2361 146.383 31.8172 146.385 29.3983C146.385 28.6604 146.421 28.5816 147.132 28.5124C147.616 28.466 148.118 28.4984 148.597 28.5848C148.761 28.6151 148.895 28.9057 149.009 29.098C149.056 29.1768 149.017 29.3086 149.017 29.4156C149.017 36.3677 149.017 43.3198 149.017 50.2729C149.017 50.9946 148.894 51.1264 148.171 51.1783C148.136 51.1804 148.1 51.1804 148.065 51.1815C146.787 51.2269 146.667 51.1113 146.667 49.8289C146.667 49.5448 146.667 49.2606 146.667 48.8382C146.242 49.212 145.91 49.507 145.576 49.7997C143.905 51.2615 141.997 51.7455 139.87 51.1437C138.249 50.6856 137.118 49.5739 136.558 48.002C135.479 44.9781 135.434 41.9088 136.597 38.886C138.13 34.8962 143.134 34.1832 145.803 36.9446C145.934 37.0807 146.081 37.2028 146.35 37.4513H146.348ZM146.384 43.2603C146.384 42.9384 146.384 42.6154 146.384 42.2934C146.384 40.827 145.836 39.6152 144.74 38.658C144.726 38.6461 144.712 38.6353 144.7 38.6235C143.761 37.8272 142.693 37.4059 141.474 37.6857C140.097 38.0033 139.373 39.0513 138.957 40.3261C138.319 42.2826 138.377 44.2726 138.874 46.2443C139.536 48.876 141.844 49.8948 144.034 48.4601C144.859 47.9199 145.51 47.0999 146.213 46.3793C146.339 46.2508 146.372 45.9872 146.376 45.7851C146.393 44.9435 146.383 44.1019 146.384 43.2593V43.2603Z" fill="white"/>
<path d="M114.252 48.8799C113.448 49.513 112.781 50.1321 112.029 50.6117C109.981 51.919 107.129 51.5625 105.577 49.8544C104.752 48.9458 104.354 47.8136 104.324 46.6252C104.233 43.1508 104.239 39.6742 104.2 36.1987C104.194 35.7536 104.443 35.5786 104.816 35.5581C105.291 35.5322 105.769 35.5311 106.245 35.557C106.727 35.5829 106.884 35.8833 106.882 36.3586C106.874 39.3523 106.861 42.346 106.898 45.3396C106.914 46.5831 107.194 47.7769 108.265 48.5656C109.388 49.392 110.877 49.2354 112.15 48.1464C112.74 47.6419 113.276 47.0649 113.785 46.474C113.944 46.2892 113.984 45.95 113.985 45.6821C113.999 42.6344 113.992 39.5878 113.995 36.5401C113.995 35.6348 114.077 35.5581 114.957 35.5473C116.948 35.5246 116.62 35.5808 116.623 37.2143C116.633 41.5886 116.617 45.9619 116.639 50.3363C116.642 50.898 116.428 51.1238 115.925 51.1638C115.872 51.1681 115.82 51.1757 115.767 51.18C114.398 51.287 114.254 51.153 114.254 49.7777C114.254 49.499 114.254 49.2203 114.254 48.8821L114.252 48.8799Z" fill="white"/>
<path d="M129.072 39.7539C129.072 36.2611 129.072 32.7683 129.072 29.2755C129.072 28.5765 129.152 28.4814 129.854 28.449C130.274 28.4296 130.698 28.4339 131.119 28.4544C131.488 28.4728 131.704 28.6716 131.688 29.0746C131.682 29.1999 131.69 29.3252 131.69 29.4505C131.69 36.3291 131.69 43.2067 131.69 50.0853C131.69 51.022 131.565 51.1505 130.632 51.1808C129.137 51.2294 129.072 51.1678 129.072 49.6942V39.7539Z" fill="white"/>
<path d="M121.556 43.3683C121.556 41.0207 121.556 38.6742 121.556 36.3266C121.556 35.714 121.686 35.5595 122.291 35.5509C124.515 35.5206 124.164 35.485 124.17 37.3292C124.181 41.6117 124.174 45.8931 124.173 50.1757C124.173 50.9913 124.047 51.1231 123.238 51.1772C121.667 51.2819 121.555 51.1772 121.555 49.602C121.555 47.5234 121.555 45.4448 121.555 43.3673L121.556 43.3683Z" fill="white"/>
<path d="M124.458 31.0914C124.458 32.3338 124.096 32.6882 122.827 32.6871C121.607 32.6871 121.238 32.3187 121.238 31.1012C121.238 29.8296 121.597 29.4828 122.909 29.4904C124.142 29.4968 124.458 29.8231 124.457 31.0914H124.458Z" fill="white"/>
<path d="M55.6294 30.1152H52.1984L44.9688 51.2956H47.5913L49.5462 45.6929H58.1629L60.138 51.2956H63.1303L55.6294 30.1152ZM50.2445 43.4155L53.755 33.0441L57.4254 43.4155H50.2445Z" fill="white"/>
<path d="M80.5418 33.9989C80.5418 33.9989 81.38 34.6903 81.5188 33.6326C81.5188 33.6326 81.7582 32.0672 81.0303 31.5994C81.0303 31.5994 75.3561 27.2477 68.3553 32.0056C68.3553 32.0056 62.7606 36.2665 65.3037 45.0206C65.3037 45.0206 67.6072 53.6613 78.109 51.0793C78.109 51.0793 81.8049 50.2971 81.5569 48.3751L81.5686 40.8105C81.5686 40.8105 81.6088 39.7431 80.741 39.7431H73.6798C73.6798 39.7431 72.6923 41.2686 73.7996 42.0313H78.7066V48.1623C78.7066 48.1623 73.8303 50.8157 70.0602 47.4298C70.0602 47.4298 66.0507 43.5859 68.1158 36.9666C68.1158 36.9666 71.337 28.6489 80.5418 33.9978V33.9989Z" fill="white"/>
</g>
<defs>
<clipPath id="clip0_15_4452">
<rect width="104.062" height="23.125" fill="white" transform="translate(44.9688 28.4375)"/>
</clipPath>
</defs>
</svg>
