<svg width="194" height="80" viewBox="0 0 194 80" fill="none" xmlns="http://www.w3.org/2000/svg">
<g clip-path="url(#clip0_15_4443)">
<path d="M42.78 49.0029H46.0736L52.1174 34.1735L58.1612 49.0029H61.4579L53.7049 30.3125H50.653L42.78 49.0029Z" fill="white"/>
<path d="M67.9299 49.0029H71.0435V35.8042L76.5992 44.2691L82.3981 35.8042V49.0029H85.6349V30.3125H82.2149L76.7824 39.1905L71.2867 30.3125H67.9299V49.0029Z" fill="white"/>
<path d="M104.497 39.2659C107.245 38.1365 107.123 35.3782 107.123 35.3782C107.245 30.5494 101.567 30.4512 101.567 30.4512H93.1428V33.4327L100.957 33.3694C104.193 33.4943 103.888 35.8779 103.888 35.8779C104.193 38.3231 100.896 38.3231 100.896 38.3231H93.1428V48.8651L102.728 48.8584C106.696 49.0466 107.917 45.3472 107.917 45.3472C109.077 40.3935 104.499 39.2642 104.499 39.2642L104.497 39.2659ZM104.864 43.4983C104.864 44.8608 103.779 45.9752 102.453 45.9752H96.2563V41.0215H102.453C103.779 41.0215 104.864 42.1358 104.864 43.4983Z" fill="white"/>
<path d="M128.675 30.3125H115.304V33.389H128.675V30.3125Z" fill="white"/>
<path d="M115.304 38.0459V41.0208V45.9745V48.866H118.189H128.675V45.9745H118.189V41.0208H128.675V38.0459H118.189H115.304Z" fill="white"/>
<path d="M150.553 48.0449L146.478 42.1602C147.579 41.852 148.471 41.294 149.138 40.4895C150.406 38.9587 150.36 37.1182 150.321 36.6202C150.328 34.7463 149.791 33.2355 148.727 32.1295C147.141 30.4822 145.027 30.4355 144.79 30.4355H135.999V33.2672H144.79C144.801 33.2672 145.98 33.3038 146.767 34.1217C147.309 34.6847 147.576 35.5408 147.563 36.6668L147.557 36.7284L147.571 36.8367C147.571 36.8467 147.665 37.9144 147.023 38.6739C146.543 39.2402 145.721 39.5534 144.579 39.605H136.21V48.8661H138.967V42.4367H143.288L148.309 49.6873L150.555 48.0466L150.553 48.0449Z" fill="white"/>
</g>
<defs>
<clipPath id="clip0_15_4443">
<rect width="107.773" height="19.375" fill="white" transform="translate(42.78 30.3125)"/>
</clipPath>
</defs>
</svg>
