<svg width="194" height="65" viewBox="0 0 194 65" fill="none" xmlns="http://www.w3.org/2000/svg">
<g style="mix-blend-mode:luminosity">
<path d="M37.9291 31.1565L40.0253 27.5997L45.6755 36.3999L45.6782 38.0887L45.6597 26.4672C45.6463 26.1832 45.4955 25.9232 45.2548 25.77L35.0824 19.9188C34.8445 19.8019 34.5427 19.8031 34.3053 19.9225C34.2732 19.9386 34.243 19.9561 34.2142 19.9751L34.1788 19.9974L24.3049 25.7193L24.2665 25.7366C24.2173 25.7593 24.1674 25.788 24.1207 25.8215C23.9335 25.9558 23.8092 26.1543 23.7689 26.377C23.7629 26.4107 23.7585 26.4451 23.7563 26.4797L23.7718 35.95L29.0346 27.793C29.6973 26.7113 31.1409 26.3629 32.481 26.3819L34.0539 26.4234L24.7863 41.286L25.8787 41.915L35.2575 26.4385L39.4029 26.4234L30.0483 42.2905L33.9466 44.5327L34.4123 44.8005C34.6093 44.8807 34.8416 44.8846 35.0403 44.813L45.3556 38.8351L43.3834 39.9779L37.9291 31.1565ZM38.7289 42.6754L34.7916 36.4959L37.195 32.4175L42.3659 40.5676L38.7289 42.6754Z" fill="#2D374B"/>
<path d="M34.7896 36.4959L38.7269 42.6754L42.364 40.5677L37.1931 32.4175L34.7896 36.4959Z" fill="white"/>
<path d="M45.6775 38.0891L45.6749 36.4003L40.0247 27.6001L37.9285 31.157L43.3829 39.9783L45.355 38.8356C45.5485 38.6785 45.6655 38.448 45.6778 38.1991L45.6775 38.0891Z" fill="white"/>
<path d="M22.0002 39.681L24.7853 41.2857L34.0529 26.4231L32.48 26.3816C31.1399 26.3626 29.6962 26.711 29.0336 27.7927L23.7708 35.9497L22.0002 38.6701V39.681Z" fill="white"/>
<path d="M39.4015 26.4229L35.2562 26.438L25.8774 41.9145L29.1555 43.802L30.047 42.29L39.4015 26.4229Z" fill="white"/>
<path d="M47.4242 26.4021C47.3896 25.5352 46.9202 24.7415 46.1848 24.2794L35.8792 18.353C35.1518 17.9868 34.2432 17.9863 33.5147 18.3528C33.4286 18.3961 23.4926 24.1587 23.4926 24.1587C23.3551 24.2246 23.2227 24.3031 23.098 24.3923C22.4417 24.8627 22.0416 25.5937 22.0005 26.3969V38.6706L23.771 35.9502L23.7556 26.4799C23.7577 26.4452 23.762 26.4112 23.7682 26.3775C23.8081 26.1547 23.9325 25.9559 24.1199 25.8216C24.1667 25.7881 34.2723 19.9386 34.3045 19.9226C34.542 19.8032 34.8439 19.802 35.0816 19.9189L45.254 25.7701C45.4946 25.9234 45.6455 26.1832 45.6589 26.4674V38.1988C45.6466 38.4476 45.5483 38.6781 45.3548 38.8352L43.3826 39.978L42.3651 40.5677L38.728 42.6754L35.0395 44.813C34.8408 44.8848 34.6086 44.8808 34.4115 44.8006L30.0475 42.2906L29.1561 43.8025L33.0779 46.0605C33.2076 46.1342 33.3232 46.1996 33.418 46.2529C33.5649 46.3352 33.6649 46.3902 33.7002 46.4074C33.979 46.5427 34.38 46.6216 34.7414 46.6216C35.0728 46.6216 35.3959 46.5607 35.7016 46.4409L46.415 40.2365C47.0299 39.7601 47.3917 39.0416 47.4243 38.2633V26.4021H47.4242Z" fill="white"/>
<path d="M63.4513 28.2104C63.7508 28.2104 64.003 28.2715 64.2079 28.3935C64.4131 28.5158 64.614 28.7543 64.8113 29.1092L68.7258 36.2169C68.7652 36.2957 68.7751 36.3605 68.7555 36.4119C68.7359 36.4635 68.6787 36.4886 68.5841 36.4886H67.0821C66.9481 36.4886 66.8576 36.4373 66.8101 36.3351L65.9703 34.8094H60.4122L59.5961 36.3351C59.5409 36.4375 59.4501 36.4886 59.3243 36.4886H57.7872C57.6844 36.4886 57.6234 36.4635 57.6039 36.4119C57.5838 36.3605 57.5937 36.2957 57.6331 36.2169L61.5123 29.1092C61.7093 28.7543 61.9025 28.5158 62.0919 28.3935C62.2811 28.2715 62.5015 28.2104 62.754 28.2104H63.4513ZM61.1568 33.4378H65.2252L63.3448 29.9726C63.3133 29.9176 63.2696 29.8897 63.2146 29.8897H63.1437C63.0885 29.8897 63.0448 29.9176 63.0135 29.9726L61.1568 33.4378Z" fill="white"/>
<path d="M81.1452 28.2107C82.0519 28.2107 82.7022 28.4159 83.0968 28.8257C83.4908 29.2358 83.6879 29.8429 83.6879 30.6468V31.3208C83.6879 31.9988 83.5498 32.5353 83.274 32.9293C82.9976 33.3237 82.5481 33.5759 81.9255 33.6862L83.948 36.1935C83.9874 36.2331 83.9991 36.2921 83.9833 36.3707C83.9673 36.4495 83.9042 36.4889 83.7941 36.4889H82.2682C82.1657 36.4889 82.0946 36.4772 82.0554 36.4538C82.0157 36.4299 81.9766 36.3905 81.9372 36.3353L80.0685 33.8756H76.2489V36.2288C76.2489 36.4025 76.1619 36.4889 75.9888 36.4889H74.7115C74.5302 36.4889 74.4395 36.4025 74.4395 36.2288V28.5654C74.4395 28.3287 74.5579 28.2104 74.7946 28.2104L81.1452 28.2107ZM76.2491 32.4328H80.7791C81.1811 32.4328 81.4651 32.3461 81.6306 32.1727C81.7963 31.9993 81.8792 31.7354 81.8792 31.3803V30.8835C81.8792 30.5288 81.7963 30.2644 81.6306 30.0913C81.4653 29.9181 81.1813 29.8312 80.7791 29.8312H76.4029C76.3005 29.8312 76.2494 29.8785 76.2494 29.9731L76.2491 32.4328Z" fill="white"/>
<path d="M96.9133 28.2107C97.7259 28.2107 98.3032 28.3721 98.646 28.6955C98.9892 29.0187 99.1603 29.5076 99.1603 30.162V30.7297C99.1603 31.392 98.9081 31.8926 98.4037 32.2317C98.9472 32.5472 99.2195 33.0559 99.2195 33.7574V34.4433C99.2195 34.7588 99.1839 35.043 99.113 35.295C99.0421 35.5472 98.9256 35.7618 98.7644 35.9395C98.603 36.1167 98.3879 36.2527 98.1199 36.3473C97.8517 36.4419 97.5204 36.4889 97.1261 36.4889H90.1013C89.8646 36.4889 89.7461 36.3707 89.7461 36.1342V28.5654C89.7461 28.3287 89.8646 28.2104 90.1013 28.2104L96.9133 28.2107ZM91.5558 31.652H96.4051C96.7994 31.652 97.0671 31.5931 97.2093 31.4748C97.3509 31.3564 97.4221 31.1832 97.4221 30.9542V30.5522C97.4221 30.3079 97.3529 30.1284 97.2151 30.014C97.077 29.9001 96.8546 29.8429 96.547 29.8429H91.7096C91.6071 29.8429 91.5558 29.8945 91.5558 29.9965V31.652ZM91.5558 32.9413V34.7034C91.5558 34.8058 91.6071 34.8572 91.7096 34.8572H96.5587C96.8742 34.8572 97.0989 34.7997 97.2326 34.6858C97.3669 34.572 97.4335 34.3881 97.4335 34.1359V33.6864C97.4335 33.4421 97.3605 33.2568 97.2148 33.1307C97.0687 33.0048 96.7989 32.9413 96.4048 32.9413H91.5558Z" fill="white"/>
<path d="M106.727 28.2104C106.9 28.2104 106.987 28.2971 106.987 28.4705V36.2288C106.987 36.4025 106.9 36.4889 106.727 36.4889H105.45C105.268 36.4889 105.178 36.4025 105.178 36.2288V28.4705C105.178 28.2971 105.268 28.2104 105.45 28.2104H106.727Z" fill="white"/>
<path d="M122.215 28.2104C122.397 28.2104 122.487 28.2971 122.487 28.4705V29.6293C122.487 29.8109 122.397 29.9014 122.215 29.9014H118.502V36.2286C118.502 36.4022 118.415 36.4886 118.242 36.4886H116.953C116.779 36.4886 116.693 36.4022 116.693 36.2286V29.9016H112.979C112.798 29.9016 112.707 29.8111 112.707 29.6296V28.4708C112.707 28.2974 112.798 28.2107 112.979 28.2107L122.215 28.2104Z" fill="white"/>
<path d="M134.899 28.2107C135.806 28.2107 136.456 28.4159 136.851 28.8257C137.245 29.2358 137.442 29.8429 137.442 30.6468V31.3208C137.442 31.9988 137.304 32.5353 137.028 32.9293C136.752 33.3237 136.302 33.5759 135.679 33.6862L137.702 36.1935C137.741 36.2331 137.753 36.2921 137.737 36.3707C137.721 36.4495 137.658 36.4889 137.548 36.4889H136.022C135.92 36.4889 135.849 36.4772 135.809 36.4538C135.77 36.4299 135.731 36.3905 135.691 36.3353L133.822 33.8756H130.003V36.2288C130.003 36.4025 129.916 36.4889 129.743 36.4889H128.465C128.284 36.4889 128.193 36.4025 128.193 36.2288V28.5654C128.193 28.3287 128.312 28.2104 128.549 28.2104L134.899 28.2107ZM130.003 32.4328H134.533C134.935 32.4328 135.219 32.3461 135.384 32.1727C135.55 31.9993 135.633 31.7354 135.633 31.3803V30.8835C135.633 30.5288 135.55 30.2644 135.384 30.0913C135.219 29.9181 134.935 29.8312 134.533 29.8312H130.157C130.054 29.8312 130.003 29.8785 130.003 29.9731L130.003 32.4328Z" fill="white"/>
<path d="M144.876 28.2104C145.05 28.2104 145.136 28.2971 145.136 28.4705V33.1894C145.136 33.5049 145.162 33.767 145.213 33.9758C145.264 34.1847 145.349 34.3505 145.467 34.4723C145.586 34.5948 145.746 34.6815 145.947 34.7324C146.147 34.784 146.402 34.8094 146.709 34.8094H149.985C150.293 34.8094 150.547 34.784 150.748 34.7324C150.949 34.6813 151.108 34.5946 151.227 34.4723C151.345 34.3503 151.428 34.1845 151.475 33.9758C151.523 33.767 151.546 33.5047 151.546 33.1894V28.4705C151.546 28.2971 151.633 28.2104 151.806 28.2104H153.096C153.269 28.2104 153.356 28.2971 153.356 28.4705V33.3666C153.356 33.9343 153.297 34.4171 153.178 34.8155C153.06 35.2136 152.869 35.5368 152.605 35.7854C152.34 36.0338 151.998 36.2133 151.576 36.3234C151.154 36.4342 150.643 36.4889 150.044 36.4889H146.638C146.038 36.4889 145.53 36.434 145.112 36.3234C144.694 36.213 144.353 36.0338 144.089 35.7854C143.825 35.537 143.632 35.2139 143.509 34.8155C143.387 34.4171 143.326 33.9343 143.326 33.3666V28.4705C143.326 28.2971 143.417 28.2104 143.598 28.2104H144.876Z" fill="white"/>
<path d="M161.782 28.2104C161.956 28.2104 162.105 28.2221 162.231 28.2458C162.358 28.2694 162.468 28.3149 162.562 28.3818C162.657 28.4487 162.742 28.5397 162.817 28.6538C162.891 28.768 162.968 28.9198 163.048 29.1089L165.507 34.7855C165.538 34.8567 165.594 34.892 165.673 34.892H165.814C165.893 34.892 165.949 34.8567 165.98 34.7855L168.44 29.1089C168.519 28.9195 168.596 28.7677 168.671 28.6538C168.745 28.5397 168.83 28.4487 168.924 28.3818C169.019 28.3149 169.127 28.2694 169.25 28.2458C169.372 28.2219 169.52 28.2104 169.694 28.2104H170.959C171.369 28.2104 171.645 28.3032 171.787 28.4883C171.929 28.6737 172 28.991 172 29.4404V36.2288C172 36.4025 171.909 36.4889 171.728 36.4889H170.522C170.348 36.4889 170.262 36.4025 170.262 36.2288V30.0552C170.262 29.9766 170.23 29.937 170.167 29.937H170.06C169.982 29.937 169.93 29.9688 169.907 30.0316L167.518 35.3301C167.423 35.5426 167.327 35.7226 167.228 35.8681C167.129 36.0142 167.023 36.1342 166.909 36.2286C166.795 36.3231 166.665 36.3903 166.519 36.4297C166.373 36.4693 166.201 36.4886 166.004 36.4886H165.437C165.239 36.4886 165.068 36.4693 164.923 36.4297C164.776 36.3903 164.646 36.3231 164.532 36.2286C164.418 36.1342 164.311 36.014 164.213 35.8681C164.114 35.7224 164.018 35.5426 163.923 35.3301L161.534 30.0316C161.511 29.9685 161.46 29.937 161.381 29.937H161.274C161.211 29.937 161.18 29.9766 161.18 30.0552V36.2288C161.18 36.4025 161.093 36.4889 160.92 36.4889H159.713C159.532 36.4889 159.441 36.4025 159.441 36.2288V29.4404C159.441 28.9912 159.513 28.6739 159.654 28.4883C159.796 28.3032 160.076 28.2104 160.494 28.2104H161.782Z" fill="white"/>
</g>
</svg>
