<svg width="194" height="65" viewBox="0 0 194 65" fill="none" xmlns="http://www.w3.org/2000/svg">
<g clip-path="url(#clip0_3_5934)">
<path d="M115.786 42.3346H133.694L131.54 37.3301H121.894V33.964H129.384V29.3235H121.895V26.1082H131.537L133.699 21.1378L115.786 21.1045V42.3346ZM77.9698 21.1045L79.8957 26.0082H84.0506V42.3346H89.739V26.0082H93.958L95.8822 21.1045H77.9698ZM69.1219 37.4492C70.8154 37.4492 71.7908 36.7695 71.7908 35.5583V35.5C71.7908 34.3772 70.9295 33.6392 69.0644 33.6392H64.8171V37.4492H69.1219ZM68.3181 29.6225C70.0115 29.6225 70.9586 29.0311 70.9586 27.8208V27.7617C70.9586 26.6396 70.0973 25.9891 68.433 25.9891H64.8179V29.6225H68.3181ZM95.8197 38.9327L98.9484 35.1502C100.948 36.7628 103.177 37.6133 105.524 37.6133C107.031 37.6133 107.842 37.0852 107.842 36.2056V36.1473C107.842 35.2976 107.176 34.8278 104.424 34.1823C100.107 33.186 96.776 31.954 96.776 27.7317V27.6734C96.7751 23.86 99.7597 21.1045 104.626 21.1045C108.074 21.1045 110.768 22.0433 112.969 23.8317L110.159 27.8491C108.305 26.5288 106.278 25.825 104.481 25.825C103.12 25.825 102.454 26.4122 102.454 27.1453V27.2036C102.454 28.1423 103.149 28.553 105.959 29.1977C110.623 30.2239 113.52 31.7483 113.52 35.59V35.6483C113.52 39.8423 110.246 42.3346 105.321 42.3346C101.73 42.3346 98.3112 41.1909 95.8197 38.9327ZM59.3936 21.3819H69.6958C72.2206 21.3819 73.9998 22.0316 75.1768 23.2427C75.9798 24.0699 76.468 25.1628 76.468 26.5805V26.6388C76.468 29.0319 75.1477 30.4488 73.3693 31.2468C75.8082 32.074 77.3576 33.4917 77.3576 36.2972V36.3563C77.3576 39.9007 74.5454 42.0572 69.7525 42.0572H59.3944V21.3827L59.3936 21.3819Z" fill="white"/>
</g>
<defs>
<clipPath id="clip0_3_5934">
<rect width="74.9681" height="22.4904" fill="white" transform="translate(59.1826 21.1045)"/>
</clipPath>
</defs>
</svg>
