<svg width="194" height="80" viewBox="0 0 194 80" fill="none" xmlns="http://www.w3.org/2000/svg">
<g clip-path="url(#clip0_15_4638)">
<path d="M49.345 31.5625V34.9797C48.9363 35.0596 48.5786 35.1143 48.2279 35.1996C45.9498 35.7498 44.3827 37.8718 44.4987 40.2397C44.6138 42.5995 46.3497 44.5446 48.6436 44.8839C51.4482 45.2986 53.9373 43.2933 54.2097 40.412C54.222 40.2792 54.3618 40.0521 54.4461 40.0503C55.4674 40.0251 56.4896 40.0341 57.5513 40.0341C57.641 40.8563 57.474 41.6103 57.2622 42.349C56.3182 45.6424 53.5795 47.9573 50.2054 48.3406C50.0929 48.3531 49.9839 48.4043 49.8732 48.4384H48.8185C48.6937 48.4034 48.5698 48.3495 48.4432 48.337C45.0304 47.9824 42.1256 45.3632 41.3557 41.9343C41.252 41.4721 41.1738 41.0035 41.0833 40.5386V39.4614C41.1175 39.3331 41.1641 39.2065 41.1826 39.0755C41.6774 35.5479 43.5776 33.1917 46.8638 32.0212C47.4914 31.7977 48.1655 31.7115 48.8176 31.5625H49.345Z" fill="white"/>
<path d="M57.6067 31.5625C57.5997 33.3416 57.5794 35.1206 57.5944 36.8997C57.5979 37.3206 57.5003 37.4679 57.0635 37.4598C55.5123 37.4328 53.9592 37.4499 52.4071 37.4481C52.2498 37.4481 52.0933 37.4337 51.8938 37.423V31.5625H57.6067Z" fill="white"/>
<path d="M153.583 42.2437C153.146 43.741 152.022 44.2652 150.633 44.4169C149.147 44.5793 147.778 44.2939 146.585 43.3263C146.437 43.206 146.3 43.0695 146.163 42.9358C146.112 42.8864 146.075 42.8218 146.011 42.7365C146.297 42.4816 146.57 42.2384 146.862 41.9781C146.998 42.1001 147.117 42.2078 147.237 42.3147C148.368 43.3263 149.677 43.5246 151.099 43.1862C151.268 43.1458 151.433 43.0713 151.586 42.9888C152.102 42.7096 152.334 42.25 152.268 41.6513C152.206 41.0984 151.856 40.7923 151.362 40.6882C150.576 40.5212 149.777 40.418 148.989 40.2582C148.562 40.1712 148.127 40.068 147.729 39.892C145.986 39.121 146.164 36.8034 147.413 36.0099C147.884 35.711 148.445 35.4929 148.992 35.4013C150.325 35.1769 151.622 35.3223 152.768 36.1544C152.979 36.3079 153.171 36.4883 153.397 36.6777C153.117 36.9793 152.87 37.2459 152.586 37.5529C151.932 36.798 151.125 36.473 150.222 36.4506C149.704 36.4371 149.167 36.4901 148.666 36.6238C148.039 36.7908 147.745 37.2836 147.772 37.8966C147.797 38.463 148.103 38.8481 148.757 38.9872C149.629 39.1739 150.514 39.2978 151.392 39.4549C152.444 39.6434 153.244 40.1577 153.583 41.2546V42.242V42.2437Z" fill="white"/>
<path d="M96.8331 40.2148H90.5226C90.2545 41.3871 90.846 42.5962 91.884 43.0629C93.2437 43.6742 94.5928 43.2299 95.5675 41.8162C95.8294 41.9903 96.1098 42.1465 96.3462 42.3556C96.4139 42.4149 96.4042 42.6581 96.3427 42.7622C95.7828 43.7029 94.9417 44.2361 93.8879 44.3887C91.0798 44.7962 89.1207 43.0638 89.0671 40.1628C89.0487 39.1584 89.177 38.1925 89.6525 37.3003C90.4514 35.8031 92 35.0662 93.7042 35.3624C95.2423 35.629 96.4394 36.8784 96.7022 38.5363C96.7857 39.0614 96.7883 39.6 96.834 40.2148H96.8331ZM95.3838 39.1898C95.3856 38.1369 95.1026 37.2779 94.2263 36.7339C93.401 36.2214 92.2312 36.3129 91.4569 36.9296C90.7423 37.4978 90.4083 38.2419 90.469 39.1898H95.3838Z" fill="white"/>
<path d="M143.01 41.8184C143.12 41.8875 143.232 41.9548 143.341 42.0284C144.043 42.5032 144.059 42.5598 143.468 43.2124C142.343 44.4528 140.924 44.6826 139.397 44.3101C137.834 43.9295 136.973 42.7968 136.644 41.2547C136.341 39.8311 136.437 38.4227 137.186 37.1311C137.998 35.7326 139.597 35.0432 141.198 35.3753C142.805 35.7093 143.936 36.9605 144.167 38.6767C144.216 39.0457 144.209 39.4227 144.251 39.7934C144.291 40.1434 144.139 40.2206 143.825 40.2188C142.039 40.2072 140.253 40.2134 138.467 40.2143C138.294 40.2143 138.121 40.2143 137.96 40.2143C137.666 41.2475 138.24 42.5131 139.193 42.9996C140.559 43.6971 141.958 43.268 143.01 41.8184ZM142.82 39.1866C142.819 38.0942 142.52 37.211 141.577 36.6868C140.705 36.2011 139.537 36.3501 138.782 37.018C138.137 37.5879 137.846 38.3087 137.902 39.1866H142.82Z" fill="white"/>
<path d="M107.59 35.5163C108.304 35.5163 108.976 35.5217 109.649 35.5145C110.284 35.5073 110.454 35.3359 110.467 34.686C110.479 34.0882 110.497 33.4886 110.471 32.8917C110.454 32.5093 110.593 32.3837 110.95 32.416C111.194 32.4384 111.441 32.4205 111.741 32.4205V35.5029H115.632V36.6626H111.772V43.0661C111.945 43.0751 112.101 43.0903 112.256 43.0903C113.267 43.0921 114.278 43.0993 115.288 43.0858C115.572 43.0822 115.676 43.1738 115.671 43.4691C115.654 44.3856 115.738 44.2455 114.937 44.2518C114.073 44.259 113.209 44.2626 112.345 44.25C111.091 44.233 110.45 43.5885 110.438 42.3049C110.422 40.63 110.432 38.9551 110.432 37.2792C110.432 37.1015 110.432 36.9238 110.432 36.6904H107.593V35.5154L107.59 35.5163Z" fill="white"/>
<path d="M124.712 44.2242H123.454V42.832C123.324 42.9882 123.254 43.0475 123.215 43.1238C122.694 44.1327 121.824 44.4998 120.769 44.4567C119.669 44.4127 118.765 43.9531 118.305 42.8859C118.097 42.4057 117.967 41.8536 117.954 41.3303C117.91 39.492 117.932 37.6519 117.932 35.8128C117.932 35.7275 117.959 35.6413 117.977 35.5381H119.215C119.225 35.705 119.243 35.8621 119.243 36.0192C119.244 37.4994 119.243 38.9804 119.244 40.4606C119.244 40.7146 119.251 40.9695 119.273 41.2217C119.403 42.8051 120.354 43.5277 121.891 43.2144C122.961 42.9963 123.437 42.4021 123.438 41.2792C123.438 39.5441 123.438 37.8099 123.438 36.0749C123.438 35.9124 123.438 35.749 123.438 35.5515H124.712V44.2242Z" fill="white"/>
<path d="M99.0639 35.5378H100.381V36.8429C100.46 36.816 100.499 36.8151 100.507 36.798C101.207 35.3394 102.44 35.1707 103.609 35.3825C104.856 35.6087 105.761 36.6005 105.817 37.9927C105.901 40.05 105.838 42.1136 105.838 44.2455C105.469 44.2455 105.108 44.2706 104.755 44.2266C104.673 44.2158 104.563 43.9681 104.561 43.8281C104.547 42.2133 104.556 40.5976 104.549 38.9828C104.548 38.6857 104.532 38.3832 104.479 38.0915C104.301 37.1104 103.708 36.5404 102.737 36.518C102.267 36.5072 101.771 36.6005 101.33 36.7666C100.699 37.0036 100.381 37.5179 100.386 38.2342C100.396 39.9989 100.389 41.7636 100.388 43.5283C100.388 43.7482 100.388 43.969 100.388 44.2463C99.9867 44.2463 99.6396 44.2517 99.2933 44.2446C98.983 44.2383 99.0656 43.9869 99.0648 43.8128C99.0595 42.198 99.0612 40.5823 99.0612 38.9675C99.0612 37.9954 99.0612 37.0233 99.0612 36.0512C99.0612 35.8914 99.0612 35.7317 99.0612 35.5378H99.0639Z" fill="white"/>
<path d="M127.199 44.2084V43.1016H129.686C129.686 42.0011 129.686 40.9447 129.686 39.8882C129.686 38.8317 129.686 37.795 129.686 36.6945H127.204V35.5509H130.987V37.6038C131.023 37.6163 131.06 37.6289 131.096 37.6406C131.392 36.8094 131.844 36.1263 132.661 35.7673C133.461 35.4154 134.295 35.5321 135.158 35.524V36.8561C134.567 36.8561 133.987 36.8444 133.408 36.8588C132.305 36.8866 131.421 37.5248 131.124 38.4987C131.073 38.6692 131.019 38.8478 131.018 39.0238C131.009 40.3522 131.014 41.6807 131.014 43.0765H134.312V44.2075H127.201L127.199 44.2084Z" fill="white"/>
<path d="M71.2604 37.322C70.9238 37.5069 70.6074 37.6811 70.2594 37.8732C69.9509 37.2089 69.5167 36.744 68.8276 36.5546C67.1779 36.1013 65.7444 37.1443 65.6803 38.8839C65.6539 39.5858 65.6521 40.2904 65.6882 40.9914C65.7444 42.0874 66.3403 42.8746 67.2843 43.178C68.3662 43.5245 69.449 43.2238 70.1073 42.3863C70.2435 42.2131 70.3587 42.0219 70.5081 41.8029C70.8008 42.0057 71.0882 42.2032 71.4028 42.4204C71.1936 42.9913 70.8271 43.4249 70.3701 43.7785C68.6299 45.1231 65.8314 44.4894 64.8119 42.5263C63.8003 40.5776 64.18 37.6362 65.5669 36.2413C66.8527 34.9479 70.2831 34.7576 71.2604 37.3229V37.322Z" fill="white"/>
<path d="M87.3567 35.5165C87.064 36.3468 86.7924 37.116 86.5217 37.8844C85.8248 39.8672 85.1225 41.8482 84.4361 43.8346C84.3359 44.1237 84.2199 44.2619 83.8876 44.2637C82.6124 44.2682 82.6088 44.2834 82.1729 43.0501C81.3441 40.7038 80.5197 38.3556 79.6953 36.0066C79.6469 35.8693 79.6126 35.7257 79.552 35.5174C79.9554 35.5174 80.3175 35.4878 80.67 35.5345C80.7869 35.5497 80.9249 35.7463 80.9741 35.8881C81.6921 37.9903 82.3961 40.097 83.1045 42.2019C83.2012 42.49 83.3058 42.7764 83.5053 43.0663C83.5748 42.8787 83.6477 42.692 83.7119 42.5026C84.4405 40.3411 85.1814 38.1851 85.8819 36.0138C86.0137 35.6045 86.1913 35.4591 86.5903 35.5111C86.817 35.5407 87.0508 35.5165 87.3576 35.5165H87.3567Z" fill="white"/>
<path d="M74.0403 34.1691C73.76 34.0632 73.5024 33.9663 73.2124 33.8568C73.4427 33.0507 73.9674 32.5732 74.7083 32.4242C75.197 32.3254 75.741 32.3174 76.2244 32.4287C77.4698 32.715 77.998 34.1979 77.2272 35.2759C76.8546 35.7974 76.3378 36.2175 75.857 36.6492C75.4246 37.0361 74.9518 37.3745 74.4956 37.7344L74.5325 37.8412H77.7458V38.6356H73.3047C73.1913 38.0791 73.2449 37.6429 73.7661 37.2856C74.3831 36.8628 74.9544 36.362 75.5072 35.8521C75.8263 35.5568 76.1304 35.2095 76.3325 34.8253C76.6331 34.2526 76.4538 33.6054 76.0187 33.3541C75.5081 33.0588 74.6898 33.2114 74.3444 33.6745C74.239 33.8155 74.1581 33.9743 74.0395 34.17L74.0403 34.1691Z" fill="white"/>
</g>
<defs>
<clipPath id="clip0_15_4638">
<rect width="112.5" height="16.875" fill="white" transform="translate(41.0833 31.5625)"/>
</clipPath>
</defs>
</svg>
