<svg width="194" height="80" viewBox="0 0 194 80" fill="none" xmlns="http://www.w3.org/2000/svg">
<g clip-path="url(#clip0_15_4471)">
<path d="M95.4838 36.3916H96.8801L100.085 44.6324H100.114L103.422 36.3916H104.731L100.658 46.4173H99.4667L95.4819 36.3916H95.4838Z" fill="white"/>
<path d="M111.147 44.9603C110.736 45.5008 110.284 45.8782 109.795 46.0933C109.304 46.3084 108.736 46.4159 108.089 46.4159C107.551 46.4159 107.065 46.3186 106.634 46.1229C106.202 45.9282 105.837 45.6649 105.538 45.3348C105.239 45.0048 105.009 44.6144 104.847 44.1647C104.685 43.715 104.604 43.2348 104.604 42.7239C104.604 42.1833 104.692 41.6864 104.869 41.2311C105.045 40.7759 105.29 40.3855 105.604 40.061C105.917 39.7365 106.29 39.4834 106.721 39.3035C107.153 39.1236 107.622 39.0337 108.133 39.0337C108.614 39.0337 109.054 39.1162 109.456 39.2812C109.857 39.4463 110.203 39.6864 110.492 40.0017C110.781 40.3169 111.005 40.7017 111.161 41.1569C111.317 41.6122 111.396 42.1296 111.396 42.71V43.0855H105.839C105.858 43.3859 105.93 43.6733 106.052 43.9487C106.175 44.2241 106.334 44.4642 106.53 44.6691C106.727 44.874 106.956 45.0363 107.222 45.1568C107.486 45.2764 107.775 45.3367 108.089 45.3367C108.589 45.3367 109.011 45.2468 109.354 45.0669C109.697 44.887 110.005 44.6218 110.281 44.2714L111.148 44.9612L111.147 44.9603ZM110.163 42.0943C110.143 41.4944 109.952 41.0142 109.589 40.6535C109.227 40.2937 108.726 40.1129 108.089 40.1129C107.452 40.1129 106.937 40.2928 106.546 40.6535C106.153 41.0132 105.918 41.4935 105.84 42.0943H110.163Z" fill="white"/>
<path d="M112.873 41.0599C112.873 40.7401 112.863 40.4397 112.844 40.1596C112.824 39.8796 112.815 39.6247 112.815 39.3947H113.903C113.903 39.5848 113.908 39.7749 113.918 39.9649C113.928 40.155 113.932 40.3497 113.932 40.55H113.961C114.039 40.3803 114.15 40.2153 114.292 40.0549C114.434 39.8954 114.603 39.7526 114.799 39.6274C114.995 39.5023 115.215 39.4021 115.46 39.327C115.706 39.2519 115.97 39.2148 116.254 39.2148C116.705 39.2148 117.095 39.2853 117.424 39.4253C117.752 39.5653 118.024 39.761 118.239 40.0104C118.455 40.2607 118.615 40.563 118.717 40.9181C118.82 41.2732 118.872 41.6608 118.872 42.0808V46.4172H117.725V42.2004C117.725 41.6107 117.598 41.1452 117.343 40.805C117.087 40.4647 116.69 40.295 116.152 40.295C115.779 40.295 115.458 40.3599 115.189 40.4897C114.919 40.6195 114.698 40.805 114.527 41.0451C114.356 41.2852 114.228 41.5699 114.145 41.9C114.061 42.23 114.019 42.5954 114.019 42.995V46.4163H112.873V41.0599Z" fill="white"/>
<path d="M124.569 40.2038H122.279V43.7151C122.279 43.945 122.283 44.1573 122.293 44.353C122.303 44.5477 122.342 44.7183 122.41 44.8629C122.478 45.0085 122.582 45.1235 122.719 45.2078C122.856 45.2931 123.053 45.3358 123.307 45.3358C123.473 45.3358 123.645 45.3163 123.821 45.2755C123.998 45.2357 124.165 45.1754 124.321 45.0957L124.365 46.161C124.169 46.2509 123.951 46.3158 123.711 46.3557C123.471 46.3956 123.243 46.416 123.027 46.416C122.616 46.416 122.287 46.3613 122.042 46.2509C121.797 46.1406 121.606 45.9858 121.469 45.7855C121.332 45.5852 121.241 45.3376 121.197 45.0428C121.153 44.748 121.131 44.4197 121.131 44.06V40.2038H120.199V39.2136H121.131V36.9346H122.278V39.2136H124.568V40.2038H124.569Z" fill="white"/>
<path d="M131.84 44.5711C131.84 44.891 131.85 45.1914 131.869 45.4714C131.888 45.7514 131.898 46.0064 131.898 46.2364H130.81C130.81 46.0463 130.804 45.8562 130.795 45.6661C130.785 45.4761 130.781 45.2814 130.781 45.0811H130.752C130.673 45.2517 130.563 45.4167 130.421 45.5762C130.278 45.7366 130.109 45.8785 129.914 46.0036C129.718 46.1288 129.497 46.229 129.253 46.3041C129.007 46.3792 128.743 46.4162 128.459 46.4162C128.008 46.4162 127.618 46.3458 127.289 46.2058C126.96 46.0658 126.689 45.8711 126.473 45.6207C126.258 45.3704 126.098 45.0681 125.996 44.713C125.893 44.3579 125.841 43.9703 125.841 43.5503V39.2139H126.988V43.4307C126.988 44.0213 127.115 44.4858 127.37 44.8261C127.624 45.1664 128.022 45.3361 128.561 45.3361C128.934 45.3361 129.254 45.2712 129.524 45.1414C129.794 45.0116 130.014 44.8261 130.186 44.586C130.357 44.3458 130.485 44.0612 130.568 43.7311C130.652 43.401 130.693 43.0357 130.693 42.6361V39.2148H131.84V44.5711Z" fill="white"/>
<path d="M134.061 41.0599C134.061 40.7401 134.051 40.4397 134.032 40.1596C134.012 39.8796 134.003 39.6247 134.003 39.3947H135.092C135.092 39.5848 135.096 39.7749 135.106 39.9649C135.116 40.155 135.121 40.3497 135.121 40.55H135.15C135.228 40.3803 135.339 40.2153 135.48 40.0549C135.622 39.8954 135.791 39.7526 135.987 39.6274C136.184 39.5023 136.403 39.4021 136.649 39.327C136.894 39.2519 137.158 39.2148 137.443 39.2148C137.521 39.2148 137.599 39.2204 137.678 39.2297C137.756 39.2399 137.834 39.2593 137.913 39.2899L137.84 40.4758C137.644 40.4155 137.438 40.3859 137.222 40.3859C136.516 40.3859 136.004 40.6186 135.686 41.084C135.367 41.5495 135.208 42.1865 135.208 42.9968V46.4181H134.061V41.0618V41.0599Z" fill="white"/>
<path d="M144.83 44.9603C144.418 45.5008 143.967 45.8782 143.477 46.0933C142.987 46.3084 142.419 46.4159 141.772 46.4159C141.233 46.4159 140.747 46.3186 140.317 46.1229C139.885 45.9282 139.52 45.6649 139.221 45.3348C138.922 45.0048 138.691 44.6144 138.529 44.1647C138.368 43.715 138.287 43.2348 138.287 42.7239C138.287 42.1833 138.375 41.6864 138.551 41.2311C138.728 40.7759 138.973 40.3855 139.286 40.061C139.6 39.7365 139.972 39.4834 140.404 39.3035C140.835 39.1236 141.305 39.0337 141.816 39.0337C142.296 39.0337 142.737 39.1162 143.138 39.2812C143.54 39.4463 143.886 39.6864 144.175 40.0017C144.464 40.3169 144.687 40.7017 144.844 41.1569C145 41.6122 145.079 42.1296 145.079 42.71V43.0855H139.522C139.541 43.3859 139.612 43.6733 139.735 43.9487C139.858 44.2241 140.017 44.4642 140.213 44.6691C140.409 44.874 140.639 45.0363 140.904 45.1568C141.169 45.2764 141.458 45.3367 141.772 45.3367C142.272 45.3367 142.693 45.2468 143.037 45.0669C143.38 44.887 143.688 44.6218 143.963 44.2714L144.831 44.9612L144.83 44.9603ZM143.845 42.0943C143.825 41.4944 143.634 41.0142 143.272 40.6535C142.909 40.2937 142.409 40.1129 141.772 40.1129C141.135 40.1129 140.62 40.2928 140.228 40.6535C139.836 41.0132 139.601 41.4935 139.522 42.0943H143.845Z" fill="white"/>
<path d="M146.862 44.3904C147.087 44.6806 147.334 44.9106 147.604 45.0803C147.874 45.2509 148.214 45.3352 148.626 45.3352C148.802 45.3352 148.981 45.3158 149.163 45.275C149.345 45.2351 149.508 45.1702 149.655 45.0803C149.802 44.9903 149.92 44.8781 150.008 44.7428C150.096 44.6074 150.14 44.4451 150.14 44.2551C150.14 44.065 150.099 43.9101 150.015 43.7896C149.931 43.67 149.822 43.5671 149.684 43.4818C149.547 43.3965 149.39 43.3297 149.214 43.2797C149.037 43.2296 148.856 43.1851 148.67 43.1443C148.346 43.0748 148.037 42.9941 147.743 42.9042C147.448 42.8142 147.191 42.6965 146.971 42.5518C146.75 42.4072 146.574 42.2199 146.441 41.989C146.308 41.7591 146.243 41.4642 146.243 41.1036C146.243 40.7633 146.316 40.4638 146.464 40.2033C146.611 39.9436 146.807 39.7285 147.051 39.5579C147.297 39.3883 147.571 39.2575 147.875 39.1676C148.178 39.0777 148.492 39.0322 148.816 39.0322C149.305 39.0322 149.759 39.1324 150.176 39.3326C150.592 39.5329 150.918 39.8574 151.153 40.308L150.198 40.9534C150.05 40.703 149.857 40.5009 149.617 40.346C149.377 40.1912 149.086 40.1133 148.742 40.1133C148.585 40.1133 148.426 40.1337 148.264 40.1736C148.103 40.2135 147.958 40.2737 147.831 40.3535C147.704 40.4332 147.598 40.5361 147.515 40.6613C147.431 40.7865 147.389 40.9292 147.389 41.0887C147.389 41.2389 147.436 41.366 147.529 41.4717C147.622 41.5764 147.75 41.6691 147.912 41.7489C148.074 41.8286 148.26 41.8991 148.471 41.9593C148.681 42.0196 148.899 42.0697 149.125 42.1096C149.428 42.1698 149.718 42.2468 149.992 42.3423C150.267 42.4378 150.507 42.5648 150.713 42.7252C150.919 42.8856 151.081 43.085 151.198 43.3251C151.315 43.5652 151.374 43.8601 151.374 44.2106C151.374 44.6111 151.296 44.9514 151.139 45.2305C150.982 45.5105 150.774 45.7386 150.514 45.9129C150.254 46.0881 149.96 46.2151 149.632 46.2958C149.303 46.3755 148.967 46.4154 148.624 46.4154C148.036 46.4154 147.528 46.3227 147.102 46.1382C146.676 45.9527 146.291 45.6106 145.948 45.1099L146.86 44.3895L146.862 44.3904Z" fill="white"/>
<path d="M75.7316 41.7589C75.7316 40.0167 74.3479 38.6037 72.6399 38.6037C70.9319 38.6037 69.5482 40.0167 69.5482 41.7589C69.5482 43.5011 70.9319 44.9141 72.6399 44.9141C74.3479 44.9141 75.7316 43.5011 75.7316 41.7589ZM90.5796 41.7589C90.5778 44.5145 88.6562 46.8788 86.0025 47.3906C83.3496 47.9024 80.7149 46.4161 79.7273 43.8515L81.8669 41.668V41.7589C81.8687 43.2609 82.9098 44.5525 84.3544 44.8445C85.798 45.1357 87.2426 44.3457 87.805 42.9577C88.3673 41.5697 87.8913 39.9694 86.6666 39.1349C85.4428 38.3005 83.812 38.4646 82.7708 39.5262L76.6347 45.7875C75.0348 47.4462 72.6109 47.9525 70.5004 47.0679C68.3908 46.1843 67.0144 44.0852 67.018 41.7579V33.71C67.0607 33.0294 67.614 32.5 68.2827 32.5C68.9513 32.5 69.5037 33.0294 69.5473 33.71V36.9292C71.1036 35.8824 73.0669 35.6923 74.7895 36.4201C76.5111 37.148 77.7676 38.6992 78.1437 40.5619L80.9829 37.6644C82.5946 36.0187 85.0222 35.53 87.1254 36.4276C89.2295 37.3251 90.5932 39.4316 90.5778 41.7589H90.5796ZM66.1785 41.7589C66.1831 44.5172 64.2625 46.8881 61.6059 47.3999C58.9503 47.9126 56.3138 46.4208 55.3317 43.8515L57.4713 41.668V41.7589C57.4731 43.2609 58.5151 44.5525 59.9588 44.8445C61.4024 45.1357 62.847 44.3457 63.4093 42.9577C63.9717 41.5697 63.4957 39.9694 62.271 39.1349C61.0472 38.3005 59.4164 38.4646 58.3752 39.5262L52.2182 45.8144C50.0232 48.0545 46.4645 48.0535 44.2695 45.8144C42.0745 43.5743 42.0745 39.9425 44.2695 37.7024C46.4645 35.4624 50.0223 35.4624 52.2182 37.7024C52.5598 38.0251 52.7015 38.5137 52.5852 38.9745C52.4689 39.4353 52.1146 39.7932 51.6631 39.9073C51.2106 40.0213 50.7337 39.8739 50.4202 39.5216C49.2119 38.2931 47.2558 38.2949 46.0502 39.5271C44.8446 40.7584 44.8446 42.7547 46.0502 43.986C47.2558 45.2182 49.211 45.2201 50.4202 43.9915L56.5882 37.6802C58.1972 36.0344 60.6202 35.5439 62.7225 36.4378C64.8248 37.3316 66.1903 39.4335 66.1776 41.7579L66.1785 41.7589Z" fill="white"/>
</g>
<defs>
<clipPath id="clip0_15_4471">
<rect width="108.75" height="15" fill="white" transform="translate(42.625 32.5)"/>
</clipPath>
</defs>
</svg>
