<svg width="194" height="80" viewBox="0 0 194 80" fill="none" xmlns="http://www.w3.org/2000/svg">
<g clip-path="url(#clip0_15_4734)">
<path d="M90.4049 47.7263C90.2943 47.7263 90.2163 47.7263 90.1371 47.7263C88.6684 47.7263 87.2011 47.7225 85.7324 47.7315C85.5174 47.7328 85.3904 47.6685 85.2722 47.4783C84.4008 46.0862 83.5169 44.7031 82.6355 43.3174C82.5764 43.2249 82.5374 43.1156 82.4179 43.0385C82.3576 43.1298 82.2947 43.2172 82.2381 43.3084C81.3818 44.698 80.523 46.0862 79.673 47.4783C79.5674 47.6518 79.4568 47.7328 79.2443 47.7315C77.9667 47.7199 76.6905 47.7263 75.413 47.7251C75.3363 47.7251 75.2558 47.7456 75.1678 47.6981C75.1803 47.5605 75.3099 47.4796 75.3413 47.3356C75.2244 47.3009 75.1401 47.3831 75.0483 47.4204C73.0151 48.2598 70.9454 48.3472 68.8556 47.6878C67.4348 47.2392 66.2679 46.3908 65.3412 45.2018C65.2972 45.1453 65.2519 45.0913 65.2067 45.036C65.2004 45.0283 65.1891 45.027 65.1778 45.0206C65.13 45.0064 65.1073 45.0476 65.0847 45.0759C64.0851 46.2803 62.7837 46.968 61.3138 47.369C60.3846 47.6222 59.4352 47.7109 58.4784 47.7135C56.6878 47.7186 54.8985 47.7148 53.108 47.7148C53.0577 47.7148 53.0074 47.7122 52.9571 47.7148C52.8427 47.7212 52.7899 47.6698 52.7962 47.5515C52.8 47.4796 52.7962 47.4076 52.7962 47.3356C52.7962 42.4498 52.7962 37.5627 52.7962 32.6769C52.7962 32.2476 52.761 32.299 53.1671 32.299C54.9174 32.2977 56.6664 32.3003 58.4167 32.299C59.5685 32.2977 60.7014 32.416 61.8067 32.7669C63.0829 33.1718 64.1894 33.8441 65.0596 34.8942C65.086 34.9251 65.1149 34.9534 65.1438 34.9816C65.1501 34.9881 65.1614 34.9893 65.174 34.9932C65.262 34.9765 65.2897 34.8891 65.3375 34.8274C66.6087 33.1846 68.2672 32.2399 70.2941 31.9674C71.8747 31.754 73.42 31.9134 74.9264 32.4545C75.0106 32.4854 75.0974 32.5098 75.1804 32.5368C75.2809 32.4468 75.1225 32.3954 75.1804 32.3029C75.242 32.2682 75.3312 32.29 75.4167 32.29C76.8653 32.2887 78.3125 32.2926 79.761 32.2836C79.9647 32.2836 80.0855 32.3427 80.1961 32.5214C80.9116 33.6744 81.6383 34.8197 82.3626 35.9662C82.4167 36.0524 82.472 36.1372 82.5261 36.2208C82.6443 36.2002 82.6619 36.0961 82.7059 36.0228C83.4188 34.8557 84.1318 33.6911 84.8346 32.5175C84.9365 32.3478 85.0409 32.281 85.2395 32.2823C86.5573 32.2926 87.8738 32.2874 89.1915 32.2874H89.4178C89.3814 32.4378 89.2971 32.5278 89.2318 32.6268C87.8021 34.8107 86.3699 36.9933 84.9403 39.1772C84.7479 39.4715 84.7429 39.3828 84.9415 39.6759C86.7006 42.2518 88.4622 44.8252 90.2226 47.4011C90.2842 47.4911 90.3647 47.5721 90.4011 47.7289L90.4049 47.7263ZM75.3903 37.5884C75.2734 37.5241 75.2306 37.4277 75.1665 37.3506C74.7126 36.8043 74.192 36.3442 73.5508 36.0408C72.78 35.6745 71.9715 35.5986 71.1366 35.7246C69.8515 35.9187 68.8909 36.5897 68.3162 37.7799C67.6825 39.0936 67.6712 40.4497 68.1955 41.8045C68.6595 43.0051 69.5258 43.7558 70.7443 44.0822C71.417 44.2622 72.096 44.2378 72.7775 44.1349C73.4213 44.0385 73.9833 43.766 74.49 43.3573C74.8144 43.0963 75.1175 42.8123 75.3853 42.4896C75.4494 42.4125 75.4972 42.3174 75.6016 42.2673C76.2215 42.8611 76.8426 43.4563 77.4638 44.0501C77.5807 43.9807 77.621 43.8714 77.6813 43.7802C78.4873 42.5411 79.292 41.3019 80.0955 40.0615C80.2653 39.8006 80.2791 39.8687 80.088 39.5872C79.2682 38.3828 78.4483 37.1784 77.626 35.9765C77.5405 35.8518 77.4713 35.713 77.3368 35.5948C76.6855 36.2619 76.0366 36.9264 75.3903 37.5884ZM56.7985 39.9741C56.7985 40.5281 56.7985 41.0821 56.7985 41.6374C56.7985 42.356 56.7985 43.0745 56.7985 43.793C56.7985 44.099 56.7997 44.099 57.0852 44.1002C57.397 44.1002 57.7088 44.0964 58.0207 44.1002C58.5337 44.108 59.0467 44.0977 59.5509 43.9846C60.9793 43.6632 61.9312 42.7956 62.3574 41.3649C62.6303 40.451 62.6102 39.5178 62.37 38.6C62.0066 37.2118 61.1566 36.3172 59.7559 36.0112C58.8216 35.8069 57.8735 35.8904 56.9305 35.875C56.8463 35.8737 56.7985 35.9123 56.7997 36.0022C56.7997 36.0742 56.7997 36.1462 56.7997 36.2182C56.7997 37.4702 56.7997 38.7221 56.7997 39.9741H56.7985Z" fill="white"/>
<path d="M90.5346 32.0474C90.6037 32.0435 90.6729 32.0384 90.742 32.0384C91.8485 32.0384 92.9551 32.0371 94.0616 32.0384C94.3696 32.0384 94.3005 32.0088 94.3897 32.28C95.5591 35.8354 96.7247 39.3921 97.8916 42.9488C97.9255 43.0517 97.9645 43.1506 98.0274 43.3203C98.221 42.7162 98.392 42.1866 98.5618 41.6557C99.5551 38.5476 100.548 35.4395 101.544 32.3327C101.654 31.9908 101.583 32.0396 101.928 32.0384C102.944 32.0358 103.96 32.0384 104.976 32.0384H105.25C105.29 32.181 105.212 32.2877 105.173 32.397C103.805 36.2069 102.432 40.0155 101.061 43.8242C100.643 44.9875 100.225 46.152 99.8066 47.3166C99.7186 47.5608 99.7173 47.5621 99.4709 47.5621C98.4247 47.5621 97.3786 47.5621 96.3324 47.5621C96.0747 47.5621 96.0734 47.5621 95.9791 47.2986C94.948 44.4322 93.9182 41.5657 92.8859 38.6993C92.1315 36.6028 91.3758 34.5063 90.6238 32.4086C90.5836 32.2967 90.5094 32.1888 90.5358 32.0486L90.5346 32.0474Z" fill="white"/>
<path d="M23.539 36.8262C23.4535 36.7774 23.4145 36.6771 23.3554 36.5974C23.0976 36.2542 22.8072 35.9431 22.4953 35.6501C21.6793 34.884 20.7061 34.5498 19.6121 34.5061C17.3815 34.4161 15.884 35.8262 15.254 37.3134C14.492 39.1104 14.4455 40.9215 15.2817 42.703C15.9342 44.0926 17.0118 44.9962 18.5182 45.243C19.9378 45.4756 21.2895 45.2636 22.4287 44.2699C22.733 44.0039 23.0033 43.6967 23.29 43.4087C23.3831 43.3162 23.461 43.2082 23.5855 43.1337C24.2067 43.6838 24.8291 44.2365 25.454 44.7841C25.542 44.8612 25.5458 44.9191 25.4766 45.0129C25.2264 45.3484 24.9573 45.6685 24.6467 45.9461C23.5126 46.9577 22.2275 47.6852 20.7362 47.9449C16.2863 48.7187 12.7317 46.0091 11.8942 42.0861C11.4164 39.8443 11.6717 37.6887 12.831 35.7028C14.0821 33.56 15.9493 32.3119 18.3736 31.9957C19.7655 31.8144 21.1487 31.9186 22.4627 32.4751C23.6773 32.9906 24.6581 33.8274 25.4603 34.8853C25.5294 34.9765 25.5634 35.0421 25.454 35.1385C24.824 35.6976 24.2004 36.2632 23.5742 36.8262C23.5692 36.8313 23.5553 36.8262 23.5377 36.8262H23.539Z" fill="white"/>
<path d="M107.604 43.1066C107.617 43.5488 107.763 43.901 108 44.2172C108.517 44.9074 109.223 45.2185 110.054 45.2828C111.28 45.3766 112.406 45.0835 113.429 44.3856C113.487 44.3457 113.547 44.3097 113.605 44.2725C113.697 44.302 113.722 44.3869 113.765 44.4537C114.138 45.0385 114.504 45.6273 114.885 46.207C114.977 46.3458 114.949 46.4062 114.825 46.4936C113.879 47.1595 112.862 47.6608 111.717 47.8317C110.523 48.0104 109.329 48.0117 108.166 47.6338C106.193 46.9924 104.987 45.6131 104.546 43.5642C104.25 42.1901 104.328 40.8212 104.901 39.5242C105.798 37.4958 107.351 36.4135 109.531 36.2837C110.361 36.2349 111.181 36.3043 111.963 36.6179C113.219 37.1218 114.073 38.0473 114.611 39.2941C115.013 40.2273 115.177 41.2145 115.21 42.2274C115.216 42.4433 115.213 42.658 115.21 42.8739C115.207 43.1027 115.205 43.1053 114.972 43.1066C114.006 43.1079 113.041 43.1066 112.076 43.1066C110.698 43.1066 109.321 43.1066 107.943 43.1066C107.844 43.1066 107.744 43.1066 107.606 43.1066H107.604ZM107.624 40.9201C107.69 40.9664 107.762 40.9497 107.831 40.9497C109.165 40.9497 110.499 40.9497 111.834 40.9497C112.1 40.9497 112.125 40.9266 112.07 40.6451C111.906 39.8275 111.445 39.2607 110.663 38.9985C110.268 38.8661 109.858 38.8596 109.443 38.9226C108.567 39.055 107.843 39.7144 107.64 40.5911C107.615 40.7003 107.589 40.8096 107.625 40.9201H107.624Z" fill="white"/>
<path d="M170.577 46.3755C170.109 46.693 169.652 47.0053 169.152 47.247C167.812 47.8935 166.399 48.0336 164.945 47.8832C164.249 47.8113 163.583 47.63 162.954 47.3164C161.736 46.7058 160.862 45.7598 160.397 44.4576C159.765 42.6902 159.803 40.9267 160.628 39.2312C161.435 37.5731 162.762 36.5987 164.567 36.3391C165.453 36.2118 166.335 36.235 167.197 36.4997C168.685 36.9561 169.665 37.9831 170.252 39.4253C170.655 40.4164 170.803 41.4562 170.798 42.5231C170.798 42.7056 170.872 42.9357 170.761 43.0591C170.647 43.1877 170.419 43.1054 170.241 43.1054C167.998 43.108 165.756 43.108 163.513 43.108C163.155 43.108 163.145 43.1118 163.237 43.4589C163.474 44.3535 164.083 44.878 164.917 45.1492C165.532 45.3497 166.168 45.3086 166.801 45.2507C167.625 45.1762 168.338 44.8073 169.029 44.378C169.222 44.2571 169.224 44.2546 169.343 44.4422C169.748 45.0772 170.152 45.7135 170.573 46.3767L170.577 46.3755ZM165.45 40.9498C166.123 40.9498 166.796 40.9498 167.468 40.9498C167.688 40.9498 167.688 40.9447 167.667 40.7313C167.58 39.8431 166.85 39.0693 165.981 38.9292C165.64 38.8752 165.303 38.8777 164.962 38.933C164.101 39.0731 163.35 39.8225 163.206 40.6927C163.167 40.9267 163.183 40.9485 163.432 40.9498C164.105 40.9511 164.777 40.9498 165.45 40.9498Z" fill="white"/>
<path d="M146.289 46.4849C146.182 46.5042 146.149 46.5736 146.1 46.6198C145.132 47.5312 143.995 47.9374 142.679 47.8268C142.039 47.7728 141.434 47.6109 140.882 47.2677C139.922 46.6725 139.428 45.7689 139.232 44.6686C139.153 44.2239 139.124 43.774 139.124 43.3215C139.124 41.207 139.124 39.0938 139.124 36.9794C139.124 36.6246 139.08 36.6464 139.445 36.6464C140.33 36.6464 141.214 36.6464 142.099 36.6464C142.47 36.6464 142.426 36.6143 142.426 36.9691C142.426 38.9396 142.427 40.9101 142.426 42.8806C142.426 43.1904 142.454 43.495 142.548 43.7907C142.772 44.4886 143.286 44.8845 144.005 44.9154C145.212 44.9681 146.097 44.184 146.232 42.9385C146.255 42.7251 146.266 42.5091 146.266 42.2932C146.269 40.5489 146.267 38.8046 146.267 37.059C146.267 36.9973 146.267 36.9356 146.267 36.8739C146.272 36.6516 146.272 36.6464 146.476 36.6464C147.432 36.6451 148.386 36.649 149.342 36.6426C149.5 36.6426 149.549 36.6927 149.544 36.8534C149.534 37.2429 149.54 37.6336 149.54 38.0231C149.54 41.0913 149.54 44.1596 149.54 47.2278C149.54 47.5967 149.593 47.5595 149.226 47.5595C148.351 47.5607 147.477 47.5607 146.602 47.5595C146.372 47.5595 146.372 47.5556 146.355 47.3294C146.334 47.053 146.313 46.7779 146.289 46.4823V46.4849Z" fill="white"/>
<path d="M120.34 37.8019C120.818 37.2659 121.343 36.9189 121.942 36.6875C122.969 36.2903 124.01 36.2749 125.042 36.6335C126.37 37.095 127.12 38.0847 127.398 39.4678C127.484 39.901 127.522 40.3406 127.522 40.7828C127.521 42.9384 127.522 45.094 127.522 47.2496C127.522 47.3113 127.52 47.373 127.522 47.4347C127.527 47.526 127.486 47.5658 127.398 47.562C127.367 47.5607 127.337 47.562 127.307 47.562C126.351 47.562 125.396 47.562 124.441 47.562C124.223 47.562 124.22 47.5581 124.22 47.3177C124.22 45.3472 124.22 43.3754 124.22 41.4049C124.22 41.1697 124.219 40.9344 124.171 40.7005C123.971 39.7133 123.268 39.1837 122.22 39.3264C121.233 39.4614 120.55 40.1876 120.405 41.2224C120.374 41.446 120.356 41.671 120.357 41.8972C120.36 43.6736 120.359 45.4488 120.359 47.2252C120.359 47.2972 120.355 47.3691 120.359 47.4411C120.364 47.535 120.318 47.5684 120.232 47.5632C120.191 47.5607 120.151 47.5632 120.111 47.5632C119.186 47.5632 118.26 47.5632 117.336 47.5632C117.093 47.5632 117.091 47.5607 117.091 47.3139C117.091 45.63 117.091 43.9474 117.091 42.2635C117.091 40.5077 117.091 38.7531 117.091 36.9973C117.091 36.9253 117.093 36.8533 117.091 36.7813C117.088 36.6939 117.121 36.6464 117.211 36.6476C117.262 36.6476 117.312 36.6476 117.362 36.6476C118.237 36.6476 119.113 36.6476 119.986 36.6476C120.259 36.6476 120.258 36.6502 120.279 36.9343C120.298 37.2004 120.32 37.4652 120.345 37.8032L120.34 37.8019Z" fill="white"/>
<path d="M37.7514 42.292C37.7477 44.6649 36.3872 46.7986 34.3175 47.6586C33.3983 48.0403 32.4389 48.1496 31.4519 48.0622C30.2749 47.9593 29.2187 47.5519 28.3323 46.7523C26.7982 45.3693 26.1306 43.6211 26.3783 41.5503C26.6235 39.4976 27.6847 37.9885 29.4903 37.0527C30.4661 36.5463 31.5248 36.4422 32.6036 36.527C34.4281 36.671 35.8465 37.5296 36.8511 39.085C37.4534 40.0194 37.7552 41.148 37.7539 42.2907L37.7514 42.292ZM35.0229 42.1776C35.038 41.8601 34.9663 41.4462 34.8242 41.049C34.4118 39.8922 33.7064 39.058 32.4352 38.9011C31.3601 38.77 30.4522 39.0901 29.7745 39.9899C28.7975 41.2856 28.795 43.2779 29.7695 44.5852C30.2297 45.2022 30.8194 45.5942 31.5801 45.6868C32.7822 45.8333 33.7617 45.4528 34.4281 44.3834C34.8255 43.7458 35.0254 43.044 35.0229 42.1776Z" fill="white"/>
<path d="M180.074 39.7238C179.48 39.3562 178.904 39.0464 178.254 38.9114C177.747 38.8073 177.238 38.7752 176.726 38.8729C176.527 38.9114 176.338 38.9744 176.178 39.1094C175.86 39.3793 175.839 39.8099 176.13 40.1094C176.283 40.2662 176.476 40.3511 176.677 40.4218C177.331 40.6557 178 40.8382 178.667 41.0285C179.22 41.1866 179.752 41.3948 180.243 41.7046C181.154 42.2779 181.615 43.1147 181.66 44.1995C181.679 44.6533 181.652 45.1006 181.5 45.5338C181.264 46.2009 180.809 46.6791 180.245 47.0634C179.587 47.5094 178.848 47.7408 178.077 47.8501C176.609 48.0596 175.171 47.9131 173.779 47.3783C173.23 47.1675 172.725 46.8745 172.284 46.476C172.127 46.3333 172.127 46.3294 172.254 46.1598C172.713 45.5492 173.174 44.9412 173.636 44.3319C173.672 44.2844 173.7 44.2253 173.779 44.2085C174.437 44.7638 175.209 45.0916 176.05 45.251C176.681 45.3705 177.312 45.3615 177.926 45.1482C178.307 45.0158 178.473 44.7625 178.463 44.3898C178.455 44.1301 178.331 43.945 178.126 43.8075C177.881 43.643 177.609 43.5324 177.333 43.4424C176.855 43.2882 176.373 43.1455 175.892 43.0041C175.389 42.8563 174.904 42.6596 174.437 42.4218C174.075 42.238 173.756 41.9925 173.457 41.7123C172.388 40.7097 172.349 38.662 173.553 37.5476C174.149 36.9962 174.837 36.6273 175.617 36.4614C177.456 36.0733 179.232 36.2416 180.912 37.1517C181.054 37.2288 181.185 37.3265 181.326 37.4036C181.458 37.4769 181.453 37.5489 181.374 37.6697C181.075 38.1312 180.787 38.6004 180.494 39.067C180.359 39.2816 180.222 39.495 180.076 39.7238H180.074Z" fill="white"/>
<path d="M136.794 44.6494C137.218 45.3063 137.623 45.9413 138.039 46.5698C138.136 46.7176 138.043 46.7652 137.953 46.8346C137.328 47.3179 136.642 47.6701 135.874 47.8372C134.933 48.0416 133.991 48.0236 133.072 47.7331C131.993 47.3925 131.308 46.6328 130.967 45.5428C130.755 44.8628 130.67 44.161 130.669 43.4502C130.665 42.1776 130.669 40.9051 130.669 39.6312C130.669 39.5695 130.664 39.5078 130.669 39.4461C130.681 39.3266 130.631 39.2855 130.515 39.2868C130.152 39.2919 129.79 39.288 129.428 39.288C129.358 39.288 129.287 39.288 129.217 39.288C128.983 39.2842 128.981 39.2829 128.979 39.0554C128.977 38.6556 128.979 38.2546 128.979 37.8548C128.979 37.5155 128.986 37.1774 128.977 36.8381C128.973 36.689 129.022 36.6414 129.165 36.644C129.568 36.6517 129.97 36.6478 130.372 36.6465C130.683 36.6465 130.669 36.689 130.669 36.3535C130.669 35.3676 130.669 34.383 130.669 33.3971C130.669 33.3251 130.67 33.2531 130.669 33.1811C130.669 33.1053 130.707 33.0693 130.779 33.0667C130.829 33.0654 130.879 33.0654 130.929 33.0654C131.855 33.0654 132.779 33.0654 133.705 33.0654C133.97 33.0654 133.971 33.068 133.971 33.3598C133.971 34.3663 133.971 35.3714 133.971 36.3779C133.971 36.644 133.974 36.6453 134.231 36.6465C134.986 36.6465 135.74 36.6465 136.493 36.6465C136.726 36.6465 136.73 36.6504 136.73 36.8792C136.732 37.608 136.732 38.3368 136.73 39.0657C136.73 39.2803 136.724 39.2855 136.507 39.2868C135.743 39.2893 134.978 39.2868 134.215 39.288C133.974 39.288 133.971 39.2906 133.971 39.5374C133.971 40.9025 133.971 42.2676 133.971 43.6327C133.971 43.9232 134.006 44.206 134.107 44.4785C134.282 44.9502 134.624 45.1893 135.115 45.2227C135.606 45.2549 136.05 45.1225 136.461 44.8577C136.563 44.7921 136.666 44.7291 136.794 44.6482V44.6494Z" fill="white"/>
<path d="M44.6156 38.0475C44.9664 37.7108 45.2921 37.4408 45.6441 37.2005C46.391 36.6902 47.2272 36.5848 48.0948 36.622C48.599 36.6439 49.0944 36.7287 49.5634 36.928C50.6737 37.401 51.3238 38.2828 51.6633 39.4319C51.8205 39.9666 51.8733 40.5168 51.8733 41.0734C51.8733 43.1879 51.8733 45.3023 51.8733 47.4168C51.8733 47.4579 51.8695 47.4991 51.8733 47.5402C51.8846 47.6572 51.8393 47.7073 51.7199 47.7035C51.5388 47.697 51.3577 47.7022 51.1767 47.7022C50.6033 47.7022 50.0299 47.7022 49.4578 47.7022C49.1384 47.7022 49.1975 47.6752 49.1975 47.4335C49.1975 45.4939 49.1975 43.5542 49.1975 41.6132C49.1975 41.2546 49.2139 40.896 49.141 40.5399C48.9523 39.6067 48.2055 38.9769 47.2762 38.9795C45.9899 38.9833 44.9689 39.8702 44.73 41.1903C44.6873 41.423 44.6709 41.6569 44.6709 41.8947C44.6734 43.7007 44.6709 45.508 44.6709 47.314C44.6709 47.3757 44.6634 47.4387 44.6722 47.4991C44.6973 47.67 44.6156 47.7047 44.466 47.7035C43.7015 47.6983 42.937 47.697 42.1737 47.7035C42.009 47.7047 41.9688 47.643 41.9738 47.4875C41.9826 47.1392 41.9763 46.7895 41.9763 46.4412V37.2673C41.9763 37.2056 41.9751 37.1439 41.9763 37.0822C41.9826 36.8598 41.9826 36.8547 42.1888 36.8534C42.9131 36.8508 43.6373 36.856 44.3603 36.8496C44.5049 36.8483 44.5515 36.8971 44.5552 37.0424C44.564 37.3573 44.5904 37.6722 44.6143 38.0475H44.6156Z" fill="white"/>
<path d="M155.23 37.9512C155.451 37.7314 155.637 37.545 155.825 37.3612C156.587 36.6157 157.511 36.3663 158.539 36.4408C158.83 36.4614 159.118 36.4935 159.4 36.5835C159.537 36.6272 159.562 36.6864 159.535 36.8277C159.376 37.6941 159.225 38.5605 159.076 39.4294C159.051 39.5746 159.001 39.5991 158.856 39.5656C158.273 39.4294 157.684 39.3921 157.096 39.5399C156.059 39.7996 155.378 40.6042 155.283 41.693C155.265 41.8974 155.259 42.103 155.259 42.3074C155.256 43.9283 155.259 45.5492 155.259 47.1701C155.259 47.242 155.254 47.314 155.259 47.386C155.27 47.5145 155.227 47.5801 155.092 47.566C155.033 47.5595 154.971 47.566 154.911 47.566C154.057 47.566 153.202 47.566 152.348 47.566C152.09 47.566 151.961 47.4391 151.961 47.1855C151.961 44.0877 151.961 40.9886 151.961 37.8908C151.961 37.5424 151.966 37.1928 151.958 36.8445C151.954 36.7018 151.993 36.6465 152.143 36.6478C153.077 36.6542 154.013 36.6529 154.947 36.6478C155.075 36.6478 155.128 36.6928 155.137 36.82C155.165 37.1851 155.196 37.5514 155.23 37.9563V37.9512Z" fill="white"/>
<path d="M38.2695 42.2599C38.2695 40.5979 38.2695 38.9358 38.2695 37.2738C38.2695 37.2121 38.2695 37.1504 38.2695 37.0887C38.2746 36.8574 38.2746 36.8535 38.5047 36.8535C39.239 36.8522 39.972 36.8522 40.7064 36.8535C40.9465 36.8535 40.949 36.8574 40.9503 37.1119C40.9516 37.8098 40.9503 38.5078 40.9503 39.2045C40.9503 41.9231 40.9503 44.643 40.9503 47.3616C40.9503 47.7473 40.9943 47.6984 40.6095 47.6997C39.9155 47.7023 39.2226 47.6997 38.5286 47.6997C38.2381 47.6997 38.2708 47.6933 38.2708 47.4285C38.2708 45.7048 38.2708 43.981 38.2708 42.2573L38.2695 42.2599Z" fill="white"/>
<path d="M40.9051 32.2889C40.9668 32.3776 40.9491 32.4624 40.9491 32.5434C40.9491 33.3326 40.9504 34.1219 40.9491 34.9124C40.9491 35.1695 40.9454 35.1733 40.7128 35.1733C39.9797 35.1746 39.2466 35.1746 38.5136 35.1733C38.2759 35.1733 38.2709 35.1695 38.2709 34.9497C38.2684 34.1296 38.2709 33.3095 38.2709 32.4894C38.2709 32.384 38.2621 32.2876 38.418 32.2876C39.2517 32.2927 40.0841 32.2902 40.9064 32.2902L40.9051 32.2889Z" fill="white"/>
</g>
<defs>
<clipPath id="clip0_15_4734">
<rect width="170" height="16.25" fill="white" transform="translate(11.6667 31.875)"/>
</clipPath>
</defs>
</svg>
