<svg width="194" height="80" viewBox="0 0 194 80" fill="none" xmlns="http://www.w3.org/2000/svg">
<g clip-path="url(#clip0_15_4418)">
<path d="M115.564 31.875H115.258V48.125H115.564V31.875Z" fill="white"/>
<path d="M122.103 40.3422C122.072 38.5921 123.464 37.1473 125.212 37.1158C125.259 37.1158 125.306 37.1158 125.353 37.1158C126.273 37.0672 127.169 37.4186 127.812 38.0795L126.939 39.0825C126.521 38.6493 125.949 38.3968 125.348 38.3806C124.328 38.4011 123.517 39.2454 123.537 40.2663C123.537 40.2859 123.538 40.3056 123.539 40.3252C123.48 41.3478 124.261 42.2246 125.283 42.2834C125.304 42.2843 125.326 42.2851 125.348 42.286C125.971 42.2826 126.564 42.0182 126.983 41.5559L127.885 42.4582C126.683 43.822 124.605 43.9516 123.243 42.7491C122.557 42.1435 122.154 41.2787 122.131 40.3636L122.103 40.3414V40.3422Z" fill="white"/>
<path d="M131.625 37.1621H132.894L135.565 43.4462H134.129L133.573 42.0483H130.935L130.378 43.4462H128.976L131.625 37.1621ZM133.067 40.8329L132.238 38.8107L131.409 40.8329H133.067Z" fill="white"/>
<path d="M137.229 37.2061H139.777C141.263 37.2061 142.164 38.0862 142.164 39.3621C142.164 40.8103 141.052 41.5566 139.643 41.5566H138.603V43.4287H137.229V37.2061ZM139.689 40.3532C140.219 40.418 140.702 40.0393 140.766 39.508C140.771 39.4739 140.773 39.4398 140.773 39.4065C140.773 38.7941 140.351 38.4598 139.66 38.4598H138.603V40.3703L139.689 40.3532Z" fill="white"/>
<path d="M144.308 37.2061H145.693V43.4449H144.319L144.308 37.2061Z" fill="white"/>
<path d="M149.762 38.4699H147.865V37.2051H153.029V38.4699H151.131V43.4448H149.762V38.4699Z" fill="white"/>
<path d="M156.306 37.1621H157.57L160.241 43.4462H158.81L158.254 42.0483H155.599L155.043 43.4462H153.646L156.306 37.1621ZM157.748 40.8329L156.919 38.8107L156.09 40.8329H157.748Z" fill="white"/>
<path d="M161.916 37.2059H163.285V42.2192H166.396V43.467H161.944L161.916 37.2051V37.2059Z" fill="white"/>
<path d="M34.9488 32.2646L28.2708 36.1308V43.8681L34.9488 47.7343L41.6269 43.8681V36.1308L34.9488 32.2646ZM41.0705 43.5287L34.9488 47.0554L28.8271 43.5287V36.4711L34.9488 32.9444L41.0705 36.4711V43.5295V43.5287Z" fill="white"/>
<path d="M37.5867 35.6074H32.3281L31.7214 38.2872H38.2214L37.5867 35.6074Z" fill="white"/>
<path d="M33.2625 41.9796V40.1971L31.7042 39.2061L29.9397 40.5203L32.3441 44.7037H33.3017L34.4366 43.6453V43.1106L33.2625 41.9796Z" fill="white"/>
<path d="M36.6742 38.6934H33.2678L33.8412 40.1919L33.6632 41.8738H34.9659L36.2737 41.8686L36.1118 40.1919L36.6742 38.6934Z" fill="white"/>
<path d="M38.2323 39.1953L36.6902 40.1975V41.98L35.5161 43.1109V43.6457L36.6459 44.6879H37.5976L39.9849 40.5207L38.2323 39.1953Z" fill="white"/>
<path d="M49.1562 43.5736C47.4786 43.5949 46.1001 42.2516 46.0788 40.5714C46.0788 40.5433 46.0788 40.5152 46.0788 40.487C46.0515 38.7889 47.4037 37.3902 49.1 37.362C49.1222 37.362 49.1452 37.362 49.1673 37.362C50.0739 37.3237 50.9489 37.7006 51.5436 38.3872L50.6975 39.3007C50.3209 38.835 49.7552 38.5629 49.1562 38.5595C48.1705 38.597 47.402 39.4277 47.4394 40.4145C47.4394 40.4307 47.4411 40.4478 47.442 40.464C47.3772 41.4619 48.133 42.3233 49.1298 42.3881C49.1605 42.3898 49.192 42.3915 49.2227 42.3915C49.8191 42.3744 50.3806 42.1024 50.764 41.6452L51.5879 42.4589C50.9966 43.1915 50.096 43.6043 49.1562 43.5727V43.5736Z" fill="white"/>
<path d="M54.1762 43.5731H52.813V37.3735H54.1762V38.8277C54.4727 37.9236 55.3358 37.3283 56.2849 37.3735V38.8166H56.2074C55.0112 38.8166 54.1762 39.5961 54.1762 41.1731V43.574V43.5731Z" fill="white"/>
<path d="M63.4248 37.3623L60.4087 45.2506H59.0285L59.6854 43.579L57.1038 37.3623H58.5556L60.3201 41.9525L62.0114 37.3623H63.4248Z" fill="white"/>
<path d="M67.7828 43.573C66.9777 43.5798 66.2228 43.1849 65.7687 42.5205V45.2447H64.3833V37.3623H65.7465V38.4762C66.1819 37.7819 66.9427 37.3615 67.7607 37.3623C69.1691 37.3623 70.5434 38.4762 70.5434 40.4651C70.5434 42.454 69.1801 43.5739 67.7828 43.5739V43.573ZM67.471 38.5598C66.4844 38.5845 65.7056 39.4058 65.7303 40.3926C65.7303 40.4207 65.732 40.448 65.7346 40.4762C65.6664 41.4647 66.4119 42.321 67.3994 42.3892C67.4233 42.3909 67.4471 42.3918 67.471 42.3926C68.4321 42.3576 69.1835 41.5491 69.1478 40.5862C69.1461 40.5495 69.1435 40.5129 69.1401 40.4762C69.2296 39.5116 68.5207 38.6561 67.5571 38.5666C67.5213 38.5632 67.4846 38.5606 67.4488 38.5598H67.471Z" fill="white"/>
<path d="M73.5254 38.6602V41.5797C73.4701 41.9353 73.7129 42.2688 74.0682 42.3242C74.1295 42.3336 74.1926 42.3345 74.2539 42.3259H74.8103V43.5737H73.8586C72.8626 43.5737 72.1895 43.1276 72.1895 41.8244V38.6602H71.4048V37.485H72.1614V35.8525H73.5246V37.485H74.7881V38.6602H73.5246H73.5254Z" fill="white"/>
<path d="M79.1078 43.573C77.4055 43.6165 75.9911 42.2698 75.9477 40.5658C75.9477 40.5376 75.9468 40.5095 75.9468 40.4813C75.8974 38.7252 77.2802 37.2617 79.0345 37.2122C80.7888 37.1628 82.2509 38.547 82.3003 40.3031C82.3497 42.0592 80.9669 43.5227 79.2126 43.5722C79.1777 43.573 79.1427 43.5739 79.1078 43.573ZM79.1078 38.5598C78.1212 38.5547 77.3169 39.3513 77.3118 40.3389C77.3118 40.3807 77.3126 40.4233 77.3152 40.4651C77.2658 41.4792 78.0471 42.3415 79.0601 42.3909C79.0831 42.3918 79.1061 42.3926 79.1291 42.3926C80.1191 42.4003 80.9277 41.6046 80.9354 40.6135C80.9354 40.5717 80.9354 40.5291 80.932 40.4873C80.978 39.4698 80.1916 38.6075 79.1751 38.5615C79.1521 38.5606 79.1291 38.5598 79.1061 38.5598H79.1078Z" fill="white"/>
<path d="M95.3353 43.5735C93.6364 43.617 92.2238 42.2728 92.1812 40.5722C92.1812 40.5423 92.1803 40.5125 92.1803 40.4818C92.1343 38.7291 93.5163 37.2698 95.268 37.2238C97.0189 37.1777 98.4767 38.5611 98.5227 40.3146C98.5687 42.0673 97.1867 43.5266 95.435 43.5726C95.4018 43.5735 95.3694 43.5735 95.3362 43.5735H95.3353ZM95.3353 38.5602C94.3487 38.5551 93.5444 39.3517 93.5393 40.3394C93.5393 40.3812 93.5401 40.4238 93.5427 40.4656C93.4933 41.4797 94.2746 42.3419 95.2876 42.3914C95.3106 42.3923 95.3336 42.3931 95.3566 42.3931C96.3467 42.4008 97.1552 41.605 97.1629 40.614C97.1629 40.5722 97.1629 40.5296 97.1595 40.4878C97.2055 39.4703 96.4191 38.608 95.4026 38.5619C95.3796 38.5611 95.3566 38.5602 95.3336 38.5602H95.3353Z" fill="white"/>
<path d="M106.632 37.3623C107.923 37.3623 108.714 38.1871 108.714 39.6404V43.573H107.35V40.0583C107.35 39.1116 106.911 38.6041 106.143 38.6041C105.375 38.6041 104.874 39.1218 104.874 40.0805V43.573H103.511V40.0463C103.511 39.1218 103.06 38.6033 102.304 38.6033C101.547 38.6033 101.029 39.1602 101.029 40.0907V43.5722H99.666V37.3623H101.029V38.3875C101.415 37.7538 102.102 37.3657 102.843 37.3623C103.589 37.3282 104.284 37.7393 104.613 38.4097C105.072 37.7478 105.828 37.3564 106.633 37.3623H106.632Z" fill="white"/>
<path d="M84.7899 42.3251V43.016C84.7916 43.0458 84.7763 43.074 84.7507 43.0885L84.1552 43.4339C84.1304 43.445 84.1023 43.445 84.0776 43.4339L83.4821 43.0885C83.4582 43.0723 83.4437 43.045 83.4429 43.016V42.3251C83.4429 42.2978 83.4582 42.2722 83.4821 42.2586L84.0776 41.9132C84.1006 41.8961 84.1321 41.8961 84.1552 41.9132L84.7507 42.2586C84.7763 42.2705 84.7925 42.297 84.7899 42.3251Z" fill="white"/>
<path d="M88.9298 43.5728C87.2513 43.5617 85.9009 42.1902 85.9119 40.5109C85.9119 40.4828 85.9119 40.4538 85.9136 40.4256C85.9196 38.7275 87.299 37.3552 88.9954 37.3604C89.0184 37.3604 89.0405 37.3604 89.0635 37.3612C89.9718 37.3407 90.8391 37.7348 91.4228 38.4307L90.5989 39.322C90.2197 38.8469 89.648 38.5672 89.0405 38.5587C88.0479 38.5825 87.2624 39.4073 87.2862 40.4C87.2862 40.412 87.2862 40.4239 87.2871 40.4359C87.2095 41.4389 87.9593 42.3148 88.9613 42.3924C88.986 42.3941 89.0099 42.3958 89.0346 42.3966C89.631 42.3898 90.1967 42.1305 90.5929 41.6836L91.3997 42.5084C90.7889 43.2325 89.8738 43.6265 88.9289 43.5728H88.9298Z" fill="white"/>
</g>
<defs>
<clipPath id="clip0_15_4418">
<rect width="138.125" height="16.25" fill="white" transform="translate(28.2708 31.875)"/>
</clipPath>
</defs>
</svg>
