<svg width="194" height="72" viewBox="0 0 194 72" fill="none" xmlns="http://www.w3.org/2000/svg">
<g clip-path="url(#clip0_15_4673)">
<path d="M63.5974 26.5625H60.2256V45.3125H63.5974V26.5625Z" fill="white"/>
<path fill-rule="evenodd" clip-rule="evenodd" d="M44.2085 26.5625C51.1921 26.5625 56.8537 30.7596 56.8537 35.9375C56.8537 41.1154 51.3048 45.2287 44.4175 45.3113L44.2085 45.3125V42.0518C49.3296 42.0518 53.4812 39.3143 53.4812 35.9375C53.4812 32.5607 49.3296 29.8232 44.2085 29.8232V26.5625Z" fill="white"/>
<path d="M76.2735 32.7148L79.3393 40.1914L82.4216 32.7148H86.0091L80.6529 44.9967H78.0251L72.6853 32.7148H76.2729H76.2735ZM92.2039 39.6049C92.1027 39.1924 91.8949 38.8607 91.5804 38.6111C91.2659 38.3615 90.8842 38.2367 90.4352 38.2367C89.9639 38.2367 89.5791 38.3562 89.2816 38.5953C88.9841 38.8344 88.7957 39.1707 88.7175 39.6055H92.2045L92.2039 39.6049ZM88.6327 41.3152C88.6327 42.5855 89.2501 43.2213 90.4855 43.2213C91.1478 43.2213 91.6477 42.9605 91.9845 42.4396H94.9323C94.3373 44.351 92.8492 45.3066 90.4686 45.3066C89.7385 45.3066 89.0707 45.2006 88.4642 44.9891C87.8577 44.7775 87.3385 44.4758 86.9059 44.085C86.4732 43.6941 86.1394 43.2271 85.9037 42.684C85.668 42.1408 85.5498 41.5326 85.5498 40.8594C85.5498 40.1861 85.6619 39.5375 85.8867 38.9779C86.1115 38.4189 86.4314 37.9437 86.8471 37.5523C87.2627 37.1615 87.765 36.8604 88.3546 36.6482C88.9441 36.4367 89.6094 36.3307 90.3504 36.3307C91.0914 36.3307 91.7373 36.4367 92.3214 36.6482C92.9055 36.8598 93.3993 37.1668 93.8035 37.5687C94.2076 37.9707 94.5166 38.4617 94.7299 39.043C94.9432 39.6242 95.0498 40.2781 95.0498 41.0059V41.3152H88.6321H88.6327ZM96.6294 36.64H99.6783V37.6988C100.094 37.2102 100.515 36.8814 100.942 36.7133C101.368 36.5451 101.868 36.4607 102.441 36.4607C103.047 36.4607 103.566 36.5557 103.999 36.7455C104.432 36.9354 104.799 37.2043 105.102 37.5518C105.35 37.8342 105.518 38.1488 105.608 38.4963C105.697 38.8437 105.742 39.2404 105.742 39.6852V44.9955H102.693V40.7768C102.693 40.3643 102.662 40.0303 102.601 39.7748C102.539 39.5193 102.429 39.316 102.272 39.1637C102.138 39.0336 101.986 38.941 101.817 38.8865C101.649 38.832 101.469 38.8051 101.278 38.8051C100.761 38.8051 100.365 38.9545 100.09 39.2533C99.8152 39.5521 99.6777 39.9781 99.6777 40.5318V44.9949H96.6288V36.6406L96.6294 36.64ZM111.06 39.0998V44.9967H108.011V39.0998H107.001V36.64H108.011V34.1316H111.06V36.64H112.795V39.0998H111.06ZM116.833 36.64V41.3475C116.833 42.3793 117.35 42.8949 118.383 42.8949C119.416 42.8949 119.933 42.3793 119.933 41.3475V36.64H122.982V41.9176C122.982 43.0467 122.597 43.8939 121.828 44.4588C121.059 45.0236 119.911 45.3061 118.384 45.3061C116.857 45.3061 115.708 45.0236 114.939 44.4588C114.17 43.8939 113.786 43.0473 113.786 41.9176V36.64H116.834H116.833ZM124.897 36.64H127.946V38.0082C128.271 37.5084 128.67 37.1258 129.142 36.8598C129.614 36.5938 130.164 36.4607 130.793 36.4607H131.054C131.15 36.4607 131.259 36.4719 131.382 36.4936V39.3113C130.978 39.1156 130.54 39.0184 130.069 39.0184C129.361 39.0184 128.831 39.2217 128.477 39.6295C128.123 40.0367 127.946 40.6314 127.946 41.4131V44.9967H124.897V36.6406V36.64ZM139.008 39.6049C138.907 39.1924 138.699 38.8607 138.385 38.6111C138.07 38.3615 137.688 38.2367 137.239 38.2367C136.768 38.2367 136.383 38.3562 136.086 38.5953C135.788 38.8344 135.6 39.1707 135.522 39.6055H139.009L139.008 39.6049ZM135.437 41.3152C135.437 42.5855 136.054 43.2213 137.29 43.2213C137.952 43.2213 138.452 42.9605 138.789 42.4396H141.736C141.141 44.351 139.653 45.3066 137.273 45.3066C136.543 45.3066 135.875 45.2006 135.268 44.9891C134.662 44.7775 134.143 44.4758 133.711 44.085C133.278 43.6941 132.944 43.2271 132.709 42.684C132.473 42.1408 132.355 41.5326 132.355 40.8594C132.355 40.1861 132.467 39.5375 132.692 38.9779C132.916 38.4189 133.236 37.9437 133.652 37.5523C134.068 37.1615 134.57 36.8604 135.159 36.6482C135.749 36.4367 136.414 36.3307 137.155 36.3307C137.896 36.3307 138.542 36.4367 139.126 36.6482C139.71 36.8598 140.204 37.1668 140.608 37.5687C141.012 37.9707 141.321 38.4617 141.535 39.043C141.748 39.6242 141.855 40.2781 141.855 41.0059V41.3152H135.437ZM149.161 38.7904C148.599 38.508 148.049 38.3668 147.51 38.3668C147.23 38.3668 147.002 38.4213 146.828 38.5297C146.654 38.6381 146.567 38.7852 146.567 38.9697C146.567 39.0676 146.581 39.1461 146.609 39.2059C146.636 39.2656 146.698 39.3225 146.794 39.377C146.89 39.4314 147.03 39.4801 147.215 39.5234C147.4 39.5668 147.645 39.6213 147.948 39.6863C148.79 39.8492 149.419 40.1398 149.834 40.5576C150.25 40.976 150.458 41.5104 150.458 42.1619C150.458 42.6506 150.357 43.0906 150.155 43.4814C149.953 43.8723 149.672 44.201 149.313 44.467C148.953 44.733 148.521 44.9393 148.015 45.0857C147.51 45.2322 146.955 45.3055 146.348 45.3055C145.18 45.3055 144.029 44.985 142.895 44.3445L144.007 42.2598C144.861 42.8246 145.669 43.107 146.432 43.107C146.713 43.107 146.943 43.0473 147.123 42.9277C147.303 42.8082 147.393 42.6564 147.393 42.4719C147.393 42.3635 147.379 42.2738 147.351 42.2029C147.323 42.132 147.264 42.067 147.174 42.0072C147.084 41.9475 146.952 41.893 146.778 41.8443C146.604 41.7957 146.376 41.7441 146.096 41.6896C145.153 41.5051 144.493 41.2309 144.117 40.867C143.741 40.5031 143.553 40.001 143.553 39.36C143.553 38.893 143.643 38.4723 143.823 38.0979C144.003 37.7234 144.261 37.4059 144.598 37.1451C144.934 36.8844 145.342 36.6834 145.819 36.5422C146.297 36.401 146.827 36.3307 147.411 36.3307C148.365 36.3307 149.291 36.51 150.19 36.868L149.162 38.7898L149.161 38.7904Z" fill="white"/>
</g>
<defs>
<clipPath id="clip0_15_4673">
<rect width="106.25" height="18.75" fill="white" transform="translate(44.2085 26.5625)"/>
</clipPath>
</defs>
</svg>
