<svg width="194" height="80" viewBox="0 0 194 80" fill="none" xmlns="http://www.w3.org/2000/svg">
<g clip-path="url(#clip0_15_4305)">
<path d="M77.2482 26.791C76.7823 29.0379 76.3405 31.166 75.8724 33.4327C72.0834 31.8548 68.3735 30.3121 64.5185 28.7056V44.7818H63.0306V28.567C59.1316 30.2219 55.4064 31.802 51.503 33.4591C51.0393 31.221 50.5909 29.0489 50.125 26.791H77.2482ZM74.9317 31.6502C75.1999 30.3474 75.4306 29.2228 75.6636 28.0982H66.7471L66.7339 28.2303C69.4174 29.3482 72.101 30.4684 74.9339 31.648L74.9317 31.6502ZM52.4437 31.6678L60.8328 28.0894H51.6942C51.9514 29.3174 52.1887 30.4442 52.4459 31.6656L52.4437 31.6678Z" fill="white"/>
<path d="M56.9053 37.6758H60.2833V39.115H58.2064V49.8149H69.0262V39.2075C68.4284 39.1745 67.8284 39.1415 67.1823 39.1062V37.7H70.5735V51.3466H56.9053V37.6758Z" fill="white"/>
<path d="M83.1097 27.2555L81.7163 26.8924C81.9581 26.6965 82.057 26.5469 82.1537 26.5469C84.1581 26.5755 86.1757 26.4919 88.1625 26.7009C89.9647 26.8902 91.0724 28.083 91.5098 29.8589C92.5098 33.9258 90.1823 36.9364 86.0086 36.965C84.9119 36.9716 83.8174 36.9738 82.7207 36.9606C82.4306 36.9584 82.1405 36.8924 81.8526 36.8572L81.835 36.5425C82.2328 36.4434 82.6328 36.3466 83.1097 36.2278V27.2555ZM84.6306 36.0143C86.813 36.5711 88.2548 36.219 89.2174 34.914C90.3559 33.3713 90.4988 30.6314 89.4966 29.0073C88.3669 27.1785 86.5977 27.0376 84.6306 27.2181V36.0143Z" fill="white"/>
<path d="M134.066 30.8497H131.005V36.2326C131.383 36.3426 131.756 36.4505 132.132 36.5583L132.088 36.8334H128.629L128.583 36.6485C128.921 36.5055 129.26 36.3624 129.589 36.2238V30.8541L128.457 30.7616C128.407 30.678 128.358 30.5966 128.308 30.513C128.677 30.2753 129.046 30.0376 129.583 29.6921C130.688 26.4989 131.295 25.9223 135.238 26.3954V36.1798L136.446 36.6287C136.433 36.7035 136.42 36.7762 136.407 36.851H133.227C134.35 36.413 134.064 35.4821 134.068 34.6745C134.075 33.4399 134.068 32.2053 134.068 30.8475L134.066 30.8497ZM130.631 29.9936H133.98V27.3836C133.11 27.4628 132.13 27.2757 131.594 27.6784C131.064 28.0768 130.983 29.0671 130.631 29.9936Z" fill="white"/>
<path d="M106.189 37.0617C105.016 35.8271 105.024 35.7831 106.578 34.4451C105.183 33.2325 104.923 32.24 105.712 31.1198C106.671 29.7598 108.455 29.4737 110.145 30.376C110.699 30.1251 111.222 29.8896 111.895 29.5859V30.8293C111.055 30.8007 110.682 31.0846 110.73 32.0375C110.791 33.2281 109.723 34.0908 108.198 34.5331C107.602 34.7048 107.073 35.1053 106.514 35.4002L106.616 35.8095C106.972 35.8932 107.325 36.0318 107.684 36.0472C108.486 36.0846 109.306 35.968 110.09 36.0956C110.611 36.1792 111.363 36.4741 111.501 36.8593C111.688 37.372 111.594 38.2435 111.249 38.6462C110.038 40.0657 108.501 40.9108 106.521 40.4618C105.725 40.2814 105.119 39.894 104.868 39.0534C104.618 38.2193 105.205 37.876 105.721 37.4733C105.864 37.361 105.994 37.2334 106.187 37.0617H106.189ZM108.477 37.1432C108.185 37.1432 107.89 37.1674 107.6 37.1388C106.653 37.0463 106.172 37.7153 106.145 38.4108C106.13 38.8069 106.813 39.5265 107.249 39.5815C108.018 39.6762 108.917 39.5309 109.605 39.1788C110.011 38.9719 110.114 38.1753 110.354 37.6449C109.91 37.4777 109.473 37.295 109.022 37.1542C108.855 37.1013 108.66 37.1454 108.477 37.1454V37.1432ZM109.46 32.3874C109.451 31.3311 108.783 30.475 107.941 30.4464C107.143 30.4178 106.587 31.0274 106.574 31.9429C106.558 33.0366 107.301 33.9345 108.216 33.8531C109.075 33.7761 109.512 33.2721 109.457 32.3874H109.46Z" fill="white"/>
<path d="M98.8306 53.5629C99.1405 53.4485 99.4504 53.3319 99.8042 53.1998V44.5378L98.7405 44.3508L98.6943 44.0625C99.3801 43.8578 100.066 43.6554 100.844 43.4243C100.96 43.8578 101.048 44.1835 101.151 44.5775C101.503 44.3332 101.802 44.1351 102.088 43.9216C103.321 43.004 104.857 43.2922 105.53 44.6919C106.244 46.1796 106.33 47.7663 105.334 49.1549C104.356 50.5194 102.916 50.9375 101.173 50.5612V53.257C101.655 53.3341 102.132 53.4133 102.609 53.4903L102.593 53.7456H98.8658L98.8284 53.5585L98.8306 53.5629ZM101.083 47.0643C101.083 47.5946 101.112 47.8543 101.079 48.1052C100.938 49.1703 101.411 49.7689 102.455 49.9428C103.497 50.1166 104.31 49.6259 104.431 48.6818C104.576 47.5396 104.501 46.3116 104.233 45.1915C104.028 44.3376 103.233 44.2121 102.354 44.5709C101.013 45.121 100.947 46.1642 101.086 47.0643H101.083Z" fill="white"/>
<path d="M91.2021 47.7512C91.0263 49.6878 89.3537 50.8674 86.9296 50.7684C84.7669 50.6782 82.9185 49.2829 82.2658 47.2473C81.5207 44.9277 82.1735 42.3991 83.9669 41.1381C85.6438 39.9585 87.479 39.4083 89.534 40.1852C91.1691 40.8014 91.2636 40.9158 91.0175 43.0549C90.6614 42.7864 90.3054 42.6544 90.1823 42.4079C89.2636 40.5637 87.0043 39.9717 85.2241 41.1469C83.846 42.0558 83.1779 44.1993 83.6262 46.2723C84.0416 48.1914 85.4284 49.6394 87.1098 49.9101C88.4856 50.1324 89.4065 49.6504 90.0768 48.4488C90.2812 48.0835 90.6417 47.804 90.9296 47.4849L91.1999 47.7556L91.2021 47.7512Z" fill="white"/>
<path d="M121.097 31.0034C120.675 30.9198 120.354 30.8581 120.033 30.7943C120.024 30.7019 120.013 30.6095 120.005 30.517C120.693 30.3102 121.38 30.1033 122.132 29.8766C122.257 30.3388 122.348 30.6755 122.464 31.1046C122.974 30.7701 123.427 30.473 123.879 30.1781C125.297 29.2582 126.635 29.8722 126.719 31.558C126.798 33.1139 126.737 34.6786 126.737 36.2014C127.191 36.3621 127.545 36.4875 127.899 36.613L127.875 36.8375H124.886C126.112 35.2441 125.354 33.3978 125.422 31.6526C125.431 31.4083 124.875 30.9704 124.532 30.9154C123.548 30.7591 122.411 31.8463 122.407 32.83C122.405 33.521 122.409 34.2142 122.407 34.9052C122.402 35.6337 122.213 36.4391 123.207 36.8485H120.145L120.097 36.6482C120.427 36.4985 120.756 36.3489 121.104 36.1926V31.0034H121.097Z" fill="white"/>
<path d="M140.475 36.1573C141.018 34.5552 141.521 33.1621 141.943 31.7449C142.029 31.4566 141.8 31.078 141.699 30.6731H143.873C143.477 31.2981 143 31.8637 142.723 32.5151C141.682 34.9557 140.657 37.4051 139.721 39.8875C139.306 40.99 138.651 41.2189 137.583 40.8734V39.6234C139.024 39.8853 139.218 38.6309 139.778 37.8166C139.86 37.6978 139.789 37.4315 139.723 37.2576C139.139 35.7303 138.563 34.1986 137.936 32.6868C137.627 31.9385 137.655 30.8932 136.224 30.99L136.479 30.6621H139.607L139.646 30.8756C139.378 30.9966 139.11 31.1155 138.745 31.2805C139.299 32.843 139.853 34.4033 140.477 36.1573H140.475Z" fill="white"/>
<path d="M93.5801 45.4843H92.646C92.3867 44.7801 92.5779 44.3664 93.2746 44.1309C93.7889 43.9571 94.2614 43.66 94.7691 43.4641C96.1186 42.9425 97.2197 43.5917 97.3273 45.0134C97.3977 45.9531 97.3273 46.9038 97.3603 47.8479C97.3889 48.6952 96.9735 49.7691 98.6658 49.8615L98.4043 50.1872C97.879 50.3127 97.3537 50.4381 96.7713 50.579C96.5735 50.2291 96.4021 49.9276 96.1757 49.527C95.7911 49.7977 95.3845 50.0266 95.0482 50.3303C94.4196 50.8981 93.6856 50.8871 93.1735 50.3875C92.7383 49.9628 92.4614 49.2651 92.3581 48.649C92.2372 47.9227 92.7295 47.4584 93.4636 47.2625C94.024 47.1129 94.5581 46.8488 95.1229 46.7233C95.8812 46.5539 96.2548 46.204 96.1251 45.3721C96.0328 44.7889 95.9383 44.2607 95.2218 44.2321C94.4812 44.2013 93.8394 44.3686 93.7097 45.2621C93.701 45.3281 93.6416 45.3853 93.5801 45.4887V45.4843ZM96.0262 47.0578C95.3757 47.3241 94.6702 47.4782 94.1559 47.8765C93.8328 48.1274 93.7955 48.748 93.6284 49.2013C94.0636 49.3334 94.5537 49.6613 94.9229 49.56C96.0746 49.2387 96.2394 48.7766 96.0262 47.0578Z" fill="white"/>
<path d="M119.284 33.3343C119.306 35.4932 117.659 37.1855 115.532 37.1855C113.732 37.1855 112.328 35.6319 112.312 33.6226C112.297 31.4747 113.945 29.7758 116.066 29.756C117.829 29.7406 119.262 31.3361 119.284 33.3343ZM117.982 33.3277C117.947 33.1517 117.897 32.6763 117.756 32.2296C117.413 31.1424 116.464 30.425 115.49 30.5174C114.328 30.6274 113.934 31.4835 113.73 32.4584C113.642 32.881 113.618 33.3299 113.651 33.7591C113.769 35.2973 114.818 36.4769 116.013 36.4681C117.147 36.4593 117.96 35.2797 117.98 33.3277H117.982Z" fill="white"/>
<path d="M98.3647 31.6047C98.6483 31.279 98.8768 30.8719 99.2263 30.6496C99.7428 30.3195 100.33 30.084 100.912 29.875C102.235 29.3974 103.264 30.0664 103.343 31.4551C103.4 32.4366 103.391 33.4203 103.418 34.404C103.439 35.2293 103.154 36.2086 104.571 36.356L104.468 36.6289L102.835 37.025C102.635 36.6971 102.453 36.4022 102.213 36.0127C101.818 36.279 101.402 36.4969 101.064 36.8006C100.466 37.3375 99.7647 37.3331 99.2768 36.8732C98.8241 36.4485 98.4658 35.775 98.3713 35.1632C98.2702 34.5052 98.6724 33.9221 99.4373 33.7218C100.035 33.5655 100.609 33.3081 101.209 33.1584C101.89 32.989 102.426 32.6941 102.167 31.9106C102.018 31.4595 101.703 30.8455 101.336 30.7376C100.745 30.5638 100.057 30.6606 99.7801 31.5233C99.6944 31.7918 99.1098 31.9018 98.7538 32.0845C98.6241 31.9238 98.4966 31.7632 98.3669 31.6047H98.3647ZM102.101 33.5083C101.442 33.7746 100.842 34.0189 100.239 34.2588C99.5362 34.5382 99.3735 35.1699 99.7274 35.6584C99.9362 35.9467 100.692 36.0633 101.108 35.9401C102.237 35.6056 102.334 34.6703 102.101 33.5083Z" fill="white"/>
<path d="M120.539 50.5901C120.341 50.1984 120.198 49.9167 120.002 49.525C119.594 49.8089 119.209 50.0135 118.904 50.2996C118.29 50.8718 117.563 50.9048 117.029 50.4119C116.576 49.9937 116.216 49.3071 116.139 48.6997C116.049 47.9845 116.506 47.4189 117.323 47.2406C117.89 47.1174 118.424 46.8467 118.989 46.7103C119.684 46.5408 120.185 46.2107 119.93 45.4471C119.78 45.0003 119.457 44.3951 119.088 44.2873C118.497 44.1178 117.807 44.2059 117.545 45.0839C117.466 45.348 116.882 45.4603 116.499 45.6561C116.152 44.8155 116.363 44.481 116.969 44.1729C120.042 42.6126 121.409 43.0021 121.187 46.7543C121.163 47.1526 121.178 47.5553 121.187 47.9559C121.202 48.7877 120.937 49.7604 122.231 50.1698C121.699 50.304 121.167 50.4361 120.543 50.5945L120.539 50.5901ZM119.851 47.058C119.178 47.3331 118.462 47.4849 117.943 47.8898C117.62 48.1429 117.596 48.7767 117.435 49.2389C117.884 49.3511 118.383 49.646 118.769 49.5382C119.941 49.2147 120.145 48.297 119.851 47.0558V47.058Z" fill="white"/>
<path d="M112.136 44.4277C111.615 44.3726 111.202 44.3286 110.791 44.2868L110.699 43.9677C111.136 43.7828 111.572 43.5958 111.996 43.4153C112.288 42.8652 112.604 42.2666 112.923 41.668L113.288 41.756C113.334 42.37 113.38 42.9818 113.431 43.6596L115.585 43.7696C115.605 43.9061 115.622 44.0425 115.642 44.179C114.947 44.2692 114.251 44.3594 113.396 44.4695C113.396 45.9131 113.35 47.4228 113.442 48.9259C113.457 49.1724 114.057 49.4673 114.437 49.5817C114.719 49.6653 115.079 49.4915 115.404 49.4343C115.453 49.5531 115.503 49.6741 115.552 49.793C114.919 50.1099 114.314 50.561 113.644 50.7085C112.714 50.9109 112.154 50.3343 112.143 49.3396C112.123 47.7133 112.139 46.087 112.139 44.4299L112.136 44.4277Z" fill="white"/>
<path d="M125.046 49.7319L126.253 50.1215C126.244 50.1963 126.237 50.2711 126.229 50.3437H122.879L122.831 50.1325C123.145 50.018 123.457 49.9058 123.837 49.7671V40.9643L122.84 40.7597L122.767 40.3965C123.466 40.1941 124.163 39.9916 125.044 39.7363V49.7319H125.046Z" fill="white"/>
<path d="M97.8284 29.9009V31.0519C97.4152 31.1377 96.9889 31.1355 96.6548 31.3094C95.7647 31.7715 94.9713 32.3195 95.0702 33.5387C95.1405 34.4036 95.0833 35.2772 95.0833 36.1685L96.5757 36.547L96.5251 36.8507H92.8877L92.8086 36.6263L93.8504 36.239V30.9859L92.791 30.8384L92.7427 30.5127C93.4482 30.3103 94.1559 30.11 94.9647 29.8789C95.002 30.4907 95.0306 30.9397 95.0636 31.448C96.0899 31.0299 96.2856 29.3948 97.8306 29.9009H97.8284Z" fill="white"/>
<path d="M108.004 49.7225V44.5641L106.914 44.3264C106.901 44.2296 106.888 44.135 106.875 44.0381C107.622 43.8313 108.369 43.6266 109.242 43.3867V49.7313C109.642 49.8656 109.993 49.9844 110.345 50.1011L110.328 50.3321H107.095L107.022 50.1715L108.004 49.7247V49.7225Z" fill="white"/>
<path d="M107.932 42.817C108 42.1414 107.483 41.3755 108.615 41.2743C109.235 41.2193 109.483 41.457 109.455 42.0534C109.404 43.0811 108.699 42.8676 107.932 42.8192V42.817Z" fill="white"/>
</g>
<defs>
<clipPath id="clip0_15_4305">
<rect width="93.75" height="27.5" fill="white" transform="translate(50.125 26.25)"/>
</clipPath>
</defs>
</svg>
