<svg width="194" height="65" viewBox="0 0 194 65" fill="none" xmlns="http://www.w3.org/2000/svg">
<g clip-path="url(#clip0_3_2747)">
<path d="M82.0869 43.5162V20.9995H96.2868V23.924H85.5041V30.7846H94.7431V33.698H85.5041V40.5916H96.4196V43.5162H82.0869Z" fill="white"/>
<path d="M104.204 20.9995V43.5162H100.897V20.9995H104.204Z" fill="white"/>
<path d="M108.964 43.5159V26.6284H112.271V43.5159H108.964Z" fill="white"/>
<path d="M119.641 26.6284L123.39 33.2032L127.172 26.6284H130.789L125.491 35.0721L130.833 43.5159H127.217L123.39 37.2052L119.575 43.5159H115.947L121.234 35.0721L116.014 26.6284H119.641Z" fill="white"/>
<path d="M134.495 43.5159V26.6284H137.802V43.5159H134.495Z" fill="white"/>
<path d="M142.562 43.5159V26.6284H145.758V29.311H145.935C146.244 28.4021 146.79 27.6875 147.572 27.1671C148.36 26.6394 149.253 26.3755 150.248 26.3755C150.454 26.3755 150.698 26.3828 150.978 26.3975C151.265 26.4121 151.49 26.4305 151.652 26.4524V29.5969C151.52 29.5602 151.284 29.5199 150.945 29.4759C150.605 29.4246 150.266 29.399 149.927 29.399C149.146 29.399 148.449 29.5639 147.837 29.8937C147.232 30.2162 146.753 30.667 146.399 31.246C146.045 31.8177 145.868 32.4701 145.868 33.2031V43.5159H142.562Z" fill="white"/>
<path d="M108.964 24.1145V21.0024H112.271V24.1145H108.964Z" fill="white"/>
<path d="M134.495 24.1145V21.0024H137.802V24.1145H134.495Z" fill="white"/>
<path d="M56.4897 17.4526C48.2979 17.4526 41.6665 24.0841 41.6665 32.2758C41.6665 40.4676 48.2979 47.0989 56.4897 47.0989C64.6815 47.0989 71.3128 40.4676 71.3128 32.2758C71.3128 24.0841 64.6815 17.4526 56.4897 17.4526ZM56.4897 44.2183C49.8883 44.2183 44.5471 38.8772 44.5471 32.2758C44.5471 31.1356 45.1172 28.495 49.1981 28.495C53.279 28.495 56.9097 32.4558 61.8009 33.026C63.4512 33.2361 64.7715 33.206 65.7616 33.086C67.202 32.9059 68.3723 34.2862 67.9521 35.6965C66.4818 40.6176 61.9208 44.2183 56.4897 44.2183Z" fill="white"/>
</g>
<defs>
<clipPath id="clip0_3_2747">
<rect width="110" height="29.7948" fill="white" transform="translate(41.6665 17.4526)"/>
</clipPath>
</defs>
</svg>
