<svg width="194" height="65" viewBox="0 0 194 65" fill="none" xmlns="http://www.w3.org/2000/svg">
<path fill-rule="evenodd" clip-rule="evenodd" d="M45.1307 29.5803H56.4317V34.5615H45.1307V36.6024C45.2245 36.6439 50.7737 39.7751 50.9453 39.8688C50.9453 39.8827 61.4981 34.0819 61.5088 34.0713C61.4939 34.0755 61.528 39.6067 61.5088 39.6237C61.5248 39.6312 51.0433 45.5652 51.0274 45.5843C51.0252 45.5833 40.4766 39.5417 40.4639 39.5417C40.4564 39.5182 40.4095 29.4439 40.4639 24.354C40.466 24.3625 50.8835 18.4637 50.9453 18.3934C51.038 18.4541 58.043 22.4762 61.5088 24.436V30.0705C57.961 28.0563 51.3407 24.1195 51.0274 23.9469C49.1442 25.0083 47.0149 26.2328 45.1317 27.2943C45.1317 27.3487 45.1467 29.4897 45.1317 29.5803H45.1307ZM50.454 12.3517C52.4203 12.3091 53.5339 13.0999 54.7126 13.8214C55.7166 14.4352 63.6381 19.0477 63.6381 19.0477C63.6381 19.0477 66.053 20.3447 66.8321 21.4158C67.3458 22.1213 67.6527 22.7341 67.8147 23.9469C67.9767 25.1597 67.9788 26.7433 67.9788 28.0297V36.1132C67.9788 37.9281 68.1984 40.1299 67.6516 41.5026C66.6637 43.9815 64.6442 44.6849 62.4924 45.9936C61.4885 46.6042 56.9794 49.2046 55.7773 49.9943C54.5059 50.8298 53.0863 51.8711 51.4377 52.2803C50.6927 52.4657 49.5876 52.2462 49.0632 52.0352C48.3897 51.7656 47.6341 51.1123 47.016 50.7286C46.0099 50.1051 40.8795 47.2202 39.4003 46.3197C37.8539 45.3776 36.0986 44.8074 35.0606 43.3804C34.4617 42.5577 34.0205 41.574 33.7508 40.4411C33.575 39.2752 33.6688 36.6034 33.6688 36.6034L33.7508 28.4378C33.7508 28.4378 33.4983 23.9746 34.078 22.4772C34.8624 20.4545 38.991 18.4765 38.991 18.4765C38.991 18.4765 45.1605 14.7987 48.2447 13.0061C48.7968 12.6853 49.5012 12.4562 50.4561 12.3528L50.454 12.3517Z" fill="white"/>
<path d="M84.5025 38.3501H76.8225V27.1501H84.5025V29.5501H79.5425V31.5501H84.3425V33.9501H79.5425V35.9501H84.5025V38.3501ZM98.7475 27.1501V38.3501H96.1875V27.9661L94.7475 38.3501H89.9315L88.5075 27.9661V38.3501H85.9475V27.1501H90.9555L92.3795 37.5341L93.8195 27.1501H98.7475ZM103.074 38.3501H100.354V27.1501H105.298C107.954 27.1501 109.634 28.8141 109.634 31.0701C109.634 33.3261 107.954 34.9101 105.298 34.9101H103.074V38.3501ZM103.074 29.5501V32.5101H105.298C106.226 32.5101 106.818 31.8861 106.818 31.0381C106.818 30.1741 106.226 29.5501 105.298 29.5501H103.074ZM120.548 27.1501L116.292 34.4781V35.9501H117.972V38.3501H111.892V35.9501H113.572V34.4781L109.316 27.1501H112.516L115.012 31.7581L117.508 27.1501H120.548ZM128.014 34.3341L130.622 38.3501H127.39L125.006 34.6701H123.902V38.3501H121.182V27.1501H126.142C128.686 27.1501 130.302 28.7501 130.302 30.9101C130.302 32.4781 129.454 33.7421 128.014 34.3341ZM126.142 29.5501H123.902V32.1901H126.142C126.958 32.1901 127.486 31.6301 127.486 30.8781C127.486 30.1101 126.958 29.5501 126.142 29.5501ZM139.424 38.3501H131.744V27.1501H139.424V29.5501H134.464V31.5501H139.264V33.9501H134.464V35.9501H139.424V38.3501ZM151.909 38.3501H149.013L148.357 36.1421H143.461L142.805 38.3501H140.069L143.573 27.1501H148.405L151.909 38.3501ZM145.909 27.9501L144.181 33.7421H147.637L145.909 27.9501ZM160.393 38.3501H152.713V27.1501H155.433V35.9501H160.393V38.3501Z" fill="white"/>
</svg>
