<svg width="194" height="65" viewBox="0 0 194 65" fill="none" xmlns="http://www.w3.org/2000/svg">
<g clip-path="url(#clip0_3_2720)">
<path d="M62.3629 35.3721C62.3605 35.5115 62.3031 35.6442 62.2032 35.7414C62.1033 35.8385 61.9689 35.8922 61.8296 35.8906H52.0073C52.2592 38.3202 54.0814 40.5425 56.6592 40.5425C58.4221 40.5425 59.7258 39.8758 60.7036 38.4684C60.7492 38.3944 60.8121 38.3328 60.887 38.2889C60.962 38.245 61.0465 38.2201 61.1333 38.2165C61.198 38.2147 61.2624 38.2261 61.3225 38.25C61.3826 38.2739 61.4373 38.3099 61.4831 38.3556C61.5288 38.4014 61.5648 38.456 61.5887 38.5162C61.6126 38.5763 61.624 38.6407 61.6221 38.7054C61.6225 38.7948 61.5967 38.8823 61.5481 38.9573C60.5555 40.6758 58.5851 41.5202 56.6592 41.5202C53.3555 41.5202 50.9851 38.5573 50.9851 35.4017C50.9851 32.2462 53.3407 29.2832 56.6592 29.2832C59.9777 29.2832 62.3481 32.2165 62.3629 35.3721ZM61.311 34.9128C61.1036 32.4832 59.237 30.261 56.6592 30.261C54.0814 30.261 52.2592 32.4832 52.0073 34.9128H61.311Z" fill="white"/>
<path d="M74.3037 29.5202C74.4322 29.524 74.5544 29.5767 74.6453 29.6676C74.7362 29.7584 74.7889 29.8806 74.7926 30.0091C74.7945 30.0738 74.7831 30.1382 74.7592 30.1984C74.7352 30.2585 74.6993 30.3132 74.6535 30.3589C74.6078 30.4047 74.5531 30.4406 74.493 30.4646C74.4328 30.4885 74.3684 30.4999 74.3037 30.498H71.6667V40.8536C71.6655 40.9829 71.6137 41.1066 71.5222 41.198C71.4308 41.2894 71.3071 41.3413 71.1778 41.3425C71.0493 41.3387 70.9271 41.286 70.8362 41.1951C70.7453 41.1043 70.6926 40.9821 70.6889 40.8536V30.498H68.1556C68.0909 30.4999 68.0265 30.4885 67.9663 30.4646C67.9062 30.4406 67.8516 30.4047 67.8058 30.3589C67.76 30.3132 67.7241 30.2585 67.7002 30.1984C67.6762 30.1382 67.6649 30.0738 67.6667 30.0091C67.6679 29.8798 67.7197 29.7561 67.8112 29.6647C67.9026 29.5733 68.0263 29.5214 68.1556 29.5202H70.6889V25.7425C70.6892 25.6173 70.7341 25.4963 70.8155 25.4013C70.897 25.3062 71.0097 25.2433 71.1334 25.2239C71.2025 25.2148 71.2728 25.2206 71.3394 25.2411C71.4061 25.2616 71.4676 25.2962 71.5196 25.3426C71.5716 25.389 71.613 25.4462 71.641 25.51C71.6689 25.5739 71.6828 25.6431 71.6815 25.7128V29.5202H74.3037Z" fill="white"/>
<path d="M90.3777 34.5277V40.7944C90.3739 40.9229 90.3212 41.0451 90.2304 41.1359C90.1395 41.2268 90.0173 41.2795 89.8888 41.2833C89.8241 41.2851 89.7597 41.2737 89.6995 41.2498C89.6394 41.2259 89.5848 41.1899 89.539 41.1442C89.4932 41.0984 89.4573 41.0438 89.4334 40.9836C89.4094 40.9235 89.3981 40.8591 89.3999 40.7944V34.5277C89.3999 32.4092 88.1999 30.3055 85.8443 30.3055C82.8221 30.3055 81.5184 32.9425 81.6962 35.6536C81.6962 35.7277 81.7258 36.0388 81.7258 36.0833V40.7796C81.7256 40.9047 81.6807 41.0257 81.5992 41.1208C81.5177 41.2158 81.405 41.2787 81.2814 41.2981C81.2122 41.3073 81.142 41.3014 81.0753 41.2809C81.0086 41.2604 80.9472 41.2258 80.8951 41.1794C80.8431 41.133 80.8017 41.0759 80.7738 41.012C80.7458 40.9481 80.732 40.8789 80.7332 40.8092V20.2018C80.7344 20.0725 80.7863 19.9488 80.8777 19.8574C80.9691 19.7659 81.0928 19.7141 81.2221 19.7129C81.3506 19.7166 81.4728 19.7693 81.5637 19.8602C81.6546 19.9511 81.7073 20.0733 81.711 20.2018V31.8462C82.5555 30.3351 84.0666 29.3129 85.8295 29.3129C88.7332 29.3129 90.3777 31.8462 90.3777 34.5277Z" fill="white"/>
<path d="M108.022 35.3721C108.02 35.5115 107.963 35.6442 107.863 35.7414C107.763 35.8385 107.628 35.8922 107.489 35.8906H97.6668C97.9186 38.3202 99.7408 40.5425 102.319 40.5425C104.082 40.5425 105.385 39.8758 106.363 38.4684C106.409 38.3944 106.472 38.3328 106.546 38.2889C106.621 38.245 106.706 38.2201 106.793 38.2165C106.857 38.2147 106.922 38.2261 106.982 38.25C107.042 38.2739 107.097 38.3099 107.142 38.3556C107.188 38.4014 107.224 38.456 107.248 38.5162C107.272 38.5763 107.283 38.6407 107.282 38.7054C107.282 38.7948 107.256 38.8823 107.208 38.9573C106.215 40.6758 104.245 41.5202 102.319 41.5202C99.0149 41.5202 96.6445 38.5573 96.6445 35.4017C96.6445 32.2462 99.0001 29.2832 102.319 29.2832C105.608 29.2832 108.008 32.2165 108.022 35.3721ZM106.956 34.9128C106.748 32.4832 104.882 30.261 102.304 30.261C99.726 30.261 97.9038 32.4832 97.6519 34.9128H106.956Z" fill="white"/>
<path d="M120.096 29.9798C120.106 30.1113 120.063 30.2412 119.977 30.3411C119.89 30.441 119.768 30.5029 119.637 30.5131C116.748 30.9427 115.444 33.2983 115.444 36.039V40.7353C115.444 40.8605 115.399 40.9815 115.318 41.0765C115.236 41.1716 115.124 41.2344 115 41.2538C114.931 41.263 114.86 41.2572 114.794 41.2367C114.727 41.2162 114.666 41.1816 114.614 41.1352C114.562 41.0887 114.52 41.0316 114.492 40.9677C114.464 40.9038 114.45 40.8347 114.452 40.765V30.0538C114.452 29.9287 114.497 29.8077 114.578 29.7126C114.66 29.6176 114.773 29.5547 114.896 29.5353C114.965 29.5261 115.036 29.532 115.102 29.5525C115.169 29.573 115.23 29.6076 115.282 29.654C115.334 29.7004 115.376 29.7575 115.404 29.8214C115.432 29.8853 115.446 29.9545 115.444 30.0242V32.202C116.259 30.8242 117.874 29.5205 119.563 29.5205C119.815 29.5205 120.096 29.6983 120.096 29.9798Z" fill="white"/>
<path d="M136.244 35.3721C136.242 35.5115 136.185 35.6442 136.085 35.7414C135.985 35.8385 135.851 35.8922 135.711 35.8906H125.889C126.141 38.3202 127.963 40.5425 130.541 40.5425C132.304 40.5425 133.607 39.8758 134.585 38.4684C134.631 38.3944 134.694 38.3328 134.769 38.2889C134.844 38.245 134.928 38.2201 135.015 38.2165C135.08 38.2147 135.144 38.2261 135.204 38.25C135.264 38.2739 135.319 38.3099 135.365 38.3556C135.41 38.4014 135.446 38.456 135.47 38.5162C135.494 38.5763 135.506 38.6407 135.504 38.7054C135.504 38.7948 135.478 38.8823 135.43 38.9573C134.437 40.6758 132.467 41.5202 130.541 41.5202C127.237 41.5202 124.867 38.5573 124.867 35.4017C124.867 32.2462 127.222 29.2832 130.541 29.2832C133.859 29.2832 136.23 32.2165 136.244 35.3721ZM135.193 34.9128C134.985 32.4832 133.119 30.261 130.541 30.261C127.963 30.261 126.141 32.4832 125.889 34.9128H135.193Z" fill="white"/>
<path d="M152.126 30.0982V40.8537C152.122 40.9822 152.069 41.1044 151.979 41.1953C151.888 41.2862 151.765 41.3389 151.637 41.3426C151.572 41.3445 151.508 41.3331 151.448 41.3091C151.388 41.2852 151.333 41.2493 151.287 41.2035C151.241 41.1577 151.205 41.1031 151.182 41.043C151.158 40.9828 151.146 40.9184 151.148 40.8537V38.8093C150.333 40.4241 148.896 41.5945 147.059 41.5945C144.141 41.5945 142.526 39.0611 142.526 36.3796V30.0834C142.527 29.954 142.579 29.8304 142.67 29.7389C142.762 29.6475 142.885 29.5956 143.015 29.5945C143.143 29.5982 143.265 29.6509 143.356 29.7418C143.447 29.8327 143.5 29.9549 143.504 30.0834V36.3796C143.504 38.4982 144.704 40.6019 147.059 40.6019C150.363 40.6019 151.148 37.5056 151.148 34.0834V30.0685C151.149 29.9893 151.169 29.9114 151.207 29.8415C151.244 29.7716 151.298 29.7117 151.363 29.6667C151.428 29.6217 151.503 29.593 151.582 29.5831C151.66 29.5731 151.74 29.5821 151.815 29.6093C151.908 29.6526 151.987 29.7216 152.042 29.8082C152.097 29.8949 152.126 29.9955 152.126 30.0982Z" fill="white"/>
<path d="M177 34.4834V40.7797C176.996 40.9081 176.943 41.0303 176.853 41.1212C176.762 41.2121 176.639 41.2648 176.511 41.2685C176.446 41.2704 176.382 41.259 176.322 41.2351C176.262 41.2112 176.207 41.1752 176.161 41.1294C176.115 41.0837 176.079 41.029 176.056 40.9689C176.032 40.9088 176.02 40.8444 176.022 40.7797V34.4834C176.022 32.3648 174.822 30.2908 172.467 30.2908C169.504 30.2908 168.378 33.4611 168.378 35.9204V40.7797C168.374 40.9081 168.321 41.0303 168.23 41.1212C168.139 41.2121 168.017 41.2648 167.889 41.2685C167.824 41.2704 167.76 41.259 167.7 41.2351C167.639 41.2112 167.585 41.1752 167.539 41.1294C167.493 41.0837 167.457 41.029 167.433 40.9689C167.409 40.9088 167.398 40.8444 167.4 40.7797V34.4834C167.4 32.3648 166.2 30.2908 163.844 30.2908C160.852 30.2908 159.622 32.6463 159.726 35.7871C159.726 35.8611 159.755 35.9945 159.726 36.0389V40.7648C159.726 40.89 159.681 41.011 159.599 41.106C159.518 41.2011 159.405 41.264 159.281 41.2834C159.212 41.2925 159.142 41.2867 159.075 41.2662C159.009 41.2457 158.947 41.2111 158.895 41.1647C158.843 41.1183 158.802 41.0611 158.774 40.9973C158.746 40.9334 158.732 40.8642 158.733 40.7945V30.0537C158.733 29.9285 158.778 29.8076 158.86 29.7125C158.941 29.6175 159.054 29.5546 159.178 29.5352C159.247 29.526 159.317 29.5319 159.384 29.5524C159.45 29.5728 159.512 29.6075 159.564 29.6539C159.616 29.7003 159.657 29.7574 159.685 29.8213C159.713 29.8852 159.727 29.9544 159.726 30.0241V31.8167C160.57 30.3056 162.081 29.313 163.844 29.313C165.844 29.313 167.4 30.5871 168.037 32.4389C168.852 30.6019 170.437 29.313 172.467 29.313C175.355 29.313 177 31.8167 177 34.4834Z" fill="white"/>
<path opacity="0.6" d="M29.2963 27.1353L17 32.7204L29.2963 39.9945L41.6074 32.7204L29.2963 27.1353Z" fill="white"/>
<path opacity="0.45" d="M17 32.7205L29.2963 39.9946V12.3057L17 32.7205Z" fill="white"/>
<path opacity="0.8" d="M29.2964 12.3057V39.9946L41.6075 32.7205L29.2964 12.3057Z" fill="white"/>
<path opacity="0.45" d="M17 35.061L29.2963 52.3944V42.3203L17 35.061Z" fill="white"/>
<path opacity="0.8" d="M29.2964 42.3203V52.3944L41.6075 35.061L29.2964 42.3203Z" fill="white"/>
</g>
<defs>
<clipPath id="clip0_3_2720">
<rect width="160" height="40.0889" fill="white" transform="translate(17 12.3057)"/>
</clipPath>
</defs>
</svg>
