<svg width="194" height="80" viewBox="0 0 194 80" fill="none" xmlns="http://www.w3.org/2000/svg">
<g clip-path="url(#clip0_15_4482)">
<path d="M76.7625 36.6445C75.3364 36.6445 74.1585 37.1032 73.2607 38.0091C72.3641 38.9138 71.9099 40.0675 71.9099 41.4379C71.9099 42.8082 72.3735 43.8809 73.2866 44.825C74.2009 45.7702 75.3528 46.2486 76.7119 46.2486C77.7167 46.2486 78.6181 45.9775 79.3888 45.4435C80.1595 44.9095 80.7643 44.1265 81.1856 43.1175L81.2185 43.0376H79.7677L79.7512 43.0712C79.4511 43.6944 79.0264 44.1809 78.4898 44.5203C77.9521 44.8586 77.3426 45.03 76.6766 45.03C75.7447 45.03 74.9481 44.7334 74.3115 44.1496C73.6879 43.5786 73.3266 42.8105 73.2395 41.8653H81.4785V41.724C81.4785 40.2204 81.0326 38.9856 80.1536 38.0531C79.2735 37.1195 78.1321 36.6457 76.7613 36.6457L76.7625 36.6445ZM74.388 38.6531C74.9857 38.1191 75.7282 37.8481 76.5919 37.8481C78.4439 37.8481 79.6088 38.8339 80.0548 40.7776H73.2784C73.4302 39.8891 73.8032 39.1744 74.388 38.6531Z" fill="white"/>
<path d="M91.2967 44.0182L87.5125 33.9844H86.197L90.7825 45.9619L90.7966 45.999H91.8132L96.414 33.9844H95.0973L91.2967 44.0182Z" fill="white"/>
<path d="M64.7711 38.222C63.9545 37.2085 62.832 36.6953 61.4306 36.6953C60.0292 36.6953 58.8713 37.1598 57.9629 38.0761C57.0546 38.9924 56.5945 40.1403 56.5945 41.4887C56.5945 42.837 57.0463 43.934 57.9371 44.8503C58.8278 45.7677 59.9692 46.2322 61.3282 46.2322C62.0589 46.2322 62.7484 46.0816 63.3768 45.7827C63.9475 45.5128 64.4158 45.1468 64.7711 44.6939V45.997H66.0278V36.8957H64.7711V38.222ZM63.7427 38.9275C64.4252 39.6214 64.7711 40.4496 64.7711 41.389C64.7711 42.4177 64.4216 43.2934 63.7333 43.9931C63.045 44.6916 62.2472 45.046 61.3623 45.046C60.4775 45.046 59.6291 44.7078 58.9478 44.0417C58.2653 43.3756 57.9194 42.5335 57.9194 41.5396C57.9194 40.489 58.2653 39.6075 58.9478 38.9194C59.6303 38.2313 60.4539 37.8826 61.3964 37.8826C62.2707 37.8826 63.0602 38.2348 63.7427 38.9275Z" fill="white"/>
<path d="M69.8519 33.9844H68.5611V36.8965H66.8279V38.1673H68.5611V45.999H69.8519V38.1673H71.5863V36.8965H69.8519V33.9844Z" fill="white"/>
<path d="M48.0779 41.3466H54.1647C53.8906 42.4227 53.3222 43.3054 52.4774 43.9715C51.6137 44.6514 50.6289 44.9966 49.5475 44.9966C48.1767 44.9966 47.0012 44.5124 46.054 43.5579C45.1068 42.6034 44.6255 41.3837 44.6255 39.9334C44.6255 38.6047 45.1009 37.4394 46.0375 36.4675C46.973 35.4968 48.1485 35.0045 49.531 35.0045C51.0689 35.0045 52.4033 35.7007 53.4964 37.0745L53.514 37.0965H55.1025L55.0555 37.0108C54.486 35.9694 53.7247 35.1563 52.7904 34.5956C51.8561 34.035 50.783 33.75 49.5981 33.75C47.8331 33.75 46.3387 34.335 45.1538 35.4899C43.8913 36.712 43.25 38.2005 43.25 39.916C43.25 41.6316 43.8501 43.2116 45.035 44.4163C46.2199 45.6222 47.7037 46.2326 49.4463 46.2326C51.189 46.2326 52.6009 45.6673 53.7788 44.5518C54.9578 43.4363 55.6073 41.9849 55.7097 40.238L55.7132 40.1767H48.0779V41.3466Z" fill="white"/>
<path d="M139.472 36.6445C138.046 36.6445 136.868 37.1032 135.97 38.0091C135.073 38.9138 134.619 40.0675 134.619 41.4379C134.619 42.8082 135.083 43.8809 135.995 44.825C136.909 45.7702 138.061 46.2486 139.42 46.2486C140.425 46.2486 141.326 45.9775 142.097 45.4435C142.868 44.9095 143.472 44.1265 143.894 43.1175L143.927 43.0376H142.476L142.459 43.0712C142.159 43.6944 141.734 44.1809 141.198 44.5203C140.66 44.8586 140.051 45.03 139.385 45.03C138.453 45.03 137.656 44.7334 137.02 44.1496C136.396 43.5786 136.035 42.8105 135.948 41.8653H144.187V41.724C144.187 40.2204 143.741 38.9856 142.862 38.0531C141.982 37.1195 140.84 36.6457 139.469 36.6457L139.472 36.6445ZM135.988 40.7776C136.139 39.8891 136.512 39.1744 137.097 38.6531C137.695 38.1191 138.437 37.8481 139.301 37.8481C141.153 37.8481 142.318 38.8339 142.764 40.7776H135.988Z" fill="white"/>
<path d="M132.068 37.8172V36.8963H130.845V45.9988H132.153V40.5185C132.153 39.7436 132.3 39.1609 132.59 38.7879C132.879 38.4184 133.406 38.1971 134.155 38.1323L134.21 38.1276V36.7607H134.15C133.316 36.7723 132.616 37.1268 132.067 37.816L132.068 37.8172Z" fill="white"/>
<path d="M149.05 40.9676C148.921 40.9097 148.644 40.8193 148.2 40.6884C147.771 40.5622 147.447 40.4324 147.236 40.3015C146.798 40.0421 146.585 39.676 146.585 39.1802C146.585 38.8292 146.708 38.5281 146.951 38.2836C147.193 38.0392 147.502 37.9164 147.87 37.9164C148.272 37.9164 148.596 38.0265 148.832 38.2443C149.069 38.4609 149.199 38.7829 149.222 39.2011L149.224 39.2555H150.599L150.597 39.1953C150.563 38.403 150.308 37.7763 149.839 37.3315C149.371 36.8878 148.731 36.6631 147.937 36.6631C147.187 36.6631 146.542 36.9168 146.017 37.416C145.493 37.9164 145.226 38.5327 145.226 39.2486C145.226 40.0096 145.427 40.5703 145.823 40.9155C146.213 41.2537 146.848 41.5781 147.712 41.8804C148.291 42.0877 148.712 42.3206 148.965 42.5696C149.218 42.8187 149.339 43.1604 149.339 43.5994C149.339 44.0153 149.191 44.3616 148.899 44.6281C148.606 44.8956 148.237 45.0312 147.8 45.0312C147.364 45.0312 146.953 44.8551 146.638 44.5064C146.32 44.1566 146.16 43.699 146.16 43.1477V43.0561H144.834V43.1152C144.858 44.0744 145.141 44.8412 145.676 45.3961C146.213 45.9521 146.921 46.2336 147.785 46.2336C148.648 46.2336 149.35 45.9718 149.908 45.4563C150.466 44.9397 150.75 44.2805 150.75 43.4975C150.75 42.2951 150.177 41.4437 149.05 40.9676Z" fill="white"/>
<path d="M118.826 33.9844H117.535V36.8965H115.801V38.1673H117.535V45.999H118.826V38.1673H120.559V36.8965H118.826V33.9844Z" fill="white"/>
<path d="M127.837 41.5172C127.837 41.8902 127.83 42.1787 127.82 42.3744C127.81 42.5934 127.776 42.847 127.719 43.1274C127.664 43.4031 127.576 43.6417 127.454 43.8375C126.98 44.6286 126.208 45.0306 125.159 45.0306C124.209 45.0306 123.542 44.7653 123.176 44.244C122.805 43.7158 122.617 42.8679 122.617 41.7246V36.8965H121.344V41.64C121.344 43.2073 121.629 44.3761 122.189 45.114C122.754 45.8565 123.741 46.233 125.126 46.233C126.247 46.233 127.159 45.86 127.838 45.1244V45.9978H129.129V36.8965H127.838V41.5172H127.837Z" fill="white"/>
<path d="M114.397 38.161C113.765 37.1996 112.731 36.7119 111.321 36.7119C110.164 36.7119 109.218 37.0861 108.508 37.8251V36.8961H107.251V45.9986H108.508V41.4427C108.509 41.0639 108.515 40.7766 108.524 40.589C108.535 40.3805 108.569 40.1326 108.625 39.8523C108.681 39.5754 108.77 39.331 108.89 39.1248C109.352 38.3336 110.124 37.9328 111.185 37.9328C112.08 37.9328 112.734 38.1703 113.128 38.6394C113.526 39.1121 113.727 39.8731 113.727 40.9041V45.9986H115V41.2388C115 40.4917 114.96 39.8801 114.88 39.4213C114.8 38.958 114.637 38.534 114.396 38.161H114.397Z" fill="white"/>
<path d="M101.309 36.6445C99.8827 36.6445 98.7049 37.1032 97.8071 38.0091C96.9105 38.9138 96.4563 40.0675 96.4563 41.4379C96.4563 42.8082 96.9199 43.8809 97.833 44.825C98.7473 45.7702 99.8992 46.2486 101.258 46.2486C102.263 46.2486 103.164 45.9775 103.935 45.4435C104.706 44.9095 105.311 44.1265 105.732 43.1175L105.765 43.0376H104.314L104.298 43.0712C103.998 43.6944 103.573 44.1809 103.035 44.5203C102.497 44.8586 101.888 45.03 101.222 45.03C100.29 45.03 99.4933 44.7334 98.8567 44.1496C98.2331 43.5786 97.8718 42.8105 97.7848 41.8653H106.024V41.724C106.024 40.2204 105.578 38.9856 104.699 38.0531C103.819 37.1195 102.677 36.6457 101.307 36.6457L101.309 36.6445ZM97.8248 40.7776C97.9765 39.8891 98.3496 39.1744 98.9344 38.6531C99.5321 38.1191 100.275 37.8481 101.138 37.8481C102.99 37.8481 104.155 38.8339 104.601 40.7776H97.8248Z" fill="white"/>
</g>
<defs>
<clipPath id="clip0_15_4482">
<rect width="107.5" height="12.5" fill="white" transform="translate(43.25 33.75)"/>
</clipPath>
</defs>
</svg>
