<svg width="194" height="80" viewBox="0 0 194 80" fill="none" xmlns="http://www.w3.org/2000/svg">
<g clip-path="url(#clip0_15_4390)">
<path d="M141.042 51.6717C140.425 51.6691 139.809 51.6639 139.192 51.6691C139.051 51.6691 138.953 51.6315 138.853 51.5278C135.15 47.6838 131.444 43.8436 127.742 39.9969C127.59 39.8388 127.443 39.7662 127.22 39.7752C126.788 39.7934 126.355 39.7804 125.921 39.7804C125.858 39.7804 125.795 39.7856 125.713 39.7895V39.9788C125.713 42.678 125.711 45.3773 125.716 48.0766C125.716 48.6315 125.725 49.1877 125.846 49.7335C125.881 49.8942 125.931 50.0537 125.992 50.2054C126.126 50.536 126.369 50.7564 126.71 50.8705C126.999 50.9677 127.298 51.0027 127.6 51.0326C127.676 51.0403 127.75 51.0507 127.829 51.0611V51.651H122.093V51.0598C122.277 51.039 122.461 51.0274 122.641 50.9963C122.855 50.9587 123.073 50.9185 123.28 50.8523C123.589 50.7538 123.803 50.5386 123.934 50.2417C124.049 49.985 124.11 49.714 124.133 49.4366C124.168 49.0191 124.201 48.6004 124.201 48.1816C124.205 42.7947 124.205 37.4079 124.201 32.021C124.201 31.4959 124.18 30.9695 124.067 30.4535C124.047 30.3615 124.023 30.2694 123.994 30.18C123.84 29.6886 123.523 29.3489 123.027 29.1999C122.768 29.1221 122.496 29.0806 122.231 29.0222C122.185 29.0119 122.139 29.0054 122.087 28.995V28.4103C122.139 28.4064 122.19 28.3973 122.241 28.3973C124.667 28.3973 127.093 28.3896 129.519 28.3999C130.768 28.4051 132.003 28.5503 133.203 28.9172C134.083 29.1856 134.909 29.5629 135.638 30.1307C136.569 30.8542 137.216 31.7721 137.434 32.9363C137.812 34.9407 137.217 36.6222 135.645 37.9407C134.82 38.633 133.855 39.0674 132.827 39.3681C132.028 39.6015 131.212 39.7415 130.382 39.805C130.158 39.8219 129.934 39.8362 129.676 39.8543C129.726 39.914 129.757 39.958 129.795 39.9956C130.62 40.8448 131.445 41.6927 132.27 42.5406C134.671 45.0091 137.072 47.4789 139.474 49.9474C139.949 50.4349 140.422 50.9236 140.897 51.4111C140.947 51.4617 140.994 51.5135 141.042 51.5654V51.6717ZM125.733 29.4203C125.696 29.664 125.707 38.6369 125.743 38.7679C125.789 38.7705 125.836 38.7743 125.882 38.7743C126.956 38.7743 128.03 38.7743 129.102 38.7743C129.904 38.7743 130.702 38.7121 131.489 38.5604C132.249 38.4139 132.983 38.187 133.664 37.8098C134.558 37.3145 135.24 36.6248 135.61 35.6589C135.892 34.9199 135.95 34.155 135.85 33.3758C135.744 32.5487 135.41 31.8252 134.833 31.2172C134.282 30.6376 133.607 30.2565 132.863 29.9829C131.84 29.6069 130.775 29.4462 129.692 29.4241C128.406 29.3982 127.119 29.4138 125.832 29.4125C125.803 29.4125 125.773 29.4177 125.735 29.4203H125.733Z" fill="white"/>
<path d="M102.149 33.5534H101.527C101.498 33.486 101.466 33.4186 101.439 33.3486C101.129 32.5668 100.715 31.8499 100.145 31.225C99.3822 30.39 98.4387 29.8468 97.3598 29.524C96.6518 29.3127 95.9269 29.2076 95.1902 29.1623C94.507 29.1208 93.8263 29.1325 93.147 29.2038C90.177 29.511 87.6548 30.6908 85.7326 33.0154C84.6732 34.2963 84.0003 35.7691 83.6346 37.3845C83.3483 38.6512 83.2819 39.9321 83.3887 41.2234C83.5214 42.831 83.9275 44.3635 84.7188 45.7792C86.0059 48.0831 87.9385 49.6 90.453 50.3921C91.8416 50.829 93.268 50.9742 94.7204 50.9055C95.8514 50.8524 96.9589 50.6734 98.0378 50.3286C98.5298 50.1717 99.0087 49.9837 99.4746 49.7607C99.528 49.7348 99.5787 49.7063 99.6386 49.6752V49.4781C99.6386 47.3337 99.6399 45.1893 99.6373 43.045C99.6373 42.6677 99.6191 42.2904 99.5475 41.917C99.4382 41.3414 99.1115 40.9628 98.548 40.7852C98.1276 40.6517 97.6929 40.5933 97.2583 40.5415C97.0826 40.5207 96.9069 40.5026 96.7247 40.4818V39.8841H103.231C103.246 40.076 103.236 40.2679 103.237 40.4766C103.119 40.4987 103.003 40.5155 102.89 40.5428C102.642 40.6024 102.391 40.6504 102.15 40.732C101.724 40.8773 101.45 41.178 101.315 41.6085C101.2 41.9741 101.178 42.35 101.156 42.7273C101.151 42.822 101.151 42.9166 101.151 43.0113C101.151 45.2088 101.151 47.4063 101.151 49.6038V49.8191C101.101 49.8515 101.058 49.8813 101.013 49.9085C99.5813 50.7772 98.0521 51.3943 96.3993 51.6964C95.1733 51.922 93.9382 51.9725 92.6967 51.8973C91.5618 51.8273 90.449 51.6328 89.3662 51.2867C87.7668 50.7759 86.3365 49.9746 85.1131 48.8221C83.6828 47.4737 82.7262 45.8402 82.1757 43.9642C81.8634 42.8985 81.7046 41.8094 81.6681 40.7009C81.62 39.2424 81.7801 37.8111 82.2278 36.42C83.2013 33.3979 85.1196 31.1601 87.9255 29.6718C89.1814 29.0054 90.5219 28.5853 91.9236 28.3468C93.1873 28.1329 94.4575 28.0979 95.7356 28.1666C97.2166 28.247 98.6664 28.492 100.079 28.9509C100.745 29.1675 101.39 29.4332 102.023 29.7327C102.131 29.7846 102.163 29.8468 102.163 29.9635C102.16 31.1031 102.161 32.244 102.161 33.3836C102.161 33.4355 102.154 33.4873 102.15 33.5534H102.149Z" fill="white"/>
<path d="M119.225 29.7581V33.4764H118.592C118.568 33.4128 118.541 33.3415 118.516 33.2702C118.317 32.6998 118.067 32.1527 117.739 31.6431C116.927 30.3804 115.788 29.583 114.312 29.2836C113.118 29.0424 111.929 29.0813 110.762 29.4482C109.812 29.7464 109 30.2598 108.38 31.0468C107.866 31.7002 107.575 32.4444 107.477 33.2663C107.402 33.9068 107.43 34.5395 107.607 35.1618C107.84 35.9851 108.319 36.6463 108.965 37.1973C109.601 37.7405 110.326 38.1398 111.084 38.486C112.28 39.0331 113.477 39.575 114.674 40.1182C115.436 40.4644 116.179 40.843 116.874 41.311C117.487 41.7233 118.046 42.1939 118.502 42.7786C119.085 43.5267 119.417 44.3746 119.479 45.3197C119.629 47.5613 118.722 49.2986 116.902 50.5808C115.952 51.2511 114.881 51.6452 113.733 51.8099C111.375 52.1483 109.131 51.736 106.985 50.7377C106.383 50.4576 105.814 50.1167 105.267 49.7381C105.187 49.6824 105.149 49.624 105.15 49.5216C105.154 48.2925 105.153 47.0648 105.153 45.8357C105.153 45.8007 105.157 45.7657 105.161 45.706C105.365 45.6918 105.569 45.6996 105.789 45.7009C105.813 45.7618 105.835 45.8214 105.857 45.8811C106.194 46.8081 106.622 47.6858 107.226 48.4727C108.259 49.8198 109.621 50.6132 111.306 50.8479C112.671 51.0385 113.992 50.8842 115.243 50.2826C116.184 49.8301 116.962 49.1871 117.466 48.2614C118.072 47.1438 118.197 45.9666 117.808 44.7505C117.622 44.1684 117.259 43.6965 116.814 43.2829C116.321 42.824 115.762 42.4532 115.165 42.1472C114.48 41.7972 113.781 41.4718 113.085 41.145C112.162 40.7133 111.231 40.301 110.312 39.8628C109.42 39.4376 108.587 38.919 107.855 38.2513C107.092 37.5564 106.508 36.7422 106.207 35.7491C105.539 33.5438 106.199 31.1479 108.162 29.631C109.04 28.9517 110.04 28.5381 111.124 28.3164C112.173 28.1025 113.231 28.0882 114.292 28.2036C115.765 28.3656 117.177 28.7429 118.516 29.3821C118.761 29.4988 118.996 29.6349 119.229 29.7581H119.225Z" fill="white"/>
<path d="M64.2978 36.04H65.2751V27.5001H64.2978V36.04Z" fill="white"/>
<path d="M66.5386 36.4032L67.3447 36.9209L71.9899 29.7433L71.1837 29.2256L66.5386 36.4032Z" fill="white"/>
<path d="M66.2789 33.2372L67.2034 33.5107L68.7984 28.1603L67.8739 27.8869L66.2789 33.2372Z" fill="white"/>
<path d="M68.1916 37.9175L68.5986 38.8027L76.3926 35.2464L75.9856 34.3612L68.1916 37.9175Z" fill="white"/>
<path d="M68.7931 40.0992L68.6562 41.0449L77.1413 42.263L77.2781 41.3172L68.7931 40.0992Z" fill="white"/>
<path d="M71.5712 38.544L71.7068 39.4951L77.2539 38.7106L77.1184 37.7595L71.5712 38.544Z" fill="white"/>
<path d="M68.1394 42.2835L67.5029 43.0225L74.009 48.5834L74.6454 47.8445L68.1394 42.2835Z" fill="white"/>
<path d="M66.3823 43.7374L65.4629 44.0098L67.9063 52.1955L68.8257 51.9231L66.3823 43.7374Z" fill="white"/>
<path d="M68.9451 45.5749L68.1348 46.0957L71.1723 50.7856L71.9826 50.2648L68.9451 45.5749Z" fill="white"/>
<path d="M64.1223 43.9962L63.1829 43.7275L60.817 51.9358L61.7565 52.2045L64.1223 43.9962Z" fill="white"/>
<path d="M62.1212 43.0386L61.4897 42.3193L55.0366 47.9411L55.668 48.6604L62.1212 43.0386Z" fill="white"/>
<path d="M61.4505 46.0873L60.6377 45.5703L57.6224 50.2744L58.4352 50.7915L61.4505 46.0873Z" fill="white"/>
<path d="M62.1085 42.9729L61.467 42.2383L54.9991 47.8432L55.6406 48.5778L62.1085 42.9729Z" fill="white"/>
<path d="M60.9138 41.0492L60.7769 40.1035L52.292 41.323L52.429 42.2687L60.9138 41.0492Z" fill="white"/>
<path d="M58.6867 43.3216L58.2871 42.4473L53.188 44.76L53.5876 45.6344L58.6867 43.3216Z" fill="white"/>
<path d="M60.9727 38.8146L61.376 37.9277L53.5671 34.4039L53.1638 35.2908L60.9727 38.8146Z" fill="white"/>
<path d="M62.2308 36.931L63.0369 36.4131L58.3905 29.2363L57.5844 29.7542L62.2308 36.931Z" fill="white"/>
<path d="M59.2298 35.8628L59.8613 35.1367L55.6271 31.4817L54.9956 32.2077L59.2298 35.8628Z" fill="white"/>
<path d="M69.7359 35.101L70.3662 35.8281L74.6068 32.1804L73.9766 31.4533L69.7359 35.101Z" fill="white"/>
<path d="M71.3209 42.4427L70.9199 43.3164L76.0154 45.6372L76.4164 44.7634L71.3209 42.4427Z" fill="white"/>
<path d="M65.2698 46.9159L64.3054 46.9189L64.323 52.5003L65.2874 52.4972L65.2698 46.9159Z" fill="white"/>
<path d="M62.3656 33.5102L63.2905 33.2383L61.7049 27.8851L60.7799 28.157L62.3656 33.5102Z" fill="white"/>
<path d="M52.439 37.7793L52.3035 38.7305L57.8506 39.515L57.9862 38.5638L52.439 37.7793Z" fill="white"/>
</g>
<defs>
<clipPath id="clip0_15_4390">
<rect width="88.75" height="25" fill="white" transform="translate(52.2917 27.5)"/>
</clipPath>
</defs>
</svg>
