<svg width="194" height="80" viewBox="0 0 194 80" fill="none" xmlns="http://www.w3.org/2000/svg">
<g clip-path="url(#clip0_15_4575)">
<path d="M94.9975 51.7188H93.9419V59.5777H94.9975V51.7188Z" fill="white"/>
<path d="M105.281 52.7658H109.497V51.7188H104.225V60.6247H105.281V56.4341H106.334V57.4811H107.387V56.4341H109.497V55.3871H105.281V52.7658Z" fill="white"/>
<path d="M110.55 52.7656H109.497V55.387H110.55V52.7656Z" fill="white"/>
<path d="M110.55 59.5781H109.497V60.6251H110.55V59.5781Z" fill="white"/>
<path d="M100.266 51.7188H99.2134V59.5777H100.266V51.7188Z" fill="white"/>
<path d="M109.497 58.5312H108.444V59.5783H109.497V58.5312Z" fill="white"/>
<path d="M64.5096 56.5122H69.2016V55.5069H64.5096V52.6522H69.5429V51.6455H63.3081V60.6246H69.581V59.6192H64.5096V56.5122Z" fill="white"/>
<path d="M76.6493 54.8623H75.5962V55.9093H76.6493V54.8623Z" fill="white"/>
<path d="M74.5434 53.8153V51.7188H73.4878V60.6247H74.5434V54.8623H75.5965V53.8153H74.5434Z" fill="white"/>
<path d="M55.5748 59.43H55.5495L52.97 51.6455H51.667L54.8542 60.6246H56.2207L59.4332 51.6455H58.1809L55.5748 59.43Z" fill="white"/>
<path d="M83.271 52.6522H86.2806V60.6246H87.4821V52.6522H90.4929V51.6455H83.271V52.6522Z" fill="white"/>
<path d="M77.705 55.9092H76.6494V56.9587H77.705V55.9092Z" fill="white"/>
<path d="M99.2134 59.5781H94.9985V60.6251H99.2134V59.5781Z" fill="white"/>
<path d="M78.7582 56.9589H77.7051V58.0059H78.7582V60.6247H79.8113V51.7188H78.7582V56.9589Z" fill="white"/>
<path d="M108.442 57.4814H107.387V58.531H108.442V57.4814Z" fill="white"/>
<path d="M130.42 59.5781H125.678V60.6251H130.42V59.5781Z" fill="white"/>
<path d="M116.172 56.5122H120.864V55.5069H116.172V52.6522H121.205V51.6455H114.969V60.6246H121.243V59.6192H116.172V56.5122Z" fill="white"/>
<path d="M131.474 56.4346H130.42V59.5782H131.474V56.4346Z" fill="white"/>
<path d="M130.42 55.3877H126.206V56.4347H130.42V55.3877Z" fill="white"/>
<path d="M126.206 52.7656H125.15V55.387H126.206V52.7656Z" fill="white"/>
<path d="M130.948 51.7188H126.206V52.7658H130.948V51.7188Z" fill="white"/>
<path d="M56.5137 34.1123H54.0967V36.5154H56.5137V34.1123Z" fill="white"/>
<path d="M56.5137 29.3066H54.0967V31.7097H56.5137V29.3066Z" fill="white"/>
<path d="M56.5138 38.9187H54.0967V36.5156H51.6797V48.0492H56.5138V38.9187Z" fill="white"/>
<path d="M54.0967 26.9043H51.6797V29.3074H54.0967V26.9043Z" fill="white"/>
<path d="M54.0967 31.71H51.6797V34.1131H54.0967V31.71Z" fill="white"/>
<path d="M81.9707 34.1123H79.5537V36.5154H81.9707V34.1123Z" fill="white"/>
<path d="M79.5538 31.71H77.1367V34.1131H79.5538V31.71Z" fill="white"/>
<path d="M77.1367 38.9982H79.5538V41.3218H81.9708V38.9187H79.5538V36.5156H77.1367V38.9982Z" fill="white"/>
<path d="M105.817 39.7998H103.4V42.1222H105.817V39.7998Z" fill="white"/>
<path d="M69.8868 26.9043H67.4697V29.3074H69.8868V26.9043Z" fill="white"/>
<path d="M69.8867 30.9087V31.7097H72.3038V29.3066H69.8867V30.9087Z" fill="white"/>
<path d="M77.1365 29.3066H74.7207V31.7097H77.1365V30.9087V29.3066Z" fill="white"/>
<path d="M79.5537 30.9087V31.7097H81.9707V30.9087V29.3066H79.5537V30.9087Z" fill="white"/>
<path d="M74.7207 26.9043H72.3037V29.3074H74.7207V26.9043Z" fill="white"/>
<path d="M79.5538 26.9043H77.1367V29.3074H79.5538V26.9043Z" fill="white"/>
<path d="M67.4698 30.9087V29.3066H65.0527V30.9087V31.7097V43.2446V47.0568V48.0495H81.9707V47.0568V43.7252H79.5537V43.2446V41.4016H77.1366V43.2446H69.8868V31.7097H67.4698V30.9087Z" fill="white"/>
<path d="M123.46 26.9043H121.043V29.3074H123.46V26.9043Z" fill="white"/>
<path d="M128.294 26.9043H125.877V29.3074H128.294V26.9043Z" fill="white"/>
<path d="M125.877 29.3066H123.46V31.7097H125.877V29.3066Z" fill="white"/>
<path d="M121.044 29.3066H118.627V31.7097H121.044V29.3066Z" fill="white"/>
<path d="M130.711 29.3066H128.294V31.7097H130.711V29.3066Z" fill="white"/>
<path d="M98.5665 26.9043H96.1494V29.3074H98.5665V26.9043Z" fill="white"/>
<path d="M103.4 26.9043H100.983V29.3074H103.4V26.9043Z" fill="white"/>
<path d="M105.817 29.3066H103.4V31.7097H105.817V29.3066Z" fill="white"/>
<path d="M100.983 29.3066H98.5664V31.7097H100.983V29.3066Z" fill="white"/>
<path d="M100.983 34.9948H103.4V37.3966H105.818V34.9141H98.5664V37.3172H100.983V34.9948Z" fill="white"/>
<path d="M98.5663 37.3165H96.1492V34.9134H93.7322V31.7092H96.1492V29.3061H93.7322V26.9043H91.3164V29.3061H93.6523V31.7092H91.2352V29.3061H88.8994V31.7092V34.9134V39.7195H98.5663V37.3165Z" fill="white"/>
<path d="M103.4 37.3965H100.983V39.7188H103.4V37.3965Z" fill="white"/>
<path d="M105.817 44.5249H103.4V42.9241V42.123H100.983V42.9241H88.8994V47.729H105.817V44.5249Z" fill="white"/>
<path d="M123.46 37.3966V34.9948H125.877V37.3172H128.294V34.9141H121.849V39.7203H125.877V37.3966H123.46Z" fill="white"/>
<path d="M130.711 37.3164H128.294V39.7195H130.711V37.3164Z" fill="white"/>
<path d="M130.711 47.7286V42.9237V42.1226H128.294V39.7196H125.877V42.9237H118.627V31.7092H116.21V29.3061H118.627V26.9043H113.793V31.7092V42.9237V47.7286H118.627H130.711Z" fill="white"/>
<path d="M94.8614 19.375H92.4443V21.7781H94.8614V19.375Z" fill="white"/>
<path d="M88.8184 22.0986H86.4014V24.5017H88.8184V22.0986Z" fill="white"/>
<path d="M61.0254 19.6953H58.6084V22.0984H61.0254V19.6953Z" fill="white"/>
<path d="M104.528 20.8965H102.111V23.2996H104.528V20.8965Z" fill="white"/>
<path d="M136.351 33.7129H133.934V36.116H136.351V33.7129Z" fill="white"/>
<path d="M141.667 41.0811H139.25V43.4841H141.667V41.0811Z" fill="white"/>
<path d="M135.625 45.166H133.208V47.5691H135.625V45.166Z" fill="white"/>
</g>
<defs>
<clipPath id="clip0_15_4575">
<rect width="90" height="41.25" fill="white" transform="translate(51.667 19.375)"/>
</clipPath>
</defs>
</svg>
