<svg width="194" height="80" viewBox="0 0 194 80" fill="none" xmlns="http://www.w3.org/2000/svg">
<g clip-path="url(#clip0_15_4463)">
<path d="M60.1457 49.0902C60.6717 49.1333 61.1829 49.0573 61.6702 48.8611C62.5446 48.5083 62.8861 47.8017 62.9362 46.9136C62.9431 46.7911 62.9431 46.6686 62.9431 46.5461C62.9431 42.431 62.9431 38.316 62.9431 34.2009V33.8516H66.7036V34.2111C66.7036 38.4226 66.6832 42.634 66.7116 46.8455C66.7276 49.1344 65.4763 50.6384 63.5157 51.3496C62.4273 51.7443 61.2933 51.86 60.1445 51.8759V49.0913L60.1457 49.0902Z" fill="white"/>
<path d="M65.1108 28.125C65.5719 28.252 65.9954 28.4335 66.3381 28.7908C67.1135 29.5995 67.1067 30.8619 66.304 31.6775C65.5013 32.4919 64.1943 32.4998 63.3654 31.6945C62.5468 30.8994 62.5183 29.637 63.2846 28.8124C63.6284 28.4426 64.0599 28.2554 64.5301 28.125H65.1108V28.125Z" fill="white"/>
<path d="M86.8648 46.2756H83.1042V33.8613H86.8603V35.5785C87.2667 35.2417 87.6197 34.9002 88.0193 34.6269C89.7636 33.4359 91.6444 33.2873 93.597 34.0178C94.4748 34.3467 95.068 35.0159 95.4654 35.8553C95.5018 35.9335 95.5359 36.0118 95.5792 36.1071C95.9128 35.7657 96.2157 35.4197 96.5561 35.1135C98.2035 33.6333 100.12 33.242 102.227 33.842C103.818 34.2946 104.634 35.4674 104.93 37.0258C105.03 37.5555 105.079 38.1034 105.083 38.6421C105.099 41.0932 105.089 43.5455 105.089 45.9977C105.089 46.0828 105.089 46.169 105.089 46.2711H101.305V45.975C101.305 43.9266 101.314 41.877 101.297 39.8286C101.294 39.3783 101.242 38.9166 101.131 38.4811C100.778 37.1109 99.7417 36.6538 98.5075 36.8194C97.4168 36.9657 96.7428 37.6576 96.3295 38.6297C96.0585 39.2682 95.9709 39.9442 95.9697 40.6316C95.9663 42.3999 95.9686 44.1693 95.9686 45.9376V46.2688H92.2012C92.2012 46.1611 92.2012 46.0601 92.2012 45.958C92.2012 43.9266 92.2137 41.8952 92.1921 39.8637C92.1875 39.3794 92.1215 38.8826 91.9962 38.4141C91.6467 37.1086 90.6049 36.6345 89.3799 36.8239C88.0307 37.0326 87.3556 37.9673 87.0402 39.1945C86.9218 39.655 86.8774 40.145 86.8728 40.6225C86.8535 42.3908 86.8648 44.1602 86.8648 45.9285V46.2722V46.2756Z" fill="white"/>
<path d="M110.486 44.9325V51.6042H106.736V33.8566H110.476V35.1269C110.552 35.0793 110.598 35.0612 110.631 35.0294C111.78 33.9303 113.178 33.5333 114.735 33.5708C115.917 33.5991 117.035 33.8509 118.057 34.4589C119.427 35.2744 120.338 36.4404 120.735 37.9841C121.104 39.4212 121.122 40.8685 120.676 42.2863C119.941 44.624 118.27 45.9443 115.898 46.4002C114.608 46.6475 113.311 46.6067 112.099 46.0339C111.614 45.8047 111.189 45.452 110.738 45.1514C110.662 45.1004 110.599 45.0312 110.486 44.9314V44.9325ZM117.052 39.9293C117.034 39.7524 117.021 39.4439 116.964 39.1456C116.912 38.8722 116.835 38.5989 116.728 38.3425C116.241 37.1822 115.384 36.4699 114.114 36.3395C112.948 36.2204 111.931 36.5856 111.246 37.5542C110.304 38.8836 110.245 40.3547 110.843 41.8281C111.704 43.9525 114.462 44.4539 116.052 42.8013C116.788 42.0379 117.031 41.0851 117.052 39.9293Z" fill="white"/>
<path d="M68.3456 33.8527H72.1005C72.1005 33.9797 72.1005 34.0909 72.1005 34.202C72.1005 36.1632 72.097 38.1243 72.1027 40.0854C72.105 40.7444 72.1722 41.3954 72.4488 42.0079C72.812 42.811 73.4496 43.2363 74.3149 43.3089C75.9533 43.445 77.1328 42.5751 77.5119 40.9372C77.6178 40.4812 77.6725 40.0037 77.6782 39.5353C77.6975 37.7488 77.6861 35.9635 77.6861 34.1771C77.6861 34.0739 77.6861 33.9718 77.6861 33.8527H81.4513C81.4558 33.9559 81.4638 34.0489 81.4638 34.1419C81.4638 38.0902 81.4627 42.0397 81.4683 45.988C81.4683 46.2103 81.4217 46.2908 81.1792 46.2874C80.1055 46.2738 79.0319 46.2818 77.9582 46.2806C77.8808 46.2806 77.8023 46.2738 77.6941 46.2682V44.4749C77.4641 44.6927 77.2933 44.873 77.1032 45.0307C75.2758 46.5483 73.2185 46.9408 70.987 46.1377C69.5809 45.6319 68.8249 44.5067 68.5084 43.0923C68.3945 42.5841 68.3433 42.0533 68.3399 41.5315C68.3228 39.0544 68.3319 36.576 68.333 34.0977C68.333 34.0206 68.341 33.9446 68.3467 33.8516L68.3456 33.8527Z" fill="white"/>
<path d="M134.521 42.8467H122.543V45.8604H134.521V42.8467Z" fill="white"/>
</g>
<defs>
<clipPath id="clip0_15_4463">
<rect width="74.375" height="23.75" fill="white" transform="translate(60.1458 28.125)"/>
</clipPath>
</defs>
</svg>
