<svg width="194" height="80" viewBox="0 0 194 80" fill="none" xmlns="http://www.w3.org/2000/svg">
<g clip-path="url(#clip0_15_4368)">
<path d="M124.832 35.668C123.085 34.75 121.083 34.568 119.198 35.1521C117.314 35.7362 115.768 37.0183 114.848 38.7631C113.929 40.5079 113.747 42.503 114.332 44.3882C115.297 47.4947 118.135 49.5808 121.394 49.5808C122.135 49.5808 122.868 49.467 123.582 49.247C127.473 48.0408 129.657 43.8989 128.449 40.011C127.864 38.1296 126.58 36.5859 124.832 35.668ZM117.591 43.3754C117.276 42.3627 117.375 41.2854 117.869 40.3448C118.363 39.4041 119.195 38.7138 120.213 38.3989C121.216 38.0879 122.317 38.1865 123.244 38.6758C124.186 39.1689 124.878 39.9996 125.193 41.0161C125.509 42.0289 125.41 43.1023 124.912 44.043C124.418 44.9837 123.586 45.674 122.572 45.9888C121.558 46.3036 120.482 46.205 119.54 45.7081C118.598 45.215 117.907 44.3844 117.591 43.3716V43.3754Z" fill="white"/>
<path d="M84.745 34.8145C80.6687 34.8145 77.356 38.1258 77.356 42.1919C77.356 46.2581 80.6725 49.5694 84.745 49.5694C88.8176 49.5694 92.1341 46.2581 92.1341 42.1919C92.1341 38.1258 88.8176 34.8145 84.745 34.8145ZM88.7264 42.1919C88.7264 44.3843 86.9409 46.167 84.745 46.167C82.5492 46.167 80.7637 44.3843 80.7637 42.1919C80.7637 39.9995 82.5492 38.2168 84.745 38.2168C86.9409 38.2168 88.7264 39.9995 88.7264 42.1919Z" fill="white"/>
<path d="M103.068 34.8145C98.9914 34.8145 95.6787 38.1258 95.6787 42.1919V49.5694H99.0902V42.1919C99.0902 39.9995 100.876 38.2168 103.072 38.2168C105.267 38.2168 107.053 39.9995 107.053 42.1919V49.5694H110.464V42.1919C110.464 38.122 107.148 34.8145 103.075 34.8145H103.068Z" fill="white"/>
<path d="M75.7756 34.9625C75.3046 34.8677 74.8145 34.8184 74.3168 34.8184C70.2405 34.8184 66.9277 38.1297 66.9277 42.1958V49.5733H70.3392V42.1958C70.3392 40.0793 72.007 38.3459 74.1003 38.2321L75.7794 34.9625H75.7756Z" fill="white"/>
<path d="M135.523 40.3257C135.523 39.0171 136.586 37.9551 137.897 37.9551C138.763 37.9551 139.561 38.4254 139.979 39.1878C140.047 39.3168 140.249 39.7188 140.363 40.0223H143.854C143.478 38.9716 143.083 38.0992 142.824 37.6289C141.837 35.831 139.949 34.7158 137.893 34.7158C134.793 34.7158 132.271 37.2344 132.271 40.3295C132.271 42.1502 133.164 43.8684 134.653 44.9191C134.714 44.9608 134.622 44.9191 136.366 45.928L138 43.125C137.274 42.704 136.681 42.3626 136.507 42.2564C135.887 41.8088 135.515 41.0919 135.515 40.3295L135.523 40.3257Z" fill="white"/>
<path d="M140.545 49.698C140.545 51.0066 139.481 52.0687 138.171 52.0687C137.305 52.0687 136.507 51.5983 136.089 50.8359C136.02 50.707 135.819 50.3049 135.705 50.0015H132.214C132.59 51.0521 132.985 51.9245 133.243 52.3949C134.231 54.1928 136.119 55.3079 138.175 55.3079C141.275 55.3079 143.797 52.7893 143.797 49.6942C143.797 47.8736 142.904 46.1553 141.415 45.1047C141.354 45.0629 141.445 45.1047 139.702 44.0957L138.068 46.8988C138.794 47.3198 139.386 47.6612 139.561 47.7674C140.18 48.2149 140.553 48.9318 140.553 49.6942L140.545 49.698Z" fill="white"/>
<path d="M52.8678 34.8145H49.498V49.5732H52.8678V34.8145Z" fill="white"/>
<path d="M52.8487 24.6875H49.479V32.8729H52.8487V24.6875Z" fill="white"/>
<path d="M60.6407 50.1087L55.9147 45.3902C55.0599 44.5368 54.5889 43.4026 54.5889 42.1965C54.5889 40.9903 55.0599 39.8562 55.9147 39.0027L60.6407 34.2842L62.9353 36.5752L58.2093 41.2937C57.97 41.5327 57.837 41.8551 57.837 42.1927C57.837 42.5302 57.97 42.8527 58.2093 43.0954L62.9353 47.814L60.6407 50.1049V50.1087Z" fill="white"/>
</g>
<defs>
<clipPath id="clip0_15_4368">
<rect width="94.375" height="30.625" fill="white" transform="translate(49.479 24.6875)"/>
</clipPath>
</defs>
</svg>
