<svg width="194" height="80" viewBox="0 0 194 80" fill="none" xmlns="http://www.w3.org/2000/svg">
<g clip-path="url(#clip0_15_4718)">
<path d="M73.293 44.7282V33.4444C73.293 33.3324 73.3717 33.2534 73.4833 33.2534H74.5963C74.7079 33.2534 74.7866 33.3324 74.7866 33.4444V43.5326H79.5203C79.6319 43.5326 79.7106 43.6115 79.7106 43.7236V44.7282C79.7106 44.8402 79.6319 44.9192 79.5203 44.9192H73.4833C73.3717 44.9192 73.293 44.8402 73.293 44.7282Z" fill="white"/>
<path d="M86.1778 44.7283V43.597C85.6213 44.5207 84.7006 45.0956 83.5254 45.0956C81.9366 45.0956 80.8877 44.0598 80.8877 42.4969C80.8877 40.934 82.0793 39.8669 84.5725 39.8669H86.1284V38.7668C86.1284 37.6998 85.5573 37.1892 84.3967 37.1892C83.3808 37.1892 82.8719 37.5878 82.601 38.3683C82.5699 38.4803 82.4894 38.5281 82.3777 38.495L81.3764 38.2232C81.2648 38.192 81.2025 38.1112 81.2337 38.001C81.5668 36.8054 82.5992 35.9937 84.426 35.9937C86.3791 35.9937 87.5397 36.8862 87.5397 38.7356V44.7283C87.5397 44.8403 87.461 44.9193 87.3493 44.9193H86.3645C86.2528 44.9193 86.1741 44.8403 86.1741 44.7283H86.1778ZM83.9062 43.9C84.9386 43.9 85.7165 43.2627 86.1302 42.2581V40.855H84.5743C83.0806 40.855 82.2715 41.3802 82.2715 42.4161C82.2715 43.2921 82.8591 43.8982 83.908 43.8982L83.9062 43.9Z" fill="white"/>
<path d="M89.0058 43.0241C88.9747 42.912 89.0223 42.8331 89.1175 42.7853L89.943 42.418C90.0547 42.3703 90.1499 42.418 90.181 42.5447C90.4354 43.4208 91.2445 43.9313 92.3263 43.9313C93.4081 43.9313 94.1531 43.3895 94.1531 42.5925C94.1531 41.7954 93.6772 41.5089 91.8028 40.9671C90.1499 40.4731 89.2456 39.9001 89.2456 38.4492C89.2456 36.9984 90.516 35.9956 92.3117 35.9956C93.917 35.9956 95.0922 36.7449 95.4564 38.0195C95.4876 38.1315 95.44 38.227 95.3301 38.2582L94.4881 38.5613C94.3765 38.609 94.2813 38.5613 94.2502 38.4345C93.9792 37.5897 93.377 37.1747 92.3428 37.1747C91.3086 37.1747 90.6423 37.6375 90.6423 38.3703C90.6423 39.1839 91.1987 39.4061 92.7858 39.8689C94.7078 40.4272 95.5498 41.1122 95.5498 42.53C95.5498 44.0599 94.263 45.0957 92.3245 45.0957C90.6093 45.0957 89.3701 44.3299 89.004 43.0241H89.0058Z" fill="white"/>
<path d="M96.9319 41.6687V39.4538C96.9319 37.2702 98.1876 35.9956 100.348 35.9956C102.508 35.9956 103.763 37.2702 103.763 39.4538V40.8239C103.763 40.9359 103.685 41.0149 103.573 41.0149H98.3139V41.6687C98.3139 43.0718 99.1248 43.8689 100.474 43.8689C101.442 43.8689 102.094 43.4704 102.412 42.6898C102.46 42.5778 102.539 42.53 102.65 42.5778L103.556 42.8808C103.683 42.9286 103.716 42.9929 103.683 43.103C103.238 44.3941 102.141 45.0957 100.474 45.0957C98.2974 45.0957 96.9319 43.8358 96.9319 41.6687ZM102.429 39.9956V39.3749C102.429 38.0195 101.698 37.2077 100.379 37.2077C99.0589 37.2077 98.3139 38.0213 98.3139 39.3749V39.9956H102.429Z" fill="white"/>
<path d="M105.654 44.7286V36.3613C105.654 36.2492 105.733 36.1703 105.845 36.1703H106.86C106.972 36.1703 107.051 36.2492 107.051 36.3613V37.6211C107.543 36.7598 108.385 36.0601 109.767 36.0601C109.894 36.0601 109.958 36.139 109.958 36.2511V37.2557C109.958 37.3677 109.894 37.4467 109.767 37.4467C108.416 37.4467 107.543 37.9884 107.082 39.0555V44.7304C107.082 44.8424 107.003 44.9214 106.892 44.9214H105.843C105.731 44.9214 105.652 44.8424 105.652 44.7304L105.654 44.7286Z" fill="white"/>
<path d="M115.416 44.7282V33.4444C115.416 33.3324 115.495 33.2534 115.606 33.2534H119.165C121.834 33.2534 123.375 34.8145 123.375 37.3342V40.809C123.375 43.3599 121.834 44.921 119.165 44.921H115.606C115.495 44.921 115.416 44.842 115.416 44.73V44.7282ZM119.181 43.5326C120.896 43.5326 121.881 42.64 121.881 40.8071V37.3654C121.881 35.5326 120.896 34.64 119.181 34.64H116.91V43.5344H119.181V43.5326Z" fill="white"/>
<path d="M125.52 34.6235V33.0147C125.52 32.9027 125.599 32.8237 125.711 32.8237H126.759C126.871 32.8237 126.95 32.9027 126.95 33.0147V34.6235C126.95 34.7356 126.871 34.8145 126.759 34.8145H125.711C125.599 34.8145 125.52 34.7356 125.52 34.6235ZM125.52 44.7282V36.3609C125.52 36.2489 125.599 36.1699 125.711 36.1699H126.759C126.871 36.1699 126.95 36.2489 126.95 36.3609V44.7282C126.95 44.8403 126.871 44.9192 126.759 44.9192H125.711C125.599 44.9192 125.52 44.8403 125.52 44.7282Z" fill="white"/>
<path d="M128.777 45.9404C128.777 45.1121 129.189 44.3793 130.08 44.012C129.683 43.7089 129.476 43.2792 129.476 42.8807C129.476 42.3701 129.794 41.9091 130.366 41.6685C129.492 41.158 129.031 40.282 129.031 39.1341C129.031 37.3967 130.128 36.1699 132.288 36.1699H136.068C136.179 36.1699 136.258 36.2489 136.258 36.3609V37.1415C136.258 37.2535 136.179 37.3325 136.068 37.3325H134.526C135.05 37.7145 135.447 38.3995 135.447 39.3729C135.447 40.9817 134.351 42.1295 132.302 42.1295H131.572C130.968 42.1295 130.713 42.4013 130.713 42.7356C130.713 43.0698 130.984 43.3416 131.572 43.3416H133.382C135.495 43.3416 136.306 44.3609 136.306 45.6373C136.306 47.0882 135.242 48.2673 132.397 48.2673C129.776 48.2673 128.775 47.248 128.775 45.9404H128.777ZM132.461 47.2314C134.177 47.2314 134.923 46.6107 134.923 45.7328C134.923 45.1121 134.574 44.506 133.287 44.506H131.682C130.475 44.506 130.109 45.1268 130.109 45.7659C130.109 46.6419 130.792 47.2314 132.46 47.2314H132.461ZM132.288 41.0643C133.446 41.0643 134.178 40.4583 134.178 39.2002C134.178 38.0524 133.56 37.3031 132.273 37.3031C130.986 37.3031 130.351 37.9716 130.351 39.1525C130.351 40.3334 131.034 41.0643 132.289 41.0643H132.288Z" fill="white"/>
<path d="M137.876 34.6235V33.0147C137.876 32.9027 137.955 32.8237 138.066 32.8237H139.115C139.227 32.8237 139.306 32.9027 139.306 33.0147V34.6235C139.306 34.7356 139.227 34.8145 139.115 34.8145H138.066C137.955 34.8145 137.876 34.7356 137.876 34.6235ZM137.876 44.7282V36.3609C137.876 36.2489 137.955 36.1699 138.066 36.1699H139.115C139.227 36.1699 139.306 36.2489 139.306 36.3609V44.7282C139.306 44.8403 139.227 44.9192 139.115 44.9192H138.066C137.955 44.9192 137.876 44.8403 137.876 44.7282Z" fill="white"/>
<path d="M142.216 42.6881V37.3639H141.041C140.929 37.3639 140.851 37.285 140.851 37.1729V36.3593C140.851 36.2473 140.929 36.1683 141.041 36.1683H142.216V34.1114C142.216 33.9994 142.295 33.9204 142.406 33.9204H143.439C143.551 33.9204 143.629 33.9994 143.629 34.1114V36.1683H145.487C145.599 36.1683 145.678 36.2473 145.678 36.3593V37.1729C145.678 37.285 145.599 37.3639 145.487 37.3639H143.629V42.4806C143.629 43.2464 144.026 43.6284 144.837 43.6284H145.489C145.601 43.6284 145.679 43.7074 145.679 43.8194V44.7285C145.679 44.8405 145.601 44.9195 145.489 44.9195H144.631C143.106 44.9195 142.216 44.0912 142.216 42.6881Z" fill="white"/>
<path d="M152.026 44.7283V43.597C151.469 44.5207 150.548 45.0956 149.373 45.0956C147.784 45.0956 146.736 44.0598 146.736 42.4969C146.736 40.934 147.927 39.8669 150.42 39.8669H151.978V38.7668C151.978 37.6998 151.407 37.1892 150.246 37.1892C149.231 37.1892 148.722 37.5878 148.451 38.3683C148.42 38.4803 148.339 38.5281 148.229 38.495L147.228 38.2232C147.116 38.192 147.054 38.1112 147.085 38.001C147.418 36.8054 148.451 35.9937 150.278 35.9937C152.231 35.9937 153.391 36.8862 153.391 38.7356V44.7283C153.391 44.8403 153.313 44.9193 153.201 44.9193H152.216C152.104 44.9193 152.026 44.8403 152.026 44.7283ZM149.754 43.9C150.786 43.9 151.564 43.2627 151.978 42.2581V40.855H150.42C148.927 40.855 148.118 41.3802 148.118 42.4161C148.118 43.2921 148.705 43.8982 149.754 43.8982V43.9Z" fill="white"/>
<path d="M155.592 44.7282V33.0147C155.592 32.9027 155.67 32.8237 155.782 32.8237H156.831C156.942 32.8237 157.021 32.9027 157.021 33.0147V44.7301C157.021 44.8421 156.942 44.9211 156.831 44.9211H155.782C155.67 44.9211 155.592 44.8421 155.592 44.7301V44.7282Z" fill="white"/>
<path d="M53.93 46.5611H46.0571V29.2204C46.0571 26.8898 44.1753 25 41.8524 25C39.5296 25 37.646 26.8898 37.646 29.2204V43.8081C37.646 46.1387 39.5296 48.0285 41.8524 48.0285H44.5945V50.7796C44.5945 53.1102 46.4781 55 48.801 55H53.93C56.2529 55 58.1364 53.1102 58.1364 50.7796C58.1364 48.449 56.2529 46.5592 53.93 46.5592V46.5611ZM44.5945 46.5611H41.8524C40.3368 46.5611 39.1104 45.3287 39.1104 43.8099V29.2204C39.1104 27.6997 40.3386 26.4674 41.8524 26.4674C43.3663 26.4674 44.5945 27.6997 44.5945 29.2204V46.5611ZM53.93 53.5326H48.801C47.2853 53.5326 46.0589 52.3003 46.0589 50.7815V48.0303H53.93C55.4456 48.0303 56.6739 49.2626 56.6739 50.7815C56.6739 52.3003 55.4456 53.5326 53.93 53.5326ZM61.1421 48.0285C63.465 48.0285 65.3485 46.1387 65.3485 43.8081V36.1919C65.3485 33.8613 63.465 31.9715 61.1421 31.9715H58.4V29.2204C58.3982 26.8898 56.5165 25 54.1936 25H51.975C49.6521 25 47.7686 26.8898 47.7686 29.2204C47.7686 31.551 49.6521 33.4408 51.975 33.4408H56.9375V43.8099C56.9375 46.1405 58.821 48.0303 61.1439 48.0303L61.1421 48.0285ZM51.975 31.9715C50.4594 31.9715 49.2311 30.7392 49.2311 29.2204C49.2311 27.6997 50.4594 26.4692 51.975 26.4692H54.1936C55.7092 26.4692 56.9356 27.7016 56.9356 29.2204V31.9715H51.9732H51.975ZM61.1421 46.5611C59.6264 46.5611 58.4 45.3287 58.4 43.8081V33.4389H61.1421C62.6577 33.4389 63.8841 34.6713 63.8841 36.1901V43.8081C63.8841 45.3287 62.6559 46.5611 61.1421 46.5611Z" fill="white"/>
</g>
<defs>
<clipPath id="clip0_15_4718">
<rect width="119.375" height="30" fill="white" transform="translate(37.646 25)"/>
</clipPath>
</defs>
</svg>
