<svg width="194" height="65" viewBox="0 0 194 65" fill="none" xmlns="http://www.w3.org/2000/svg">
<path fill-rule="evenodd" clip-rule="evenodd" d="M33.2489 14.4431C34.5651 13.912 35.9505 13.6118 37.359 13.6118C38.7676 13.6118 40.153 13.8889 41.4692 14.42C42.7623 14.9742 43.9399 15.7593 44.9328 16.7752C46.9417 18.8072 48.05 21.5781 48.05 24.4413V28.0204C48.05 29.1518 47.8191 30.2833 47.3804 31.3455C46.9648 32.3845 46.3182 33.3543 45.51 34.1625C44.7019 34.9707 43.7552 35.6172 42.693 36.056C41.6384 36.4916 40.5155 36.7223 39.3921 36.7256H48.0039V40.2584C48.0039 41.667 47.7499 43.0755 47.2188 44.3917C46.6877 45.7078 45.9026 46.8854 44.9097 47.9014C43.9399 48.9174 42.7392 49.7025 41.4461 50.2567C40.153 50.8109 38.7445 51.088 37.336 51.088C35.9274 51.088 34.5189 50.8109 33.2258 50.2567C31.9328 49.7025 30.7551 48.9174 29.7622 47.9014C28.7693 46.9085 27.9843 45.7078 27.4532 44.3917C26.9221 43.0755 26.645 41.667 26.6681 40.2584V36.7256C26.6681 35.5941 26.899 34.4627 27.3377 33.4005C27.7533 32.3614 28.3999 31.3916 29.2081 30.5834C30.0162 29.7753 30.9629 29.1287 32.0251 28.69C33.0796 28.2545 34.2023 28.0237 35.3255 28.0204H26.6912V24.4413C26.6681 23.0328 26.9452 21.6243 27.4762 20.3081C28.0073 18.9919 28.7924 17.8143 29.7853 16.7983C30.7782 15.7823 31.9558 14.9973 33.2489 14.4431ZM35.3502 28.0204C35.3502 28.0204 35.3502 28.0204 35.3502 28.0204V41.921C35.3502 42.175 35.3964 42.4059 35.4887 42.6368C35.5811 42.8677 35.7196 43.0755 35.8813 43.2371C36.066 43.3988 36.2507 43.5373 36.4816 43.6297C36.7125 43.722 36.9665 43.7682 37.1974 43.7682H37.5207C37.7747 43.7682 38.0056 43.722 38.2134 43.6297C38.4443 43.5373 38.6521 43.3988 38.8138 43.2371C38.9754 43.0755 39.1139 42.8677 39.2063 42.6368C39.2987 42.4059 39.3449 42.175 39.3449 41.921V36.7256H39.3679V22.825C39.3679 22.571 39.3217 22.3401 39.2294 22.1092C39.137 21.8783 38.9985 21.6705 38.8368 21.5088C38.6752 21.3472 38.4674 21.2086 38.2365 21.1163C38.0056 21.0239 37.7516 20.9777 37.5207 20.9777H37.1974C36.9434 20.9777 36.7125 21.0239 36.4816 21.1163C36.2507 21.2086 36.0429 21.3472 35.8812 21.5088C35.7196 21.6705 35.5811 21.8783 35.4887 22.1092C35.3963 22.3401 35.3502 22.571 35.3502 22.825V28.0204ZM59.8032 24.6029H62.8512C62.8512 24.6029 62.8511 37.1413 62.8282 37.1643H68.7162V40.0968H59.8032V24.6029ZM76.8672 29.1056C77.4906 29.3827 78.0217 29.8214 78.4604 30.3525V29.1056H81.3006V40.1661H78.4604V38.8499C77.6292 39.9352 76.4285 40.4662 74.8814 40.4662C74.1656 40.4662 73.4498 40.3277 72.8032 40.0275C72.1567 39.7273 71.5563 39.2886 71.0945 38.7575C70.0785 37.603 69.5244 36.1252 69.5244 34.6012C69.5244 33.0541 70.0785 31.5763 71.0945 30.4449C71.5794 29.8907 72.1567 29.4751 72.8032 29.1749C73.4729 28.8747 74.1656 28.7362 74.8814 28.7362C75.551 28.69 76.2437 28.8285 76.8672 29.1056ZM76.5901 37.5106C76.9826 37.349 77.329 37.1181 77.6061 36.841C78.1603 36.2176 78.4604 35.4094 78.4835 34.6012C78.4835 33.7699 78.1603 32.9849 77.6061 32.3614C77.3059 32.0612 76.9595 31.8534 76.5901 31.6918C76.2206 31.5532 75.8281 31.4609 75.4125 31.484C75.0199 31.4609 74.6043 31.5302 74.2348 31.6918C73.8654 31.8534 73.519 32.0843 73.2419 32.3614C72.6878 32.9618 72.3876 33.7699 72.3876 34.6012C72.3876 35.4325 72.6878 36.2176 73.2419 36.841C73.519 37.1412 73.8654 37.349 74.2348 37.5106C74.6043 37.6492 75.0199 37.7415 75.4125 37.7184C75.805 37.7415 76.2206 37.6723 76.5901 37.5106ZM85.7571 29.0364L88.6203 36.4716L91.0449 29.0364H94.0928L90.0751 40.1199C89.4978 41.6901 88.7358 42.8446 87.7891 43.5604C86.7731 44.2993 85.5031 44.6457 84.2562 44.5302V41.8748C84.9027 41.921 85.5493 41.7593 86.0804 41.3899C86.5884 40.9511 86.9578 40.397 87.1425 39.7504L82.6398 29.0364H85.7571ZM97.9951 29.1287C98.711 28.8516 99.4729 28.7131 100.258 28.7362C100.997 28.7131 101.736 28.8516 102.475 29.1287C103.167 29.4058 103.791 29.8445 104.299 30.3987C105.338 31.5071 105.915 33.008 105.869 34.555C105.869 34.9476 105.823 35.3401 105.754 35.7327H97.441C97.8104 37.1181 98.8495 37.8108 100.535 37.8108C100.997 37.8339 101.459 37.7415 101.897 37.5568C102.336 37.3721 102.706 37.0719 103.006 36.7025L105.292 38.0417C104.207 39.635 102.613 40.4201 100.489 40.4201C98.6648 40.4201 97.2101 39.8659 96.1017 38.7575C95.0395 37.6261 94.4392 36.1252 94.4392 34.5781C94.4392 33.031 95.0164 31.5302 96.0786 30.3987C96.6328 29.8445 97.2793 29.4058 97.9951 29.1287ZM98.3646 31.8996C97.8566 32.3152 97.4871 32.8925 97.3717 33.539C97.3717 33.539 102.983 33.539 102.983 33.5621C102.89 32.8925 102.521 32.2921 101.99 31.8765C101.482 31.5071 100.881 31.3223 100.258 31.3223C99.5884 31.2762 98.9188 31.484 98.3646 31.8996ZM110.649 29.0594V30.9529C110.88 30.2833 111.342 29.706 111.965 29.3596C112.588 29.0133 113.281 28.8285 113.997 28.8285V32.0151C113.166 31.8996 112.358 32.0843 111.665 32.5461C110.995 33.0079 110.649 33.7699 110.649 34.8321V40.1199H107.809V29.0594H110.649ZM127.828 24.6029V27.0044C127.828 27.0044 121.409 37.1874 121.432 37.1874H127.967V40.1199H117.576V37.6723L123.995 27.5355H117.738V24.6029H127.828ZM132.4 29.1287C133.116 28.8516 133.878 28.7131 134.663 28.7362C135.402 28.7131 136.164 28.8516 136.88 29.1287C137.573 29.4058 138.196 29.8445 138.704 30.3987C139.743 31.5071 140.32 33.008 140.274 34.555C140.274 34.9476 140.228 35.3401 140.159 35.7327H131.846C132.215 37.1181 133.255 37.8108 134.94 37.8108C135.402 37.8339 135.864 37.7415 136.303 37.5568C136.741 37.3721 137.111 37.0719 137.411 36.7025L139.697 38.0417C138.612 39.635 137.018 40.4201 134.894 40.4201C133.07 40.4201 131.615 39.8659 130.507 38.7575C129.445 37.6261 128.844 36.1252 128.844 34.5781C128.844 33.031 129.422 31.5302 130.484 30.3987C131.038 29.8445 131.684 29.4058 132.4 29.1287ZM132.77 31.8996C132.262 32.3152 131.892 32.8925 131.777 33.539L137.388 33.5621C137.295 32.8925 136.926 32.2921 136.395 31.8765C135.887 31.5071 135.287 31.3223 134.663 31.3223C133.993 31.2762 133.324 31.484 132.77 31.8996ZM145.054 29.0594V30.9529C145.285 30.2833 145.747 29.706 146.37 29.3596C146.994 29.0133 147.686 28.8285 148.402 28.8285V32.0151C147.571 31.8996 146.763 32.0843 146.07 32.5461C145.4 33.0079 145.054 33.7699 145.054 34.8321V40.1199H142.214V29.0594H145.054ZM151.242 30.0985C152.281 29.2211 153.551 28.7593 154.891 28.7362C155.653 28.7131 156.415 28.8516 157.13 29.1749C157.846 29.452 158.493 29.8907 159.024 30.4449C159.97 31.3916 160.548 32.6385 160.686 33.9778C160.825 35.317 160.502 36.6563 159.763 37.7646C159.024 38.873 157.915 39.7043 156.645 40.0968C155.375 40.4893 153.99 40.4431 152.766 39.9352C151.542 39.4272 150.526 38.5035 149.88 37.3259C149.233 36.1483 149.025 34.7859 149.279 33.4698C149.533 32.1536 150.226 30.9529 151.242 30.0985ZM156.045 37.4183C156.415 37.2797 156.738 37.0488 157.015 36.7717C157.569 36.1714 157.869 35.3863 157.869 34.5781C157.869 33.7699 157.569 32.9849 157.015 32.3845C156.738 32.1074 156.415 31.8765 156.045 31.738C155.676 31.5994 155.283 31.5301 154.891 31.5301C154.498 31.5071 154.105 31.5994 153.736 31.738C153.367 31.8765 153.043 32.1074 152.766 32.3845C152.212 32.9849 151.912 33.7699 151.912 34.5781C151.912 35.3863 152.212 36.1714 152.766 36.7717C153.043 37.0488 153.367 37.2797 153.736 37.4183C154.105 37.5568 154.498 37.6261 154.891 37.6261C155.283 37.6492 155.676 37.5568 156.045 37.4183ZM163.203 36.7025H166.667V40.1199H163.203V36.7025Z" fill="white"/>
</svg>
