<svg width="194" height="80" viewBox="0 0 194 80" fill="none" xmlns="http://www.w3.org/2000/svg">
<g clip-path="url(#clip0_15_4680)">
<path d="M89.8005 40.8689C89.8005 42.3603 89.8031 43.8524 89.7997 45.3437C89.7979 46.3105 89.2389 46.8614 88.247 46.8665C86.8735 46.8733 85.4991 46.8589 84.1256 46.875C83.7813 46.8793 83.6752 46.773 83.6874 46.4405C83.7265 45.399 83.5257 45.5495 84.5985 45.541C85.6973 45.5316 86.797 45.5223 87.8958 45.5469C88.3244 45.5563 88.4635 45.4024 88.4331 45.0079C88.4087 44.7001 88.4166 44.3889 88.4296 44.0794C88.4426 43.7682 88.3018 43.662 87.9888 43.6645C86.8179 43.6756 85.6451 43.6365 84.475 43.6764C83.258 43.7181 82.739 42.9767 82.7424 41.993C82.7477 40.5152 82.7398 39.0375 82.7451 37.5598C82.7494 36.4112 83.3319 35.8475 84.5046 35.8466C86.1241 35.8458 87.7446 35.8551 89.3641 35.839C89.7058 35.8356 89.8118 35.9282 89.8084 36.2658C89.7918 37.7996 89.8014 39.3334 89.8005 40.8672V40.8689ZM84.1516 39.7577C84.1516 40.4889 84.1586 41.2201 84.1473 41.9513C84.1429 42.2089 84.2134 42.3433 84.5072 42.3416C85.6921 42.3339 86.877 42.3339 88.0619 42.3416C88.3253 42.3433 88.4244 42.2285 88.4244 41.987C88.4218 40.511 88.4209 39.0341 88.4235 37.5581C88.4235 37.3099 88.3157 37.2172 88.0549 37.2197C86.87 37.2299 85.6851 37.2291 84.5002 37.2197C84.2377 37.218 84.1438 37.3099 84.1473 37.5641C84.1586 38.2953 84.1516 39.0265 84.1508 39.7577H84.1516Z" fill="white"/>
<path d="M134.667 35.8476C136.041 35.8476 137.416 35.8646 138.791 35.8416C139.684 35.8263 140.485 36.3671 140.462 37.4579C140.422 39.3718 140.444 41.2874 140.458 43.2021C140.461 43.5456 140.365 43.6731 139.996 43.6604C138.944 43.6238 139.096 43.7964 139.091 42.7957C139.082 41.1063 139.08 39.4169 139.094 37.7274C139.097 37.3601 139.008 37.1952 138.586 37.2139C137.849 37.2471 137.109 37.2386 136.372 37.2165C136.026 37.2063 135.921 37.3236 135.924 37.6526C135.936 39.4968 135.918 41.3418 135.938 43.186C135.942 43.572 135.828 43.7054 135.426 43.6944C134.326 43.6655 134.501 43.7845 134.495 42.7999C134.485 41.125 134.493 39.4492 134.491 37.7734C134.491 37.2233 134.488 37.2224 133.909 37.2224C133.243 37.2224 132.576 37.2488 131.913 37.2131C131.477 37.1892 131.388 37.3457 131.393 37.7393C131.414 39.5555 131.391 41.3716 131.411 43.1877C131.415 43.5618 131.306 43.6697 130.923 43.6621C129.99 43.6425 129.989 43.6604 129.989 42.7438C129.989 40.6318 129.989 38.5199 129.989 36.4087C129.989 36.0352 130.188 35.8484 130.585 35.8484C131.946 35.8484 133.305 35.8484 134.666 35.8484L134.667 35.8476Z" fill="white"/>
<path d="M108.792 38.3903C108.792 36.7859 108.802 35.1815 108.784 33.578C108.781 33.2268 108.889 33.1231 109.249 33.1257C111.158 33.141 113.067 33.1546 114.976 33.1257C116.623 33.1019 117.663 33.7183 117.732 35.4783C117.758 36.1321 117.731 36.8038 117.605 37.444C117.422 38.3759 116.726 38.9217 115.754 38.9982C115.107 39.0492 114.456 39.0663 113.807 39.0739C112.766 39.0858 111.724 39.0918 110.684 39.0697C110.312 39.062 110.217 39.1946 110.221 39.533C110.236 40.7574 110.215 41.9817 110.234 43.2052C110.24 43.5555 110.127 43.6635 109.767 43.6592C108.794 43.6473 108.794 43.6626 108.794 42.7376C108.794 41.2879 108.794 39.8391 108.794 38.3895L108.792 38.3903ZM112.941 37.6234V37.6217C113.707 37.6217 114.475 37.6311 115.242 37.6183C115.859 37.6081 116.239 37.2382 116.264 36.6422C116.277 36.3327 116.27 36.0224 116.268 35.7129C116.263 34.8984 115.933 34.543 115.091 34.5319C113.601 34.5132 112.11 34.5311 110.619 34.5209C110.306 34.5183 110.22 34.6527 110.223 34.9299C110.232 35.69 110.24 36.4509 110.22 37.211C110.212 37.5554 110.356 37.6387 110.684 37.6302C111.436 37.6107 112.189 37.6243 112.941 37.6243L112.941 37.6234Z" fill="white"/>
<path d="M80.8578 38.4569C80.8578 40.0332 80.8483 41.6095 80.8656 43.185C80.8691 43.5404 80.7883 43.6815 80.3892 43.6764C78.741 43.656 77.0919 43.673 75.4428 43.6654C74.3735 43.6603 73.8502 43.1587 73.8406 42.1086C73.8267 40.5467 73.8258 38.9848 73.8406 37.4221C73.851 36.3848 74.4283 35.8509 75.4958 35.8483C76.6816 35.8449 77.8682 35.8347 79.054 35.8551C79.4078 35.8611 79.5077 35.7353 79.5008 35.4173C79.4869 34.8127 79.5086 34.2065 79.493 33.602C79.4851 33.3061 79.5999 33.2186 79.8989 33.2169C80.8578 33.2109 80.8569 33.1999 80.8569 34.1504C80.8569 35.5856 80.8569 37.0208 80.8569 38.4569H80.8578ZM75.2072 39.7501C75.2072 40.4821 75.2176 41.2142 75.202 41.9454C75.1959 42.2387 75.3063 42.3441 75.6045 42.3424C76.7615 42.3331 77.9186 42.3339 79.0757 42.3424C79.366 42.345 79.4991 42.2446 79.4982 41.9522C79.493 40.5025 79.4921 39.0529 79.4991 37.6041C79.5008 37.3133 79.3817 37.2147 79.0844 37.2181C77.9273 37.2308 76.7702 37.2334 75.6132 37.2172C75.2776 37.2121 75.1941 37.3388 75.202 37.6398C75.2193 38.3429 75.2072 39.0469 75.2072 39.7509V39.7501Z" fill="white"/>
<path d="M91.6869 39.756C91.6869 38.9814 91.6817 38.2077 91.6887 37.4332C91.6974 36.4503 92.3059 35.8551 93.3143 35.8492C94.4862 35.8424 95.658 35.8415 96.8299 35.8492C97.8192 35.856 98.4016 36.412 98.4129 37.3617C98.4234 38.2485 98.4034 39.1362 98.4225 40.0221C98.4295 40.3546 98.3156 40.4608 97.9748 40.4574C96.5282 40.443 95.0808 40.4634 93.6342 40.4438C93.2317 40.4387 93.044 40.5331 93.09 40.9582C93.1239 41.2788 93.1152 41.6061 93.0918 41.9284C93.0683 42.2472 93.1987 42.345 93.5151 42.3424C94.9617 42.3322 96.4091 42.3518 97.8557 42.3297C98.2764 42.3229 98.4494 42.4104 98.4268 42.8602C98.3808 43.7751 98.5285 43.662 97.581 43.6654C96.1918 43.6713 94.8026 43.6696 93.4143 43.6654C92.2329 43.662 91.6904 43.134 91.6878 41.993C91.6861 41.2465 91.6878 40.5008 91.6878 39.7543L91.6869 39.756ZM95.0651 37.2232C94.5296 37.2232 93.9941 37.2308 93.4586 37.2198C93.2117 37.2147 93.0822 37.2776 93.0935 37.5488C93.11 37.9569 93.1092 38.3659 93.0935 38.774C93.0839 39.0316 93.1917 39.126 93.4473 39.1243C94.5331 39.1192 95.618 39.12 96.7038 39.1243C96.962 39.1251 97.0672 39.0129 97.0611 38.7646C97.0524 38.3701 97.0498 37.9756 97.0611 37.582C97.0698 37.3039 96.9455 37.2121 96.6699 37.2189C96.1344 37.2325 95.5989 37.2232 95.0634 37.2232H95.0651Z" fill="white"/>
<path d="M65.1839 39.7417C65.1839 38.94 65.1787 38.1374 65.1857 37.3356C65.1935 36.4607 65.7647 35.8706 66.667 35.8545C67.9102 35.8324 69.155 35.8324 70.3982 35.8545C71.311 35.8706 71.8978 36.4828 71.903 37.3721C71.9091 38.2589 71.8873 39.1457 71.9126 40.0317C71.9221 40.3803 71.79 40.461 71.4622 40.4576C70.0739 40.4449 68.6856 40.4525 67.2973 40.4525C66.7867 40.4525 66.5314 40.7076 66.5314 41.2178C66.5314 41.3869 66.5314 41.5553 66.5314 41.7245C66.5326 42.1337 66.7371 42.3389 67.1452 42.3401C68.5335 42.3401 69.9218 42.3401 71.3101 42.3401C71.903 42.3401 71.9091 42.3409 71.9021 42.9063C71.8917 43.7447 72.0429 43.6656 71.1162 43.6681C69.6697 43.6715 68.224 43.6741 66.7774 43.6664C65.7064 43.6605 65.1866 43.1461 65.1822 42.1062C65.1787 41.3181 65.1822 40.5299 65.1822 39.7426L65.1839 39.7417ZM68.53 37.2242C67.9806 37.2242 67.4294 37.208 66.8809 37.237C66.7618 37.2429 66.561 37.4002 66.5531 37.4988C66.5175 37.9469 66.5201 38.4001 66.5514 38.8481C66.5584 38.9451 66.7409 39.1083 66.8452 39.11C67.9588 39.1296 69.0733 39.1304 70.1869 39.1092C70.2913 39.1075 70.4703 38.9264 70.479 38.8175C70.5138 38.3975 70.4808 37.9733 70.4982 37.5515C70.5095 37.282 70.3851 37.2157 70.1356 37.2208C69.6001 37.2319 69.0646 37.2242 68.53 37.2242Z" fill="white"/>
<path d="M142.13 39.756C142.13 38.9398 142.119 38.1236 142.133 37.3073C142.15 36.4265 142.73 35.8611 143.637 35.8509C144.867 35.8373 146.097 35.839 147.326 35.8509C148.269 35.8594 148.863 36.4494 148.868 37.3626C148.873 38.263 148.858 39.1643 148.875 40.0646C148.88 40.3648 148.769 40.4498 148.472 40.4481C146.982 40.4371 145.492 40.4541 144.003 40.4362C143.612 40.432 143.443 40.5399 143.48 40.9378C143.509 41.2448 143.506 41.5585 143.48 41.8654C143.45 42.2302 143.622 42.3263 143.962 42.3237C145.394 42.3144 146.826 42.3195 148.259 42.3203C148.868 42.3203 148.873 42.322 148.868 42.9231C148.861 43.747 148.972 43.6484 148.14 43.6509C146.65 43.6552 145.16 43.6552 143.67 43.6509C142.691 43.6475 142.145 43.1221 142.132 42.163C142.12 41.3613 142.129 40.5586 142.13 39.7569V39.756ZM145.55 37.2215C145 37.2215 144.45 37.2308 143.901 37.2172C143.631 37.2104 143.494 37.2912 143.501 37.5718C143.51 37.9654 143.509 38.3599 143.502 38.7544C143.497 39.0036 143.613 39.1124 143.867 39.1115C144.966 39.1081 146.066 39.109 147.166 39.1107C147.423 39.1107 147.527 38.9908 147.521 38.7451C147.513 38.3514 147.514 37.9569 147.521 37.5624C147.527 37.3107 147.416 37.213 147.156 37.2181C146.621 37.23 146.085 37.2215 145.55 37.2215Z" fill="white"/>
<path d="M64.178 43.6333C63.9937 43.652 63.8972 43.6698 63.7998 43.6698C62.036 43.6715 60.2721 43.6656 58.5082 43.6766C58.1753 43.6783 58.0605 43.5857 58.0623 43.2447C58.0753 40.0087 58.0736 36.7736 58.064 33.5376C58.0631 33.2247 58.1562 33.1261 58.4813 33.1261C59.5054 33.1252 59.5054 33.1125 59.5054 34.0885C59.5054 36.635 59.5141 39.1814 59.4975 41.7279C59.4949 42.1462 59.6097 42.2942 60.0583 42.2789C61.011 42.2465 61.9664 42.261 62.921 42.2772C63.0722 42.2797 63.2765 42.346 63.3617 42.4532C63.6416 42.8068 63.879 43.1929 64.1789 43.635L64.178 43.6333Z" fill="white"/>
<path d="M123.658 37.2242C122.635 37.2242 121.684 37.2242 120.732 37.2242C120.407 37.2242 120.466 37.4623 120.466 37.6476C120.463 39.4067 120.468 41.1667 120.463 42.9259C120.46 43.7429 120.575 43.6452 119.732 43.6511C119.094 43.6554 119.093 43.6511 119.093 43.0304C119.093 40.8062 119.103 38.582 119.085 36.3586C119.081 35.9505 119.206 35.8298 119.626 35.8383C120.883 35.8638 122.142 35.8451 123.401 35.8485C124.48 35.8511 125.064 36.4182 125.068 37.4597C125.068 37.5022 125.069 37.5439 125.068 37.5864C125.032 38.7674 125.322 38.5412 123.997 38.5752C123.717 38.5829 123.649 38.457 123.657 38.2173C123.667 37.9095 123.659 37.6017 123.659 37.2242H123.658Z" fill="white"/>
<path d="M100.345 39.7452C100.345 38.5905 100.353 37.4351 100.339 36.2805C100.336 35.9642 100.418 35.8341 100.778 35.84C102.08 35.8604 103.383 35.8426 104.685 35.8502C105.669 35.8562 106.28 36.4539 106.299 37.4062C106.3 37.4767 106.299 37.5473 106.299 37.617C106.299 38.6212 106.135 38.7572 105.112 38.5599C105.023 38.5429 104.91 38.3839 104.898 38.2811C104.867 38.0166 104.909 37.7446 104.874 37.481C104.862 37.3875 104.714 37.2387 104.625 37.237C103.743 37.2191 102.86 37.2268 101.976 37.2259C101.656 37.2259 101.703 37.4546 101.703 37.6451C101.7 39.2503 101.701 40.8564 101.701 42.4617C101.701 42.7575 101.69 43.0534 101.703 43.3485C101.714 43.5899 101.604 43.6716 101.369 43.669C100.122 43.6588 100.363 43.7872 100.347 42.7448C100.333 41.7449 100.344 40.745 100.345 39.7452Z" fill="white"/>
<path d="M45.1301 40.2629C45.1301 39.2205 45.1379 38.1781 45.1249 37.1357C45.1214 36.8594 45.2135 36.765 45.4987 36.7718C46.6645 36.8016 46.4376 36.623 46.448 37.6654C46.4628 39.1304 46.4619 40.5953 46.4445 42.0603C46.4402 42.408 46.5462 42.5237 46.9087 42.5203C48.4866 42.505 50.0644 42.5245 51.6422 42.5058C52.0247 42.5016 52.1803 42.6121 52.1317 42.9836C52.1151 43.1086 52.1186 43.2379 52.1308 43.3637C52.1595 43.6647 52.0134 43.7472 51.7213 43.7463C49.6515 43.7378 47.5807 43.7361 45.5109 43.7472C45.1953 43.7489 45.1214 43.6324 45.1249 43.3484C45.1388 42.3205 45.1301 41.2917 45.1301 40.2637V40.2629Z" fill="white"/>
<path d="M55.6622 36.7192C55.6622 37.7327 55.6518 38.7461 55.6683 39.7588C55.6735 40.0734 55.6031 40.2179 55.2414 40.2077C54.2678 40.1813 54.3999 40.2851 54.3965 39.4025C54.3895 37.9393 54.3852 36.4752 54.4008 35.0119C54.4052 34.6387 54.3017 34.5001 53.8888 34.506C52.2979 34.5298 50.707 34.506 49.1162 34.523C48.7684 34.5264 48.6702 34.4218 48.6737 34.092C48.6824 33.2281 48.6676 33.2281 49.5743 33.2281C51.4399 33.2281 53.3063 33.2409 55.1719 33.2179C55.5883 33.2128 55.6805 33.3446 55.6718 33.7213C55.6474 34.7203 55.6639 35.7193 55.6639 36.7192H55.6622Z" fill="white"/>
<path d="M128.036 39.7881C128.036 40.9418 128.028 42.0956 128.041 43.2485C128.046 43.5614 127.939 43.6668 127.617 43.6575C126.492 43.6252 126.684 43.8029 126.678 42.7477C126.667 40.6094 126.684 38.471 126.667 36.3327C126.664 35.9441 126.777 35.8217 127.179 35.8396C128.154 35.8829 128.028 35.6959 128.035 36.6651C128.042 37.7058 128.037 38.7474 128.037 39.7881H128.036Z" fill="white"/>
<path d="M128.036 33.9036C128.032 34.7181 128.088 34.594 127.319 34.5965C126.607 34.5991 126.676 34.6909 126.676 33.8781C126.676 33.1086 126.617 33.2336 127.432 33.2259C128.035 33.22 128.035 33.2259 128.035 33.9044L128.036 33.9036Z" fill="white"/>
</g>
<defs>
<clipPath id="clip0_15_4680">
<rect width="103.75" height="13.75" fill="white" transform="translate(45.125 33.125)"/>
</clipPath>
</defs>
</svg>
