<svg width="194" height="65" viewBox="0 0 194 65" fill="none" xmlns="http://www.w3.org/2000/svg">
<g clip-path="url(#clip0_284_9711)">
<mask id="mask0_284_9711" style="mask-type:luminance" maskUnits="userSpaceOnUse" x="47" y="20" width="100" height="24">
<path d="M47 20.8501H146.439V43.8501H47V20.8501Z" fill="white"/>
</mask>
<g mask="url(#mask0_284_9711)">
<path d="M68.7069 43.1087H50.7685C48.6876 43.1087 47 41.4396 47 39.3816V21.6406L52.4267 25.6659V34.0145C52.4267 36.0727 54.1143 37.7417 56.1953 37.7417H63.28L68.7069 43.1087Z" fill="white"/>
<path d="M117.535 30.6601V39.3814C117.535 41.4397 115.847 43.1087 113.766 43.1087H99.5967C97.5157 43.1087 95.8281 41.4397 95.8281 39.3814V25.3677C95.8281 23.3096 97.5157 21.6406 99.5967 21.6406H117.535L112.108 27.0076H103.139C102.098 27.0076 101.255 27.8417 101.255 28.8712V35.8781C101.255 36.9076 102.098 37.7415 103.139 37.7415H112.108V34.3872H104.571L108.34 30.6601H117.535Z" fill="white"/>
<path d="M88.2995 21.6406H73.9791C71.898 21.6406 70.2104 23.3387 70.2104 25.4333V39.3152C70.2104 41.4098 71.898 43.1079 73.9791 43.1079H88.2995C90.3805 43.1079 92.068 41.4098 92.068 39.3152V25.4333C92.068 23.3387 90.3805 21.6406 88.2995 21.6406ZM86.7167 36.1226C86.7167 37.1699 85.8732 38.0189 84.8324 38.0189H77.4867C76.4459 38.0189 75.6025 37.1699 75.6025 36.1226V28.9994C75.6025 27.9521 76.4459 27.103 77.4867 27.103H84.8324C85.8732 27.103 86.7167 27.9521 86.7167 28.9994V36.1226Z" fill="white"/>
<path d="M138.16 22.1978H144.918L138.286 31.5404H131.92L138.16 22.1978Z" stroke="white"/>
<path d="M138.186 42.4652H144.925L138.35 33.1226H132.002L138.186 42.4652Z" stroke="white"/>
<path fill-rule="evenodd" clip-rule="evenodd" d="M123.181 21.6406H129.92L136.155 32.1044H129.806L123.181 21.6406ZM130.6 43.054H123.194L129.806 32.5529H136.155L130.6 43.054Z" fill="white"/>
<mask id="mask1_284_9711" style="mask-type:luminance" maskUnits="userSpaceOnUse" x="123" y="21" width="14" height="23">
<path fill-rule="evenodd" clip-rule="evenodd" d="M123.19 21.6406H129.929L136.164 32.1044H129.816L123.19 21.6406ZM130.609 43.054H123.203L129.816 32.5529H136.164L130.609 43.054Z" fill="#07F2C7"/>
</mask>
<g mask="url(#mask1_284_9711)">
<path d="M129.929 21.6436L129.994 21.6056L129.972 21.5688H129.929V21.6436ZM123.19 21.6436V21.5688H123.054L123.126 21.6833L123.19 21.6436ZM136.164 32.1074V32.1821H136.296L136.229 32.0694L136.164 32.1074ZM129.816 32.1074L129.751 32.147L129.774 32.1821H129.816V32.1074ZM123.203 43.0569L123.139 43.0174L123.067 43.1317H123.203V43.0569ZM130.61 43.0569V43.1317H130.655L130.676 43.0916L130.61 43.0569ZM129.816 32.5558V32.4811H129.774L129.751 32.5163L129.816 32.5558ZM136.164 32.5558L136.231 32.5906L136.289 32.4811H136.164V32.5558ZM129.929 21.5688H123.19V21.7183H129.929V21.5688ZM136.229 32.0694L129.994 21.6056L129.864 21.6815L136.099 32.1453L136.229 32.0694ZM129.816 32.1821H136.164V32.0326H129.816V32.1821ZM123.126 21.6833L129.751 32.147L129.88 32.0677L123.254 21.6039L123.126 21.6833ZM123.203 43.1317H130.61V42.9822H123.203V43.1317ZM129.751 32.5163L123.139 43.0174L123.267 43.0964L129.88 32.5954L129.751 32.5163ZM136.164 32.4811H129.816V32.6306H136.164V32.4811ZM130.676 43.0916L136.231 32.5906L136.097 32.5211L130.542 43.0223L130.676 43.0916Z" fill="white"/>
</g>
</g>
</g>
<defs>
<clipPath id="clip0_284_9711">
<rect width="100" height="23" fill="white" transform="translate(47 20.8501)"/>
</clipPath>
</defs>
</svg>
