<svg width="194" height="80" viewBox="0 0 194 80" fill="none" xmlns="http://www.w3.org/2000/svg">
<g clip-path="url(#clip0_15_4541)">
<path d="M96.6541 50.6798L96.5856 50.6403L80.4243 41.327V22.8083L80.4928 22.7687L96.6523 13.4375L96.7207 13.477L112.842 22.758L112.803 41.5103L108.476 39.133L108.468 25.403L96.6541 18.5712L93.0763 20.6592L104.874 27.3598L104.991 41.2641L100.396 43.9684L88.3167 37.0863L88.3365 27.5251L92.3845 25.182L88.5365 23.218L84.856 25.4156L84.8416 38.991L101.059 48.0905L96.6541 50.6834V50.6798ZM80.6981 41.1707L96.6541 50.3653L100.515 48.0941L84.5696 39.1492L84.584 25.2592L88.5257 22.9053L92.9538 25.1658L88.6086 27.6796L88.5905 36.9264L100.394 43.6504L104.718 41.106L104.604 27.5161L92.5304 20.661L96.6523 18.255L108.742 25.2466L108.749 38.9731L112.533 41.0503L112.57 22.9143L96.6541 13.752L80.6963 22.9664V41.1707H80.6981Z" fill="white"/>
<path d="M88.5327 23.214L88.4678 23.1817L84.0505 20.9571L84.173 20.7145L88.5273 22.9049L92.6671 20.5798L92.6509 15.827L92.9248 15.8252L92.9392 20.7397L88.5327 23.214Z" fill="white"/>
<path d="M96.7891 13.5938H96.5171V18.413H96.7891V13.5938Z" fill="white"/>
<path d="M96.6342 32.2149L96.5694 32.1772L88.4067 27.7209L88.5382 27.4819L96.6324 31.9022L108.54 25.207L108.674 25.4442L96.6342 32.2149Z" fill="white"/>
<path d="M96.6324 36.9961L88.4031 32.175L88.5418 31.9414L96.636 36.6816L104.712 32.2055L104.845 32.4427L96.6324 36.9961Z" fill="white"/>
<path d="M104.751 36.9217L96.6379 41.5898L96.7739 41.8249L104.887 37.1567L104.751 36.9217Z" fill="white"/>
<path d="M100.707 48.3165L100.704 44.1351L100.396 43.9644L96.8918 45.9841L96.7549 45.7487L100.392 43.6518L100.976 43.9752L100.979 47.8457L112.601 41.1631L112.736 41.3985L100.707 48.3165Z" fill="white"/>
<path d="M108.663 43.6614L104.548 41.2356L108.546 38.9355L108.681 39.1709L105.089 41.2374L108.801 43.4278L108.663 43.6614Z" fill="white"/>
<path d="M104.889 41.1225L104.748 41.3545L108.614 43.6913L108.755 43.4593L104.889 41.1225Z" fill="white"/>
<path d="M84.643 38.946L80.4993 41.1279L80.6263 41.3679L84.77 39.186L84.643 38.946Z" fill="white"/>
<path d="M96.6341 27.4314L92.3916 25.1781L96.5315 22.7002L96.672 22.9338L92.9447 25.1655L96.6341 27.1223L100.585 24.9966L100.715 25.2356L96.6341 27.4314Z" fill="white"/>
<path d="M82.4707 55.2547C82.3608 55.4469 82.305 55.5422 82.2527 55.6392C81.379 57.2762 80.5089 58.9149 79.6279 60.5483C79.5685 60.6579 79.4244 60.8052 79.3361 60.7945C79.2154 60.7801 79.0659 60.6561 79.0028 60.5393C78.1075 58.888 77.2229 57.2312 76.3366 55.5763C76.2844 55.4793 76.2267 55.3876 76.1222 55.2115C75.9114 57.1378 75.5007 58.9526 75.5331 60.8412H74.717C75.0683 58.4531 75.4178 56.065 75.7709 53.6734C76.3276 53.5584 76.3474 53.5674 76.6086 54.0579C77.522 55.7632 78.4354 57.4684 79.3505 59.1737C79.4082 59.2815 79.473 59.3875 79.5541 59.5295C79.6243 59.4109 79.6838 59.3228 79.7324 59.2294C80.6674 57.472 81.6096 55.7165 82.532 53.9519C82.6887 53.6518 82.8707 53.5656 83.1823 53.6752C83.5246 56.0704 83.8651 58.4603 84.2056 60.8448H83.1823C82.9463 58.9958 82.7139 57.1773 82.4707 55.2547Z" fill="white"/>
<path d="M99.459 53.6503H100.749C100.913 54.8183 101.495 55.8299 101.887 56.9081C102.185 57.7256 102.525 58.527 102.871 59.3967C102.938 59.2422 102.988 59.138 103.028 59.032C103.55 57.6466 104.069 56.2594 104.6 54.8776C104.642 54.768 104.782 54.6943 104.876 54.6044C104.961 54.6943 105.08 54.768 105.125 54.874C105.707 56.2612 106.278 57.652 106.851 59.041C106.901 59.1649 106.957 59.2889 107.04 59.483C107.777 57.4992 108.708 55.661 109.315 53.6323H110.162C109.98 54.0276 109.803 54.3852 109.648 54.7536C108.807 56.7427 107.971 58.7337 107.132 60.7228C107.072 60.863 107.051 61.0157 106.825 61.0175C106.602 61.0193 106.571 60.8738 106.512 60.73C105.95 59.3716 105.388 58.0131 104.826 56.6565C104.784 56.5559 104.737 56.4552 104.662 56.2863C104.561 56.5433 104.483 56.7338 104.41 56.9278C103.93 58.1964 103.457 59.4686 102.968 60.7336C102.925 60.8432 102.808 60.96 102.696 60.9996C102.487 61.075 102.439 60.8864 102.381 60.739C101.626 58.8613 100.877 56.9817 100.115 55.1058C99.9202 54.6242 99.6896 54.1588 99.459 53.6485V53.6503Z" fill="white"/>
<path d="M117.4 57.9286C117.64 58.0131 117.813 58.0652 117.977 58.1353C118.505 58.3617 118.816 58.7516 118.818 59.3356C118.818 59.9268 118.587 60.4245 118.016 60.6365C117.589 60.7947 117.119 60.8683 116.662 60.9061C116.11 60.951 115.554 60.9169 115.022 60.9169V55.4399C115.678 55.4399 116.395 55.3842 117.099 55.4543C118.034 55.5477 118.532 56.2809 118.301 57.0931C118.178 57.5279 117.858 57.7579 117.4 57.9286ZM115.963 60.5341C116.327 60.5341 116.622 60.5611 116.912 60.5287C117.508 60.4586 117.813 60.0759 117.831 59.4254C117.849 58.757 117.559 58.3401 116.964 58.2431C116.699 58.2 116.422 58.2197 116.152 58.2395C116.085 58.2449 115.975 58.3563 115.973 58.4192C115.961 59.1056 115.966 59.7938 115.966 60.5341H115.963ZM115.982 57.8693C116.499 57.9071 116.982 57.8927 117.256 57.4093C117.505 56.9691 117.503 56.4875 117.2 56.0653C116.892 55.6358 116.444 55.7041 115.982 55.7993V57.8693Z" fill="white"/>
<path d="M99.5815 60.8467H98.4376C98.216 60.3221 98.016 59.8243 97.789 59.3374C97.7494 59.2529 97.6071 59.1702 97.5098 59.1685C96.8072 59.1559 96.1046 59.1613 95.4002 59.1738C95.3156 59.1738 95.1877 59.2277 95.157 59.2924C94.9228 59.7866 94.7067 60.2915 94.4634 60.8432H93.7681C94.2887 59.7938 94.8057 58.757 95.3174 57.7166C95.6669 57.0068 96.0019 56.2898 96.3622 55.5873C96.4217 55.4723 96.5676 55.3447 96.6865 55.3339C96.7766 55.3249 96.9243 55.4705 96.9765 55.5801C97.6629 56.9924 98.3349 58.412 99.0195 59.8243C99.1852 60.1657 99.3834 60.491 99.5797 60.8485L99.5815 60.8467ZM95.4255 58.73H97.5188C97.1711 57.9915 96.8432 57.2925 96.4847 56.5306C96.1136 57.3015 95.7749 58.0041 95.4255 58.73Z" fill="white"/>
<path d="M85.4793 60.8684V55.4346H88.5455C88.4861 55.5945 88.4284 55.7472 88.3906 55.8461H86.4395V57.828C87.0196 57.7993 87.5889 57.7723 88.187 57.7436C88.1492 57.934 88.1167 58.0958 88.0789 58.2844C87.5313 58.2521 86.9944 58.2215 86.4377 58.1892V60.5036C87.1511 60.4299 87.8519 60.358 88.5491 60.2844C88.5563 60.2952 88.5689 60.3041 88.5689 60.3113C88.5077 60.8773 88.5077 60.872 87.9258 60.8702C87.0989 60.8666 86.2702 60.8702 85.4775 60.8702L85.4793 60.8684Z" fill="white"/>
<path d="M111.655 57.8314C112.241 57.8009 112.803 57.7721 113.395 57.7416L113.296 58.2843C112.75 58.2519 112.214 58.2214 111.653 58.1872V60.5016C112.36 60.4279 113.06 60.3561 113.788 60.2806C113.759 60.4639 113.73 60.6472 113.698 60.8502H110.693V55.438H113.754C113.698 55.5907 113.644 55.7435 113.606 55.8459H111.655V57.8314Z" fill="white"/>
<path d="M93.9283 55.4521C93.9571 55.6354 93.9878 55.8187 94.0184 56.011C93.3482 55.9355 92.7033 55.8636 92.0475 55.79V60.8464H91.0495V55.7972C90.4208 55.8654 89.765 55.9355 89.0732 56.0092C89.0985 55.8421 89.1255 55.6588 89.1561 55.4521H93.9301H93.9283Z" fill="white"/>
<path d="M74.5694 62.1995H75.2C75.717 63.3855 76.225 64.548 76.7655 65.7879C77.2933 64.5588 77.7869 63.407 78.3058 62.1995C78.3058 62.1995 78.394 62.1869 78.4805 62.1833C78.558 62.1815 78.6372 62.1905 78.7543 62.1959C78.6444 62.4277 78.5418 62.6362 78.4463 62.8464C77.9148 64.0198 77.3888 65.1931 76.8519 66.3647C76.8123 66.4509 76.7132 66.539 76.6267 66.5606C76.5799 66.5713 76.4718 66.4545 76.4358 66.3755C75.8143 64.9973 75.2 63.6173 74.5676 62.1995H74.5694Z" fill="white"/>
<path d="M91.9683 63.2455C92.3123 63.2455 92.651 63.2419 92.9897 63.2455C93.5608 63.2526 93.9445 63.4862 94.0688 63.8995C94.1931 64.311 94.0328 64.6506 93.5049 65.0316C93.8598 65.5041 94.2147 65.9785 94.5642 66.4439C94.0436 66.5607 93.995 66.5427 93.6815 66.0971C93.5248 65.8761 93.35 65.6641 93.2131 65.4323C93.0618 65.1753 92.8726 65.0495 92.5556 65.1591V66.4673H91.9701V63.2437L91.9683 63.2455ZM92.5447 64.9112C93.0311 64.9633 93.2924 64.8591 93.4329 64.5769C93.5752 64.2948 93.541 63.8079 93.3554 63.6102C93.1176 63.3569 92.8312 63.4233 92.5447 63.4719V64.9112Z" fill="white"/>
<path d="M102.997 65.8112C102.95 66.3161 102.673 66.5515 102.214 66.5353C101.72 66.5156 101.206 66.5317 100.742 66.397C99.7418 66.1041 99.169 65.1895 99.2626 64.1868C99.3617 63.1338 100.115 62.3091 101.149 62.1671C101.493 62.1204 101.85 62.1348 102.197 62.1671C102.713 62.2174 102.743 62.2659 102.875 62.8212C102.385 62.4708 101.862 62.3144 101.273 62.4133C100.527 62.5391 99.9905 63.0296 99.9292 63.7771C99.8932 64.2173 99.9364 64.6899 100.064 65.1104C100.419 66.282 101.947 66.7348 102.999 65.8076L102.997 65.8112Z" fill="white"/>
<path d="M84.1352 63.2725H84.4721V66.4835L84.3766 66.5464C83.5966 65.7846 82.8183 65.0227 81.9878 64.2105V66.462H81.6257V63.1719C82.1157 63.5654 82.4869 63.9877 82.8904 64.374C83.2957 64.7621 83.6921 65.1592 84.1352 65.5959V63.2707V63.2725Z" fill="white"/>
<path d="M114.082 66.4711H113.689C113.806 66.2465 113.916 66.0434 114.017 65.835C114.404 65.0443 114.784 64.2519 115.179 63.4649C115.233 63.3588 115.345 63.2798 115.429 63.1899C115.505 63.2762 115.604 63.3535 115.653 63.4523C116.137 64.4442 116.615 65.4414 117.105 66.4585H116.501C116.325 66.1261 116.231 65.675 115.964 65.5205C115.683 65.3588 115.238 65.4738 114.865 65.481C114.211 65.4936 114.384 66.1368 114.083 66.4711H114.082ZM115.309 63.9105C115.083 64.3777 114.887 64.7856 114.68 65.2168H115.917C115.716 64.7838 115.528 64.3831 115.307 63.9105H115.309Z" fill="white"/>
<path d="M103.547 66.4706H103.186C103.705 65.4087 104.213 64.3683 104.727 63.3315C104.755 63.2722 104.854 63.1859 104.887 63.1985C104.968 63.229 105.058 63.2973 105.096 63.3728C105.4 63.9909 105.69 64.6145 105.989 65.2344C106.184 65.6369 106.389 66.0358 106.606 66.4634H105.966C105.815 66.1418 105.739 65.6513 105.492 65.5381C105.136 65.3745 104.644 65.4284 104.226 65.4931C103.718 65.5704 103.847 66.1346 103.548 66.4688L103.547 66.4706ZM104.17 65.202H105.397C105.19 64.7618 105.002 64.3593 104.79 63.9083C104.568 64.3719 104.375 64.7726 104.17 65.202Z" fill="white"/>
<path d="M88.2805 63.2723H88.8678C88.8678 63.9479 88.866 64.6092 88.8678 65.2722C88.8714 66.097 89.52 66.5103 90.2856 66.1833C90.6567 66.0251 90.7576 65.7125 90.7558 65.3549C90.7522 64.7332 90.7306 64.1115 90.7162 63.4897C90.7162 63.425 90.7162 63.3586 90.7162 63.2741H91.044C91.044 64.0575 91.0566 64.823 91.035 65.5885C91.0296 65.7664 90.9323 65.9622 90.8278 66.1132C90.545 66.5193 89.783 66.6684 89.1308 66.4744C88.6264 66.3252 88.3598 65.9658 88.3436 65.3783C88.3274 64.8356 88.3328 64.2929 88.322 63.7503C88.3201 63.6047 88.2967 63.4592 88.2805 63.2705V63.2723Z" fill="white"/>
<path d="M107.079 63.2562C107.494 63.2562 107.924 63.2292 108.349 63.2634C108.829 63.3011 109.142 63.6174 109.203 64.0468C109.266 64.4907 109.052 64.9255 108.62 65.089C108.322 65.2022 107.989 65.2274 107.652 65.2957V66.4618H107.081V63.2562H107.079ZM107.622 65.0028C107.98 65.0746 108.281 65.0495 108.474 64.7548C108.686 64.4296 108.688 64.0702 108.521 63.7234C108.385 63.4449 108.122 63.4035 107.854 63.4521C107.768 63.4682 107.636 63.5814 107.632 63.6569C107.611 64.0935 107.622 64.532 107.622 65.0046V65.0028Z" fill="white"/>
<path d="M95.6217 66.2659C96.0307 66.2264 96.4216 66.1887 96.8413 66.1473L96.8251 66.4798H95.0344V63.2705H96.8143C96.8233 63.4718 96.7386 63.54 96.5297 63.5167C96.2306 63.4843 95.9298 63.4843 95.6127 63.47V64.6793C95.9532 64.6649 96.2757 64.6505 96.627 64.6344L96.5711 64.9542C96.2504 64.9326 95.9478 64.9147 95.6217 64.8931V66.2659Z" fill="white"/>
<path d="M80.608 64.9542C80.2603 64.9327 79.9576 64.9129 79.6352 64.8931V66.2606C80.0513 66.2228 80.4584 66.1869 80.8962 66.1473L80.8386 66.4744H79.0713V63.2651H80.8206C80.7953 63.5275 80.7953 63.5239 80.5755 63.5131C80.2639 63.4969 79.954 63.4844 79.6352 63.47V64.6793C79.9774 64.6631 80.2999 64.6487 80.6494 64.6326L80.6098 64.9524L80.608 64.9542Z" fill="white"/>
<path d="M110.909 63.5886L110.96 63.2598H113.777L113.831 63.5868C113.435 63.5491 113.059 63.5149 112.666 63.4772V66.4654H112.075V63.4826C111.704 63.5167 111.329 63.5509 110.909 63.5886Z" fill="white"/>
<path d="M86.1171 66.4564V63.4807C85.7406 63.5167 85.3641 63.5508 84.9587 63.5886L84.9894 63.2705H87.8249C87.8375 63.3693 87.8484 63.4646 87.8628 63.585C87.4646 63.549 87.0899 63.5149 86.7098 63.4807V66.4564H86.1171Z" fill="white"/>
<path d="M117.587 66.4765V63.2744H118.178V66.259C118.593 66.2195 119 66.18 119.43 66.1387L119.376 66.4765H117.587Z" fill="white"/>
<path d="M110.392 66.4725H109.812V63.2759H110.392V66.4725Z" fill="white"/>
</g>
<defs>
<clipPath id="clip0_15_4541">
<rect width="44.8611" height="53.125" fill="white" transform="translate(74.5693 13.4375)"/>
</clipPath>
</defs>
</svg>
