<svg width="194" height="80" viewBox="0 0 194 80" fill="none" xmlns="http://www.w3.org/2000/svg">
<g clip-path="url(#clip0_15_4496)">
<path d="M46.4186 46.8752L40.7524 36.2586V46.8752H37.6458V33.1274H42.5117L47.746 42.8497L52.9825 33.1274H57.7838V46.8752H54.6553V36.2586L49.0067 46.8752H46.4186Z" fill="white"/>
<path d="M67.622 46.8739H64.4277V33.125H67.622V46.8739Z" fill="white"/>
<path d="M73.8562 40.4628H83.4796C85.3475 40.4628 86.413 39.6356 86.413 38.2036C86.413 36.7715 85.3475 35.922 83.4796 35.922H73.8562V33.125H83.6506C87.1913 33.125 89.5821 34.87 89.5821 38.1801C89.5821 40.6405 88.1911 42.276 85.9757 42.8998L89.9548 46.8728H86.2815L82.6082 43.2128H77.0472V46.8728H73.854L73.8562 40.4617V40.4628Z" fill="white"/>
<path d="M103.055 36.3691L96.8202 46.8728H93.4099L101.274 33.125H104.859L112.723 46.8739H109.268L103.056 36.3702L103.055 36.3691Z" fill="white"/>
<path d="M133.187 46.8739H130.364L120.175 37.3081V46.8739H117.09V33.125H120.349L130.081 42.1586V33.125H133.187V46.8739Z" fill="white"/>
<path d="M147.353 36.3691L141.118 46.8728H137.708L145.572 33.125H149.156L157.021 46.8739H153.567L147.353 36.3702V36.3691Z" fill="white"/>
</g>
<defs>
<clipPath id="clip0_15_4496">
<rect width="119.375" height="13.75" fill="white" transform="translate(37.6458 33.125)"/>
</clipPath>
</defs>
</svg>
