<svg width="194" height="80" viewBox="0 0 194 80" fill="none" xmlns="http://www.w3.org/2000/svg">
<g clip-path="url(#clip0_15_4696)">
<path d="M84.0986 18.8176V42.5907H82.7188V16.3165H83.1347C85.8095 16.3165 88.4834 16.3274 91.1581 16.3126C92.705 16.304 93.8625 16.9478 94.6875 18.2519C99.8839 26.4688 105.087 34.6817 110.288 42.8962C110.353 42.9993 110.425 43.0986 110.557 43.2908V19.3435H111.96V45.588C111.908 45.5974 111.854 45.6161 111.8 45.6161C108.929 45.6161 106.058 45.6349 103.187 45.6067C101.813 45.5934 100.757 44.9426 100.021 43.7822C98.1309 40.8013 96.2422 37.8189 94.3534 34.8364C91.0153 29.5661 87.6779 24.295 84.3398 19.0247C84.2914 18.9481 84.2368 18.8762 84.1853 18.802L84.0979 18.8169L84.0986 18.8176Z" fill="white"/>
<path d="M99.0973 55.0413C98.903 57.4143 98.7149 59.7068 98.526 62.0127H97.3904C97.6596 58.7669 97.9274 55.5437 98.1943 52.3214C98.2474 52.305 98.2786 52.2925 98.3114 52.2862C98.8233 52.1862 99.0957 52.387 99.3299 52.8769C100.461 55.2453 101.642 57.5901 102.806 59.9428C102.824 59.9795 102.846 60.0147 102.885 60.085C103.237 59.3404 103.561 58.6278 103.907 57.9269C104.805 56.1118 105.709 54.3006 106.623 52.4941C106.675 52.3925 106.837 52.3151 106.96 52.2909C107.135 52.2565 107.323 52.2823 107.534 52.2823C107.808 55.5375 108.081 58.7614 108.355 62.0087H107.143C106.956 59.7045 106.768 57.4034 106.574 55.0085C106.378 55.4195 106.22 55.7578 106.055 56.0923C105.105 58.0097 104.151 59.9256 103.206 61.8454C103.127 62.0056 103.056 62.0994 102.853 62.0963C102.652 62.0931 102.549 62.0291 102.46 61.8478C101.386 59.6568 100.304 57.4698 99.2237 55.282C99.1941 55.2226 99.1629 55.1648 99.0981 55.0398L99.0973 55.0413Z" fill="white"/>
<path d="M83.4602 52.3009C83.5211 52.293 83.5554 52.2844 83.5898 52.2844C83.9589 52.2915 84.4116 52.1727 84.6723 52.3446C84.9127 52.5032 84.9556 52.9713 85.0703 53.308C85.7548 55.3107 86.4346 57.3149 87.1168 59.3183C87.1269 59.3472 87.1441 59.3746 87.1722 59.4316C87.418 58.6815 87.6506 57.9564 87.8941 57.2352C88.4233 55.6678 88.9603 54.1035 89.4887 52.536C89.5464 52.3649 89.6128 52.2782 89.8211 52.2759C90.6781 52.2688 90.6766 52.2602 90.9544 53.0705C91.6701 55.1599 92.3882 57.2485 93.1101 59.3527C93.921 57.0078 94.7358 54.6512 95.5514 52.2938H96.7183C96.403 53.2057 96.0947 54.1003 95.7833 54.9942C94.9833 57.2875 94.1817 59.5801 93.3825 61.8741C93.3263 62.0351 93.3107 62.1984 93.0609 62.2031C92.8127 62.2078 92.7862 62.0562 92.73 61.8898C91.8746 59.3589 91.0168 56.8296 90.1591 54.2996C90.1411 54.2457 90.1154 54.1941 90.081 54.1105C89.7626 55.07 89.4606 56.0006 89.1437 56.9265C88.5708 58.601 87.9878 60.2716 87.4134 61.9452C87.3603 62.1 87.3064 62.2047 87.1082 62.2008C86.9271 62.1976 86.8444 62.1351 86.7866 61.9679C85.6885 58.7862 84.5857 55.6068 83.4844 52.4267C83.4735 52.3954 83.4711 52.361 83.4602 52.3016V52.3009Z" fill="white"/>
<path d="M127.198 62.309C126.976 62.1824 126.778 62.1254 126.662 61.9949C124.476 59.5406 122.3 57.077 120.121 54.6164C120.054 54.5406 119.982 54.4695 119.887 54.3687V62.0121H118.651V52.3192C119.186 52.2083 119.58 52.3098 119.962 52.7529C121.873 54.9712 123.824 57.1551 125.761 59.3499C125.812 59.407 125.865 59.4617 125.96 59.5625V52.3106H127.198V62.3098V62.309Z" fill="white"/>
<path d="M74.7517 52.298H76.0004V62.1752C75.7569 62.2854 75.6001 62.1768 75.4408 61.9955C73.2594 59.5209 71.0732 57.051 68.8879 54.5803C68.8356 54.521 68.7802 54.4639 68.6873 54.3639V62.0057H67.4534V52.3159C67.956 52.223 68.3486 52.2792 68.7287 52.7207C70.6697 54.9741 72.6514 57.1924 74.619 59.424C74.6486 59.4576 74.6752 59.4951 74.7517 59.5928V52.298Z" fill="white"/>
<path d="M108.118 16.332H109.476V38.8682C109.002 38.1212 108.57 37.4445 108.147 36.7624C108.103 36.6921 108.109 36.5842 108.109 36.4936C108.107 29.8418 108.107 23.1909 108.108 16.5391C108.108 16.4821 108.113 16.4258 108.119 16.332H108.118Z" fill="white"/>
<path d="M85.2007 23.1113C85.6752 23.8646 86.1021 24.5358 86.5197 25.2124C86.5642 25.2835 86.5681 25.3882 86.5681 25.4773C86.5697 32.1283 86.5697 38.7793 86.5689 45.4302C86.5689 45.4756 86.5618 45.5209 86.5556 45.5912H85.2007V23.1113Z" fill="white"/>
<path d="M106.776 34.6078C106.304 33.8663 105.885 33.2154 105.477 32.5583C105.426 32.477 105.411 32.3614 105.411 32.2614C105.409 26.0308 105.41 19.7994 105.411 13.5688C105.411 13.5352 105.42 13.5008 105.429 13.4375H106.776V34.6078H106.776Z" fill="white"/>
<path d="M89.2532 48.5181H87.9053V27.3838C88.3751 28.1276 88.8067 28.8043 89.2282 29.4872C89.2719 29.5583 89.2664 29.6662 89.2664 29.7568C89.268 35.9327 89.268 42.1086 89.2664 48.2845C89.2664 48.3517 89.2586 48.4189 89.2524 48.5181H89.2532Z" fill="white"/>
<path d="M109.038 62.0314C109.241 61.5368 109.422 61.0906 109.607 60.6452C110.721 57.9425 111.842 55.2421 112.943 52.5347C113.074 52.212 113.218 52.0424 113.605 52.1878C114.942 55.4312 116.292 58.7067 117.662 62.0306C117.248 62.0306 116.891 62.0486 116.538 62.0189C116.44 62.0111 116.316 61.8767 116.271 61.772C115.973 61.0828 115.687 60.3882 115.412 59.6896C115.334 59.4912 115.236 59.4044 115.011 59.4068C113.889 59.4185 112.767 59.4177 111.644 59.4068C111.422 59.4044 111.318 59.4849 111.24 59.6865C110.969 60.3866 110.674 61.0781 110.403 61.7782C110.329 61.9673 110.233 62.0478 110.024 62.0353C109.716 62.0173 109.405 62.0306 109.038 62.0306V62.0314ZM113.333 54.4771C112.829 55.7625 112.323 57.0572 111.808 58.3707H114.84C114.331 57.0557 113.832 55.7672 113.333 54.4771Z" fill="white"/>
<path d="M77.6909 62.007V52.3032H82.8242V53.3878H78.9576V56.5742H82.1717V57.6892H78.9576V60.9357H83.3713V62.0078H77.6909V62.007Z" fill="white"/>
<path d="M90.4793 31.4473C90.9585 32.2075 91.3893 32.8865 91.8116 33.5702C91.8498 33.632 91.8475 33.7257 91.8475 33.8039C91.849 37.1629 91.849 40.522 91.8475 43.8819C91.8475 43.9272 91.8381 43.9725 91.8303 44.0413H90.4785V31.4473H90.4793Z" fill="white"/>
<path d="M102.838 17.9854H104.202V30.5263C103.994 30.2051 103.844 29.9246 103.649 29.6824C102.986 28.862 102.792 27.9493 102.817 26.8898C102.882 24.0659 102.839 21.2405 102.839 18.4151V17.9854H102.838Z" fill="white"/>
<path d="M117.701 66.4858C117.416 66.5968 117.335 66.4553 117.259 66.2608C117.205 66.1186 117.118 65.9006 117.017 65.8818C116.738 65.8318 116.437 65.8342 116.16 65.8928C116.064 65.9131 116 66.1514 115.946 66.2991C115.874 66.496 115.766 66.5796 115.527 66.4858C115.871 65.6552 116.211 64.8332 116.551 64.012C116.59 64.0104 116.631 64.0089 116.671 64.0073C117.011 64.827 117.352 65.6466 117.701 66.4858ZM116.968 65.5646C116.842 65.2427 116.736 64.9707 116.608 64.6434C116.478 64.9754 116.369 65.2559 116.249 65.5646H116.968Z" fill="white"/>
<path d="M79.618 66.4851C79.2996 66.6156 79.2075 66.4242 79.17 66.2281C79.0802 65.7538 78.7228 65.8858 78.4184 65.8499C78.1031 65.8132 77.9571 65.9429 77.8799 66.2296C77.8291 66.4164 77.7581 66.625 77.4521 66.4758C77.4998 66.3585 77.545 66.2437 77.5926 66.1288C77.8814 65.4272 78.171 64.7263 78.4605 64.0246C78.5011 64.016 78.5409 64.0066 78.5815 63.998C78.9249 64.8224 79.2691 65.6459 79.6188 66.4859L79.618 66.4851ZM78.1624 65.5576H78.8781C78.7618 65.2568 78.658 64.9857 78.5269 64.6466C78.3942 64.9779 78.2857 65.2482 78.1624 65.5576Z" fill="white"/>
<path d="M88.0192 66.5624C87.9341 66.4975 87.7773 66.4342 87.7757 66.367C87.7585 65.6083 87.7648 64.8488 87.7648 64.0495C88.0629 64.0495 88.3259 64.0362 88.5866 64.0526C88.973 64.0761 89.2516 64.3581 89.2649 64.7121C89.2774 65.0614 89.0151 65.3567 88.628 65.4122C88.4696 65.4349 88.3072 65.4294 88.1059 65.4388V66.496C88.077 66.5178 88.0481 66.5405 88.02 66.5624H88.0192ZM88.1176 65.2403C88.4141 65.1145 88.6537 65.0411 88.8551 64.9098C88.9113 64.8731 88.9035 64.5879 88.8418 64.5488C88.6397 64.4199 88.3985 64.3527 88.1176 64.2394V65.2403Z" fill="white"/>
<path d="M69.296 64.4379C68.6795 64.2207 68.2002 64.3074 67.9052 64.6888C67.6555 65.0115 67.6469 65.5248 67.8849 65.8592C68.1628 66.2491 68.6615 66.3538 69.3756 66.2093C69.3038 66.2999 69.2508 66.4367 69.1571 66.4742C68.6295 66.6844 67.9325 66.464 67.6071 66.0069C67.2902 65.5615 67.3144 64.9114 67.6648 64.4887C68.0223 64.0566 68.738 63.8808 69.2453 64.1207C69.3226 64.1574 69.353 64.2926 69.4053 64.3825C69.3686 64.4004 69.3319 64.4192 69.296 64.4372V64.4379Z" fill="white"/>
<path d="M107.081 64.3151V66.4701C106.821 66.592 106.747 66.499 106.75 66.2669C106.756 65.7575 106.751 65.2488 106.751 64.7394C106.751 64.6151 106.751 64.4917 106.751 64.3362H105.993C105.97 64.3041 105.947 64.2713 105.924 64.2393C105.996 64.176 106.066 64.0604 106.139 64.058C106.659 64.0424 107.18 64.0432 107.7 64.0565C107.779 64.0588 107.855 64.1541 107.932 64.2073C107.916 64.244 107.899 64.2799 107.883 64.3166H107.08L107.081 64.3151Z" fill="white"/>
<path d="M126.167 66.2274C126.499 66.2274 126.777 66.2344 127.053 66.225C127.264 66.218 127.327 66.3008 127.249 66.511H125.836C125.836 65.7351 125.83 64.9748 125.847 64.2154C125.848 64.1458 126.001 64.0802 126.083 64.0122C126.111 64.0333 126.139 64.0544 126.167 64.0755V66.2266V66.2274Z" fill="white"/>
<path d="M97.8064 66.5117H97.5005V64.0723H97.8064V66.5117Z" fill="white"/>
</g>
<defs>
<clipPath id="clip0_15_4696">
<rect width="59.8958" height="53.125" fill="white" transform="translate(67.3855 13.4375)"/>
</clipPath>
</defs>
</svg>
