<svg width="194" height="65" viewBox="0 0 194 65" fill="none" xmlns="http://www.w3.org/2000/svg">
<g clip-path="url(#clip0_3_2715)">
<path d="M45.3948 40.2914C44.4788 40.2914 43.6283 40.1678 42.8432 39.9206C42.058 39.6735 41.3965 39.3027 40.8585 38.8084C40.3206 38.314 39.9353 37.6961 39.7026 36.9546C39.4846 36.2131 39.4555 35.348 39.6154 34.3593C39.7317 33.7341 39.8553 33.1089 39.9862 32.4837C40.1316 31.8586 40.277 31.2261 40.4223 30.5864C40.9021 28.6235 41.7672 27.1333 43.0176 26.1155C44.268 25.0977 45.9546 24.5889 48.0773 24.5889C48.9933 24.5889 49.8366 24.7197 50.6072 24.9814C51.3923 25.2286 52.0538 25.6066 52.5918 26.1155C53.1443 26.6244 53.5296 27.2496 53.7477 27.9911C53.9803 28.7326 54.0094 29.5977 53.8349 30.5864C53.7331 31.2261 53.6096 31.8586 53.4642 32.4837C53.3333 33.1089 53.1952 33.7341 53.0498 34.3593C52.5555 36.3512 51.6831 37.8415 50.4327 38.8302C49.1823 39.8043 47.503 40.2914 45.3948 40.2914ZM45.6783 37.1509C46.4635 37.1509 47.1541 36.9183 47.7502 36.453C48.3463 35.9877 48.7679 35.2462 49.0151 34.2285C49.1751 33.5887 49.3132 32.9854 49.4295 32.4183C49.5603 31.8513 49.6767 31.2624 49.7784 30.6518C49.9674 29.634 49.8802 28.8925 49.5167 28.4273C49.1532 27.962 48.5789 27.7294 47.7938 27.7294C47.0087 27.7294 46.3181 27.962 45.722 28.4273C45.1404 28.8925 44.726 29.634 44.4788 30.6518C44.3189 31.2624 44.1735 31.8513 44.0427 32.4183C43.9263 32.9854 43.81 33.5887 43.6937 34.2285C43.5192 35.2462 43.6065 35.9877 43.9554 36.453C44.3044 36.9183 44.8787 37.1509 45.6783 37.1509ZM56.1448 40.0733C55.9994 40.0733 55.8831 40.0224 55.7959 39.9206C55.7086 39.8189 55.6796 39.688 55.7086 39.5281L58.7183 25.3522C58.7474 25.1923 58.8273 25.0614 58.9582 24.9596C59.089 24.8578 59.2272 24.807 59.3726 24.807H65.1738C66.0607 24.807 66.8603 24.9087 67.5728 25.1123C68.2997 25.3158 68.9031 25.6284 69.3829 26.0501C69.8627 26.4717 70.1971 27.0024 70.3861 27.6421C70.5752 28.2673 70.5824 29.0016 70.4079 29.8449C70.0445 31.5169 69.303 32.7527 68.1834 33.5524C67.0784 34.3521 65.5881 34.7519 63.7126 34.7519H60.7683L59.7651 39.5281C59.736 39.688 59.6561 39.8189 59.5252 39.9206C59.4089 40.0224 59.2708 40.0733 59.1109 40.0733H56.1448ZM61.3354 31.7422H63.8434C64.4395 31.7422 64.9702 31.5823 65.4355 31.2624C65.9153 30.9426 66.2279 30.4555 66.3733 29.8012C66.446 29.4232 66.4605 29.0888 66.4169 28.798C66.3733 28.5072 66.2206 28.2746 65.9589 28.1001C65.7117 27.9257 65.3264 27.8384 64.803 27.8384H62.1859L61.3354 31.7422ZM74.4379 40.0733C74.2779 40.0733 74.1543 40.0224 74.0671 39.9206C73.9799 39.8189 73.9508 39.688 73.9799 39.5281L76.4007 28.231H72.5187C72.3733 28.231 72.257 28.1801 72.1697 28.0783C72.0825 27.962 72.0534 27.8311 72.0825 27.6858L72.5841 25.3522C72.6132 25.1923 72.6859 25.0614 72.8022 24.9596C72.933 24.8578 73.0784 24.807 73.2384 24.807H84.9715C85.1314 24.807 85.2477 24.8578 85.3204 24.9596C85.4076 25.0614 85.4367 25.1923 85.4076 25.3522L84.906 27.6858C84.8769 27.8311 84.797 27.962 84.6661 28.0783C84.55 28.1801 84.4119 28.231 84.2519 28.231H80.3699L77.9709 39.5281C77.9418 39.688 77.8619 39.8189 77.731 39.9206C77.6147 40.0224 77.4766 40.0733 77.3167 40.0733H74.4379ZM85.8647 40.0733C85.7048 40.0733 85.5812 40.0224 85.494 39.9206C85.4067 39.8189 85.3776 39.688 85.4067 39.5281L88.4382 25.3522C88.4673 25.1923 88.5472 25.0614 88.6781 24.9596C88.8089 24.8578 88.9471 24.807 89.0925 24.807H92.0367C92.1821 24.807 92.2984 24.8578 92.3856 24.9596C92.4729 25.0614 92.5019 25.1923 92.4729 25.3522L89.4414 39.5281C89.4123 39.688 89.3324 39.8189 89.2015 39.9206C89.0852 40.0224 88.9543 40.0733 88.8089 40.0733H85.8647ZM94.8114 40.0733C94.6515 40.0733 94.5279 40.0224 94.4407 39.9206C94.3534 39.8189 94.3244 39.688 94.3534 39.5281L97.3631 25.3522C97.3922 25.1923 97.4721 25.0614 97.603 24.9596C97.7338 24.8578 97.8792 24.807 98.0392 24.807H100.395C100.627 24.807 100.787 24.8724 100.874 25.0032C100.976 25.1196 101.042 25.2141 101.071 25.2868L103.426 32.1784L108.747 25.2868C108.791 25.2141 108.878 25.1196 109.009 25.0032C109.155 24.8724 109.344 24.807 109.576 24.807H111.932C112.091 24.807 112.215 24.8578 112.302 24.9596C112.39 25.0614 112.419 25.1923 112.39 25.3522L109.38 39.5281C109.351 39.688 109.271 39.8189 109.14 39.9206C109.009 40.0224 108.864 40.0733 108.704 40.0733H106.087C105.941 40.0733 105.825 40.0224 105.738 39.9206C105.651 39.8189 105.621 39.688 105.651 39.5281L107.352 31.4805L104.015 35.9078C103.913 36.0241 103.789 36.1404 103.644 36.2567C103.513 36.3585 103.346 36.4094 103.142 36.4094H102.008C101.805 36.4094 101.659 36.3585 101.572 36.2567C101.485 36.1549 101.42 36.0386 101.376 35.9078L99.8275 31.2843L98.061 39.5281C98.0319 39.688 97.9519 39.8189 97.8211 39.9206C97.7048 40.0224 97.5739 40.0733 97.4285 40.0733H94.8114ZM114.05 40.0733C113.89 40.0733 113.766 40.0224 113.679 39.9206C113.592 39.8189 113.563 39.688 113.592 39.5281L116.623 25.3522C116.652 25.1923 116.732 25.0614 116.863 24.9596C116.994 24.8578 117.132 24.807 117.277 24.807H120.222C120.367 24.807 120.483 24.8578 120.571 24.9596C120.658 25.0614 120.687 25.1923 120.658 25.3522L117.626 39.5281C117.597 39.688 117.517 39.8189 117.387 39.9206C117.27 40.0224 117.139 40.0733 116.994 40.0733H114.05ZM127.838 40.2914C126.384 40.2914 125.191 40.0878 124.261 39.6807C123.345 39.2736 122.683 38.7357 122.276 38.0669C121.884 37.3835 121.746 36.6638 121.862 35.9078C121.891 35.7915 121.949 35.6897 122.036 35.6024C122.138 35.5007 122.255 35.4498 122.385 35.4498H125.177C125.38 35.4498 125.526 35.4861 125.613 35.5588C125.7 35.6315 125.788 35.726 125.875 35.8423C125.933 36.0604 126.049 36.2713 126.224 36.4748C126.398 36.6784 126.638 36.8456 126.943 36.9764C127.263 37.0927 127.656 37.1509 128.121 37.1509C128.964 37.1509 129.641 37.02 130.149 36.7583C130.658 36.4966 130.956 36.1404 131.044 35.6897C131.131 35.3698 131.073 35.1081 130.869 34.9046C130.68 34.6865 130.338 34.4975 129.844 34.3375C129.364 34.163 128.717 33.9886 127.903 33.8141C126.842 33.5815 125.969 33.2616 125.286 32.8545C124.603 32.4329 124.123 31.9022 123.847 31.2624C123.585 30.6082 123.549 29.8303 123.738 28.9289C124.028 27.5912 124.748 26.5371 125.897 25.7666C127.045 24.9814 128.536 24.5889 130.367 24.5889C131.313 24.5889 132.149 24.7197 132.876 24.9814C133.617 25.2431 134.235 25.5921 134.729 26.0283C135.224 26.4644 135.58 26.9297 135.798 27.424C136.016 27.9038 136.089 28.3764 136.016 28.8416C136.001 28.958 135.943 29.067 135.842 29.1688C135.74 29.256 135.623 29.2996 135.493 29.2996H132.57C132.425 29.2996 132.294 29.2705 132.178 29.2124C132.076 29.1542 131.989 29.0597 131.916 28.9289C131.916 28.609 131.749 28.3328 131.414 28.1001C131.08 27.853 130.636 27.7294 130.084 27.7294C129.459 27.7294 128.935 27.8457 128.514 28.0783C128.092 28.2964 127.83 28.6381 127.729 29.1033C127.656 29.3941 127.692 29.6486 127.838 29.8667C127.998 30.0848 128.288 30.2738 128.71 30.4337C129.146 30.5936 129.742 30.7608 130.498 30.9353C131.778 31.1825 132.781 31.5169 133.508 31.9385C134.235 32.3456 134.722 32.8618 134.969 33.487C135.231 34.1122 135.267 34.8755 135.078 35.7769C134.758 37.2599 133.981 38.3867 132.745 39.1573C131.523 39.9134 129.888 40.2914 127.838 40.2914ZM137.763 40.0733C137.603 40.0733 137.479 40.0224 137.392 39.9206C137.305 39.8189 137.276 39.688 137.305 39.5281L140.315 25.3522C140.344 25.1923 140.424 25.0614 140.555 24.9596C140.685 24.8578 140.831 24.807 140.991 24.807H143.346C143.579 24.807 143.739 24.8724 143.826 25.0032C143.928 25.1196 143.993 25.2141 144.022 25.2868L146.378 32.1784L151.699 25.2868C151.743 25.2141 151.83 25.1196 151.961 25.0032C152.106 24.8724 152.295 24.807 152.528 24.807H154.883C155.043 24.807 155.167 24.8578 155.254 24.9596C155.341 25.0614 155.37 25.1923 155.341 25.3522L152.331 39.5281C152.302 39.688 152.222 39.8189 152.092 39.9206C151.961 40.0224 151.815 40.0733 151.655 40.0733H149.038C148.893 40.0733 148.777 40.0224 148.689 39.9206C148.602 39.8189 148.573 39.688 148.602 39.5281L150.303 31.4805L146.966 35.9078C146.865 36.0241 146.741 36.1404 146.596 36.2567C146.465 36.3585 146.298 36.4094 146.094 36.4094H144.96C144.756 36.4094 144.611 36.3585 144.524 36.2567C144.437 36.1549 144.371 36.0386 144.328 35.9078L142.779 31.2843L141.013 39.5281C140.983 39.688 140.904 39.8189 140.773 39.9206C140.656 40.0224 140.525 40.0733 140.38 40.0733H137.763Z" fill="white"/>
</g>
<defs>
<clipPath id="clip0_3_2715">
<rect width="116.315" height="16.3568" fill="white" transform="translate(39.176 24.1714)"/>
</clipPath>
</defs>
</svg>
