<svg width="194" height="80" viewBox="0 0 194 80" fill="none" xmlns="http://www.w3.org/2000/svg">
<g clip-path="url(#clip0_15_4293)">
<path d="M47.2915 35V45H57.5276V35H47.2915ZM50.8734 41.2962H49.8637V36.6685H50.8734V41.2962ZM52.9505 43.2872H51.9408V36.6685H52.9505V43.2882V43.2872ZM55.0276 41.2962H54.0375V36.6685H55.0276V41.2962Z" fill="white"/>
<path d="M64.1726 41.809V42.9939H63.1484V39.7314H64.1952" fill="white"/>
<path d="M79.1526 36.7822L82.6633 43.0633H81.2565L80.2396 41.1983H76.3669L75.3779 43.0633H74.0825L77.4818 36.7822H79.1536H79.1526ZM78.3028 37.5107H78.2883L76.6722 40.5122H79.9179L78.3017 37.5107H78.3028Z" fill="white"/>
<path d="M93.4317 43.0643L88.899 37.7978V43.0643H87.8037V36.7822H89.3445L93.7628 41.9963V36.7822H94.8447V43.0633H93.4317V43.0643Z" fill="white"/>
<path d="M103.262 43.4774V37.6658H100.422V36.9434H107.27V37.6658H104.455V43.4774H103.262Z" fill="white"/>
<path d="M114.372 42.276H119.48V42.937H113.006V36.9541H119.286V37.6151H114.371V39.5899H117.557V40.2508H114.371V42.276H114.372Z" fill="white"/>
<path d="M142.299 36.7822L146.042 43.0633H144.542L143.458 41.1983H139.329L138.274 43.0633H136.893L140.517 36.7822H142.299ZM141.393 37.5107H141.379L139.656 40.5122H143.117L141.393 37.5107Z" fill="white"/>
<path d="M68.234 37.866C68.7682 37.866 69.2024 38.2901 69.2024 38.8121C69.2024 39.334 68.7682 39.7581 68.234 39.7581H64.1798V37.866H68.234ZM68.234 36.8584H63.1484V40.7657H68.234C69.3334 40.7657 70.2338 39.8871 70.2338 38.8121C70.2338 37.738 69.3344 36.8584 68.234 36.8584Z" fill="white"/>
<path d="M130.31 37.7898C130.845 37.7898 131.279 38.214 131.279 38.7359C131.279 39.2578 130.845 39.682 130.31 39.682H126.256V37.7898H130.31ZM130.31 36.7822H125.225V40.6895H130.31C131.41 40.6895 132.31 39.8109 132.31 38.7359C132.31 37.6618 131.411 36.7822 130.31 36.7822Z" fill="white"/>
<path d="M129.324 40.69L130.916 42.9368C130.916 42.9368 132.197 43.0789 132.159 42.9368C132.121 42.7947 130.569 40.6728 130.569 40.6728L126.159 40.6426V42.9378H125.226V40.1973" fill="white"/>
</g>
<defs>
<clipPath id="clip0_15_4293">
<rect width="98.75" height="10" fill="white" transform="translate(47.2915 35)"/>
</clipPath>
</defs>
</svg>
