<svg width="194" height="65" viewBox="0 0 194 65" fill="none" xmlns="http://www.w3.org/2000/svg">
<path d="M73.2017 44.3614V26.7274H75.8253L76.0752 28.1507H76.2002C76.9497 27.1758 78.2236 26.4775 79.9973 26.4775C83.2434 26.4775 85.8425 29.1257 85.8425 33.0457C85.8425 36.9656 83.2457 39.6137 79.9973 39.6137C78.2482 39.6137 77.0256 38.8886 76.3764 38.0654H76.2514V44.3591H73.2039L73.2017 44.3614ZM82.7928 33.0478C82.7928 30.7499 81.3181 29.302 79.5198 29.302C77.7216 29.302 76.247 30.7499 76.247 33.0478C76.247 35.3459 77.7216 36.7938 79.5198 36.7938C81.3181 36.7938 82.7928 35.3459 82.7928 33.0478Z" fill="white"/>
<path d="M87.3879 33.0481C87.3879 29.2263 90.1343 26.48 93.8066 26.48C97.4788 26.48 100.225 29.2263 100.225 33.0481C100.225 36.8698 97.4788 39.6162 93.8066 39.6162C90.1343 39.6162 87.3879 36.8431 87.3879 33.0481ZM97.1531 33.0481C97.1531 30.7992 95.6539 29.3022 93.8066 29.3022C91.9593 29.3022 90.4355 30.8015 90.4355 33.0481C90.4355 35.2947 91.9593 36.7694 93.8066 36.7694C95.6539 36.7694 97.1531 35.2969 97.1531 33.0481Z" fill="white"/>
<path d="M102.434 39.3665V21.8843H105.481V39.3686H102.434V39.3665Z" fill="white"/>
<path d="M116.794 26.7275H120.04L114.545 42.0881C113.997 43.6118 113.247 44.3614 111.273 44.3614H108.325V41.5392H110.824C111.275 41.5392 111.522 41.3139 111.674 40.9391L111.973 40.1158L106.828 26.7275H110.074L113.347 35.4955H113.847L116.794 26.7275Z" fill="white"/>
<path d="M120.624 39.9907H123.721C123.846 40.8141 124.669 41.9385 126.619 41.9385C128.442 41.9385 129.642 40.7895 129.642 39.0403V37.2668H129.517C128.843 37.9917 127.594 38.641 125.994 38.641C122.748 38.641 120.249 36.1422 120.249 32.5459C120.249 28.9495 122.748 26.4775 125.994 26.4775C127.667 26.4775 128.892 27.1513 129.666 28.1017H129.791L130.041 26.7274H132.689V39.0403C132.689 42.3868 130.441 44.6112 126.619 44.6112C122.349 44.6112 120.7 41.8135 120.624 39.9907ZM129.642 32.5481C129.642 30.5759 128.243 29.2016 126.469 29.2016C124.696 29.2016 123.321 30.5759 123.321 32.5481C123.321 34.5204 124.72 35.9192 126.469 35.9192C128.219 35.9192 129.642 34.5448 129.642 32.5481Z" fill="white"/>
<path d="M134.806 33.0481C134.806 29.2263 137.552 26.48 141.225 26.48C144.897 26.48 147.643 29.2263 147.643 33.0481C147.643 36.8698 144.897 39.6162 141.225 39.6162C137.552 39.6162 134.806 36.8431 134.806 33.0481ZM144.571 33.0481C144.571 30.7992 143.072 29.3022 141.225 29.3022C139.377 29.3022 137.853 30.8015 137.853 33.0481C137.853 35.2947 139.377 36.7694 141.225 36.7694C143.072 36.7694 144.571 35.2969 144.571 33.0481Z" fill="white"/>
<path d="M149.765 39.3661V26.7274H152.387L152.636 27.9255H152.761C153.261 27.3521 154.511 26.4775 156.408 26.4775C159.305 26.4775 161.402 28.5747 161.402 31.7717V39.3639H158.355V32.1711C158.355 30.5469 157.206 29.3734 155.633 29.3734C154.06 29.3734 152.811 30.5982 152.811 32.1711V39.3639H149.763L149.765 39.3661Z" fill="white"/>
<path d="M55.4621 37.8917L62.9538 33.5658C63.351 33.336 63.5964 32.9098 63.5964 32.4525V23.8006C63.5964 23.3433 63.351 22.9172 62.9538 22.6874L55.4621 18.3614C55.065 18.1317 54.5719 18.1339 54.177 18.3614L46.6853 22.6874C46.2882 22.9172 46.0428 23.3433 46.0428 23.8006V39.2615L40.7888 42.2935L35.5347 39.2615V33.1955L40.7888 30.1635L44.2536 32.1647V28.0953L41.4312 26.4645C41.2371 26.3529 41.0141 26.2927 40.7888 26.2927C40.5634 26.2927 40.3404 26.3529 40.1463 26.4645L32.6545 30.7904C32.2574 31.0202 32.012 31.4464 32.012 31.9037V40.5556C32.012 41.0129 32.2574 41.439 32.6545 41.6688L40.1463 45.9948C40.5433 46.2223 41.0342 46.2223 41.4312 45.9948L48.923 41.6688C49.3202 41.439 49.5655 41.0129 49.5655 40.5556V25.0924L49.6592 25.0389L54.8174 22.0605L60.0714 25.0924V31.1585L54.8174 34.1905L51.357 32.1937V36.2631L54.1748 37.8895C54.5719 38.117 55.065 38.117 55.4599 37.8895L55.4621 37.8917Z" fill="white"/>
</svg>
