<svg width="194" height="80" viewBox="0 0 194 80" fill="none" xmlns="http://www.w3.org/2000/svg">
<g clip-path="url(#clip0_15_4522)">
<path d="M44.7915 53.1465V45.8903H48.8317L48.6394 45.162C48.2425 43.7285 49.0565 42.2372 50.4585 41.8313C51.8605 41.4254 53.319 42.2578 53.716 43.6913C53.8492 44.1717 53.8492 44.6803 53.716 45.162L53.5238 45.8903H57.564V53.1465H44.7915Z" fill="white"/>
<path d="M70.8315 35.5381C70.8315 40.6762 66.6243 44.7095 61.2537 44.7095H58.7412V39.2375C59.0075 39.3017 59.2789 39.3339 59.5528 39.3339C61.6344 39.3339 63.3216 37.6088 63.3216 35.4803C63.3216 33.3519 61.6344 31.6268 59.5528 31.6268C59.2789 31.6268 59.0075 31.6589 58.7412 31.7232V26.2524H61.2537C66.6243 26.2524 70.8315 30.3307 70.8315 35.5381Z" fill="white"/>
<path d="M54.9396 44.7071C54.9459 44.6262 54.9484 44.5452 54.9484 44.4656C54.9484 42.3372 53.2613 40.6121 51.1796 40.6121C49.098 40.6121 47.4108 42.3372 47.4108 44.4656C47.4108 44.5452 47.4108 44.6262 47.4196 44.7071H44.7915V26.25H57.564V33.4908L58.3818 33.0733C58.7449 32.8832 59.1456 32.783 59.5526 32.7791C61.0099 32.7791 62.1908 33.9866 62.1908 35.4766C62.1908 36.9666 61.0099 38.1741 59.5526 38.1741C59.1456 38.1715 58.7436 38.07 58.3818 37.8799L57.564 37.4625V44.7032L54.9396 44.7071Z" fill="white"/>
<path d="M79.9834 37.9659V26.2769H84.4959C85.3627 26.2769 86.1014 26.4451 86.712 26.7817C87.3024 27.0977 87.7886 27.5845 88.1102 28.1805C88.4406 28.8112 88.6077 29.519 88.5938 30.2357C88.6077 30.9525 88.4381 31.6615 88.1026 32.2909C87.7735 32.8856 87.2785 33.3686 86.6818 33.6782C86.0612 34.0096 85.3125 34.1753 84.4343 34.1753H81.5588V32.1946H84.0437C84.4419 32.21 84.8376 32.1239 85.1956 31.9454C85.4871 31.7925 85.7258 31.551 85.8778 31.2543C86.0336 30.9383 86.1115 30.5889 86.1039 30.2357C86.1115 29.8825 86.0336 29.5318 85.8778 29.2171C85.7245 28.9229 85.4846 28.6853 85.1931 28.5376C84.8301 28.3629 84.4331 28.2794 84.0323 28.2948H82.3992V37.9659H79.9834Z" fill="white"/>
<path d="M95.6226 34.232V29.1968H98.002V37.9661H95.7181V36.3733H95.6289C95.4417 36.8781 95.105 37.311 94.6653 37.6116C94.1804 37.934 93.6101 38.0971 93.0322 38.0804C92.5008 38.092 91.9782 37.9533 91.5184 37.6809C91.0799 37.4099 90.7257 37.0156 90.4995 36.5442C90.242 35.9944 90.1151 35.3894 90.1289 34.7805V29.1968H92.502V34.3464C92.502 34.8602 92.6377 35.2699 92.9091 35.5744C93.1867 35.8788 93.5799 36.0432 93.9869 36.0252C94.2671 36.0265 94.5435 35.9571 94.791 35.8223C95.0447 35.6835 95.2545 35.4754 95.3965 35.2198C95.5598 34.918 95.6377 34.5763 95.6226 34.232Z" fill="white"/>
<path d="M99.8511 37.9661V36.5159L104.05 31.2006V31.1377H100.001V29.1968H106.918V30.778L102.977 35.9648V36.0278H107.063V37.9687L99.8511 37.9661Z" fill="white"/>
<path d="M108.845 37.9661V36.5159L113.042 31.2006V31.1377H108.989V29.1968H115.907V30.778L111.965 35.9648V36.0278H116.057V37.9687L108.845 37.9661Z" fill="white"/>
<path d="M120.257 26.2744V37.9634H117.879V26.2744H120.257Z" fill="white"/>
<path d="M126.063 38.1368C125.181 38.1368 124.422 37.9531 123.788 37.5858C123.159 37.2248 122.649 36.6802 122.322 36.0225C121.638 34.5068 121.638 32.7625 122.322 31.2467C122.646 30.5852 123.15 30.0316 123.772 29.6539C124.439 29.2609 125.199 29.0631 125.969 29.0823C126.509 29.0772 127.044 29.1723 127.552 29.3598C128.033 29.5396 128.471 29.8235 128.836 30.1909C129.218 30.5839 129.51 31.0592 129.692 31.5807C129.91 32.2075 130.014 32.8703 130.001 33.5357V34.2037H122.758V32.6969H127.76C127.767 32.372 127.69 32.0508 127.538 31.7657C127.392 31.4998 127.18 31.2801 126.921 31.1298C126.642 30.9718 126.327 30.8922 126.008 30.8986C125.671 30.8935 125.341 30.9821 125.05 31.1555C124.779 31.3187 124.554 31.5537 124.4 31.835C124.241 32.1241 124.159 32.449 124.16 32.7804V34.2127C124.15 34.6019 124.231 34.9872 124.397 35.3379C124.545 35.6436 124.779 35.8979 125.069 36.0688C125.385 36.246 125.741 36.3347 126.102 36.3257C126.348 36.3282 126.593 36.2897 126.828 36.2114C127.039 36.1407 127.231 36.0238 127.392 35.8684C127.55 35.7117 127.674 35.5216 127.75 35.3096L129.95 35.4509C129.846 35.975 129.609 36.4618 129.265 36.8639C128.902 37.2801 128.446 37.6012 127.936 37.8003C127.338 38.0341 126.702 38.1484 126.063 38.1368Z" fill="white"/>
<path d="M82.0497 41.8823L84.8134 50.766H84.919L87.689 41.8823H90.3687L86.4265 53.5713H83.311L79.3638 41.8823H82.0497Z" fill="white"/>
<path d="M94.6289 53.7459C93.747 53.7459 92.9882 53.5623 92.3538 53.1949C91.7257 52.8352 91.2156 52.2919 90.889 51.6355C90.2043 50.1211 90.2043 48.3754 90.889 46.861C91.2131 46.1995 91.7156 45.6458 92.3375 45.2682C93.0045 44.8751 93.7646 44.6773 94.5347 44.6966C95.0749 44.6915 95.61 44.7865 96.1176 44.9741C96.5987 45.1526 97.0372 45.4365 97.4015 45.8038C97.7834 46.1982 98.0761 46.6722 98.2582 47.195C98.4743 47.8231 98.5786 48.4846 98.566 49.15V49.8179H91.3237V48.3061H96.3261C96.3324 47.9811 96.2558 47.66 96.1037 47.3748C95.9593 47.1076 95.7457 46.8854 95.4869 46.7325C95.208 46.5745 94.8927 46.4949 94.5736 46.5013C94.2369 46.4949 93.9065 46.5835 93.6163 46.7582C93.3437 46.9214 93.1201 47.1564 92.9656 47.4377C92.8073 47.7267 92.7244 48.0517 92.7256 48.3831V49.8154C92.7156 50.2046 92.7973 50.5899 92.9631 50.9406C93.1126 51.2463 93.3462 51.5006 93.6352 51.6715C93.9518 51.8487 94.3085 51.9374 94.6691 51.9284C94.9153 51.9309 95.1603 51.8924 95.394 51.814C95.605 51.7434 95.7972 51.6265 95.958 51.4711C96.1176 51.3157 96.2394 51.1243 96.3161 50.9123L98.5158 51.06C98.4115 51.5841 98.1753 52.0709 97.8311 52.473C97.4681 52.8892 97.012 53.2103 96.5032 53.4094C95.9053 53.6432 95.2683 53.7575 94.6289 53.7459Z" fill="white"/>
<path d="M102.497 48.5055V53.5754H100.118V44.8061H102.379V46.3475H102.479C102.66 45.8478 102.996 45.4227 103.434 45.1349C103.92 44.8241 104.486 44.6674 105.059 44.6866C105.604 44.6738 106.141 44.8112 106.616 45.0861C107.062 45.3546 107.42 45.7515 107.649 46.2255C107.908 46.774 108.033 47.3777 108.018 47.9865V53.5754H105.645V48.4246C105.645 47.8876 105.511 47.4676 105.243 47.1657C104.976 46.8639 104.601 46.7123 104.123 46.7123C103.827 46.7059 103.536 46.7791 103.277 46.9243C103.032 47.0668 102.834 47.2801 102.707 47.5382C102.564 47.8388 102.492 48.1702 102.497 48.5055Z" fill="white"/>
<path d="M114.457 44.806V46.6326H109.292V44.806H114.457ZM110.464 42.7046H112.842V50.8805C112.833 51.0603 112.867 51.2401 112.943 51.4033C113.004 51.5202 113.105 51.6114 113.225 51.6602C113.36 51.7115 113.503 51.7372 113.646 51.7347C113.759 51.7347 113.871 51.7231 113.982 51.7026L114.233 51.6537L114.61 53.4636C114.484 53.5022 114.323 53.5471 114.107 53.5985C113.848 53.655 113.585 53.6858 113.32 53.6923C112.807 53.7257 112.292 53.646 111.812 53.4585C111.4 53.2953 111.048 53.0038 110.807 52.6248C110.555 52.1945 110.433 51.6987 110.455 51.1977L110.464 42.7046Z" fill="white"/>
<path d="M121.503 49.8375V44.8022H123.881V53.5754H121.597V51.9826H121.508C121.321 52.4874 120.984 52.9203 120.544 53.2209C120.059 53.5433 119.489 53.7064 118.911 53.6897C118.382 53.7 117.861 53.5613 117.404 53.289C116.964 53.018 116.611 52.6236 116.385 52.1535C116.129 51.6037 116.002 50.9987 116.014 50.3898V44.8061H118.381V49.9557C118.381 50.4695 118.517 50.8792 118.789 51.1837C119.066 51.4881 119.46 51.6538 119.866 51.6345C120.146 51.6358 120.423 51.5665 120.67 51.4316C120.924 51.2929 121.134 51.0848 121.276 50.8292C121.439 50.526 121.518 50.183 121.503 49.8375Z" fill="white"/>
<path d="M125.779 53.5752V44.8059H128.085V46.3357H128.175C128.296 45.8463 128.572 45.4109 128.961 45.1C129.33 44.82 129.777 44.6723 130.235 44.68C130.363 44.68 130.492 44.6877 130.62 44.7031C130.742 44.7159 130.863 44.7365 130.983 44.766V46.924C130.831 46.8816 130.676 46.8508 130.519 46.8328C130.34 46.8071 130.159 46.7943 129.978 46.793C129.652 46.7866 129.33 46.8662 129.043 47.0242C128.773 47.1732 128.549 47.3954 128.395 47.6665C128.233 47.9542 128.151 48.2817 128.157 48.6131V53.5752H125.779Z" fill="white"/>
<path d="M135.711 53.7459C134.829 53.7459 134.07 53.5623 133.436 53.1949C132.808 52.8352 132.298 52.2919 131.971 51.6355C131.287 50.1211 131.287 48.3754 131.971 46.861C132.295 46.1995 132.798 45.6458 133.42 45.2682C134.087 44.8751 134.847 44.6773 135.617 44.6966C136.157 44.6915 136.692 44.7865 137.2 44.9741C137.681 45.1526 138.119 45.4365 138.484 45.8038C138.866 46.1982 139.158 46.6722 139.341 47.195C139.557 47.8231 139.661 48.4846 139.648 49.15V49.8179H132.406V48.3061H137.413C137.42 47.9811 137.342 47.66 137.19 47.3748C137.045 47.1076 136.832 46.8854 136.573 46.7325C136.294 46.5745 135.979 46.4936 135.66 46.5013C135.323 46.4949 134.993 46.5848 134.702 46.7582C134.43 46.9214 134.206 47.1564 134.052 47.4377C133.895 47.7267 133.812 48.0517 133.812 48.3831V49.8154C133.802 50.2046 133.883 50.5899 134.049 50.9406C134.199 51.2463 134.432 51.5006 134.721 51.6715C135.038 51.8487 135.395 51.9374 135.755 51.9284C136.001 51.9309 136.246 51.8924 136.48 51.814C136.691 51.7434 136.883 51.6265 137.044 51.4711C137.204 51.3157 137.325 51.1243 137.402 50.9123L139.602 51.06C139.498 51.5841 139.261 52.0709 138.917 52.473C138.554 52.8892 138.098 53.2103 137.589 53.4094C136.99 53.6432 136.353 53.7575 135.711 53.7459Z" fill="white"/>
<path d="M148.336 47.3069L146.158 47.443C146.121 47.2542 146.039 47.0782 145.918 46.9292C145.788 46.7687 145.622 46.6428 145.436 46.558C145.211 46.4604 144.969 46.4116 144.724 46.418C144.397 46.4077 144.074 46.4899 143.792 46.6556C143.562 46.7776 143.416 47.0204 143.415 47.2863C143.415 47.4931 143.508 47.6884 143.666 47.8168C143.829 47.962 144.111 48.0776 144.509 48.1649L146.062 48.4848C146.895 48.6607 147.515 48.9433 147.926 49.33C148.338 49.7243 148.563 50.2831 148.54 50.8598C148.549 51.407 148.376 51.9414 148.047 52.373C147.691 52.8264 147.225 53.1758 146.695 53.3864C146.067 53.6382 145.396 53.7615 144.721 53.7487C143.586 53.7487 142.682 53.5059 142.01 53.0203C141.356 52.5643 140.925 51.8412 140.829 51.0371L143.169 50.9086C143.224 51.2387 143.41 51.5303 143.682 51.7166C144.319 52.0762 145.089 52.0865 145.735 51.7448C145.967 51.6177 146.116 51.3723 146.123 51.1026C146.122 50.8868 146.02 50.6851 145.849 50.5579C145.601 50.3871 145.319 50.2741 145.023 50.2291L143.538 49.9273C142.7 49.7564 142.078 49.4584 141.67 49.0358C141.259 48.6055 141.038 48.0223 141.058 47.4212C141.045 46.8984 141.204 46.3859 141.508 45.9646C141.836 45.5355 142.275 45.2105 142.775 45.023C143.388 44.7905 144.039 44.6775 144.694 44.6916C145.777 44.6916 146.63 44.9254 147.254 45.3942C147.863 45.8464 148.256 46.5413 148.336 47.3069Z" fill="white"/>
</g>
<defs>
<clipPath id="clip0_15_4522">
<rect width="103.75" height="27.5" fill="white" transform="translate(44.7915 26.25)"/>
</clipPath>
</defs>
</svg>
