<svg width="194" height="65" viewBox="0 0 194 65" fill="none" xmlns="http://www.w3.org/2000/svg">
<mask id="mask0_3_2759" style="mask-type:luminance" maskUnits="userSpaceOnUse" x="27" y="19" width="139" height="26">
<path d="M165.461 19.7495H27V44.9496H165.461V19.7495Z" fill="white"/>
</mask>
<g mask="url(#mask0_3_2759)">
<path fill-rule="evenodd" clip-rule="evenodd" d="M52.1482 30.88C51.8551 28.3547 50.8059 25.9769 49.1382 24.0582C47.4705 22.1394 45.262 20.7693 42.8022 20.1273C44.9238 20.8212 46.8083 22.0963 48.2414 23.8078C49.6745 25.5192 50.5988 27.5983 50.9093 29.8089C48.328 27.697 44.1534 25.7086 40.2159 26.9438C41.9493 28.517 42.3606 30.4762 40.5225 32.163C42.5259 28.8223 38.5417 27.3475 36.5484 25.8121C34.9386 24.5707 35.9037 23.0366 37.1464 21.9617C38.5102 20.7808 40.5325 20.0226 42.0377 19.9431C39.1839 19.4018 34.8755 19.9633 32.8039 22.0374C30.7324 24.1114 32.1731 26.9576 34.6964 29.2475C34.6964 29.2475 31.5019 32.2841 29.66 34.4945C27.818 36.7048 32.0848 39.9283 32.0848 39.9283C37.0328 36.2696 40.8442 39.276 42.6823 42.8489C40.728 43.4631 38.6486 43.564 36.644 43.1419C34.6394 42.7199 32.7772 41.7891 31.2364 40.4391C29.6957 39.089 28.5283 37.3652 27.8465 35.4334C27.1647 33.5017 26.9916 31.427 27.3437 29.409C26.9166 31.2012 26.8872 33.0653 27.2576 34.8701C27.628 36.6749 28.3893 38.3767 29.4878 39.8558C30.5863 41.3349 31.9955 42.5554 33.6163 43.4317C35.237 44.3079 37.03 44.8185 38.8692 44.9275C40.7084 45.0366 42.5492 44.7415 44.2621 44.063C45.9751 43.3845 47.5187 42.3391 48.7843 41.0002C50.05 39.6612 51.0071 38.0614 51.5882 36.313C52.1693 34.5646 52.3605 32.7102 52.1482 30.88ZM35.0723 31.9549L33.306 31.8287L35.992 29.4506L35.0723 31.9549Z" fill="white"/>
<path fill-rule="evenodd" clip-rule="evenodd" d="M30.4825 32.6791C31.7189 31.3356 33.1079 29.9642 33.8333 29.2589C31.9321 29.1984 30.2239 28.425 30.3689 26.1705C30.4991 24.695 31.0349 23.2842 31.9169 22.0942C30.9877 22.7936 30.1576 23.6156 29.4492 24.538C27.3814 27.2341 27.0597 31.4491 30.4825 32.6791Z" fill="white"/>
<path d="M157.044 26.978H165.304V28.8964H159.164V31.2293H164.833V33.1478H159.164V35.8029H165.461V37.7213H157.044V26.978Z" fill="white"/>
<path d="M145.247 37.7213V26.978H149.487C151.277 26.978 152.675 27.4743 153.68 28.4667C154.685 29.449 155.188 30.7689 155.188 32.4264C155.188 33.9817 154.679 35.2555 153.664 36.248C152.649 37.2302 151.272 37.7213 149.534 37.7213H145.247ZM147.366 28.8504V35.8336H149.487C150.628 35.8336 151.507 35.5164 152.125 34.882C152.753 34.2477 153.067 33.4292 153.067 32.4264C153.067 31.3112 152.753 30.4363 152.125 29.802C151.507 29.1676 150.617 28.8504 149.455 28.8504H147.366Z" fill="white"/>
<path d="M132.003 37.7213L136.431 26.978H139.43L143.843 37.7213H141.503L140.545 35.2964H135.3L134.358 37.7213H132.003ZM136.038 33.424H139.823L137.923 28.6202L136.038 33.424Z" fill="white"/>
<path d="M130.976 37.7213H128.495C128.348 37.4451 128.254 37.1381 128.212 36.8005C128.16 36.4219 128.134 35.9103 128.134 35.2657C128.134 34.0584 127.537 33.4547 126.343 33.4547H123.988V37.7213H121.868V26.978H127.254C128.364 26.978 129.244 27.2645 129.892 27.8375C130.541 28.4002 130.866 29.1216 130.866 30.0015C130.866 30.6461 130.667 31.2242 130.27 31.7358C129.882 32.2371 129.358 32.6055 128.699 32.8408C129.778 33.1887 130.348 33.9868 130.41 35.235C130.442 35.8694 130.494 36.3451 130.568 36.6624C130.641 36.9693 130.777 37.2404 130.976 37.4758V37.7213ZM123.988 31.5362H127.129C127.642 31.5362 128.04 31.4186 128.322 31.1833C128.605 30.9377 128.746 30.6103 128.746 30.201C128.746 29.7917 128.605 29.4746 128.322 29.2495C128.05 29.0141 127.652 28.8964 127.129 28.8964H123.988V31.5362Z" fill="white"/>
<path d="M120.256 26.978V28.8964H116.377V37.7213H114.257V28.8964H110.363V26.978H120.256Z" fill="white"/>
<path d="M96.844 26.978H105.104V28.8964H98.9641V31.2293H104.633V33.1478H98.9641V35.8029H105.261V37.7213H96.844V26.978Z" fill="white"/>
<path d="M89.0294 37.8748C87.4905 37.8952 86.1871 37.3785 85.1192 36.3246C84.0618 35.2606 83.5436 33.9355 83.5645 32.3496C83.5332 30.8149 84.0723 29.5052 85.182 28.4206C86.3022 27.3258 87.6475 26.7938 89.2179 26.8245C90.6417 26.8245 91.809 27.1621 92.7198 27.8374C93.6411 28.5025 94.2483 29.4131 94.5415 30.5693L92.4686 31.2139C92.3011 30.4261 91.9346 29.8173 91.3693 29.3876C90.804 28.9578 90.0973 28.7429 89.2493 28.7429C88.2547 28.7429 87.4172 29.0857 86.7367 29.7712C86.0667 30.4465 85.7317 31.306 85.7317 32.3496C85.7317 33.4137 86.0562 34.2834 86.7053 34.9587C87.3544 35.6238 88.1919 35.9563 89.2179 35.9563C90.0241 35.9563 90.6731 35.7363 91.1652 35.2964C91.6677 34.8564 91.9765 34.3704 92.0917 33.8384H87.6476V32.0427H94.7771V37.7213H92.9397V35.4959C92.2173 37.0818 90.9139 37.8748 89.0294 37.8748Z" fill="white"/>
<path d="M71.4514 37.7213L75.8798 26.978H78.8793L83.2921 37.7213H80.9522L79.9942 35.2964H74.7492L73.807 37.7213H71.4514ZM75.4873 33.424H79.2719L77.3717 28.6202L75.4873 33.424Z" fill="white"/>
<path d="M70.4245 37.7213H67.9434C67.7968 37.4451 67.7026 37.1381 67.6607 36.8005C67.6084 36.4219 67.5822 35.9103 67.5822 35.2657C67.5822 34.0584 66.9854 33.4547 65.7919 33.4547H63.4364V37.7213H61.3164V26.978H66.7028C67.8125 26.978 68.6919 27.2645 69.341 27.8375C69.9901 28.4002 70.3146 29.1216 70.3146 30.0015C70.3146 30.6461 70.1157 31.2242 69.7179 31.7358C69.3305 32.2371 68.8071 32.6055 68.1475 32.8408C69.2258 33.1887 69.7964 33.9868 69.8592 35.235C69.8906 35.8694 69.943 36.3451 70.0163 36.6624C70.0896 36.9693 70.2257 37.2404 70.4245 37.4758V37.7213ZM63.4364 31.5362H66.5771C67.0901 31.5362 67.488 31.4186 67.7706 31.1833C68.0533 30.9377 68.1946 30.6103 68.1946 30.201C68.1946 29.7917 68.0533 29.4746 67.7706 29.2495C67.4985 29.0141 67.1006 28.8964 66.5771 28.8964H63.4364V31.5362Z" fill="white"/>
</g>
</svg>
