<svg width="194" height="80" viewBox="0 0 194 80" fill="none" xmlns="http://www.w3.org/2000/svg">
<g clip-path="url(#clip0_15_4383)">
<path fill-rule="evenodd" clip-rule="evenodd" d="M78.5372 43.8085L77.0813 41.2716H74.9533V43.8085H73.6992V36.1847H77.4764C77.9359 36.1804 78.3912 36.3075 78.7863 36.5446C79.1814 36.7839 79.5035 37.1223 79.7225 37.534C79.9394 37.9457 80.036 38.407 80.0102 38.8682C79.9845 39.3295 79.8342 39.7821 79.57 40.1615C79.2973 40.5667 78.913 40.8814 78.462 41.0711L80.0102 43.8064H78.5393L78.5372 43.8085ZM77.4699 37.478H74.9511V40.0106H77.4742C77.6417 40.0106 77.8028 39.9761 77.9552 39.9093C78.1077 39.8425 78.243 39.7476 78.3546 39.6248C78.5264 39.448 78.6488 39.2239 78.6939 38.976C78.739 38.7324 78.7133 38.4781 78.6231 38.2453C78.5264 38.0168 78.3697 37.8185 78.1635 37.6763C77.9552 37.534 77.719 37.4586 77.4699 37.4586V37.478ZM90.9015 36.1847L87.1136 43.8085H88.5201L90.8972 39.032L93.2679 43.8085H94.6744L90.9015 36.1847ZM106.841 36.1847H105.239L103.086 38.9975L100.942 36.1847H99.3341L102.489 40.2499V43.8085H103.743V40.1895L106.843 36.1847H106.841ZM113.268 36.1847H115.781C116.781 36.189 117.737 36.5964 118.441 37.312C119.15 38.0233 119.549 38.9911 119.553 39.9977C119.549 41.0086 119.15 41.9721 118.441 42.6877C117.733 43.4033 116.777 43.8042 115.776 43.8085H113.264V36.1847H113.268ZM115.781 42.5153C116.448 42.5153 117.086 42.2458 117.556 41.7695C118.027 41.2931 118.295 40.6486 118.295 39.9783C118.284 39.3079 118.022 38.6635 117.552 38.1914C117.082 37.7194 116.444 37.4456 115.783 37.4392H114.514V42.5153H115.783H115.781ZM127.941 36.1847H126.687V43.8085H127.941V36.1847ZM141.362 40.6271C141.366 41.0474 141.291 41.4656 141.13 41.8514C140.973 42.2372 140.735 42.5864 140.432 42.8774C139.992 43.3236 139.431 43.6232 138.819 43.746C138.207 43.8689 137.576 43.8064 136.998 43.5628C136.423 43.3236 135.931 42.914 135.588 42.3902C135.244 41.8665 135.062 41.2543 135.062 40.6249V36.189H136.316V40.6249C136.316 41.1315 136.513 41.6143 136.872 41.9699C137.226 42.3256 137.707 42.5282 138.207 42.5282C138.708 42.5282 139.189 42.3256 139.543 41.9699C139.897 41.6143 140.095 41.1271 140.095 40.6249V36.189H141.36V40.6314H141.364L141.362 40.6271ZM149.741 43.8107V39.2519L152.268 41.7953L154.787 39.2519V43.8107H156.06V36.1847L152.268 39.9977L148.491 36.1847V43.8085H149.741V43.8107Z" fill="white"/>
<path d="M64.3798 35.9477V47.2811L51.8845 54.5601L39.3827 47.2811V32.7232L51.8887 25.4356L61.4916 31.0333L62.9432 30.1905L51.8887 23.75L37.9375 31.8761V48.1239L51.8887 56.25L65.84 48.1239V35.105L64.3777 35.9477H64.3798Z" fill="white"/>
<path d="M48.3906 47.2923H46.3013V40.216H53.2694C53.9265 40.2117 54.5578 39.9422 55.0238 39.4637C55.4897 38.9917 55.7474 38.3515 55.7517 37.6876C55.756 37.3578 55.6916 37.0324 55.5649 36.7284C55.4382 36.4245 55.2514 36.1508 55.0195 35.9223C54.7918 35.6895 54.5191 35.502 54.2206 35.3748C53.9222 35.2476 53.5979 35.183 53.2694 35.1873H46.3013V33.0361H53.2737C54.4934 33.0404 55.6658 33.5384 56.5247 34.407C57.3901 35.28 57.8754 36.4568 57.884 37.6919C57.8883 38.636 57.6049 39.5542 57.0702 40.3259C56.5741 41.0609 55.8762 41.6407 55.0624 41.9856C54.2529 42.2443 53.4132 42.3714 52.5693 42.3671H48.3885V47.2966L48.3906 47.2923Z" fill="white"/>
<path d="M57.8347 47.1148H55.3974L53.5164 43.8062C54.2593 43.7609 54.9937 43.6079 55.6959 43.3535L57.8347 47.1148Z" fill="white"/>
<path d="M62.9219 33.5923L64.3627 34.3984L65.8036 33.5923V31.8809L64.3627 31.0381L62.9219 31.8809V33.5923Z" fill="white"/>
</g>
<defs>
<clipPath id="clip0_15_4383">
<rect width="118.125" height="32.5" fill="white" transform="translate(37.9375 23.75)"/>
</clipPath>
</defs>
</svg>
