<svg width="194" height="80" viewBox="0 0 194 80" fill="none" xmlns="http://www.w3.org/2000/svg">
<g clip-path="url(#clip0_15_4325)">
<path d="M61.3045 37.4557C61.1981 37.4747 61.1391 37.4951 61.0802 37.4951C59.875 37.4989 58.6686 37.5294 57.4635 37.4951C56.3699 37.4633 55.2596 36.5264 55.0725 35.4485C54.9109 34.5206 54.8635 33.5875 54.9622 32.6519C55.0148 32.1435 55.0353 31.6198 55.184 31.1367C55.4519 30.2723 56.1225 29.7677 56.9763 29.5185C57.6289 29.3279 58.3122 29.324 58.9532 29.5338C59.8032 29.8134 60.4225 30.3804 60.7161 31.246C60.9968 32.0736 60.8904 32.9316 60.9109 33.7807C60.9289 34.5091 60.8994 35.2273 60.6378 35.9239C60.5878 36.0561 60.6443 36.257 60.7122 36.3968C60.8853 36.7502 61.093 37.0858 61.3032 37.4569L61.3045 37.4557ZM59.3968 33.4299L59.3519 33.4261C59.3519 33.046 59.3699 32.6647 59.3455 32.2859C59.3289 32.0291 59.2981 31.7545 59.1904 31.5257C58.9212 30.9562 58.4558 30.7045 57.8007 30.7528C57.2532 30.7935 56.7314 31.0808 56.6468 31.6058C56.5263 32.3469 56.4994 33.1045 56.4635 33.857C56.4468 34.1913 56.4943 34.5307 56.5327 34.865C56.5943 35.4015 56.7776 35.8807 57.3494 36.0637C57.593 36.1413 57.8661 36.1464 58.1263 36.1489C58.6725 36.154 59.2109 35.6582 59.2584 35.1218C59.3084 34.5574 59.3507 33.993 59.3968 33.4274V33.4299Z" fill="white"/>
<path d="M77.6405 33.4631C77.6405 33.875 77.6495 34.2868 77.6405 34.6987C77.6059 36.158 76.8111 37.1736 75.4008 37.4711C74.3354 37.6961 73.3072 37.4876 72.4893 36.6791C71.9803 36.1758 71.7482 35.5389 71.72 34.8499C71.6829 33.9639 71.6829 33.0754 71.7162 32.1894C71.7636 30.9398 72.4354 29.8212 73.8534 29.5034C75.0111 29.2441 76.0662 29.4119 76.9213 30.3043C77.3944 30.7987 77.588 31.4127 77.6354 32.0686C77.6688 32.5313 77.6418 32.9979 77.6418 33.4618L77.6405 33.4631ZM76.1893 33.7084C76.1457 32.9915 76.1572 32.4678 76.0675 31.9631C76.0136 31.6619 75.8559 31.3364 75.6457 31.1127C75.1905 30.6284 74.5752 30.6424 74.0252 30.8839C73.5047 31.1115 73.2777 31.6136 73.27 32.1767C73.2572 33.0322 73.2405 33.8889 73.2752 34.7432C73.2957 35.2376 73.438 35.7054 73.9213 35.9991C74.238 36.1923 74.5713 36.1567 74.9072 36.1541C75.4175 36.1491 75.9021 35.7601 75.9841 35.2567C76.079 34.6796 76.1393 34.0961 76.1893 33.7097V33.7084Z" fill="white"/>
<path d="M47.4866 37.4954C47.4866 37.3289 47.4866 37.2145 47.4866 37.1001C47.4866 34.6696 47.4918 32.2392 47.4802 29.8075C47.479 29.4998 47.57 29.4172 47.8751 29.421C49.3802 29.435 50.8854 29.4261 52.3918 29.4261C52.802 29.4261 52.8123 29.4388 52.8149 29.8608C52.8149 30.0617 52.8149 30.2625 52.8264 30.4634C52.8418 30.7036 52.761 30.7926 52.4956 30.7875C51.4508 30.7697 50.4046 30.7875 49.3584 30.7761C49.1392 30.7735 49.0366 30.8396 49.0379 31.057C49.0405 31.5426 49.0431 32.0294 49.0379 32.515C49.0366 32.7578 49.1892 32.7807 49.379 32.7782C50.2213 32.7693 51.0649 32.7731 51.9072 32.7515C52.179 32.7438 52.2751 32.8315 52.2533 33.0947C52.2366 33.3044 52.2366 33.518 52.2533 33.7277C52.2764 34.0264 52.1661 34.1421 51.852 34.1358C51.052 34.1192 50.2508 34.1294 49.4495 34.1294C49.3328 34.1294 49.2161 34.1294 49.0379 34.1294C49.0379 34.5019 49.0315 34.8552 49.0405 35.2086C49.0482 35.5112 48.9661 35.909 49.1264 36.087C49.2623 36.2395 49.6854 36.1493 49.9828 36.1505C50.8264 36.1556 51.67 36.1594 52.5136 36.148C52.7469 36.1442 52.8456 36.2116 52.8302 36.4518C52.8149 36.7048 52.8546 36.9628 52.8174 37.2107C52.802 37.3162 52.652 37.4827 52.5623 37.4827C50.8879 37.4993 49.2136 37.4942 47.4866 37.4942V37.4954Z" fill="white"/>
<path d="M64.8995 32.2608C64.8995 33.0845 64.893 33.9083 64.9033 34.7332C64.9084 35.1197 65.0482 35.4578 65.2995 35.7667C65.8161 36.3997 67.3148 36.3502 67.6725 35.3815C67.7584 35.1502 67.8084 34.8934 67.811 34.6481C67.8238 33.0324 67.8251 31.4155 67.811 29.7999C67.8084 29.505 67.9033 29.4071 68.1905 29.4249C68.4879 29.4427 68.7879 29.4325 69.0866 29.4338C69.2841 29.4338 69.3725 29.5291 69.3725 29.7287C69.37 31.4295 69.4328 33.1328 69.3507 34.8298C69.2854 36.1684 68.6277 37.1357 67.0712 37.4764C66.0148 37.7078 64.9764 37.512 64.1636 36.7035C63.77 36.312 63.4636 35.8442 63.4456 35.2748C63.3982 33.696 63.3777 32.1146 63.3495 30.5346C63.3443 30.26 63.3277 29.9829 63.3584 29.7122C63.37 29.613 63.5007 29.4528 63.5854 29.4478C63.9674 29.4236 64.3533 29.4325 64.7354 29.4617C64.7969 29.4668 64.8918 29.6346 64.893 29.7274C64.9059 30.5727 64.9007 31.418 64.9007 32.2621L64.8995 32.2608Z" fill="white"/>
<path d="M90.6829 37.4809H89.1559C89.0111 37.0563 88.8765 36.6393 88.7213 36.23C88.6931 36.1563 88.5803 36.0661 88.5059 36.0648C87.6418 36.0533 86.7765 36.0495 85.9124 36.0673C85.8162 36.0699 85.679 36.2008 85.6367 36.3025C85.5059 36.6203 85.4265 36.9584 85.297 37.2762C85.2585 37.3703 85.1265 37.4821 85.0316 37.4872C84.597 37.5101 84.1598 37.4974 83.6675 37.4974C83.7111 37.3092 83.7303 37.1504 83.7841 37.0042C84.238 35.7724 84.7008 34.5432 85.1572 33.3114C85.6021 32.1077 86.0508 30.9051 86.4777 29.695C86.5495 29.4916 86.6521 29.4255 86.8418 29.4268C86.938 29.4268 87.0341 29.4268 87.1303 29.4268C87.9354 29.4357 87.7649 29.3594 88.02 30.0395C88.9034 32.4013 89.7662 34.7707 90.6341 37.1389C90.6688 37.233 90.6636 37.3398 90.6829 37.4809ZM88.2277 34.6856C87.9059 33.7386 87.5944 32.8195 87.2829 31.8992L87.188 31.9043C87.1303 32.0441 87.0636 32.1801 87.0149 32.3238C86.7649 33.0648 86.5252 33.8085 86.2713 34.547C86.2111 34.7224 86.2675 34.7873 86.4329 34.7873C86.9329 34.7898 87.4329 34.7936 87.9329 34.7834C88.029 34.7822 88.1252 34.7212 88.2277 34.6856Z" fill="white"/>
<path d="M136.911 37.4913C136.384 37.4913 135.929 37.5015 135.475 37.4824C135.389 37.4786 135.268 37.3693 135.232 37.2816C135.111 36.9816 135.018 36.6714 134.921 36.3625C134.856 36.1502 134.752 36.0435 134.495 36.0498C133.737 36.0702 132.978 36.0803 132.223 36.0473C131.902 36.0333 131.797 36.1744 131.721 36.4261C131.634 36.7134 131.541 37.0007 131.429 37.2803C131.396 37.3642 131.298 37.4799 131.225 37.4824C130.76 37.5002 130.293 37.4913 129.771 37.4913C129.918 37.0668 130.038 36.6956 130.174 36.3282C130.75 34.766 131.332 33.2062 131.909 31.644C132.143 31.0084 132.375 30.3715 132.602 29.7322C132.678 29.5199 132.791 29.4106 133.043 29.4194C134.06 29.4525 133.848 29.2567 134.23 30.2648C134.746 31.63 135.225 33.0079 135.73 34.377C136.105 35.3914 136.496 36.3994 136.91 37.4901L136.911 37.4913ZM132.315 34.7049C132.437 34.7418 132.525 34.7914 132.615 34.7914C133.115 34.7965 133.615 34.7952 134.116 34.785C134.307 34.7812 134.373 34.6897 134.304 34.4927C134.034 33.7274 133.779 32.9571 133.516 32.1893C133.48 32.0863 133.43 31.9885 133.387 31.888L133.306 31.902C132.98 32.8236 132.656 33.7452 132.316 34.7062L132.315 34.7049Z" fill="white"/>
<path d="M110.016 37.4992C109.539 37.4992 109.103 37.5069 108.668 37.4916C108.589 37.4891 108.477 37.4039 108.446 37.3315C108.312 37.0035 108.185 36.6704 108.091 36.3285C108.039 36.1442 107.965 36.0552 107.771 36.0552C106.939 36.0577 106.107 36.0476 105.275 36.0666C105.169 36.0692 105.019 36.1963 104.971 36.3005C104.821 36.6336 104.718 36.9857 104.58 37.3251C104.552 37.395 104.462 37.4853 104.398 37.4865C103.953 37.5005 103.507 37.4942 102.968 37.4942C103.084 37.1446 103.178 36.8446 103.284 36.5497C103.78 35.1679 104.275 33.7862 104.782 32.4082C105.119 31.493 105.468 30.5816 105.83 29.6752C105.871 29.5736 106.028 29.4998 106.148 29.4528C106.241 29.4172 106.359 29.4452 106.465 29.4426C107.112 29.4312 107.23 29.5723 107.41 30.2028C107.601 30.8727 107.875 31.5197 108.118 32.1744C108.744 33.8726 109.373 35.5709 109.998 37.2692C110.019 37.3238 110.007 37.3899 110.014 37.4929L110.016 37.4992ZM106.603 31.9252L106.492 31.9087C106.421 32.1057 106.35 32.304 106.279 32.501C106.043 33.1582 105.802 33.8141 105.574 34.4739C105.503 34.6773 105.541 34.8171 105.819 34.8082C106.287 34.7929 106.757 34.8082 107.227 34.8031C107.512 34.8006 107.57 34.7167 107.482 34.4574C107.459 34.3887 107.428 34.3213 107.405 34.2527C107.138 33.4773 106.871 32.7019 106.605 31.9252H106.603Z" fill="white"/>
<path d="M111.878 33.4321C111.878 32.2283 111.887 31.0232 111.871 29.8194C111.867 29.5245 111.939 29.4127 112.26 29.4203C113.178 29.4406 114.097 29.3999 115.012 29.4355C116.037 29.4749 116.93 29.8016 117.416 30.7931C117.788 31.552 117.799 32.3173 117.41 33.0787C116.926 34.0232 116.108 34.4032 115.081 34.421C114.633 34.4287 114.185 34.4312 113.737 34.4185C113.502 34.4121 113.42 34.4884 113.424 34.7274C113.437 35.5193 113.42 36.3125 113.429 37.1045C113.433 37.4006 113.329 37.5328 113.015 37.5036C112.783 37.4807 112.546 37.4998 112.311 37.4985C111.878 37.4985 111.876 37.4985 111.876 37.079C111.876 35.8638 111.876 34.6486 111.876 33.4346L111.878 33.4321ZM113.434 33.0723C113.98 33.0723 114.48 33.0749 114.98 33.0723C115.556 33.0698 115.965 32.7647 116.13 32.2219C116.279 31.7338 115.929 30.9736 115.434 30.8897C114.852 30.7906 114.251 30.802 113.657 30.7881C113.584 30.7868 113.447 30.9253 113.444 31.0016C113.428 31.6753 113.434 32.349 113.434 33.0736V33.0723Z" fill="white"/>
<path d="M44.8852 30.2522C44.5583 30.584 44.3198 30.8344 44.0711 31.0734C43.9429 31.1967 43.8301 31.1802 43.657 31.0797C43.3929 30.9272 43.0826 30.8484 42.7852 30.7645C42.3685 30.6488 41.9609 30.6984 41.548 30.8369C41.2314 30.9425 40.9314 31.2984 40.9442 31.7395C40.9557 32.1539 41.166 32.4755 41.5737 32.581C41.9378 32.675 42.3134 32.7437 42.6891 32.778C43.257 32.8289 43.7878 32.9649 44.2685 33.2763C44.7609 33.5954 44.9839 34.0898 45.0416 34.625C45.098 35.1487 45.0955 35.675 44.8211 36.1911C44.5378 36.725 44.1224 37.0987 43.5916 37.269C42.2211 37.7063 40.8647 37.6783 39.5916 36.9042C39.5467 36.8762 39.5006 36.8483 39.4596 36.8152C39.1339 36.5584 39.1288 36.5051 39.4224 36.2038C39.6147 36.0068 39.7852 35.7614 40.0185 35.6368C40.3211 35.4754 40.4724 35.8568 40.7211 35.947C41.4519 36.2114 42.1929 36.2623 42.9301 36.0525C43.4365 35.9089 43.6134 35.511 43.5788 35.089C43.5365 34.5856 43.2634 34.3237 42.7173 34.2106C41.9506 34.0517 41.1442 34.0759 40.4224 33.6742C39.657 33.2445 39.2519 32.1284 39.4839 31.4293C39.5967 31.0899 39.6993 30.734 39.8891 30.4365C40.3416 29.7348 41.057 29.4641 41.8647 29.4196C42.5096 29.384 43.1685 29.3535 43.7762 29.6192C44.1557 29.7844 44.4993 30.0285 44.8865 30.2522H44.8852Z" fill="white"/>
<path d="M101.646 31.9017C101.161 31.9017 100.688 31.9144 100.218 31.8877C100.143 31.8839 100.056 31.7097 100.012 31.6004C99.6021 30.5504 98.1098 30.4729 97.5829 31.3004C97.4265 31.5458 97.3137 31.8585 97.3021 32.1445C97.2662 33.0305 97.2765 33.919 97.2931 34.8063C97.306 35.5232 97.8765 36.1944 98.6547 36.1753C99.3355 36.1575 99.7867 35.9224 100.032 35.2855C100.066 35.194 100.232 35.1037 100.343 35.0961C100.715 35.0681 101.089 35.0707 101.462 35.0809C101.519 35.0821 101.628 35.2029 101.619 35.2486C101.415 36.2262 100.883 36.9698 99.9239 37.3245C98.506 37.8482 96.9021 37.4884 96.0906 36.127C95.8662 35.7508 95.7739 35.2575 95.7496 34.8114C95.6983 33.905 95.7265 32.9949 95.7367 32.086C95.7508 30.8542 96.638 29.7776 97.8572 29.5068C99.0137 29.2513 100.069 29.4115 100.934 30.2848C101.255 30.6076 101.485 31.1377 101.648 31.9004L101.646 31.9017Z" fill="white"/>
<path d="M125.595 30.7648H123.457C123.457 30.3682 123.434 30.0008 123.474 29.6398C123.483 29.5572 123.705 29.4402 123.83 29.4364C124.534 29.4173 125.239 29.4275 125.945 29.4275C127.109 29.4275 128.271 29.4275 129.436 29.425C129.684 29.425 129.843 29.4529 129.696 29.7631C129.575 30.0173 129.479 30.2868 129.412 30.5588C129.365 30.7533 129.256 30.7762 129.093 30.7749C128.58 30.7711 128.068 30.7864 127.556 30.7673C127.248 30.7559 127.145 30.8639 127.146 31.169C127.155 33.1342 127.151 35.1007 127.151 37.0659C127.151 37.1905 127.151 37.3151 127.151 37.493C126.674 37.493 126.23 37.507 125.789 37.479C125.719 37.4752 125.609 37.2896 125.605 37.1841C125.584 36.71 125.596 36.2333 125.596 35.7579C125.596 34.2363 125.596 32.7135 125.596 31.1919C125.596 31.0673 125.596 30.9415 125.596 30.7648H125.595Z" fill="white"/>
<path d="M144.069 36.1527C144.069 36.5531 144.074 36.9001 144.067 37.2471C144.064 37.4861 143.888 37.495 143.706 37.495C142.681 37.495 141.656 37.4963 140.631 37.4976C140.14 37.4976 139.649 37.4874 139.158 37.5014C138.915 37.5077 138.816 37.4403 138.817 37.1823C138.825 34.7099 138.824 32.2362 138.817 29.7638C138.817 29.5159 138.911 29.4168 139.155 29.4231C139.431 29.4308 139.71 29.4358 139.987 29.4257C140.271 29.4155 140.38 29.5223 140.379 29.8159C140.367 31.7926 140.373 33.768 140.371 35.7446C140.371 36.1539 140.37 36.1539 140.789 36.1539C141.749 36.1539 142.711 36.1539 143.671 36.1539C143.788 36.1539 143.903 36.1539 144.069 36.1539V36.1527Z" fill="white"/>
<path d="M119.756 33.4727C119.756 32.2575 119.763 31.0423 119.751 29.827C119.747 29.5245 119.838 29.3987 120.152 29.4241C120.417 29.4457 120.685 29.4406 120.952 29.4266C121.217 29.4126 121.316 29.5245 121.312 29.78C121.304 30.4143 121.31 31.0474 121.31 31.6817C121.31 33.4778 121.307 35.274 121.306 37.0701C121.306 37.4756 121.287 37.4921 120.867 37.4934C120.611 37.4934 120.354 37.4807 120.099 37.4998C119.826 37.5188 119.752 37.4044 119.753 37.1489C119.763 35.9235 119.757 34.6981 119.757 33.4715L119.756 33.4727Z" fill="white"/>
<path d="M80.0725 33.4743C80.0725 32.2603 80.0725 31.0463 80.0725 29.8337C80.0725 29.4485 80.0994 29.4256 80.4956 29.4269C80.752 29.4269 81.0071 29.4332 81.2635 29.4243C81.5212 29.4154 81.6212 29.521 81.62 29.7815C81.611 31.523 81.611 33.2633 81.6097 35.0047C81.6097 35.7115 81.6059 36.4183 81.62 37.125C81.6251 37.3971 81.5238 37.5115 81.2469 37.4988C80.97 37.486 80.6918 37.4835 80.4161 37.4988C80.1469 37.514 80.0661 37.4034 80.0674 37.1454C80.0777 35.9212 80.0712 34.6971 80.0712 33.473L80.0725 33.4743Z" fill="white"/>
<path d="M65.1251 44.4977C64.7162 44.4977 64.3803 44.4977 64.0431 44.4977C63.6175 44.4977 63.1905 44.5003 62.7649 44.4952C62.6123 44.4927 62.4636 44.4761 62.4675 44.2575C62.4713 44.0274 62.629 44.0477 62.779 44.0477C63.5149 44.0477 64.2521 44.0477 64.988 44.0477C65.1046 44.0477 65.22 44.0477 65.3816 44.0477V42.5312H65.8726C65.8726 42.9444 65.8764 43.3423 65.8726 43.7401C65.87 43.974 65.9867 44.0516 66.211 44.049C66.9687 44.0427 67.7264 44.0465 68.4841 44.0465C68.5995 44.0465 68.7162 44.0465 68.8239 44.0465C68.9341 44.4202 68.9136 44.4672 68.57 44.4723C67.9213 44.4825 67.2713 44.4685 66.6226 44.4749C66.5072 44.4749 66.3931 44.5295 66.2777 44.5588C66.3187 44.6719 66.3405 44.7965 66.4021 44.8982C67.0726 45.999 67.8854 46.9638 69.0713 47.5523C68.8585 47.9591 68.761 47.9909 68.4098 47.7468C67.5739 47.1672 66.9033 46.4312 66.3533 45.5846C66.2405 45.4104 66.1303 45.2337 65.9739 44.9859C65.929 45.1371 65.8777 45.2312 65.8764 45.3265C65.8687 45.8858 65.8777 46.4464 65.8713 47.0057C65.8687 47.2384 65.9687 47.3273 66.1995 47.321C66.561 47.3121 66.9213 47.3184 67.2751 47.3184C67.3751 47.71 67.3149 47.7837 66.9508 47.771C66.6854 47.7608 66.4162 47.7761 66.1533 47.7494C65.9264 47.7265 65.8726 47.8307 65.8726 48.0189C65.8739 48.3773 65.8726 48.7358 65.8726 49.0879C65.4559 49.2125 65.3918 49.1705 65.3944 48.7892C65.3944 48.5362 65.3969 48.282 65.4033 48.029C65.4098 47.804 65.279 47.7328 65.0803 47.7354C64.7739 47.7405 64.4675 47.7672 64.1636 47.7494C64.0816 47.7443 63.9649 47.6223 63.938 47.532C63.8905 47.3731 64.0033 47.3134 64.1598 47.3184C64.3623 47.3248 64.5649 47.3184 64.7675 47.3184C64.9585 47.3184 65.1482 47.3184 65.3739 47.3184V45.0736C64.8444 45.9113 64.2251 46.6511 63.4995 47.3019C63.311 47.471 63.1008 47.6159 62.8982 47.771C62.6585 47.954 62.4572 47.9337 62.2854 47.6197C63.5239 46.8913 64.4354 45.8553 65.1239 44.4952L65.1251 44.4977Z" fill="white"/>
<path d="M95.1008 47.3758C95.1187 47.1737 95.138 47.0542 95.138 46.936C95.1367 45.7843 95.1264 44.6326 95.129 43.481C95.129 43.05 95.1431 43.05 95.6341 43.1187V43.4492C95.6341 45.014 95.638 46.5775 95.6264 48.1423C95.6264 48.2847 95.5623 48.5046 95.4636 48.5516C95.279 48.6381 95.1367 48.5148 95.011 48.3241C94.1264 46.9779 93.2213 45.6457 92.32 44.3098C92.2892 44.264 92.2316 44.2348 92.1303 44.1521C92.1303 44.3288 92.1303 44.4394 92.1303 44.55C92.1303 45.7868 92.1277 47.0237 92.1328 48.2605C92.1328 48.4512 92.1239 48.5885 91.8687 48.5783C91.6303 48.5681 91.5559 48.4601 91.5559 48.2415C91.561 46.6347 91.5572 45.028 91.5687 43.4212C91.5687 43.3106 91.6572 43.1098 91.7123 43.1072C91.8995 43.0983 92.1008 42.9992 92.2674 43.256C93.1315 44.5869 94.0226 45.8987 94.9072 47.2156C94.9341 47.255 94.9828 47.2805 95.1008 47.3758Z" fill="white"/>
<path d="M148.08 37.4008C148.379 37.1186 148.666 36.8225 148.982 36.5606C149.083 36.4767 149.26 36.45 149.401 36.45C151.311 36.4437 153.22 36.4487 155.13 36.4424C155.38 36.4424 155.475 36.525 155.456 36.7742C155.438 37.0017 155.452 37.233 155.452 37.4822H148.137C148.118 37.4555 148.098 37.4288 148.079 37.4008H148.08Z" fill="white"/>
<path d="M96.9763 48.5292C97.0584 48.2635 97.1238 48.0042 97.2186 47.7564C97.7853 46.2793 98.3648 44.8073 98.9263 43.3289C99.0097 43.109 99.1212 43.006 99.3584 42.992C99.6058 42.9781 99.6532 43.142 99.7173 43.3124C100.338 44.9534 100.961 46.5932 101.576 48.2356C101.612 48.3309 101.601 48.5394 101.576 48.5457C101.394 48.5877 101.183 48.6347 101.087 48.397C100.951 48.0589 100.814 47.7195 100.701 47.3737C100.642 47.1907 100.546 47.1233 100.357 47.1246C99.6532 47.1322 98.9494 47.1297 98.2455 47.1284C98.0917 47.1284 98.0058 47.1589 97.9545 47.3369C97.8661 47.6445 97.6827 47.928 97.6122 48.2381C97.5263 48.6118 97.3097 48.6106 96.9763 48.5305V48.5292ZM99.3353 43.8208C99.2763 43.8946 99.2507 43.9136 99.2404 43.9403C98.9443 44.7056 98.6468 45.4695 98.3571 46.2373C98.2238 46.592 98.2686 46.6441 98.6661 46.6454C99.1032 46.6454 99.5391 46.6441 99.9763 46.6454C100.387 46.6454 100.422 46.5932 100.275 46.2081C100.083 45.7022 99.8968 45.1924 99.7007 44.6878C99.593 44.4107 99.4699 44.1412 99.334 43.8208H99.3353Z" fill="white"/>
<path d="M147.314 29.416C147.564 29.416 147.787 29.4224 148.01 29.4147C148.255 29.4046 148.356 29.5113 148.353 29.7541C148.346 30.3134 148.351 30.8727 148.351 31.4321C148.351 32.7617 148.348 34.0901 148.353 35.4197C148.355 35.7146 148.269 35.9345 148.002 36.1036C147.832 36.2116 147.71 36.3959 147.564 36.5447C147.501 36.6082 147.433 36.668 147.314 36.7798V29.416Z" fill="white"/>
<path d="M83.0188 43.1035H83.4791C83.4791 43.3056 83.4791 43.5027 83.4791 43.6997C83.4791 44.2171 83.4881 44.7357 83.4765 45.253C83.4714 45.4641 83.5804 45.5505 83.7598 45.5505C84.4957 45.5543 85.2316 45.5403 85.9675 45.5454C86.2342 45.5467 86.3098 45.4336 86.3047 45.1793C86.2893 44.4954 86.2996 43.8103 86.2996 43.1061H86.7701C86.7765 43.2179 86.7868 43.3298 86.7868 43.4416C86.7868 45.0268 86.7868 46.6119 86.7868 48.1983C86.7868 48.6064 86.7765 48.614 86.2983 48.5301C86.2983 47.9721 86.2983 47.4064 86.2983 46.8395C86.2983 46.3242 86.0342 46.0674 85.506 46.0691C84.9611 46.0691 84.4163 46.0844 83.8727 46.0615C83.5547 46.0488 83.465 46.1657 83.4739 46.4657C83.4919 47.0886 83.4739 47.7127 83.4816 48.3369C83.4842 48.5187 83.4137 48.5771 83.2368 48.5759C83.0675 48.5759 82.9816 48.5314 82.9829 48.3445C82.9881 46.6424 82.9868 44.9416 82.9881 43.2395C82.9881 43.2001 83.0047 43.1594 83.0175 43.1035H83.0188Z" fill="white"/>
<path d="M56.574 45.4269C57.0804 45.1536 57.5778 44.9108 58.0432 44.6185C58.2291 44.5015 58.3752 44.2867 58.4804 44.0871C58.6124 43.8342 58.7599 43.7452 59.0252 43.8926C59.0586 44.6286 59.6855 44.8206 60.2022 45.0913C60.5047 45.2502 60.8496 45.3278 61.1752 45.4409C61.0752 45.7854 60.9316 45.868 60.6098 45.7625C60.0098 45.5655 59.4547 45.2922 59.0188 44.8244C58.874 44.6693 58.7483 44.6096 58.5752 44.8041C58.2675 45.1511 57.874 45.3684 57.4278 45.5007C57.3663 45.5184 57.3163 45.5744 57.2752 45.671H59.906V47.8815H59.4329C59.4329 47.4265 59.4188 46.9854 59.4381 46.5468C59.4509 46.2532 59.3368 46.1566 59.0457 46.1629C58.4163 46.1782 57.7855 46.1756 57.156 46.1629C56.9124 46.1578 56.8098 46.2278 56.8201 46.4858C56.8381 46.9383 56.8252 47.3921 56.8252 47.8714H56.3393C56.3393 47.1875 56.324 46.5138 56.3509 45.84C56.3573 45.685 56.5111 45.535 56.5727 45.4269H56.574Z" fill="white"/>
<path d="M44.0098 48.0448C44.4956 48.0448 44.9418 48.0397 45.3867 48.0473C45.5469 48.0499 45.7482 48.0117 45.738 48.2863C45.7277 48.5482 45.5623 48.505 45.3815 48.505C44.3803 48.4999 43.379 48.5075 42.3777 48.51C42.229 48.51 42.0726 48.5291 41.9328 48.4922C41.8533 48.4719 41.7431 48.355 41.7456 48.285C41.7482 48.2113 41.8674 48.0867 41.9405 48.0829C42.3021 48.0664 42.6649 48.0753 43.0264 48.0893C43.2931 48.0995 43.411 48.0105 43.4085 47.727C43.3982 46.4597 43.3995 45.1923 43.4085 43.9262C43.4098 43.7076 43.3277 43.6555 43.1277 43.6606C42.7469 43.672 42.3662 43.6631 41.9931 43.6631C41.9162 43.2398 41.9559 43.1851 42.3303 43.1839C43.2367 43.1813 44.1431 43.1839 45.0508 43.1839C45.2187 43.1839 45.4008 43.1508 45.3982 43.4241C45.3944 43.6923 45.22 43.6618 45.0482 43.6618C44.7098 43.6618 44.3713 43.6618 44.0085 43.6618V48.0435L44.0098 48.0448Z" fill="white"/>
<path d="M48.466 44.0502V42.5273H48.9417V44.0502C49.2519 44.0502 49.5263 44.0616 49.7994 44.0464C50.0801 44.0311 50.1724 44.1392 50.0763 44.4404C49.7917 44.4404 49.4955 44.4481 49.1994 44.4379C49.0058 44.4315 48.9519 44.5078 48.9391 44.6972C48.9135 45.0671 48.9904 45.3608 49.2994 45.6112C49.5494 45.8146 49.7583 46.0764 49.9519 46.3357C50.0045 46.4069 49.9365 46.5658 49.925 46.684C49.8237 46.6472 49.6917 46.6396 49.6276 46.5696C49.4212 46.3485 49.2404 46.1044 48.9712 45.8921C48.9635 45.976 48.9494 46.0612 48.9481 46.1451C48.9455 47.0222 48.9481 47.898 48.9417 48.7751C48.9417 48.9315 49.034 49.1501 48.716 49.1539C48.4122 49.1577 48.4686 48.9594 48.4686 48.7891C48.4686 47.8281 48.4724 46.8671 48.4724 45.9061C48.4724 45.826 48.4532 45.7459 48.4391 45.6366C48.0583 46.3535 47.6955 47.0387 47.3224 47.7442C47.0096 47.509 47.0006 47.3234 47.1904 47.0895C47.7571 46.3879 48.0724 45.5591 48.3609 44.7214C48.4199 44.5485 48.3712 44.4328 48.1519 44.4417C47.9071 44.4532 47.6596 44.4722 47.4186 44.4468C47.3122 44.4354 47.216 44.3222 47.1148 44.2561C47.2148 44.1875 47.3109 44.0667 47.4148 44.0591C47.7519 44.0337 48.0917 44.0502 48.4673 44.0502H48.466Z" fill="white"/>
<path d="M77.3495 45.739C77.261 44.9916 77.5649 44.2924 78.0764 43.695C78.4161 43.2971 78.8995 43.0632 79.429 42.9997C80.0815 42.9221 80.6931 43.0416 81.2238 43.4649C81.3469 43.5628 81.4392 43.6365 81.3264 43.7929C81.2213 43.9391 81.1161 43.9975 80.9251 43.8997C80.6495 43.7573 80.361 43.6289 80.0636 43.5437C79.4495 43.3683 78.9225 43.5958 78.5136 44.028C77.7225 44.8632 77.7148 46.7191 78.4995 47.586C79.0572 48.2025 80.2866 48.2763 80.8431 47.778C80.9302 47.6992 81.07 47.6242 81.1738 47.6369C81.2623 47.647 81.3623 47.7767 81.402 47.8758C81.4213 47.9241 81.3315 48.0411 81.2649 48.0932C80.2931 48.8496 79.1597 48.8699 78.2161 48.078C77.6943 47.6394 77.4328 47.0229 77.352 46.3454C77.3315 46.1687 77.3495 45.9869 77.3495 45.739Z" fill="white"/>
<path d="M149.345 34.7002C149.336 34.5312 149.326 34.4308 149.326 34.3303C149.326 32.8329 149.326 31.3355 149.326 29.8393C149.326 29.4338 149.345 29.4173 149.765 29.416C150.184 29.4143 150.394 29.6177 150.394 30.0262C150.394 31.1855 150.392 32.3461 150.397 33.5054C150.397 33.6846 150.362 33.8092 150.199 33.9274C150.004 34.0659 149.86 34.2719 149.685 34.4397C149.598 34.5236 149.494 34.5897 149.347 34.7015L149.345 34.7002Z" fill="white"/>
<path d="M155.452 35.4652H150.059C150.434 35.1118 150.739 34.7991 151.075 34.5258C151.168 34.4508 151.356 34.4813 151.501 34.4801C152.641 34.4712 153.782 34.4648 154.921 34.461C155.047 34.461 155.18 34.4521 155.297 34.4864C155.361 34.5055 155.439 34.6059 155.444 34.6746C155.462 34.9262 155.451 35.1792 155.451 35.4665L155.452 35.4652Z" fill="white"/>
<path d="M39.7751 47.1131C39.4763 46.6568 39.4815 46.6619 39.8546 46.2665C40.0597 46.0492 40.2456 45.814 40.4392 45.5865L40.3853 45.4949C40.2687 45.5051 40.1533 45.5267 40.0366 45.5242C39.9046 45.5216 39.711 45.5432 39.6546 45.4708C39.5661 45.3564 39.4981 45.1416 39.5494 45.0233C39.8699 44.2873 40.2366 43.5704 40.5648 42.8369C40.652 42.6425 40.7584 42.6501 40.911 42.7073C41.1007 42.7785 41.1007 42.9183 41.0276 43.0683C40.7943 43.5475 40.5558 44.0229 40.3212 44.5022C40.2481 44.6509 40.1828 44.8009 40.1097 44.9572C40.5456 45.05 40.8904 44.8988 41.0674 44.5619C41.1302 44.4411 41.1917 44.3178 41.261 44.2009C41.343 44.0623 41.4263 44.0344 41.5981 44.1157C41.7815 44.2022 41.7943 44.3102 41.7148 44.4335C41.3674 44.9788 41.0058 45.5165 40.6469 46.0555C40.5828 46.1521 40.5148 46.2449 40.4481 46.3403L40.502 46.4064C40.8674 46.3263 41.2328 46.2462 41.5969 46.1636C41.734 46.1318 41.9033 46.0288 41.9212 46.2818C41.9353 46.4775 41.8725 46.6047 41.634 46.6542C41.0097 46.7864 40.393 46.9568 39.7738 47.1131H39.7751Z" fill="white"/>
<path d="M153.433 29.4336H155.425V31.4064H153.433V29.4336Z" fill="white"/>
<path d="M88.9828 43.1025H89.4751C89.4854 43.1991 89.5021 43.2792 89.5021 43.3606C89.5033 44.9864 89.5046 46.6122 89.5021 48.2368C89.5021 48.5317 89.4021 48.6232 89.1162 48.5622C89.0418 48.5469 88.9328 48.4376 88.9328 48.3715C88.9277 46.63 88.9354 44.8898 88.9418 43.1483C88.9418 43.1407 88.9546 43.133 88.9815 43.1025H88.9828Z" fill="white"/>
<path d="M73.265 45.7755C73.265 47.2551 73.265 48.7348 73.265 50.2144C73.265 50.2881 73.2842 50.3695 73.2599 50.4343C73.2317 50.5055 73.1637 50.5614 73.1137 50.625C73.0663 50.5576 73.0099 50.4928 72.9765 50.419C72.956 50.3746 72.9727 50.3148 72.9727 50.2627C72.9727 47.2818 72.9727 44.3009 72.9727 41.3213C72.9727 41.2794 72.9586 41.2285 72.9765 41.1955C73.0189 41.118 73.0765 41.048 73.1278 40.9756C73.174 41.0531 73.2317 41.1269 73.2624 41.2108C73.283 41.2667 73.2663 41.3366 73.2663 41.4002C73.2663 42.8582 73.2663 44.3175 73.2663 45.7755H73.265Z" fill="white"/>
<path d="M57.9343 42.6152L58.2637 42.7373C58.2753 42.8415 58.2868 42.9445 58.3022 43.0792H60.6714C60.8086 43.5673 60.583 43.9411 60.3714 44.3084C60.3458 44.3516 60.1227 44.3427 60.0535 44.2843C59.9881 44.2309 59.974 44.0733 59.9958 43.9728C60.0202 43.8559 60.1073 43.7529 60.2048 43.5724C59.442 43.5724 58.7727 43.5699 58.1048 43.5775C58.0445 43.5775 57.974 43.6423 57.9266 43.6932C57.6343 44.0072 57.3484 44.3262 57.0689 44.6338C56.6176 44.3618 56.6073 44.3046 56.9484 44.0008C57.3304 43.6589 57.6432 43.2737 57.8125 42.7843C57.8317 42.7284 57.883 42.6839 57.9343 42.6152Z" fill="white"/>
<path d="M152.435 29.4156C152.435 30.1948 152.437 30.9219 152.433 31.6477C152.433 31.7037 152.405 31.7736 152.366 31.813C152.121 32.0659 151.872 32.3151 151.617 32.5579C151.569 32.6049 151.487 32.6189 151.369 32.6697C151.369 32.4435 151.369 32.2592 151.369 32.0736C151.369 31.2816 151.375 30.4897 151.365 29.699C151.362 29.4766 151.438 29.3978 151.66 29.4105C151.902 29.4245 152.147 29.4143 152.435 29.4143V29.4156Z" fill="white"/>
<path d="M155.453 33.4388H152.151C152.478 33.1109 152.774 32.8058 153.082 32.5109C153.135 32.46 153.235 32.4333 153.314 32.4346C153.942 32.4435 154.57 32.4677 155.197 32.4753C155.388 32.4778 155.466 32.5376 155.455 32.7321C155.442 32.9609 155.452 33.191 155.452 33.4388H155.453Z" fill="white"/>
<path d="M57.9365 46.4736H58.3481C58.3455 47.6571 58.0058 48.5113 56.7173 48.7706C56.3865 48.8367 56.0545 48.9003 55.7211 48.9588C55.384 49.0172 55.2404 48.8367 55.1917 48.524C55.5981 48.477 55.9942 48.4388 56.3891 48.3842C57.1032 48.285 57.7583 47.8439 57.8096 47.0914C57.8224 46.8957 57.8878 46.7024 57.9365 46.4749V46.4736Z" fill="white"/>
<path d="M50.1226 48.8678C50.7457 48.5297 51.3765 48.2501 51.9342 47.8687C52.3983 47.5509 52.7777 47.1136 53.1944 46.7297C53.2983 46.6344 53.3624 46.5022 53.5636 46.6192C53.7393 46.7208 53.7483 46.8047 53.6406 46.9331C52.7803 47.9628 51.6765 48.6492 50.4342 49.1335C50.2675 49.1983 50.2111 49.1373 50.1213 48.8678H50.1226Z" fill="white"/>
<path d="M53.4724 44.6964C53.1147 45.0485 52.8109 45.4044 52.4493 45.6866C52.0186 46.0235 51.5404 46.2993 51.0801 46.5981C50.7557 46.8078 50.6904 46.7875 50.4878 46.401C50.7493 46.2599 51.0198 46.129 51.275 45.9739C51.8724 45.6104 52.4609 45.2328 52.8827 44.6595C53.0839 44.3862 53.2429 44.615 53.4724 44.6977V44.6964Z" fill="white"/>
<path d="M53.2021 42.7576C52.6136 43.3703 51.9482 43.88 51.2252 44.3211C51.1354 44.3758 51.0521 44.4381 50.9636 44.494C50.6675 44.6783 50.6034 44.6567 50.4175 44.316C50.8239 44.0605 51.2444 43.8228 51.6354 43.5432C51.9354 43.3284 52.2175 43.0817 52.47 42.8148C52.7047 42.5657 52.92 42.539 53.2034 42.7576H53.2021Z" fill="white"/>
<path d="M42.0238 47.1826V47.6695C41.2725 47.9339 40.5213 48.1983 39.7738 48.4627C39.5174 48.0343 39.5149 48.0267 39.9764 47.8665C40.6379 47.6377 41.3046 47.4229 42.0238 47.1839V47.1826Z" fill="white"/>
<path d="M58.2842 48.1335C58.3688 47.8119 58.5226 47.747 58.8226 47.8691C59.365 48.0902 59.9214 48.2771 60.4765 48.4614C60.6752 48.5275 60.6739 48.661 60.5919 48.7729C60.5303 48.858 60.3611 48.9495 60.2791 48.9229C59.6739 48.7207 59.0778 48.4932 58.4816 48.2669C58.4073 48.239 58.347 48.1767 58.2842 48.1335Z" fill="white"/>
<path d="M55.3752 45.7992C55.2931 45.728 55.179 45.6631 55.1187 45.564C55.0893 45.517 55.1431 45.3937 55.1931 45.3301C55.4534 45.0009 55.7162 44.6742 55.9957 44.3627C56.0559 44.2954 56.2111 44.2445 56.2841 44.2763C56.3521 44.3055 56.4303 44.4937 56.3982 44.542C56.1226 44.9487 55.8226 45.3403 55.5264 45.7331C55.5046 45.7623 55.4521 45.7674 55.3739 45.7992H55.3752Z" fill="white"/>
<path d="M56.1445 43.8142C55.8252 43.5294 55.5855 43.3298 55.3663 43.1099C55.3073 43.0515 55.2637 42.8748 55.2958 42.8493C55.3791 42.7807 55.5509 42.6981 55.6099 42.7362C55.8637 42.904 56.1163 43.0921 56.3099 43.3209C56.3637 43.3858 56.215 43.6184 56.1458 43.8129L56.1445 43.8142Z" fill="white"/>
</g>
<defs>
<clipPath id="clip0_15_4325">
<rect width="116.25" height="21.25" fill="white" transform="translate(39.2085 29.375)"/>
</clipPath>
</defs>
</svg>
