<svg width="194" height="80" viewBox="0 0 194 80" fill="none" xmlns="http://www.w3.org/2000/svg">
<g clip-path="url(#clip0_15_4504)">
<path d="M66.0752 40.1088C66.0706 40.0918 66.0661 40.0748 66.0592 40.0589C66.008 39.9524 65.9066 39.8821 65.788 39.8708C65.6456 39.8583 65.4941 39.8458 65.3402 39.8481C63.2322 39.839 61.0945 39.8345 58.9852 39.8345L60.5088 37.3963C62.2795 34.7893 64.0526 32.1822 65.8279 29.5751C66.0239 29.2895 65.9476 29.1036 65.7801 28.8576C64.8992 27.5643 64.0446 26.2505 63.1592 24.9663C62.937 24.6523 62.8026 24.2431 62.447 24.0198L62.5029 23.9382L62.4163 23.8736C62.2419 23.7432 62.0516 23.7511 61.8841 23.7579C61.8488 23.7591 61.8123 23.7613 61.7782 23.7613C54.9218 23.7591 48.07 23.7557 41.2216 23.75C40.8194 23.75 40.5652 23.8815 40.3305 24.2136L40.2929 24.2646C39.7904 25.0263 39.2719 25.7949 38.7694 26.5373C38.2931 27.2435 37.8008 27.9735 37.3222 28.6955C37.3029 28.725 37.2721 28.7578 37.2391 28.7919C37.1297 28.9063 36.9485 29.0979 37.1308 29.3745L37.165 29.4255H37.2801C37.9706 30.7732 38.9312 31.9464 39.7539 33.2148C40.0593 33.6841 40.3043 34.2066 40.7396 34.5841L40.7373 34.6793C40.7328 34.9423 40.8786 35.127 41.0085 35.2891C41.0518 35.3435 41.0928 35.3945 41.1282 35.4478C42.2073 37.0789 43.0915 38.3881 43.9108 39.567C44.1399 39.8957 44.1421 40.1032 43.9199 40.4205C43.0733 41.6277 42.2563 42.8598 41.4666 44.05C40.0137 46.2366 38.5426 48.4583 37.0943 50.6539L36.9792 50.8284H37.1148C37.1297 50.9089 37.1764 50.978 37.2094 51.0268L37.2197 51.0415C37.5057 51.4621 37.7928 51.8826 38.08 52.302C38.8754 53.465 39.697 54.6688 40.4878 55.8567C40.7191 56.2058 41.0108 56.2341 41.3401 56.2341H47.351C47.3863 56.2341 47.4228 56.2364 47.4592 56.2387C47.498 56.2409 47.5378 56.2432 47.5789 56.2432C47.7167 56.2432 47.8672 56.2194 47.9936 56.0856L48.0301 56.0471L48.0255 56.0029C48.1862 55.8986 48.2512 55.69 48.356 55.5382C49.4249 53.983 50.4812 52.4187 51.5466 50.8579C51.5477 50.8556 51.55 50.8534 51.5512 50.8511L51.5591 50.8624C52.6519 52.4607 53.7527 54.0816 54.8284 55.6821C55.0483 56.004 55.2545 56.2511 55.7308 56.2511C57.2657 56.233 58.8269 56.2353 60.3355 56.2375C60.878 56.2375 61.4204 56.2398 61.9628 56.2398H61.9855C62.1348 56.2421 62.3217 56.2398 62.4584 56.0732L62.4881 56.0369L62.4858 56.0108C62.5815 55.944 62.6396 55.8272 62.708 55.7229C64.93 52.421 67.1543 49.1202 69.3797 45.8206C69.5735 45.5338 69.5917 45.3139 69.3923 45.0271C68.2824 43.396 67.1839 41.7524 66.0763 40.11L66.0752 40.1088ZM65.3402 40.0748C65.4861 40.0748 65.6308 40.085 65.7675 40.0975C65.8211 40.102 65.845 40.1406 65.853 40.1564C65.861 40.1723 65.8758 40.2154 65.845 40.2607L65.1955 41.2174C64.4845 42.2648 63.7495 43.3484 63.0327 44.4184L63.0202 44.4366C62.7878 44.7834 62.6032 45.0577 62.5131 45.0577C62.422 45.0577 62.2317 44.7766 62.0106 44.4524C61.401 43.557 60.7879 42.6388 60.1954 41.7513C59.8832 41.2831 59.5698 40.815 59.2564 40.348C59.2394 40.3219 59.22 40.2958 59.2017 40.2709C59.1425 40.1893 59.0992 40.1281 59.0867 40.0623C61.1617 40.0623 63.2652 40.0669 65.3402 40.0759V40.0748ZM37.4066 28.9483C37.4442 28.9086 37.4829 28.8678 37.5137 28.8213C37.9923 28.0981 38.4845 27.3693 38.9608 26.6643C39.452 25.9377 39.959 25.1862 40.4513 24.4403L40.4878 24.3893C40.6883 24.0844 40.8809 23.9767 41.2227 23.9767C48.0711 23.9824 54.9229 23.9858 61.7793 23.988C61.8169 23.988 61.8568 23.9869 61.8955 23.9846C62.0015 23.9801 62.0984 23.9756 62.1838 24.0039L61.7519 24.6387C60.9657 25.796 60.1521 26.9941 59.3647 28.1786L58.9875 28.7442C57.8378 30.466 56.6493 32.2468 55.5064 34.0139C55.4517 34.0978 55.2876 34.3517 55.1805 34.3529C55.1087 34.3529 54.9993 34.2429 54.8557 34.0253C54.466 33.4324 54.0569 32.8408 53.6604 32.2672C53.1054 31.4647 52.5323 30.6349 52.0081 29.7961C51.7289 29.3541 51.444 29.1976 50.9176 29.1976H37.2949C37.2607 29.1138 37.3029 29.056 37.4066 28.9471V28.9483ZM41.6569 44.1747C42.4466 42.9845 43.2624 41.7547 44.1068 40.5498C44.3837 40.1553 44.3814 39.8436 44.0977 39.4378C43.2784 38.2601 42.3953 36.952 41.3185 35.3231C41.2786 35.2619 41.2319 35.2041 41.1874 35.1474C41.0963 35.033 41.0097 34.9241 40.9777 34.7938C41.5042 34.7927 42.0306 34.7915 42.5571 34.7904C44.1889 34.7881 45.8765 34.7847 47.5356 34.7621H47.5606C47.9127 34.7621 48.0529 34.9434 48.2534 35.2393C49.3109 36.7978 50.3684 38.3564 51.4247 39.9127C51.4224 40.0941 51.321 40.2312 51.2059 40.3888C51.1706 40.4375 51.1341 40.4863 51.1022 40.535C48.8562 43.8777 46.608 47.2205 44.3586 50.562L37.4396 50.5416C38.8378 48.4231 40.2564 46.2819 41.6569 44.1736V44.1747ZM47.4718 56.012C47.4319 56.0097 47.3908 56.0074 47.3521 56.0074H41.3412C41.0427 56.0074 40.849 55.9893 40.6781 55.732C39.8861 54.5418 39.0634 53.3391 38.268 52.175C37.9809 51.7556 37.6937 51.3351 37.4077 50.9157L37.3974 50.901C37.3769 50.8704 37.3644 50.8488 37.3541 50.8307L44.4395 50.8522C45.4457 52.3768 46.4519 53.9014 47.4592 55.4259C47.5754 55.6028 47.7247 55.7615 47.7817 55.9678C47.7031 56.021 47.6074 56.0199 47.4706 56.012H47.4718ZM61.9867 56.012H61.9628C61.4204 56.012 60.878 56.012 60.3355 56.0097C58.8257 56.0074 57.2635 56.0052 55.7286 56.0233C55.3628 56.0233 55.2158 55.8465 55.0164 55.554C53.9532 53.9739 52.8673 52.3723 51.787 50.7922C52.4365 49.6813 53.1487 48.6396 53.9019 47.539C54.3498 46.8849 54.8124 46.2094 55.2602 45.5168C56.2812 47.0244 57.2555 48.4594 58.2229 49.8978C59.4593 51.7364 60.6922 53.5761 61.924 55.418C62.0414 55.5937 62.1918 55.7535 62.2465 55.9621C62.185 56.0086 62.1029 56.0142 61.9867 56.0108V56.012Z" fill="white"/>
<path d="M90.5859 41.8762V35.4288C90.5836 34.2692 90.1346 33.8272 88.9507 33.8272H82.0955C81.2579 33.8249 81.0847 33.6673 81.0699 32.9306C81.0551 32.1938 81.4551 32.0237 82.1126 32.0237C84.297 32.0453 86.4837 32.0317 88.6692 32.0317C90.6485 32.0317 90.6292 32.0328 90.6064 30.065C90.6007 29.5844 90.4411 29.4926 90.0047 29.4983C88.3411 29.521 86.6762 29.5074 85.0126 29.5074C83.3489 29.5074 81.7342 29.5028 80.0854 29.5062C78.9983 29.5108 78.5368 29.963 78.53 31.0308C78.5231 32.2663 78.53 33.5007 78.53 34.7362C78.5345 35.9208 78.9516 36.3368 80.1446 36.3368C82.4544 36.3368 84.7642 36.3481 87.0739 36.3368C87.7599 36.3334 88.0778 36.6145 88.055 37.315C88.0277 38.1538 88.0471 38.9948 88.0471 39.8348C88.0414 40.728 87.8716 40.8923 86.9417 40.8923H80.4591C78.4673 40.8923 78.4867 40.8923 78.5163 42.859C78.5231 43.3407 78.6906 43.4257 79.1236 43.4257C82.4282 43.4144 85.7327 43.4223 89.0373 43.4144C90.1175 43.4121 90.5859 42.9451 90.5859 41.8762Z" fill="white"/>
<path d="M128.373 33.8175C126.907 33.8107 125.442 33.8175 123.977 33.8175C122.511 33.8175 121.047 33.8118 119.584 33.8231C118.446 33.8288 117.984 34.2652 117.977 35.3795C117.962 37.5524 117.962 39.7253 117.977 41.8994C117.983 42.9649 118.449 43.4115 119.541 43.4183C121.129 43.4251 122.713 43.4183 124.308 43.4183C126.249 43.4183 126.232 43.4183 126.198 41.4619C126.19 41.0005 126.039 40.8781 125.596 40.8872C124.256 40.9087 122.915 40.903 121.573 40.8872C121.16 40.8826 120.562 41.0515 120.562 40.3624C120.565 39.7117 121.144 39.8874 121.53 39.8874C123.79 39.875 126.049 39.8806 128.31 39.8806C129.524 39.8784 129.952 39.4454 129.952 38.22V35.4044C129.946 34.2856 129.491 33.8243 128.373 33.8175ZM126.628 37.3608H121.273C120.901 37.3608 120.534 37.32 120.548 36.8417C120.562 36.3633 120.935 36.3407 121.301 36.3407H126.657C127.03 36.3407 127.404 36.4109 127.391 36.8678C127.377 37.3246 127.003 37.3608 126.628 37.3608Z" fill="white"/>
<path d="M99.4523 40.8831C98.0371 40.9058 96.6207 40.8899 95.2054 40.8899C94.8328 40.8888 94.3758 40.9251 94.3553 40.4105C94.3303 39.8244 94.8157 39.88 95.2145 39.88C97.5459 39.88 99.883 39.8868 102.218 39.88C103.307 39.8766 103.739 39.4368 103.747 38.3441C103.753 37.3568 103.753 36.3684 103.747 35.38C103.736 34.2646 103.291 33.8202 102.152 33.8202C100.686 33.8123 94.7758 33.8078 93.2888 33.8202C92.2598 33.8304 91.7892 34.3065 91.7892 35.3267C91.7835 37.4996 91.7835 39.6737 91.7892 41.8478C91.7915 42.9609 92.2393 43.4086 93.3788 43.4143C94.9433 43.4199 96.509 43.4143 98.0735 43.4143C100.059 43.4143 100.045 43.4143 99.9981 41.4272C99.989 41.0101 99.8773 40.8763 99.4523 40.8831ZM95.0652 36.3412H97.7431V36.3434H100.495C100.836 36.3446 101.175 36.4012 101.187 36.8331C101.199 37.3137 100.846 37.3602 100.469 37.3602H95.0379C94.6858 37.3602 94.3531 37.3069 94.3439 36.8807C94.3337 36.416 94.6847 36.3412 95.0652 36.3412Z" fill="white"/>
<path d="M153.991 43.4118C154.746 43.4016 155.503 43.4118 156.327 43.4118C156.195 43.04 156.105 42.7612 156 42.4891C155.06 40.0521 154.13 37.6071 153.167 35.178C152.963 34.6611 152.992 34.2621 153.327 33.8087C154.053 32.8362 154.727 31.8319 155.42 30.8378C155.709 30.4229 155.99 30.0024 156.332 29.5036C155.581 29.5036 154.961 29.5354 154.344 29.4934C153.871 29.4606 153.584 29.6204 153.319 30.0205C152.583 31.1359 151.802 32.2195 151.027 33.3077C150.52 34.0139 150.165 34.0116 149.66 33.3009C148.86 32.1719 148.066 31.0384 147.277 29.9004C147.116 29.668 146.971 29.4866 146.636 29.4991C145.921 29.5252 145.205 29.507 144.341 29.507C145.395 31.0135 146.33 32.4032 147.335 33.7532C147.706 34.2553 147.741 34.6872 147.513 35.2539C146.514 37.776 145.553 40.3117 144.563 42.8371C144.398 43.2576 144.386 43.4707 144.943 43.4243C145.439 43.3835 145.936 43.3835 146.432 43.4243C146.887 43.4583 147.079 43.261 147.229 42.8575C147.911 41.028 148.629 39.2212 149.319 37.4008C149.512 36.8953 149.689 36.4237 150.363 36.4248C151.036 36.426 151.2 36.9361 151.388 37.4257C152.087 39.2473 152.788 41.0643 153.492 42.8779C153.584 43.1137 153.6 43.4197 153.991 43.4118Z" fill="white"/>
<path d="M140.552 37.2459C140.527 38.6764 140.544 40.108 140.544 41.5385C140.544 43.4575 140.544 43.4371 142.49 43.4292C143.005 43.4269 143.096 43.249 143.096 42.7888C143.077 40.3211 143.091 37.8535 143.085 35.3858C143.081 34.2591 142.638 33.825 141.499 33.825H137.107C135.643 33.825 134.179 33.8204 132.711 33.8261C131.566 33.8318 131.124 34.2602 131.124 35.3847V41.5283C131.124 43.4575 131.124 43.4394 133.061 43.4292C133.554 43.4258 133.687 43.2818 133.681 42.8001C133.654 40.9479 133.683 39.0969 133.662 37.2459C133.657 36.6236 133.906 36.3391 134.536 36.3391H139.672C140.291 36.3391 140.562 36.6123 140.552 37.2459Z" fill="white"/>
<path d="M114.854 33.8054C114.37 33.7725 114.162 33.9618 114.001 34.3982C113.32 36.2481 112.599 38.0844 111.898 39.9286C111.716 40.407 111.512 40.8774 110.907 40.8819C110.302 40.8864 110.088 40.4364 109.904 39.9479C109.197 38.081 108.475 36.2186 107.755 34.3563C107.65 34.0933 107.624 33.785 107.194 33.8031C106.458 33.8326 105.72 33.8111 104.892 33.8111C106.081 36.9044 107.235 39.915 108.395 42.9245C108.538 43.2951 108.838 43.4176 109.227 43.4176C110.344 43.4108 111.46 43.4176 112.578 43.4176C112.999 43.4187 113.272 43.2509 113.427 42.844C114.543 39.9434 115.656 37.0438 116.768 34.1443C116.796 34.0378 116.811 33.9278 116.817 33.8179C116.133 33.8179 115.49 33.8519 114.854 33.8054Z" fill="white"/>
<path d="M155.315 48.0404H152.344C152.717 47.6052 152.98 47.6992 153.213 47.7049C154.057 47.6902 154.901 47.6777 155.745 47.7049C156.187 47.7185 156.354 47.5882 156.354 47.1223C156.36 46.6247 156.132 46.5601 155.721 46.5691C154.852 46.5895 153.983 46.5759 153.114 46.5759C151.361 46.5759 151.38 46.5748 151.404 48.3317C151.412 48.9268 151.662 49.1127 152.217 49.0969C153.011 49.0731 153.803 49.0821 154.601 49.0969C154.823 49.1003 155.213 48.9858 155.2 49.3168C155.186 49.6251 154.798 49.5117 154.57 49.5117C153.776 49.5253 152.984 49.5129 152.186 49.5197C151.813 49.5219 151.388 49.3836 151.4 50.0558C151.41 50.754 151.881 50.5443 152.222 50.5523C153.091 50.5659 153.96 50.5523 154.829 50.5523C155.842 50.5523 156.346 50.055 156.341 49.0606C156.332 48.13 156.244 48.0404 155.315 48.0404Z" fill="white"/>
<path d="M93.789 46.5762H90.2907C89.7996 46.5773 89.5774 46.8391 89.5774 47.3209V49.8384C89.5774 50.3304 89.819 50.5571 90.3124 50.5571C91.0325 50.5457 91.7527 50.5344 92.4706 50.5571C92.8512 50.5684 92.997 50.4494 92.997 50.0549C93.0016 49.6389 92.8717 49.4734 92.4444 49.504C92.0524 49.5301 91.6513 49.5142 91.2547 49.504C91.0701 49.4995 90.7875 49.5754 90.7704 49.3068C90.7556 49.0166 91.0451 49.0801 91.2262 49.0801C91.6479 49.0733 92.0695 49.0801 92.4911 49.0801L93.0084 49.0858C94.5866 49.0858 94.7234 48.9293 94.5866 47.3424C94.5456 46.8323 94.304 46.5762 93.789 46.5762ZM93.152 48.0361H92.0353V48.0384H90.9938C90.8741 48.0373 90.718 48.0441 90.7021 47.8831C90.685 47.6927 90.84 47.6315 90.9927 47.6315C91.7117 47.6247 92.4318 47.6315 93.1509 47.6315C93.2842 47.6315 93.405 47.6847 93.4095 47.84C93.4141 47.9953 93.2796 48.0361 93.152 48.0361Z" fill="white"/>
<path d="M145.259 47.3853C145.262 46.8378 145.007 46.5703 144.437 46.5703H142.73C142.159 46.5703 141.589 46.5737 141.018 46.5748C140.538 46.5714 140.259 46.7857 140.259 47.2776C140.252 48.1414 140.252 49.0051 140.259 49.8688C140.259 50.3132 140.487 50.558 140.942 50.558C141.688 50.558 142.433 50.5399 143.176 50.5659C143.591 50.5795 143.668 50.4027 143.67 50.0332C143.673 49.6637 143.571 49.488 143.167 49.5118C142.722 49.5367 142.273 49.5186 141.828 49.5118C141.66 49.5038 141.427 49.5152 141.439 49.2851C141.452 49.055 141.683 49.081 141.851 49.081H143.713C145.276 49.081 145.325 49.03 145.259 47.459V47.3853ZM143.843 48.0325H142.728L142.73 48.0359H141.616C141.517 48.0348 141.407 48.0133 141.388 47.892C141.383 47.8738 141.382 47.8557 141.383 47.8376C141.389 47.7265 141.484 47.6415 141.594 47.6471C142.361 47.6347 143.128 47.6347 143.895 47.6471C143.986 47.671 144.059 47.7401 144.086 47.8296C144.106 47.9804 143.974 48.0325 143.843 48.0325Z" fill="white"/>
<path d="M105.626 47.234C105.622 46.7772 105.35 46.5698 104.908 46.5698H103.199C102.629 46.5686 102.058 46.589 101.481 46.5641C100.871 46.538 100.616 46.8316 100.616 47.404C100.616 48.2916 100.627 49.1802 100.616 50.0678C100.607 50.3999 100.711 50.5246 101.072 50.5665C101.78 50.6493 101.755 50.2423 101.755 49.7606C101.753 47.6296 101.76 47.6477 103.842 47.6783C104.376 47.6863 104.538 47.8733 104.509 48.3743C104.476 48.9411 104.52 49.5078 104.497 50.0746C104.475 50.4917 104.688 50.5733 105.045 50.5563C105.353 50.5416 105.644 50.5801 105.635 50.1199C105.617 49.161 105.635 48.1952 105.626 47.234Z" fill="white"/>
<path d="M124.861 46.5543C124.428 46.5419 124.298 46.7142 124.314 47.1211C124.338 47.7366 124.313 48.3532 124.321 48.9699C124.326 49.3348 124.179 49.5173 123.795 49.5094C123.25 49.4947 122.704 49.4879 122.159 49.5094C121.695 49.5275 121.553 49.3042 121.564 48.8792C121.581 48.2637 121.551 47.6459 121.573 47.0304C121.586 46.6042 121.358 46.5487 121.016 46.5577C120.697 46.5702 120.425 46.5577 120.434 47.0111C120.453 47.9463 120.441 48.8837 120.441 49.8211C120.441 50.3527 120.721 50.5658 121.238 50.5522C121.808 50.5409 122.378 50.5522 122.948 50.5522C123.517 50.5522 124.087 50.5409 124.66 50.55C125.186 50.5636 125.45 50.3312 125.45 49.8064C125.449 48.8939 125.431 47.9769 125.457 47.0701C125.472 46.6053 125.233 46.5668 124.861 46.5543Z" fill="white"/>
<path d="M83.0447 45.8186C82.5832 45.7869 82.3222 45.9115 82.1912 46.4024C81.9633 47.2344 81.6568 48.0437 81.3936 48.8643C81.3183 49.0956 81.3092 49.4073 80.9833 49.388C80.7053 49.3722 80.7087 49.065 80.6415 48.8677C80.3475 48.0051 80.0376 47.1448 79.7971 46.2675C79.6239 45.6395 79.1442 45.7733 78.7875 45.8605C78.3557 45.9671 78.6952 46.3071 78.7568 46.5123C79.0713 47.5733 79.453 48.6172 79.747 49.6861C79.9327 50.364 80.2301 50.7618 81.0152 50.5351C81.3844 50.4592 81.9143 50.7924 82.1228 50.1418C82.5239 48.8462 82.9387 47.5563 83.3683 46.272C83.4834 45.9229 83.3774 45.8424 83.0447 45.8186Z" fill="white"/>
<path d="M113.832 46.5662C113.567 46.5877 113.31 46.539 113.293 46.2092C113.271 45.8011 112.996 45.8226 112.717 45.8283C112.373 45.8396 111.759 46.6331 111.759 47.0865C111.759 47.2747 111.669 47.5433 111.882 47.626C112.345 47.8074 112.215 48.1758 112.224 48.4988C112.239 49.0157 112.245 49.5337 112.224 50.0506C112.207 50.4315 112.348 50.6083 112.745 50.5448C113.18 50.623 113.303 50.4077 113.282 50.0041C113.261 49.4374 113.285 48.8706 113.276 48.3039C113.27 47.9321 113.37 47.6589 113.811 47.6941C114.27 47.7315 114.328 47.4775 114.328 47.1012C114.326 46.743 114.242 46.5311 113.832 46.5662Z" fill="white"/>
<path d="M133.765 46.5744C133.195 46.5699 132.625 46.5529 132.056 46.5824C131.635 46.605 131.466 46.8952 131.466 47.2953V48.702C131.465 49.1214 131.489 49.5431 131.45 49.9602C131.419 50.4023 131.564 50.5678 132.032 50.5678C132.531 50.5734 132.62 50.349 132.589 49.9376C132.569 49.6666 132.569 49.3946 132.589 49.1237C132.625 48.6862 132.428 48.1863 132.703 47.827C132.941 47.5175 133.393 47.7227 133.765 47.6932C134.136 47.6637 134.115 47.42 134.107 47.1673C134.099 46.9145 134.204 46.5744 133.765 46.5744Z" fill="white"/>
</g>
<defs>
<clipPath id="clip0_15_4504">
<rect width="119.375" height="32.5" fill="white" transform="translate(36.9792 23.75)"/>
</clipPath>
</defs>
</svg>
