<svg width="194" height="80" viewBox="0 0 194 80" fill="none" xmlns="http://www.w3.org/2000/svg">
<g clip-path="url(#clip0_15_4654)">
<path d="M116.178 31.875V33.6288H106.92V36.3747H113.939V38.1226H106.925V40.8844H116.148V42.6231H105.08V42.0081C105.08 38.7846 105.08 35.5611 105.078 32.3375C105.078 32.1834 105.059 32.03 105.05 31.8758C108.759 31.8758 112.469 31.8758 116.179 31.8758L116.178 31.875Z" fill="white"/>
<path d="M127.675 31.875C128.361 32.0644 128.981 32.3543 129.42 32.9316C129.742 33.3548 129.96 33.8207 129.971 34.3486C129.981 34.8957 130.016 35.4563 129.92 35.9901C129.696 37.226 128.572 38.1033 127.282 38.1302C127.129 38.1335 126.976 38.1302 126.728 38.1302C127.837 39.6627 128.89 41.1174 129.992 42.6407C129.227 42.6407 128.545 42.6508 127.866 42.6298C127.767 42.6265 127.653 42.4866 127.58 42.386C126.612 41.0629 125.647 39.739 124.693 38.4067C124.552 38.2089 124.408 38.1218 124.155 38.1251C123.028 38.1385 121.899 38.131 120.716 38.131V42.6257H118.906V31.875H127.676H127.675ZM120.725 36.3428C120.799 36.3596 120.834 36.3747 120.869 36.3747C122.99 36.3764 125.112 36.3847 127.232 36.3747C127.76 36.3722 128.14 35.9817 128.177 35.4588C128.194 35.2334 128.184 35.0063 128.184 34.7793C128.181 33.9933 127.823 33.6414 127.021 33.6414C125.059 33.6414 123.097 33.6414 121.136 33.6414H120.724V36.3428H120.725Z" fill="white"/>
<path d="M143.815 40.4757C143.592 41.2223 143.216 41.8901 142.486 42.2429C142.039 42.4582 141.515 42.6149 141.021 42.6275C139.194 42.6719 137.365 42.6543 135.538 42.6409C133.951 42.6291 132.77 41.4896 132.754 39.9453C132.735 38.1797 132.738 36.4134 132.75 34.6479C132.76 33.282 133.537 32.3134 134.878 31.9438C134.935 31.9279 134.989 31.8986 135.045 31.876C137.206 31.876 139.368 31.876 141.53 31.876C142.089 32.0461 142.67 32.2179 143.03 32.6896C143.342 33.0985 143.557 33.5778 143.815 34.0261V40.4757ZM138.315 33.6398C137.419 33.6398 136.523 33.6373 135.627 33.6398C134.968 33.6423 134.565 33.9809 134.559 34.6135C134.541 36.3799 134.541 38.1462 134.559 39.9126C134.565 40.5192 134.974 40.8863 135.6 40.8888C137.392 40.8971 139.183 40.898 140.975 40.8888C141.632 40.8854 142.026 40.4899 142.029 39.8481C142.035 38.1177 142.036 36.3866 142.029 34.6562C142.026 34.0127 141.629 33.6423 140.967 33.6398C140.083 33.6356 139.199 33.639 138.315 33.639V33.6398Z" fill="white"/>
<path d="M102.322 31.875C102.322 32.3644 102.34 32.8554 102.31 33.3431C102.3 33.5098 102.212 33.7151 102.087 33.8249C99.5458 36.058 96.9945 38.2801 94.4449 40.504C94.3286 40.6054 94.2028 40.6967 94.0813 40.7931C94.0977 40.8241 94.1141 40.8551 94.1313 40.8861H102.297V42.619H91.2457C91.2457 42.0626 91.2311 41.5171 91.2578 40.9741C91.2629 40.861 91.4077 40.7395 91.5128 40.6481C94.0581 38.4201 96.6076 36.1962 99.1555 33.9707C99.252 33.886 99.3433 33.7972 99.5044 33.6489H91.2672V31.875H102.322Z" fill="white"/>
<path d="M86.1819 31.8749C86.5679 32.0483 86.9867 32.1757 87.3357 32.4028C88.9452 33.4502 88.9254 36.2958 86.9522 37.1387C86.8885 37.1656 86.8307 37.2066 86.7515 37.2519C87.0056 37.4027 87.246 37.5183 87.4546 37.6725C88.4368 38.4007 88.6953 39.5612 88.3446 40.7444C88.006 41.8831 86.9634 42.6322 85.7649 42.6381C83.2231 42.6498 80.6804 42.6431 78.1386 42.644C77.64 42.644 77.391 42.3976 77.3916 41.9049C77.3916 38.7157 77.3916 35.5274 77.3925 32.3382C77.3925 32.1832 77.4054 32.029 77.4123 31.874C80.3358 31.874 83.2593 31.874 86.1828 31.874L86.1819 31.8749ZM77.9922 37.5493C77.9732 37.6264 77.9568 37.6599 77.9568 37.6943C77.9542 39.0802 77.9586 40.4653 77.9491 41.8513C77.9474 42.1094 78.099 42.1027 78.2825 42.1027C80.7511 42.101 83.2205 42.1144 85.6882 42.0859C86.0742 42.0817 86.4973 41.956 86.8368 41.7708C87.7613 41.2656 88.1396 40.1779 87.8285 39.1154C87.5476 38.156 86.698 37.5376 85.6288 37.5351C83.1843 37.5301 80.7408 37.5334 78.2963 37.5342C78.1998 37.5342 78.1033 37.5443 77.9922 37.5502V37.5493ZM77.9723 36.9745C78.1628 36.9745 78.3092 36.9745 78.4557 36.9745C80.8131 36.9745 83.1705 36.9737 85.528 36.9745C87.2185 36.9745 88.2903 35.5986 87.8337 34.0091C87.5459 33.0086 86.692 32.4195 85.4944 32.417C83.112 32.412 80.7304 32.4153 78.348 32.417C78.2291 32.417 78.1102 32.4287 77.9723 32.4354V36.9745Z" fill="white"/>
<path d="M60.239 31.875V32.4163C60.0581 32.4163 59.9142 32.4163 59.7703 32.4163C57.3267 32.4163 54.8823 32.4121 52.4387 32.418C51.2445 32.4213 50.4009 33.0129 50.1114 34.026C49.6625 35.5963 50.7327 36.9746 52.4016 36.9746C54.2438 36.9746 56.086 36.9679 57.9281 36.9772C59.3067 36.9839 60.4148 37.7866 60.6991 39.0611C61.2161 41.3738 59.5144 42.6835 57.873 42.6541C55.3932 42.6106 52.9117 42.6433 50.4311 42.6441C50.3113 42.6441 50.1907 42.6441 50.0442 42.6441V42.1212C50.1898 42.1145 50.3312 42.102 50.4733 42.102C52.966 42.1003 55.4596 42.1053 57.9523 42.0978C59.1827 42.0944 60.0891 41.2749 60.2166 40.0792C60.3484 38.8424 59.6152 37.8134 58.4201 37.5746C58.2297 37.5369 58.0298 37.5344 57.8342 37.5335C56.0532 37.5302 54.2731 37.531 52.4921 37.531C50.93 37.531 49.9839 36.8498 49.5341 35.4035C49.5238 35.3725 49.498 35.3449 49.479 35.3155C49.479 34.9091 49.479 34.5028 49.479 34.0972C49.6419 33.7411 49.7668 33.3615 49.9762 33.033C50.3837 32.3903 51.0463 32.0836 51.764 31.875H60.239Z" fill="white"/>
<path d="M64.0715 31.8752C64.0836 32.0168 64.1051 32.1584 64.1051 32.3C64.1069 34.7703 64.1051 37.2413 64.1069 39.7115C64.1069 41.2207 65.0004 42.098 66.5444 42.1005C68.2504 42.103 69.9565 42.103 71.6625 42.1005C73.1488 42.0988 74.0673 41.214 74.0724 39.7501C74.0819 37.2673 74.075 34.7853 74.0759 32.3026C74.0759 32.1601 74.088 32.0177 74.0949 31.8744H74.611C74.6127 34.632 74.6342 37.3896 74.6092 40.1473C74.5972 41.4989 73.3383 42.6242 71.8848 42.6393C70.4605 42.6544 69.0371 42.6435 67.6128 42.6426C67.1096 42.6426 66.6056 42.6577 66.1033 42.6309C64.7427 42.5588 63.5709 41.4327 63.558 40.1104C63.5322 37.3653 63.5537 34.6194 63.5563 31.8735H64.0724L64.0715 31.8752Z" fill="white"/>
<path d="M142.488 48.0732C142.042 47.8713 141.759 47.5638 141.79 47.0334C141.978 46.9513 142.097 46.9253 142.143 47.2093C142.22 47.6836 142.791 47.9459 143.216 47.6995C143.347 47.6241 143.42 47.4205 143.423 47.2739C143.426 47.1473 143.29 46.989 143.163 46.9152C143.014 46.8289 142.851 46.8096 142.672 46.7744C142.126 46.6689 141.858 46.3823 141.902 45.9432C141.944 45.531 142.307 45.2762 142.838 45.2754C143.308 45.2754 143.632 45.4958 143.843 45.9038C143.907 46.0396 143.664 46.2365 143.499 46.0681C143.365 45.7698 143.159 45.5561 142.78 45.5871C142.524 45.608 142.274 45.6868 142.26 45.986C142.24 46.4041 142.601 46.4141 142.89 46.4896C142.902 46.4929 143.201 46.5591 143.326 46.6186C143.751 46.8247 143.879 47.4222 143.584 47.7858C143.29 48.1495 142.715 48.1746 142.487 48.0716L142.488 48.0732Z" fill="white"/>
<path d="M131.434 48.0731C130.961 47.8845 130.794 47.5251 130.804 47.0491C130.815 46.4919 130.806 45.9338 130.806 45.3892C131.074 45.2844 131.15 45.3666 131.146 45.5961C131.136 46.0847 131.139 46.5723 131.146 47.0609C131.152 47.5385 131.368 47.7823 131.766 47.7773C132.17 47.7723 132.365 47.5402 132.37 47.0474C132.375 46.5589 132.357 45.912 132.376 45.4252C132.38 45.3297 132.641 45.3423 132.678 45.3615C132.678 46.0578 132.718 46.7575 132.655 47.4488C132.635 47.6692 132.317 48.2448 131.434 48.0731Z" fill="white"/>
<path d="M125.152 47.9841C124.731 48.0483 124.461 47.8944 124.341 47.5224C124.143 46.9006 123.949 46.2772 123.665 45.6621C123.665 46.0225 123.665 46.3819 123.665 46.7422C123.665 47.1 123.674 47.6464 123.656 48.0042C123.652 48.0737 123.333 48.0796 123.332 48.0151C123.321 47.2048 123.325 46.2068 123.325 45.4032C123.92 45.239 123.978 45.2692 124.148 45.8079C124.344 46.433 124.54 47.0573 124.824 47.6782C124.824 47.3816 124.824 47.0841 124.824 46.7875C124.824 46.3937 124.833 45.999 124.824 45.6052C124.819 45.3823 124.895 45.2876 125.152 45.3697V47.9841Z" fill="white"/>
<path d="M136.328 47.9717C136.056 48.0672 135.939 48.0144 135.956 47.7748C135.956 47.763 135.956 47.7505 135.956 47.7387C135.934 47.1276 135.583 46.8703 134.901 46.967V47.9834C134.871 48.0069 134.579 47.9842 134.549 48.0077C134.549 48.0077 134.563 47.9189 134.561 47.8485C134.544 47.0282 134.55 46.207 134.55 45.3523C134.988 45.3523 135.393 45.3171 135.788 45.3607C136.314 45.4193 136.582 46.0612 136.294 46.5061C136.243 46.5857 136.173 46.6536 136.112 46.7265C136.073 46.7265 136.152 46.7265 136.112 46.7265C136.385 46.7416 136.297 47.5619 136.328 47.9708V47.9717ZM134.912 46.6058C135.291 46.5765 135.705 46.7583 135.968 46.3972C136.06 46.2723 136.049 45.9715 135.955 45.8442C135.686 45.483 135.275 45.6891 134.912 45.6405V46.6058Z" fill="white"/>
<path d="M138.26 45.3397C138.766 45.3397 139.255 45.3355 139.742 45.3456C139.8 45.3464 139.796 45.628 139.734 45.6305C139.368 45.6456 139.001 45.638 138.606 45.638V46.5187C138.949 46.5187 139.288 46.5078 139.626 46.5262C139.718 46.5313 139.721 46.8237 139.629 46.8287C139.299 46.8472 138.968 46.8363 138.607 46.8363V47.7186C138.955 47.7186 139.318 47.7077 139.68 47.7262C139.767 47.7304 139.768 48.0152 139.685 48.0169C139.22 48.0295 138.755 48.0228 138.26 48.0228V45.3397Z" fill="white"/>
<path d="M120.139 46.8355V47.7187C120.506 47.7187 120.87 47.7145 121.235 47.7204C121.459 47.7237 121.459 47.7304 121.45 48.0053H119.794V45.3406C120.305 45.3406 120.804 45.3364 121.303 45.3473C121.359 45.3482 121.34 45.6306 121.273 45.6331C120.906 45.6473 120.539 45.6398 120.144 45.6398V46.5204C120.452 46.5204 120.756 46.5045 121.057 46.528C121.183 46.538 121.193 46.8213 121.074 46.8296C120.771 46.8498 120.466 46.8363 120.139 46.8363L120.139 46.8355Z" fill="white"/>
<path d="M115.729 45.3859C116.011 45.2786 116.107 45.375 116.165 45.5903C116.364 46.326 116.54 46.9444 116.825 47.686C116.962 47.2109 117.137 46.8506 117.274 46.3763C117.35 46.1124 117.438 45.8501 117.493 45.582C117.542 45.3415 117.666 45.2937 117.92 45.385C117.677 46.223 117.446 47.0609 117.177 47.8871C117.15 47.9692 116.892 48.0136 116.741 48.0128C116.643 48.0128 116.483 47.9173 116.457 47.8326C116.202 47.024 115.969 46.2079 115.728 45.3859H115.729Z" fill="white"/>
<path d="M128.158 45.639C128.158 46.3722 128.154 47.0602 128.16 47.7481C128.162 47.9593 128.107 48.0766 127.827 47.9853V45.6575H127.075C127.049 45.6265 127.015 45.3525 127.085 45.35C127.611 45.3315 128.249 45.334 128.775 45.3449C128.842 45.3466 128.844 45.6231 128.774 45.6315C128.594 45.6516 128.41 45.6382 128.159 45.6382L128.158 45.639Z" fill="white"/>
<path d="M137.409 38.2124V36.3145H139.163V38.2124H137.409Z" fill="white"/>
</g>
<defs>
<clipPath id="clip0_15_4654">
<rect width="94.375" height="16.25" fill="white" transform="translate(49.479 31.875)"/>
</clipPath>
</defs>
</svg>
