<svg width="194" height="65" viewBox="0 0 194 65" fill="none" xmlns="http://www.w3.org/2000/svg">
<g clip-path="url(#clip0_3_2790)">
<path d="M71.1586 52.6887H57.1689C56.7851 52.6887 56.4246 52.4837 56.2297 52.1549C56.0349 51.8262 56.031 51.4143 56.2181 51.0817L58.6088 46.8386H52.0309C51.7055 46.8386 51.4035 46.6646 51.2437 46.3842C51.2418 46.3783 51.2379 46.3745 51.2359 46.3687C51.1794 46.3126 51.1307 46.2488 51.0898 46.1791L48.5179 41.8917L46.0278 46.1579C45.8427 46.477 45.4978 46.6743 45.1276 46.6743C45.1257 46.6743 45.1237 46.6743 45.1217 46.6743C44.7496 46.6723 44.4028 46.4692 44.2216 46.1482L36.8 33.0749C36.6188 32.7558 36.6227 32.3594 36.8098 32.0442L44.2314 19.4892C44.4164 19.1759 44.7574 18.9806 45.1237 18.9786C45.1257 18.9786 45.1276 18.9786 45.1295 18.9786C45.492 18.9786 45.8329 19.1701 46.0219 19.4776L48.4146 23.415L51.0918 18.9497C51.121 18.9013 51.1541 18.8549 51.1911 18.8104L51.4853 18.294L52.0055 18.2882H58.7588L55.8108 12.8849L56.3213 12.0185L56.8318 12.0107H71.7762L72.0413 12.4555L79.42 25.2194C79.5992 25.5307 79.5992 25.9156 79.418 26.2269C79.2368 26.5383 78.8997 26.7298 78.5393 26.7298H73.3019L76.3823 31.8663C76.507 32.0732 76.5518 32.3111 76.5187 32.5431C76.5616 32.781 76.5207 33.0285 76.396 33.2432L73.3896 38.3951H78.4107C78.8004 38.3951 79.1627 38.604 79.3556 38.9405C79.5486 39.277 79.5446 39.6928 79.3459 40.0255L72.0939 52.1588C71.899 52.4857 71.5405 52.6887 71.1586 52.6887ZM58.3048 50.9482H70.7806L77.2436 40.1357H72.3744L68.7309 46.3764C68.5633 46.6607 68.2516 46.8386 67.9184 46.8386H60.6196L58.3048 50.9482ZM52.7674 46.3667L52.7635 46.3726C52.7655 46.3706 52.7655 46.3686 52.7674 46.3667ZM61.6016 45.0962H67.4507L70.3461 40.1337H64.3956L61.6016 45.0962ZM53.5273 45.0962H59.5908L63.0571 38.9463C63.2499 38.6059 63.6124 38.3932 64.0059 38.3932H71.3613L74.2566 33.4308H60.5202L53.5273 45.0962ZM49.5272 40.1647L51.9861 44.2665L59.0043 32.5625L51.9861 20.8584L49.4414 25.1034L53.652 32.0306C53.8488 32.3536 53.8526 32.7558 53.6617 33.0827L49.5272 40.1647ZM38.5263 32.5721L45.1354 44.2143L47.491 40.1782L43.2415 33.0924C43.0467 32.7655 43.0467 32.3613 43.2415 32.0345L47.3936 25.1092L45.1373 21.3922L38.5263 32.5721ZM44.9678 32.5625L48.5003 38.4512L51.9335 32.5702L48.4244 26.7975L44.9678 32.5625ZM60.5221 31.6922H74.2371L71.2619 26.7298H63.3746L63.1116 26.2714L59.7077 20.0268H53.5273L60.5221 31.6922ZM72.2595 24.9893H77.2669L70.7709 13.7513H58.2795L60.752 18.2882H67.6027C67.9963 18.2882 68.3646 18.4971 68.5653 18.8317L72.2595 24.9893ZM64.4054 24.9893H70.2195L67.2442 20.0268H61.7029L64.4054 24.9893ZM52.7499 18.7292L52.7518 18.7311C52.7499 18.7311 52.7499 18.7311 52.7499 18.7292Z" fill="white"/>
<path d="M90.3315 42.6844C89.4586 41.7464 89.0222 40.4005 89.0222 38.6464V22.123H92.4514V38.894C92.4514 39.6365 92.6015 40.1742 92.9034 40.503C93.2035 40.8336 93.636 40.998 94.1972 40.998C94.7584 40.998 95.189 40.8336 95.491 40.503C95.793 40.1723 95.943 39.6365 95.943 38.894V22.123H99.2476V38.6464C99.2476 40.4005 98.8111 41.7464 97.9382 42.6844C97.0653 43.6224 95.7969 44.0923 94.1349 44.0923C92.4709 44.0923 91.2045 43.6224 90.3315 42.6844Z" fill="white"/>
<path d="M101.678 22.123H105.98L109.316 35.088H109.378V22.123H112.434V43.7828H108.911L104.796 27.9712H104.734V43.7828H101.678V22.123Z" fill="white"/>
<path d="M114.989 22.123H118.418V43.7828H114.989V22.123Z" fill="white"/>
<path d="M120.975 22.123H126.213C127.916 22.123 129.194 22.5775 130.047 23.4845C130.899 24.3915 131.326 25.724 131.326 27.4761V38.4298C131.326 40.1839 130.899 41.5144 130.047 42.4214C129.194 43.3304 127.916 43.7828 126.213 43.7828H120.975V22.123ZM126.151 40.6886C126.712 40.6886 127.142 40.5242 127.444 40.1936C127.744 39.8628 127.897 39.3271 127.897 38.5845V27.3214C127.897 26.5788 127.744 26.043 127.444 25.7124C127.142 25.3817 126.712 25.2173 126.151 25.2173H124.405V40.6886H126.151Z" fill="white"/>
<path d="M133.632 22.123H142.984V25.2173H137.061V30.9417H141.769V34.0359H137.061V40.6886H142.984V43.7828H133.632V22.123Z" fill="white"/>
<path d="M148.036 32.7054L144.264 22.123H147.88L150.187 29.1161H150.249L152.619 22.123H155.861L152.088 32.7054L156.048 43.7828H152.431L149.937 36.2329H149.876L147.319 43.7828H144.077L148.036 32.7054Z" fill="white"/>
</g>
<defs>
<clipPath id="clip0_3_2790">
<rect width="120" height="40.678" fill="white" transform="translate(36.6667 12.0107)"/>
</clipPath>
</defs>
</svg>
