<svg width="194" height="80" viewBox="0 0 194 80" fill="none" xmlns="http://www.w3.org/2000/svg">
<path fill-rule="evenodd" clip-rule="evenodd" d="M97.6287 32.9459C99.5144 32.3697 101.505 32.5443 103.251 33.4697C104.979 34.3777 106.272 35.9316 106.848 37.7999C108.052 41.6935 105.87 45.8317 101.994 47.0364C101.278 47.2634 100.545 47.3682 99.8112 47.3682C96.5461 47.3682 93.7175 45.2904 92.7572 42.1824C92.181 40.2967 92.3556 38.3062 93.281 36.5602C94.2064 34.8142 95.7429 33.5221 97.6287 32.9459ZM96.3017 38.1491C95.8128 39.0745 95.708 40.157 96.0223 41.1697C96.3366 42.1824 97.0175 43.0205 97.9604 43.5094C98.9033 43.9983 99.9683 44.1031 100.981 43.7888C101.994 43.4745 102.832 42.7935 103.321 41.8507C103.81 40.9078 103.914 39.8427 103.6 38.83C103.286 37.8173 102.605 36.9792 101.662 36.4904C100.737 36.0015 99.6366 35.8967 98.6413 36.211C97.6287 36.5253 96.7906 37.2062 96.3017 38.1491Z" fill="white" fill-opacity="0.98"/>
<path fill-rule="evenodd" clip-rule="evenodd" d="M114.949 32.9634C116.835 32.3872 118.826 32.5618 120.572 33.4872C122.3 34.4126 123.592 35.9491 124.168 37.8173C125.373 41.711 123.191 45.8491 119.314 47.0539C118.599 47.2809 117.865 47.3856 117.132 47.3856C113.867 47.3856 111.038 45.3078 110.078 42.1999C109.502 40.3142 109.676 38.3237 110.602 36.5777C111.527 34.8316 113.064 33.5396 114.949 32.9634ZM113.622 38.1666C113.133 39.092 113.029 40.1745 113.343 41.1872C113.657 42.1999 114.338 43.038 115.281 43.5269C116.224 44.0158 117.289 44.1205 118.302 43.8062C119.314 43.492 120.153 42.811 120.641 41.8681C121.13 40.9253 121.235 39.8602 120.921 38.8475C120.606 37.8348 119.926 36.9967 118.983 36.5078C118.057 36.0189 116.957 35.9142 115.962 36.2285C114.949 36.5427 114.111 37.2237 113.622 38.1666Z" fill="white" fill-opacity="0.98"/>
<path d="M90.9937 32.7364H87.3969L85.7381 38.1491H89.2826L90.9937 32.7364Z" fill="white" fill-opacity="0.98"/>
<path d="M82.7699 37.8872L84.5508 42.0602L85.1969 39.9301H88.7239L86.7334 46.4078C86.5762 46.9142 86.1048 47.2634 85.5635 47.2634H83.5556C83.0667 47.2634 82.6127 46.9666 82.4207 46.4951L80.2207 41.1174L78.0381 46.4777C77.8635 46.9317 77.4095 47.2459 76.9032 47.2459H74.8778C74.3365 47.2459 73.8651 46.8967 73.7079 46.3904L69.5 32.7364H73.0445L75.8381 42.0602L77.6889 37.8523C78.0905 36.8046 79.1032 36.1237 80.2207 36.1237C81.3556 36.1237 82.3683 36.8221 82.7699 37.8872Z" fill="white" fill-opacity="0.98"/>
</svg>
