<svg width="194" height="65" viewBox="0 0 194 65" fill="none" xmlns="http://www.w3.org/2000/svg">
<g clip-path="url(#clip0_3_2776)">
<path d="M70.0405 21.7295C64.1756 21.7295 59.4199 26.4851 59.4199 32.35C59.4199 38.2149 64.1756 42.9706 70.0405 42.9706C75.9054 42.9706 80.6611 38.2149 80.6611 32.35C80.6611 26.4851 75.9054 21.7295 70.0405 21.7295ZM70.0405 38.0536C66.8897 38.0536 64.3369 35.5008 64.3369 32.35C64.3369 29.1993 66.8897 26.6464 70.0405 26.6464C73.1913 26.6464 75.7442 29.1993 75.7442 32.35C75.7442 35.5008 73.1913 38.0536 70.0405 38.0536Z" fill="white"/>
<path d="M94.8257 21.7295C88.9607 21.7295 84.2051 26.4851 84.2051 32.35C84.2051 38.2149 88.9607 42.9706 94.8257 42.9706C100.691 42.9706 105.446 38.2149 105.446 32.35C105.446 26.4851 100.691 21.7295 94.8257 21.7295ZM94.8257 38.0536C91.6749 38.0536 89.122 35.5008 89.122 32.35C89.122 29.1993 91.6749 26.6464 94.8257 26.6464C97.9764 26.6464 100.529 29.1993 100.529 32.35C100.529 35.5008 97.9764 38.0536 94.8257 38.0536Z" fill="white"/>
<path d="M27.3362 22.123H32.4773L36.5171 35.3318L39.2706 28.515C39.6325 27.6221 40.4978 27.04 41.4576 27.04H43.4165C44.3803 27.04 45.2456 27.6221 45.6036 28.515L48.3571 35.3318L49.8715 30.3835H55.0126L51.795 40.9057C51.4921 41.8969 50.5756 42.5774 49.5371 42.5774H47.7356C46.7719 42.5774 45.9065 41.9952 45.5485 41.1023L42.4371 33.4044L39.3256 41.1023C38.9638 41.9952 38.0984 42.5774 37.1386 42.5774H35.337C34.2986 42.5774 33.382 41.9008 33.0792 40.9057L27.3362 22.123Z" fill="white"/>
<path d="M52.3971 22.1226L50.8945 27.0395H56.0357L57.5422 22.1226H52.3971Z" fill="white"/>
<path d="M122.492 27.0395V22.1226H113.74C111.569 22.1226 109.807 23.8848 109.807 26.0561V42.7736H114.527V35.1032H122.492V30.383H114.527V27.0395H122.492Z" fill="white"/>
<path d="M131.935 22.1226H127.215V27.0395H131.935V22.1226Z" fill="white"/>
<path d="M131.935 30.3833H127.215V42.7739H131.935V30.3833Z" fill="white"/>
<path d="M161.12 26.4341C160.652 25.9149 159.987 25.6553 159.145 25.6553C158.304 25.6553 157.651 25.9149 157.183 26.4341C156.715 26.9533 156.482 27.7164 156.482 28.7352V29.7265C156.482 30.7374 156.715 31.5005 157.183 32.0237C157.647 32.5468 158.304 32.8064 159.145 32.8064C159.987 32.8064 160.644 32.5468 161.116 32.0237C161.588 31.5005 161.82 30.7374 161.82 29.7265V28.7352C161.82 27.7204 161.588 26.9533 161.12 26.4341ZM160.408 29.7304C160.408 30.9891 159.983 31.6185 159.145 31.6185C158.308 31.6185 157.895 30.9891 157.895 29.7304V28.7392C157.895 27.4804 158.312 26.8511 159.145 26.8511C159.979 26.8511 160.408 27.4804 160.408 28.7392V29.7304Z" fill="white"/>
<path d="M155.193 32.7158L153.75 29.746C154.544 29.4156 154.942 28.7941 154.942 27.8776C154.942 27.1931 154.713 26.666 154.261 26.3002C153.809 25.9344 153.168 25.7495 152.338 25.7495H149.844V32.7119H151.256V29.9781H152.389L153.64 32.7119H153.636L155.189 32.7158H155.193ZM153.223 28.5817C153.01 28.7154 152.676 28.7823 152.212 28.7823H151.264V26.9453H152.212C152.668 26.9453 153.002 27.0161 153.215 27.1577C153.427 27.2993 153.533 27.5393 153.533 27.8736C153.533 28.208 153.427 28.444 153.219 28.5777L153.223 28.5817Z" fill="white"/>
<path d="M147.664 26.3199C147.211 25.9383 146.57 25.7495 145.74 25.7495H143.246V32.7119H144.658V30.2573H145.736C146.551 30.2573 147.188 30.0567 147.648 29.6555C148.108 29.2582 148.34 28.7036 148.34 27.9759C148.34 27.2482 148.112 26.6975 147.66 26.3159L147.664 26.3199ZM146.598 28.8059C146.377 28.9789 146.023 29.0694 145.54 29.0694H144.662V26.9492H145.54C146.468 26.9492 146.932 27.2915 146.932 27.9759C146.932 28.3535 146.822 28.6289 146.598 28.8059Z" fill="white"/>
<path d="M160.228 22.9604C163.686 22.9604 166.498 25.7729 166.498 29.2304C166.498 32.688 163.686 35.5005 160.228 35.5005H143.754C140.297 35.5005 137.484 32.688 137.484 29.2304C137.484 25.7729 140.297 22.9604 143.754 22.9604H160.228ZM160.228 22.1226H143.754C139.829 22.1226 136.65 25.3048 136.65 29.2265C136.65 33.1482 139.833 36.3305 143.754 36.3305H160.228C164.154 36.3305 167.332 33.1482 167.332 29.2265C167.332 25.3048 164.15 22.1226 160.228 22.1226Z" fill="white"/>
</g>
<defs>
<clipPath id="clip0_3_2776">
<rect width="139.999" height="21.2411" fill="white" transform="translate(27.334 21.7295)"/>
</clipPath>
</defs>
</svg>
