<svg width="81" height="25" viewBox="0 0 81 25" fill="none" xmlns="http://www.w3.org/2000/svg">
<g id="LJSF70D2J97L7 1" clip-path="url(#clip0_1223_9891)">
<path id="Vector" d="M60.795 23.5034H79.9168L77.6159 18.1597H67.3172V14.5655H75.314V9.61048H67.318V6.17728H77.6132L79.9213 0.87005L60.795 0.834473V23.5034ZM20.4157 0.834473L22.4721 6.07055H26.9086V23.5034H32.9825V6.07055H37.4875L39.542 0.834473H20.4157ZM10.9682 18.2869C12.7764 18.2869 13.8179 17.5611 13.8179 16.2679V16.2056C13.8179 15.0066 12.8983 14.2186 10.9068 14.2186H6.37164V18.2869H10.9682ZM10.1099 9.92978C11.9181 9.92978 12.9294 9.29829 12.9294 8.00594V7.9428C12.9294 6.74473 12.0097 6.05009 10.2327 6.05009H6.37253V9.92978H10.1099ZM39.4753 19.8709L42.816 15.832C44.9507 17.554 47.3317 18.4621 49.8372 18.4621C51.4462 18.4621 52.3125 17.8982 52.3125 16.9589V16.8967C52.3125 15.9895 51.6009 15.4878 48.6623 14.7985C44.0532 13.7348 40.4964 12.4193 40.4964 7.91078V7.84852C40.4955 3.77671 43.6823 0.834473 48.8784 0.834473C52.5597 0.834473 55.4361 1.83686 57.7869 3.74647L54.7869 8.03619C52.807 6.62644 50.6421 5.87487 48.7236 5.87487C47.2703 5.87487 46.5588 6.50192 46.5588 7.28462V7.34688C46.5588 8.34927 47.3014 8.78775 50.3015 9.47617C55.2823 10.5719 58.3748 12.1996 58.3748 16.3017V16.3639C58.3748 20.8422 54.8794 23.5034 49.6211 23.5034C45.7858 23.5034 42.1356 22.2822 39.4753 19.8709ZM0.580566 1.13065H11.581C14.2769 1.13065 16.1767 1.82441 17.4335 3.11764C18.2909 4.00084 18.8121 5.16777 18.8121 6.68158V6.74384C18.8121 9.29918 17.4024 10.8121 15.5034 11.6642C18.1077 12.5474 19.762 14.0612 19.762 17.0568V17.1199C19.762 20.9045 16.7593 23.2072 11.6415 23.2072H0.581456V1.13154L0.580566 1.13065Z" fill="white"/>
</g>
<defs>
<clipPath id="clip0_1223_9891">
<rect width="80.0487" height="24.0146" fill="white" transform="translate(0.355469 0.834473)"/>
</clipPath>
</defs>
</svg>
