<svg width="29" height="23" viewBox="0 0 29 23" fill="none" xmlns="http://www.w3.org/2000/svg">
<path d="M24.7123 2.54414C27.8827 7.23847 29.4484 12.5335 28.8631 18.6294C28.8606 18.6552 28.8473 18.6789 28.8262 18.6944C26.4254 20.4698 24.0993 21.5473 21.8058 22.2618C21.788 22.2673 21.7689 22.267 21.7512 22.2609C21.7335 22.2549 21.7181 22.2435 21.7072 22.2282C21.1774 21.4858 20.6959 20.703 20.2742 19.8811C20.25 19.8326 20.2721 19.7743 20.3219 19.7553C21.0865 19.4651 21.8136 19.1174 22.5129 18.7057C22.568 18.6732 22.5715 18.5937 22.5206 18.5555C22.3722 18.4446 22.2252 18.3279 22.0844 18.2113C22.0581 18.1898 22.0227 18.1855 21.9929 18.2C17.4526 20.3115 12.479 20.3115 7.88504 18.2C7.85521 18.1866 7.81977 18.1912 7.79415 18.2124C7.6538 18.329 7.50642 18.4446 7.35939 18.5555C7.30851 18.5937 7.31272 18.6732 7.36817 18.7057C8.0675 19.1096 8.79456 19.4651 9.55812 19.7567C9.60759 19.7758 9.6311 19.8326 9.60654 19.8811C9.19388 20.7041 8.71245 21.4868 8.17277 22.2293C8.14926 22.2593 8.11066 22.2731 8.07417 22.2618C5.79158 21.5473 3.46549 20.4698 1.06465 18.6944C1.04464 18.6789 1.03026 18.6541 1.02815 18.6283C0.539001 13.3555 1.5359 8.01661 5.17506 2.54308C5.18383 2.52859 5.19716 2.51728 5.2126 2.51057C7.00323 1.68295 8.92159 1.07407 10.9266 0.726343C10.9631 0.720689 10.9996 0.737651 11.0186 0.770163C11.2663 1.21189 11.5495 1.77836 11.741 2.24129C13.8545 1.91618 16.0009 1.91618 18.1586 2.24129C18.3502 1.78826 18.6235 1.21189 18.8702 0.770163C18.879 0.754034 18.8926 0.741113 18.9091 0.733244C18.9257 0.725374 18.9442 0.722959 18.9622 0.726343C20.9682 1.07513 22.8866 1.68401 24.6758 2.51057C24.6916 2.51728 24.7046 2.52859 24.7123 2.54414ZM12.8155 12.5696C12.8376 11.0108 11.7091 9.72097 10.2925 9.72097C8.88755 9.72097 7.76994 10.9995 7.76994 12.5696C7.76994 14.1393 8.90966 15.4178 10.2925 15.4178C11.6979 15.4178 12.8155 14.1393 12.8155 12.5696ZM22.143 12.5696C22.1652 11.0108 21.0367 9.72097 19.6204 9.72097C18.2151 9.72097 17.0975 10.9995 17.0975 12.5696C17.0975 14.1393 18.2372 15.4178 19.6204 15.4178C21.0367 15.4178 22.143 14.1393 22.143 12.5696Z" fill="white"/>
</svg>
