<svg width="23" height="23" viewBox="0 0 23 23" fill="none" xmlns="http://www.w3.org/2000/svg">
<path d="M5.52909 22.2652V7.73112H0.702466V22.2652H5.52959H5.52909ZM3.11679 5.74707C4.79958 5.74707 5.84723 4.63102 5.84723 3.23628C5.81573 1.80975 4.79958 0.724854 3.14879 0.724854C1.49687 0.724854 0.417969 1.80975 0.417969 3.23615C0.417969 4.6309 1.46524 5.74695 3.08516 5.74695H3.11641L3.11679 5.74707ZM8.20069 22.2652H13.0269V14.1496C13.0269 13.7158 13.0584 13.2808 13.1859 12.971C13.5347 12.1027 14.3288 11.204 15.6625 11.204C17.4085 11.204 18.1074 12.5367 18.1074 14.4907V22.2652H22.9336V13.9318C22.9336 9.46774 20.5528 7.39037 17.3773 7.39037C14.7739 7.39037 13.6305 8.84679 12.9952 9.83874H13.0273V7.73162H8.20094C8.26394 9.09509 8.20056 22.2657 8.20056 22.2657L8.20069 22.2652Z" fill="white"/>
</svg>
