<svg width="41" height="41" viewBox="0 0 41 41" fill="none" xmlns="http://www.w3.org/2000/svg">
<path fill-rule="evenodd" clip-rule="evenodd" d="M20.4539 0.534668L20.549 0.534668C25.5635 0.54632 30.1444 2.40116 33.6487 5.45682C33.897 5.67334 33.7397 6.0707 33.4101 6.0707L7.59279 6.0707C7.26316 6.0707 7.1059 5.67334 7.35421 5.45682C10.8585 2.40116 15.4394 0.546319 20.4539 0.534668Z" fill="white"/>
<path fill-rule="evenodd" clip-rule="evenodd" d="M12.7219 25.9492C12.5788 25.7454 12.3484 25.6173 12.0992 25.6173L1.75441 25.6173C1.45473 25.6173 1.23623 25.9011 1.32127 26.1881C3.77052 34.4548 11.431 40.4862 20.5018 40.4862C29.5726 40.4862 37.2331 34.4548 39.6823 26.1882C39.7674 25.9011 39.5489 25.6173 39.2492 25.6173L28.9046 25.6173C28.6553 25.6173 28.4249 25.7454 28.2818 25.9492C26.5644 28.3952 23.7201 29.9942 20.5019 29.9942C17.2836 29.9942 14.4393 28.3952 12.7219 25.9492Z" fill="white"/>
<path fill-rule="evenodd" clip-rule="evenodd" d="M28.0337 14.7332C28.2166 14.9707 28.4951 15.1196 28.795 15.1196L39.1629 15.1196C39.4654 15.1196 39.6844 14.8313 39.5941 14.5429C38.8106 12.0394 37.5472 9.74776 35.9114 7.77531C35.7752 7.61112 35.5719 7.51843 35.3584 7.51843L5.6449 7.51843C5.43145 7.51843 5.22807 7.61112 5.09191 7.77531C3.45612 9.74776 2.19267 12.0394 1.40919 14.5429C1.31894 14.8313 1.53796 15.1196 1.84045 15.1196L12.2083 15.1196C12.5083 15.1196 12.7868 14.9707 12.9696 14.7332C14.7056 12.4784 17.4337 11.0252 20.5017 11.0252C23.5696 11.0252 26.2977 12.4784 28.0337 14.7332Z" fill="white"/>
<path fill-rule="evenodd" clip-rule="evenodd" d="M29.6752 24.1724C29.4794 24.1724 29.3463 23.973 29.414 23.7895C29.7903 22.7684 29.9958 21.6648 29.9958 20.5132C29.9958 19.2579 29.7516 18.0594 29.308 16.9628C29.2332 16.7779 29.3665 16.5712 29.5662 16.5712L39.7361 16.5712C39.9538 16.5712 40.1419 16.7246 40.1806 16.9386C40.3904 18.0985 40.5 19.2933 40.5 20.5135C40.5 21.6324 40.4079 22.7297 40.2309 23.7984C40.1949 24.0155 40.0054 24.1724 39.7852 24.1724L29.6752 24.1724ZM11.586 23.7895C11.6537 23.973 11.5206 24.1724 11.3248 24.1724L1.21483 24.1724C0.994558 24.1724 0.80507 24.0155 0.769116 23.7984C0.592091 22.7297 0.5 21.6324 0.5 20.5135C0.5 19.2933 0.60955 18.0985 0.819363 16.9386C0.858082 16.7246 1.04616 16.5712 1.26394 16.5712L11.4338 16.5712C11.6335 16.5712 11.7667 16.7779 11.692 16.9628C11.2484 18.0594 11.0042 19.2579 11.0042 20.5132C11.0042 21.6648 11.2097 22.7684 11.586 23.7895Z" fill="white"/>
</svg>
