<svg width="196" height="23" viewBox="0 0 196 23" fill="none" xmlns="http://www.w3.org/2000/svg">
<path d="M22.1562 17.4544H25.9456V12.4233C25.9456 9.40004 27.7248 8.54614 29.3884 8.54614C29.6888 8.54614 29.9661 8.56922 30.3589 8.61537V5.43057C29.9892 5.33826 29.6888 5.31518 29.4346 5.31518C27.6093 5.31518 26.4771 6.53833 26.015 8.43075H25.9456V5.45365H22.1562V17.4544Z" fill="white"/>
<path d="M36.8575 17.6851C38.6366 17.6851 39.8612 16.7389 40.1847 15.8389V17.4544H43.9741V1.29956H40.1847V7.06913C39.8612 6.16908 38.6366 5.22287 36.8575 5.22287C34.4082 5.22287 31.6355 7.02297 31.6355 11.454C31.6355 15.9081 34.4082 17.6851 36.8575 17.6851ZM35.1938 11.454C35.1938 9.3308 36.4647 8.36151 37.8048 8.36151C39.1218 8.36151 40.3465 9.3308 40.3465 11.454C40.3465 13.5772 39.1218 14.5465 37.8048 14.5465C36.4647 14.5465 35.1938 13.5772 35.1938 11.454Z" fill="white"/>
<path d="M52.5777 17.6851C55.5352 17.6851 57.6841 16.162 58.2386 13.3926H54.9114C54.7034 14.1772 54.1951 14.8234 52.647 14.8234C51.1682 14.8234 50.244 14.1542 50.036 12.4002H58.3311C58.3773 12.1233 58.4004 11.8925 58.4004 11.454C58.4004 6.76911 55.6739 5.22287 52.5777 5.22287C49.3659 5.22287 46.4546 6.93066 46.4546 11.4078C46.4546 16.0697 49.597 17.6851 52.5777 17.6851ZM50.0591 10.2078C50.2902 8.82308 51.0758 8.08457 52.4852 8.08457C54.2182 8.08457 54.7496 9.16925 54.819 10.2078H50.0591Z" fill="white"/>
<path d="M60.8579 17.4544H64.6473V12.4233C64.6473 9.40004 66.4265 8.54614 68.0901 8.54614C68.3905 8.54614 68.6678 8.56922 69.0606 8.61537V5.43057C68.6909 5.33826 68.3905 5.31518 68.1363 5.31518C66.3109 5.31518 65.1788 6.53833 64.7166 8.43075H64.6473V5.45365H60.8579V17.4544Z" fill="white"/>
<path d="M71.2764 17.4544H75.0658V1.29956H71.2764V17.4544Z" fill="white"/>
<path d="M78.3645 18.9314V22.1162C82.0846 22.5085 83.6327 21.2623 85.2501 17.3159L90.1024 5.45365H86.2206L83.5865 12.631L81.0217 5.45365H77.163L81.5301 16.2312C81.8304 16.9466 81.8535 17.3159 81.5994 17.8928C81.3914 18.3544 80.86 19.2545 78.3645 18.9314Z" fill="white"/>
<path d="M98.3348 17.4544H102.194V7.80763H102.286L108.109 17.4544H112.268V1.29956H108.386V11.2001H108.294L102.332 1.29956H98.3348V17.4544Z" fill="white"/>
<path d="M120.842 17.6851C123.8 17.6851 125.949 16.162 126.503 13.3926H123.176C122.968 14.1772 122.46 14.8234 120.912 14.8234C119.433 14.8234 118.509 14.1542 118.301 12.4002H126.596C126.642 12.1233 126.665 11.8925 126.665 11.454C126.665 6.76911 123.939 5.22287 120.842 5.22287C117.631 5.22287 114.719 6.93066 114.719 11.4078C114.719 16.0697 117.862 17.6851 120.842 17.6851ZM118.324 10.2078C118.555 8.82308 119.341 8.08457 120.75 8.08457C122.483 8.08457 123.014 9.16925 123.084 10.2078H118.324Z" fill="white"/>
<path d="M134.622 17.6159C135.338 17.6159 136.031 17.5236 136.609 17.362V14.5696C136.078 14.6157 135.87 14.6157 135.615 14.6157C134.391 14.6157 134.16 13.9465 134.16 13.1156V8.38459H136.517V5.45365H134.16V2.31501H130.37V5.45365H128.314V8.38459H130.37V13.6464C130.37 16.4389 132.034 17.6159 134.622 17.6159Z" fill="white"/>
<path d="M141.474 17.4544H145.748L147.666 10.4847L149.584 17.4544H153.835L156.978 5.45365H153.396L151.525 13.808H151.432L149.283 5.45365H146.025L143.877 13.808H143.784L141.913 5.45365H138.354L141.474 17.4544Z" fill="white"/>
<path d="M164.265 17.6851C167.292 17.6851 170.365 15.862 170.365 11.454C170.365 7.04605 167.292 5.22287 164.265 5.22287C161.215 5.22287 158.165 7.04605 158.165 11.454C158.165 15.862 161.215 17.6851 164.265 17.6851ZM161.7 11.454C161.7 9.3308 162.786 8.36151 164.265 8.36151C165.721 8.36151 166.807 9.3308 166.807 11.454C166.807 13.5772 165.721 14.5465 164.265 14.5465C162.786 14.5465 161.7 13.5772 161.7 11.454Z" fill="white"/>
<path d="M172.817 17.4544H176.606V12.4233C176.606 9.40004 178.385 8.54614 180.049 8.54614C180.349 8.54614 180.626 8.56922 181.019 8.61537V5.43057C180.649 5.33826 180.349 5.31518 180.095 5.31518C178.27 5.31518 177.137 6.53833 176.675 8.43075H176.606V5.45365H172.817V17.4544Z" fill="white"/>
<path d="M183.235 17.4544H187.024V13.9926L187.972 12.9772L191.553 17.4544H195.712L190.282 10.5309L195.088 5.45365H190.952L187.024 9.93084V1.29956H183.235V17.4544Z" fill="white"/>
<path fill-rule="evenodd" clip-rule="evenodd" d="M9.85352 0L9.89847 3.30301e-09C12.2696 0.0055096 14.4358 0.882598 16.0928 2.32751C16.2103 2.42989 16.1359 2.61779 15.98 2.61779L3.77197 2.61779C3.6161 2.61779 3.54174 2.42989 3.65915 2.3275C5.31619 0.882597 7.48236 0.00550925 9.85352 0Z" fill="white"/>
<path fill-rule="evenodd" clip-rule="evenodd" d="M6.19659 12.0178C6.12893 11.9214 6.01998 11.8608 5.90213 11.8608L1.01046 11.8608C0.868747 11.8608 0.765426 11.995 0.805638 12.1308C1.9638 16.0398 5.58614 18.8918 9.87541 18.8918C14.1647 18.8918 17.787 16.0398 18.9452 12.1308C18.9854 11.995 18.8821 11.8608 18.7404 11.8608L13.8488 11.8608C13.7309 11.8608 13.622 11.9214 13.5543 12.0178C12.7422 13.1744 11.3972 13.9305 9.87545 13.9305C8.35366 13.9305 7.00869 13.1744 6.19659 12.0178Z" fill="white"/>
<path fill-rule="evenodd" clip-rule="evenodd" d="M13.4374 6.71385C13.5238 6.82615 13.6555 6.89658 13.7974 6.89658L18.6999 6.89658C18.843 6.89658 18.9465 6.76022 18.9039 6.62386C18.5334 5.44007 17.9359 4.35641 17.1624 3.42371C17.098 3.34608 17.0019 3.30225 16.9009 3.30225L2.8505 3.30225C2.74957 3.30225 2.6534 3.34608 2.58902 3.42371C1.81551 4.35641 1.21807 5.44007 0.847592 6.62386C0.804917 6.76022 0.908484 6.89658 1.05152 6.89658L5.95411 6.89658C6.09595 6.89658 6.22764 6.82615 6.31411 6.71385C7.13499 5.64764 8.42502 4.96049 9.87573 4.96049C11.3264 4.96049 12.6165 5.64764 13.4374 6.71385Z" fill="white"/>
<path fill-rule="evenodd" clip-rule="evenodd" d="M14.2139 11.1773C14.1213 11.1773 14.0583 11.0831 14.0903 10.9963C14.2683 10.5134 14.3654 9.99159 14.3654 9.44707C14.3654 8.85344 14.25 8.28676 14.0402 7.76819C14.0049 7.68075 14.0679 7.58301 14.1623 7.58301L18.9713 7.58301C19.0742 7.58301 19.1632 7.65555 19.1815 7.75677C19.2807 8.30524 19.3325 8.87019 19.3325 9.44721C19.3325 9.97627 19.289 10.4952 19.2052 11.0005C19.1882 11.1032 19.0986 11.1773 18.9945 11.1773L14.2139 11.1773ZM5.66014 10.9963C5.69212 11.0831 5.6292 11.1773 5.5366 11.1773L0.755988 11.1773C0.651827 11.1773 0.562225 11.1032 0.545224 11.0005C0.461515 10.4952 0.417969 9.97627 0.417969 9.44721C0.417969 8.87019 0.469771 8.30524 0.568984 7.75677C0.587293 7.65555 0.676227 7.58301 0.779207 7.58301L5.58817 7.58301C5.6826 7.58301 5.7456 7.68075 5.71023 7.76819C5.5005 8.28676 5.38503 8.85344 5.38503 9.44707C5.38503 9.99159 5.48219 10.5134 5.66014 10.9963Z" fill="white"/>
</svg>
