<svg width="31" height="18" viewBox="0 0 31 18" fill="none" xmlns="http://www.w3.org/2000/svg">
<path d="M17.5649 9.08165C17.5649 13.6885 13.7677 17.4292 9.06369 17.4292C4.3597 17.4292 0.5625 13.6885 0.5625 9.08165C0.5625 4.47485 4.3597 0.734131 9.06369 0.734131C13.7677 0.734131 17.5649 4.47485 17.5649 9.08165ZM26.8784 9.08165C26.8784 13.412 24.9704 16.9316 22.6278 16.9316C20.2853 16.9316 18.3772 13.412 18.3772 9.08165C18.3772 4.75126 20.2853 1.23166 22.6278 1.23166C24.9704 1.23166 26.8784 4.73283 26.8784 9.08165ZM30.6945 9.08165C30.6945 12.9698 30.0333 16.1208 29.2021 16.1208C28.3708 16.1208 27.7096 12.9698 27.7096 9.08165C27.7096 5.19351 28.3708 2.04246 29.2021 2.04246C30.0333 2.04246 30.6945 5.19351 30.6945 9.08165Z" fill="white"/>
</svg>
