<svg width="123" height="33" viewBox="0 0 123 33" fill="none" xmlns="http://www.w3.org/2000/svg">
<g id="Group 11495">
<path id="Vector" d="M61.8691 7.52046V26.1985C61.8691 26.3408 61.7624 26.4831 61.5845 26.4831H59.6277C58.7383 26.4831 57.8844 26.0206 57.3864 25.2735L48.5632 11.6474L48.8478 18.4427V26.2341C48.8478 26.3764 48.7411 26.5187 48.5632 26.5187H46.0017C45.8594 26.5187 45.717 26.4119 45.717 26.2341V7.52046C45.717 7.37815 45.8238 7.23584 46.0017 7.23584H47.9228C48.8123 7.23584 49.6661 7.69834 50.1642 8.44546L58.9873 22.036L58.7027 15.2407V7.52046C58.7027 7.37815 58.8095 7.23584 58.9873 7.23584H61.5489C61.7624 7.23584 61.8691 7.34257 61.8691 7.52046Z" fill="white"/>
<path id="Vector_2" d="M88.1249 26.4475H85.4211C85.2432 26.4475 85.1009 26.2696 85.172 26.0917L92.3586 7.48488C92.4298 7.34257 92.5721 7.23584 92.7144 7.23584H96.1298C96.3077 7.23584 96.45 7.34257 96.4856 7.48488L103.708 26.0917C103.779 26.2696 103.637 26.4475 103.459 26.4475H100.755C100.648 26.4475 100.541 26.3764 100.506 26.2696L94.7067 10.9714C94.6356 10.758 94.2798 10.758 94.2086 10.9714L88.4096 26.2696C88.3384 26.3764 88.2317 26.4475 88.1249 26.4475Z" fill="white"/>
<path id="Vector_3" d="M122.564 26.0206L117.156 19.1186C120.215 18.5494 121.994 16.4859 121.994 13.3195C121.994 9.69067 119.646 7.23584 115.448 7.23584H107.906C107.692 7.23584 107.514 7.41373 107.514 7.62719C107.514 9.05028 108.653 10.1887 110.076 10.1887H115.164C117.689 10.1887 118.899 11.4695 118.899 13.3551C118.899 15.2407 117.725 16.5215 115.164 16.5215H107.977C107.763 16.5215 107.586 16.6994 107.586 16.9128V26.1629C107.586 26.3052 107.692 26.4475 107.87 26.4475H110.432C110.574 26.4475 110.716 26.3408 110.716 26.1629V19.2965H113.669L118.365 25.4158C118.864 26.0918 119.646 26.4475 120.5 26.4475H122.457C122.599 26.4475 122.706 26.1985 122.564 26.0206Z" fill="white"/>
<path id="Vector_4" d="M80.0132 7.23584H68.0948C67.8813 7.23584 67.739 7.37815 67.739 7.59161C67.739 9.0147 68.9131 10.1887 70.3362 10.1887H80.0132C80.1555 10.1887 80.2978 10.082 80.2978 9.90413V7.48488C80.2622 7.34257 80.1555 7.23584 80.0132 7.23584ZM80.0132 23.4946H71.1188C70.9765 23.4946 70.8342 23.3879 70.8342 23.21V18.4071C70.8342 18.2648 70.941 18.1225 71.1188 18.1225H79.3372C79.4795 18.1225 79.6218 18.0157 79.6218 17.8378V15.4186C79.6218 15.2763 79.5151 15.134 79.3372 15.134H68.1304C67.9169 15.134 67.739 15.3119 67.739 15.5253V26.0206C67.739 26.2341 67.9169 26.4119 68.1304 26.4119H80.0132C80.1555 26.4119 80.2978 26.3052 80.2978 26.1273V23.7081C80.2622 23.6013 80.1555 23.4946 80.0132 23.4946Z" fill="white"/>
<path id="Vector_5" d="M26.6474 2.46858L19.9589 12.3946C19.4964 13.0706 20.3859 13.8889 21.0262 13.3196L27.608 7.5917C27.7859 7.44939 28.035 7.55612 28.035 7.80516V25.7005C28.035 25.9495 27.7148 26.0563 27.5725 25.8784L7.64921 2.04166C7.00882 1.25896 6.08381 0.832031 5.05207 0.832031H4.34053C2.49051 0.832031 0.960693 2.36185 0.960693 4.24744V29.4361C0.960693 31.3217 2.49051 32.8515 4.37611 32.8515C5.55015 32.8515 6.65305 32.2467 7.29344 31.215L13.982 21.2889C14.4445 20.613 13.555 19.7947 12.9146 20.3639L6.33285 26.0563C6.15497 26.1986 5.90593 26.0918 5.90593 25.8428V7.98305C5.90593 7.73401 6.22612 7.62727 6.36843 7.80516L26.2917 31.6419C26.9321 32.4246 27.8926 32.8515 28.8888 32.8515H29.6004C31.4859 32.8515 33.0158 31.3217 33.0158 29.4361V4.24744C32.9802 2.36185 31.4504 0.832031 29.5648 0.832031C28.3907 0.832031 27.2878 1.43684 26.6474 2.46858Z" fill="white"/>
</g>
</svg>
