<svg width="118" height="22" viewBox="0 0 118 22" fill="none" xmlns="http://www.w3.org/2000/svg">
<g id="LK0ND2GP2C5FI 1" clip-path="url(#clip0_1223_9894)">
<path id="Vector" d="M14.3501 21.5142H22.1124L14.3501 13.752V21.5142Z" fill="white"/>
<path id="Vector_2" d="M22.113 0.168457L17.585 0.168457L22.113 4.69646V0.168457Z" fill="white"/>
<path id="Vector_3" fill-rule="evenodd" clip-rule="evenodd" d="M14.6735 13.7527C14.565 13.7527 14.4571 13.7499 14.3501 13.7444V8.88534L19.6336 3.9792C20.3787 4.996 20.8186 6.2504 20.8186 7.60756C20.8186 11.0014 18.0673 13.7527 14.6735 13.7527ZM18.2537 2.61244L14.3501 6.23716V1.47077C14.4571 1.46522 14.565 1.4624 14.6735 1.4624C16.0092 1.4624 17.2455 1.8886 18.2537 2.61244Z" fill="white"/>
<path id="Vector_4" fill-rule="evenodd" clip-rule="evenodd" d="M13.7041 1.4624H7.88232V7.2057L10.4946 9.81794L13.7041 6.83772V1.4624ZM13.7041 9.48593L10.4447 12.5125L7.88232 9.95006V21.515H13.7041V9.48593Z" fill="white"/>
<path id="Vector_5" fill-rule="evenodd" clip-rule="evenodd" d="M7.23494 1.4624H0.766357V9.7934L5.61817 4.94157L7.23494 6.55835V1.4624ZM7.23494 9.30273L5.61817 7.68596L0.766357 12.5378V21.515H7.23494V9.30273Z" fill="white"/>
<path id="Vector_6" d="M29.8057 15.9245V5.25132H34.3951C35.7064 5.25132 36.7178 5.60709 37.4293 6.31863C37.9783 6.86754 38.2527 7.56892 38.2527 8.42275V8.45324C38.2527 9.3071 37.9884 9.99834 37.4598 10.5269C36.9313 11.0555 36.2299 11.4011 35.3557 11.5637L38.6339 15.9245H37.1549L34.0597 11.7772H34.0292H31.0102V15.9245H29.8057ZM31.0102 10.6946H34.2884C35.1016 10.6946 35.7623 10.4964 36.2705 10.1C36.7788 9.70353 37.0329 9.16987 37.0329 8.49899V8.46849C37.0329 7.80782 36.789 7.29447 36.301 6.92853C35.8233 6.55242 35.1575 6.36438 34.3036 6.36438H31.0102V10.6946ZM41.1785 12.4633C41.2599 13.2664 41.5597 13.9068 42.0781 14.3845C42.6067 14.8521 43.2318 15.0859 43.9535 15.0859C44.8989 15.0859 45.7273 14.7149 46.4389 13.9728L47.1707 14.6284C46.2864 15.6145 45.2038 16.1074 43.923 16.1074C42.8151 16.1074 41.8799 15.7262 41.1175 14.9639C40.3653 14.1914 39.9892 13.2003 39.9892 11.9906C39.9892 10.8421 40.3501 9.87125 41.0718 9.07839C41.7935 8.27538 42.6931 7.87384 43.7706 7.87384C44.8989 7.87384 45.7934 8.27028 46.4541 9.06314C47.1149 9.856 47.4452 10.8522 47.4452 12.0516C47.4452 12.2041 47.4401 12.3413 47.4299 12.4633H41.1785ZM41.1785 11.518H46.2559C46.1848 10.7556 45.9306 10.1254 45.4935 9.62729C45.0666 9.1191 44.4821 8.86492 43.7401 8.86492C43.0692 8.86492 42.4949 9.11399 42.0171 9.61204C41.5394 10.1102 41.2599 10.7455 41.1785 11.518ZM49.9426 15.9245V9.07839H48.8601V8.05681H49.9426V7.3707C49.9426 6.47619 50.1713 5.80023 50.6288 5.34281C51.0354 4.9362 51.5996 4.73291 52.3212 4.73291C52.8194 4.73291 53.2513 4.79898 53.6173 4.93113V5.9527C53.1497 5.82055 52.7685 5.75448 52.4737 5.75448C51.5589 5.75448 51.1014 6.31355 51.1014 7.43169V8.07206H53.602V9.07839H51.1167V15.9245H49.9426ZM54.2769 15.9245V14.3235H55.6797V15.9245H54.2769Z" fill="white"/>
<path id="Vector_7" d="M63.1653 15.9245V9.07839H62.0828V8.05681H63.1653V7.3707C63.1653 6.47619 63.394 5.80023 63.8515 5.34281C64.258 4.9362 64.8222 4.73291 65.5439 4.73291C66.042 4.73291 66.474 4.79898 66.8399 4.93113V5.9527C66.3724 5.82055 65.9912 5.75448 65.6964 5.75448C64.7816 5.75448 64.3241 6.31355 64.3241 7.43169V8.07206H66.8247V9.07839H64.3394V15.9245H63.1653ZM68.3523 6.31863V5.02261H69.694V6.31863H68.3523ZM68.4285 15.9245V8.04157H69.6025V15.9245H68.4285ZM72.3272 15.9245V8.04157H73.5012V9.41383C74.1213 8.38722 75.0209 7.87384 76.2 7.87384C77.1353 7.87384 77.8725 8.16355 78.4107 8.74295C78.9497 9.31221 79.2188 10.0746 79.2188 11.03V15.9245H78.0448V11.3198C78.0448 10.5777 77.8519 9.99834 77.4654 9.58155C77.0895 9.15462 76.5558 8.94116 75.8646 8.94116C75.1835 8.94116 74.6194 9.16987 74.1721 9.62729C73.7249 10.0847 73.5012 10.6794 73.5012 11.4112V15.9245H72.3272ZM84.0705 16.0922C83.2777 16.0922 82.587 15.8737 81.9969 15.4365C81.4175 14.9995 81.1278 14.3997 81.1278 13.6374V13.6069C81.1278 12.7835 81.4327 12.1482 82.0426 11.7009C82.6525 11.2537 83.4713 11.03 84.4975 11.03C85.3109 11.03 86.1137 11.1419 86.9065 11.3655V11.1215C86.9065 10.4304 86.7038 9.90174 86.2967 9.53581C85.8903 9.16987 85.3162 8.9869 84.5737 8.9869C83.8014 8.9869 83.0032 9.17498 82.1799 9.55105L81.8292 8.59047C82.805 8.14327 83.761 7.91959 84.6957 7.91959C85.8141 7.91959 86.6626 8.20929 87.242 8.78869C87.7909 9.33759 88.0653 10.1102 88.0653 11.1063V15.9245H86.9065V14.7504C86.2052 15.645 85.2598 16.0922 84.0705 16.0922ZM84.2992 15.1468C85.0311 15.1468 85.6517 14.9486 86.1594 14.5522C86.6679 14.1558 86.9218 13.6476 86.9218 13.0275V12.2956C86.1495 12.072 85.3818 11.9601 84.6194 11.9601C83.8982 11.9601 83.3341 12.1076 82.927 12.4023C82.5206 12.687 82.3171 13.0682 82.3171 13.5459V13.5764C82.3171 14.0541 82.5054 14.4353 82.8812 14.7199C83.2678 15.0046 83.7404 15.1468 84.2992 15.1468ZM90.5522 15.9245V8.04157H91.7262V9.41383C92.3468 8.38722 93.2464 7.87384 94.425 7.87384C95.3605 7.87384 96.0977 8.16355 96.6359 8.74295C97.1749 9.31221 97.444 10.0746 97.444 11.03V15.9245H96.27V11.3198C96.27 10.5777 96.0771 9.99834 95.6906 9.58155C95.3147 9.15462 94.7811 8.94116 94.0896 8.94116C93.4088 8.94116 92.8446 9.16987 92.3971 9.62729C91.9504 10.0847 91.7262 10.6794 91.7262 11.4112V15.9245H90.5522ZM103.501 16.1074C102.362 16.1074 101.401 15.706 100.619 14.9029C99.8462 14.0999 99.4605 13.1393 99.4605 12.0211V11.9906C99.4605 10.8623 99.8462 9.89671 100.619 9.09363C101.401 8.28049 102.362 7.87384 103.501 7.87384C104.721 7.87384 105.773 8.34148 106.657 9.2766L105.88 10.1C105.127 9.3071 104.329 8.91067 103.486 8.91067C102.693 8.91067 102.022 9.20547 101.473 9.79501C100.934 10.3846 100.665 11.1063 100.665 11.9601V11.9906C100.665 12.8445 100.939 13.5713 101.488 14.171C102.047 14.7606 102.739 15.0554 103.562 15.0554C104.436 15.0554 105.239 14.664 105.971 13.8813L106.718 14.5827C105.803 15.5992 104.731 16.1074 103.501 16.1074ZM109.137 12.4633C109.218 13.2664 109.518 13.9068 110.037 14.3845C110.565 14.8521 111.19 15.0859 111.912 15.0859C112.858 15.0859 113.686 14.7149 114.398 13.9728L115.129 14.6284C114.245 15.6145 113.163 16.1074 111.882 16.1074C110.773 16.1074 109.839 15.7262 109.076 14.9639C108.324 14.1914 107.948 13.2003 107.948 11.9906C107.948 10.8421 108.309 9.87125 109.03 9.07839C109.752 8.27538 110.651 7.87384 111.729 7.87384C112.858 7.87384 113.752 8.27028 114.413 9.06314C115.073 9.856 115.404 10.8522 115.404 12.0516C115.404 12.2041 115.399 12.3413 115.389 12.4633H109.137ZM109.137 11.518H114.215C114.143 10.7556 113.889 10.1254 113.452 9.62729C113.025 9.1191 112.441 8.86492 111.699 8.86492C111.028 8.86492 110.453 9.11399 109.976 9.61204C109.498 10.1102 109.218 10.7455 109.137 11.518Z" fill="white"/>
</g>
<defs>
<clipPath id="clip0_1223_9894">
<rect width="116.642" height="21.3463" fill="white" transform="translate(0.766357 0.168457)"/>
</clipPath>
</defs>
</svg>
