<svg width="29" height="23" viewBox="0 0 29 23" fill="none" xmlns="http://www.w3.org/2000/svg">
<path d="M28.164 2.84433C27.2756 3.227 26.3416 3.49347 25.3852 3.63716C25.8323 3.56043 26.4903 2.75482 26.7522 2.42874C27.1501 1.93687 27.4534 1.37537 27.6466 0.772753C27.6466 0.727997 27.6913 0.664059 27.6466 0.63209C27.624 0.619779 27.5988 0.613327 27.5731 0.613327C27.5474 0.613327 27.5222 0.619779 27.4996 0.63209C26.4611 1.19501 25.3557 1.62465 24.2098 1.91084C24.1698 1.92305 24.1273 1.92415 24.0868 1.91401C24.0463 1.90387 24.0093 1.88289 23.9798 1.8533C23.8906 1.74699 23.7946 1.64661 23.6923 1.55279C23.2249 1.13365 22.6947 0.790597 22.1209 0.536184C21.3463 0.218144 20.5097 0.0804073 19.6742 0.133377C18.8635 0.184622 18.072 0.402258 17.349 0.772753C16.6369 1.16336 16.0112 1.69402 15.5092 2.33283C14.9812 2.99033 14.6 3.75338 14.3913 4.57065C14.2192 5.34803 14.1996 6.15149 14.3338 6.93634C14.3338 7.07061 14.3338 7.08979 14.2188 7.07061C9.66412 6.39926 5.92709 4.78164 2.87359 1.30983C2.73944 1.15638 2.66917 1.15638 2.56057 1.30983C1.23185 3.33026 1.87705 6.52714 3.53795 8.10639C3.76153 8.31739 3.9915 8.52199 4.23425 8.7138C3.47274 8.65969 2.72982 8.45314 2.04953 8.10639C1.92177 8.02328 1.8515 8.06803 1.84511 8.22148C1.827 8.43422 1.827 8.64812 1.84511 8.86086C1.9784 9.8804 2.37984 10.8462 3.00838 11.6596C3.63692 12.4729 4.47 13.1045 5.42243 13.4899C5.65461 13.5895 5.89654 13.6645 6.14429 13.7137C5.43931 13.8526 4.71628 13.8742 4.00428 13.7777C3.85097 13.7457 3.79347 13.8288 3.85097 13.9759C4.79001 16.5334 6.82781 17.3134 8.32262 17.7482C8.52704 17.7802 8.73146 17.7802 8.96143 17.8313C8.96143 17.8313 8.96143 17.8313 8.9231 17.8697C8.48232 18.6753 6.70005 19.2187 5.88237 19.5001C4.38991 20.0366 2.79866 20.2417 1.21908 20.1011C0.969941 20.0627 0.912449 20.0691 0.848568 20.1011C0.784687 20.1331 0.848568 20.2034 0.918837 20.2673C1.23824 20.4783 1.55764 20.6637 1.88982 20.8428C2.87873 21.3826 3.9242 21.8115 5.00721 22.1215C10.6159 23.6688 16.9274 22.5307 21.1371 18.3428C24.4461 15.0564 25.6088 10.5232 25.6088 5.98367C25.6088 5.81103 25.8196 5.70873 25.9409 5.61922C26.7781 4.96635 27.5162 4.19533 28.1321 3.33026C28.2387 3.20131 28.2934 3.03712 28.2854 2.86991C28.2854 2.774 28.2854 2.79318 28.164 2.84433Z" fill="white"/>
</svg>
