<svg width="79" height="22" viewBox="0 0 79 22" fill="none" xmlns="http://www.w3.org/2000/svg">
<g id="logo/WOO" clip-path="url(#clip0_1223_9889)">
<g id="Union">
<path fill-rule="evenodd" clip-rule="evenodd" d="M40.5662 0.640415C43.2497 -0.179553 46.0823 0.0689229 48.5671 1.38584C51.027 2.67792 52.8657 4.88936 53.6857 7.54806C55.4002 13.0891 52.2942 18.978 46.7781 20.6925C45.7593 21.0155 44.7157 21.1646 43.6721 21.1646C39.0256 21.1646 35.0003 18.2077 33.6337 13.7848C32.8137 11.1013 33.0622 8.26864 34.3791 5.78388C35.696 3.29911 37.8826 1.46039 40.5662 0.640415ZM38.6777 8.04501C37.982 9.36193 37.8329 10.9025 38.2802 12.3436C38.7274 13.7848 39.6965 14.9775 41.0382 15.6732C42.38 16.369 43.8957 16.518 45.3369 16.0708C46.7781 15.6235 47.9707 14.6545 48.6665 13.3127C49.3622 11.9709 49.5113 10.4552 49.064 9.01407C48.6168 7.5729 47.6477 6.38022 46.306 5.68449C44.989 4.98875 43.4236 4.83966 42.0073 5.28692C40.5662 5.73418 39.3735 6.70323 38.6777 8.04501Z" fill="white"/>
<path fill-rule="evenodd" clip-rule="evenodd" d="M65.215 0.665264C67.8985 -0.154704 70.7312 0.093772 73.2159 1.41069C75.6758 2.72762 77.5146 4.91421 78.3345 7.57291C80.049 13.1139 76.9431 19.0028 71.4269 20.7173C70.4081 21.0403 69.3645 21.1894 68.3209 21.1894C63.6744 21.1894 59.6491 18.2325 58.2825 13.8097C57.4625 11.1261 57.711 8.29349 59.0279 5.80873C60.3449 3.32396 62.5314 1.48524 65.215 0.665264ZM63.3266 8.06986C62.6308 9.38678 62.4818 10.9273 62.929 12.3685C63.3763 13.8097 64.3453 15.0023 65.6871 15.6981C67.0289 16.3938 68.5446 16.5429 69.9857 16.0956C71.4269 15.6484 72.6196 14.6793 73.3153 13.3376C74.0111 11.9958 74.1601 10.4801 73.7129 9.03892C73.2656 7.59775 72.2966 6.40507 70.9548 5.70934C69.6379 5.0136 68.0725 4.86451 66.6562 5.31177C65.215 5.75903 64.0223 6.72808 63.3266 8.06986Z" fill="white"/>
<path d="M31.124 0.342248H26.0054L23.6449 8.04501H28.689L31.124 0.342248Z" fill="white"/>
<path d="M19.4208 7.6723L21.9553 13.6109L22.8746 10.5795H27.8939L25.0612 19.7979C24.8376 20.5185 24.1667 21.0155 23.3964 21.0155H20.539C19.8432 21.0155 19.1972 20.5931 18.9239 19.9222L15.7931 12.2691L12.6871 19.8973C12.4386 20.5434 11.7926 20.9906 11.072 20.9906H8.18969C7.41942 20.9906 6.74853 20.4937 6.52489 19.7731L0.536621 0.342248H5.58069L9.55631 13.6109L12.1902 7.6226C12.7617 6.13174 14.2028 5.16269 15.7931 5.16269C17.4082 5.16269 18.8493 6.15659 19.4208 7.6723Z" fill="white"/>
</g>
</g>
<defs>
<clipPath id="clip0_1223_9889">
<rect width="78.2698" height="21.3463" fill="white" transform="translate(0.536621 0.168457)"/>
</clipPath>
</defs>
</svg>
