<svg width="18" height="18" viewBox="0 0 18 18" fill="none" xmlns="http://www.w3.org/2000/svg">
  <g clip-path="url(#clip0_4701_11660)">
    <path
      d="M9 17.0002C13.4183 17.0002 17 13.4185 17 9.00023C17 4.58196 13.4183 1.00024 9 1.00024C4.58172 1.00024 1 4.58196 1 9.00023C1 13.4185 4.58172 17.0002 9 17.0002Z"
      fill="#F06040" />
    <path
      d="M2.38667 13.5017C2.38667 13.5017 7.67158 11.7705 16.9861 8.7334C16.9861 8.7334 17.4963 13.7071 12.3401 16.3015C12.3401 16.3015 9.79739 17.5201 7.0079 16.7384C7.0079 16.7384 4.2302 16.214 2.38667 13.5017Z"
      fill="#2B286C" />
  </g>
  <rect x="0.6" y="0.6" width="16.8" height="16.8" rx="8.4" stroke="white" stroke-opacity="0.8"
    stroke-width="0.8" />
  <defs>
    <clipPath id="clip0_4701_11660">
      <rect x="1" y="1" width="16" height="16" rx="8" fill="white" />
    </clipPath>
  </defs>
</svg>
  