<svg width="80" height="80" viewBox="0 0 80 80" fill="none" xmlns="http://www.w3.org/2000/svg">
<path d="M79.4851 46.3599C82.9976 24.5528 68.1667 4.02733 46.3598 0.514885C24.5528 -2.99756 4.02732 11.8331 0.514884 33.6402C-2.99756 55.4472 11.8331 75.9726 33.6401 79.4851C55.447 82.9976 75.9726 68.1668 79.4851 46.3599Z" fill="#EDA320"/>
<mask id="mask0_20_3862" style="mask-type:luminance" maskUnits="userSpaceOnUse" x="8" y="8" width="64" height="64">
<path d="M71.3888 8.38477H8.36035V71.6168H71.3888V8.38477Z" fill="white"/>
</mask>
<g mask="url(#mask0_20_3862)">
<path d="M35.8529 12.4008L36.6605 12.6121L37.3452 12.8587L38.0124 13.1934L38.6444 13.5808L39.1536 13.9683L39.5749 14.303L39.8734 14.6377L40.2069 15.0251L40.7161 15.7473L41.1726 16.6456L41.5939 17.9137L41.8046 18.9705L41.8924 19.816V20.7495L41.7695 21.8944L41.6466 22.4052L41.4359 22.8279L41.4008 23.004L41.7871 23.0921L44.403 23.6029L45.1228 23.8142H45.2457L45.4564 23.2682L46.0007 22.0881L46.5449 21.1898L47.054 20.5029L47.5105 19.9569L47.967 19.4813L48.441 19.0938L49.038 18.6711L49.7226 18.2484L50.6182 17.7728L51.7943 17.3501L52.7249 17.1388L53.4094 17.0507L54.0416 17.0155H54.6738L55.6917 17.1035L56.6577 17.2797L57.5005 17.5262L58.1321 17.7728L59.0981 18.2836L59.7298 18.7063L60.2742 19.1291L60.9413 19.7631L61.3275 20.1859L61.7491 20.7319L62.1703 21.366L62.5565 22.0529L62.8903 22.775L63.1886 23.6733L63.2236 24.0608V24.5716L63.1008 25.0824L62.8024 25.5403L62.4163 25.9631L62.0301 26.2096L61.5206 26.3858L61.31 26.421H60.8884L60.3795 26.2977L59.8351 25.9983L59.5018 25.6636L59.168 25.0648L58.9574 24.5892L58.5009 23.6205L58.1676 23.1097L57.7814 22.6341L57.4825 22.3347L56.8857 21.912L56.2186 21.5773L55.5864 21.366L55.1653 21.2779L54.7437 21.2427H54.1998L53.2692 21.366L52.5842 21.5773L51.917 21.8768L51.2853 22.2995L50.8637 22.6341L50.4426 23.0569L50.021 23.6909L49.6875 24.2898L49.354 25.0472L49.2662 25.2585L49.4768 25.3466L49.8982 25.646L51.0394 26.3329L51.9699 26.967L52.6545 27.4778L53.0407 27.7772L53.5851 28.2528L54.094 28.7107L54.4278 29.0102L55.3584 29.9437L55.6568 30.2783L56.043 30.7011L56.517 31.2999L57.0264 31.9868L57.5703 32.7971L58.1147 33.6953L58.7469 34.8754L59.168 35.7737L59.6245 36.9186L60.0462 38.1867L60.3446 39.3316L60.59 40.4765L60.836 42.1321L60.9588 43.5764V45.6901L60.836 47.0815L60.59 48.6491L60.2917 49.9701L59.8176 51.5024L59.3965 52.6474L58.8871 53.7924L58.4305 54.7259L57.9216 55.6239L57.2894 56.5929L56.9561 57.0509L56.2011 58.0724L55.6568 58.7594L55.06 59.3934L54.0416 60.4149L53.5676 60.8024L53.0582 61.2249L52.5143 61.6479L51.6715 62.2819L50.741 62.8809L50.021 63.3034L48.8799 63.9024L47.9494 64.3249L46.9838 64.7124L45.5442 65.1704L44.1923 65.5049L42.6649 65.7519L40.8917 65.9629L40.2596 65.9984H38.9078L37.3452 65.8749L35.8705 65.6634L34.6064 65.4169L33.4652 65.1174L31.9378 64.6069L30.9195 64.1839L29.9012 63.7259L28.9356 63.2154L27.97 62.6164L27.3379 62.1939L26.5303 61.5949L25.9861 61.1724L25.3891 60.6614L24.7044 60.0274L23.8968 59.2169L23.5984 58.8824L23.0541 58.2484L22.2114 57.1389L21.7549 56.4519L21.2106 55.6064L20.7893 54.8489L20.3679 54.0389L19.9817 53.2284L19.5604 52.1719L19.1039 50.7629L18.6825 49.0718L18.4718 47.927L18.2962 46.5707L18.2085 45.3378L18.1733 44.1929V20.6086L18.2612 20.0626L18.5069 19.5518L18.9634 19.041L19.3848 18.7063L19.8062 18.495L20.1924 18.3717L20.4908 18.3365H21.5969L22.1938 18.4245L22.7908 18.6359L23.2472 18.9705L23.4579 19.1819L23.7037 19.4813L23.9495 19.9921L24.0373 20.3268L24.0724 21.137V29.1159L24.0373 29.5738L24.2831 29.3977L24.4587 29.3096V29.2215L24.7922 28.9221L25.2487 28.4994L25.5823 28.2L26.1265 27.742L26.8815 27.1432L27.8998 26.4562L28.6196 25.9983L29.515 25.4875L30.6913 24.8886L31.8325 24.4131L33.0087 23.9904L34.2728 23.6557L35.8353 23.3211L36.3445 23.1449L36.7659 22.8455L37.1872 22.1586L37.5208 21.3131L37.6437 20.8376V19.6575L37.433 18.8473L37.1346 18.1603L36.7483 17.5615L36.2918 17.1035L35.6071 16.716L34.8873 16.5047L34.343 16.4166H33.9568L33.3598 16.5047L32.8156 16.628H32.1836L31.6744 16.4166L31.1302 16.0291L30.7966 15.6416L30.5859 15.2541L30.4981 14.9195V14.074L30.6737 13.6161L30.9195 13.2286L31.2531 12.8939L31.7095 12.5945L32.2187 12.3831L32.7278 12.2598L33.0263 12.2246H34.9224L35.8178 12.3479L35.8529 12.4008ZM38.0475 28.9926L37.0292 29.1159L35.5544 29.4505L34.2377 29.8732L33.1843 30.296L32.1309 30.842L31.2882 31.3528L30.3928 31.9516L29.6379 32.5505L29.1814 32.938L28.128 33.9948L27.7417 34.4703L27.2677 35.0692L26.7235 35.8266L26.3899 36.3373L26.0036 36.9714L25.67 37.6055L25.2136 38.6271L24.7922 39.8072L24.4938 40.864L24.1953 42.3963L24.0724 43.7174V45.7077L24.1075 46.0952L24.2831 47.2753L24.5289 48.4201L24.8625 49.5298L25.2838 50.6394L25.67 51.4494L26.1792 52.3829L26.6883 53.1934L27.1097 53.7924L27.4081 54.1799L27.9173 54.7784L28.3035 55.2364L28.76 55.6944L29.0936 55.9939L29.5501 56.4164L30.147 56.8919L30.8317 57.4029L31.3408 57.7374L32.0256 58.1604L33.079 58.7064L34.185 59.1644L35.3262 59.5519L36.3796 59.7984L37.8544 60.0449L39.1184 60.1684H39.9261L40.9443 60.0804L41.9977 59.9039L43.4374 59.6044L44.6137 59.2169L45.7197 58.7944L46.6853 58.3189L47.3701 57.9314L48.0021 57.5439L48.6341 57.1209L49.354 56.5749L49.828 56.1874L50.4601 55.5889L50.7584 55.2539L51.3552 54.6199L51.9525 53.8979L52.5492 53.0524L53.0936 52.1539L53.4798 51.4674L53.8131 50.7099L54.2347 49.6002L54.568 48.4906L54.8669 47.2224L55.0775 45.7781L55.1653 44.8094V44.2105L55.0425 42.7662L54.8669 41.5333L54.5331 40.1771L54.0242 38.7328L53.6025 37.764L53.2163 37.0419L52.7952 36.3197L52.3387 35.5976L51.8292 34.9107L51.4959 34.4879L51.1097 34.0124L50.3019 33.2022L49.7929 32.7442L49.1257 32.1982L48.3181 31.5993L47.4227 31.0533L46.7556 30.6658L45.7022 30.155L44.561 29.6795L43.2969 29.292L42.068 29.0454L40.7161 28.8693H38.6093L38.1001 28.9045L38.0475 28.9926ZM40.839 39.2612L41.5588 39.4725L42.2435 39.8072L42.6649 40.0538L43.2092 40.4765L43.5427 40.7759L43.9992 41.3748L44.3328 41.9208L44.6663 42.731L44.877 43.5764L44.9648 44.2105V45.1088L44.7892 45.9543L44.5434 46.7116L43.9992 47.6804L43.5427 48.2792L43.1565 48.6667L42.5596 49.0894L41.8748 49.4769L41.1199 49.7764L40.2772 49.9525L39.8207 49.9877H39.2238L38.4688 49.8997L37.8017 49.7235L37.0467 49.3889L36.3621 49.0014L35.8178 48.5434L35.3613 48.0326L35.0628 47.6099L34.6766 46.9758L34.3781 46.1656L34.2026 45.4435L34.1675 45.144V43.8759L34.2904 43.1537L34.5361 42.3963L34.8697 41.7094L35.2559 41.1986L35.7125 40.6878L36.0109 40.3884L36.678 39.8776L37.3979 39.4901L38.0299 39.2788L38.8375 39.1026L39.136 39.0674H39.8207L40.839 39.2436V39.2612Z" fill="black"/>
</g>
</svg>
