<svg width="80" height="80" viewBox="0 0 80 80" fill="none" xmlns="http://www.w3.org/2000/svg">
<path d="M63.8916 2H16.1086C8.31588 2 2 8.31589 2 16.1086V63.8913C2 71.684 8.31588 78 16.1086 78H63.8916C71.684 78 78 71.684 78 63.8913V16.1086C78 8.31589 71.684 2 63.8916 2Z" fill="#F0C43F"/>
<path d="M64.6996 31.3417V31.3467C64.6996 31.4583 64.6996 31.5673 64.6949 31.6839C64.6898 31.874 64.68 32.0667 64.663 32.2593C64.646 32.4621 64.6239 32.6649 64.5992 32.8652C64.5235 33.461 64.4006 34.0463 64.2343 34.6195C64.1778 34.8146 64.1165 35.0097 64.0481 35.2C62.6705 34.0035 61.0922 33.0427 59.377 32.381C59.4357 32.0464 59.4651 31.7016 59.4651 31.3492C59.4651 30.9386 59.4234 30.5431 59.3477 30.1553C59.3302 30.0615 59.3081 29.9652 59.2839 29.8714C59.2371 29.6838 59.1835 29.5012 59.1197 29.3238C59.0559 29.1438 58.9824 28.9664 58.9016 28.7915C58.4652 27.8484 57.789 27.0448 56.9533 26.4618C56.4263 26.0917 55.8309 25.8128 55.1938 25.643C55.1028 25.6176 55.0097 25.5948 54.9191 25.5771C54.5516 25.4985 54.1667 25.4579 53.7725 25.4579C53.5811 25.4579 53.3901 25.4681 53.2039 25.4884C50.3267 25.7824 48.0795 28.2921 48.0795 31.3492C48.0795 31.7143 48.1114 32.0717 48.1752 32.4165C46.4693 33.0857 44.8983 34.049 43.5309 35.2508C43.2098 34.3556 42.9968 33.4229 42.9036 32.4697C42.9036 32.4418 42.8985 32.414 42.8964 32.3836C42.8768 32.1655 42.8619 31.9475 42.8547 31.7321C42.8547 31.7168 42.8547 31.6991 42.8547 31.6839C42.8547 31.5698 42.8496 31.4583 42.8496 31.3467V31.3417C42.8496 30.931 42.8692 30.5254 42.9134 30.1248C42.9283 29.9829 42.9453 29.8435 42.9623 29.699C43.058 29.0196 43.2124 28.358 43.4229 27.7217C43.4722 27.5671 43.5263 27.4124 43.5849 27.2603C43.7563 26.8015 43.9575 26.3578 44.1829 25.9294C44.2637 25.7748 44.3496 25.6227 44.4377 25.4731C44.5283 25.321 44.6188 25.174 44.7145 25.0295C44.8149 24.88 44.9178 24.7278 45.0207 24.5833C45.1288 24.4389 45.2317 24.302 45.3418 24.16C45.3418 24.16 45.3469 24.16 45.3469 24.1549C45.506 23.9547 45.6753 23.7595 45.8467 23.5719C46.0206 23.3843 46.1997 23.2018 46.3859 23.0269C46.5697 22.8494 46.7585 22.6821 46.9571 22.5199C47.0549 22.4413 47.1553 22.3601 47.2582 22.279C48.1675 21.5819 49.1848 21.0242 50.2825 20.6414C50.4539 20.5831 50.6232 20.5274 50.7971 20.4741C50.9664 20.4259 51.1378 20.3803 51.3092 20.3372C51.3143 20.3372 51.3189 20.3372 51.3215 20.3372C51.7625 20.2333 52.2159 20.1572 52.6718 20.1091C52.7624 20.099 52.8555 20.0913 52.9487 20.0837C53.2234 20.0634 53.505 20.0508 53.7869 20.0508C54.5367 20.0508 55.2721 20.1294 55.9802 20.2789C56.1567 20.317 56.3306 20.3601 56.5046 20.4057C56.679 20.4513 56.8478 20.4995 57.0217 20.5578C57.2769 20.6389 57.5291 20.7327 57.7766 20.8341C57.8847 20.8772 57.9897 20.9228 58.0952 20.971C58.2079 21.0192 58.3206 21.0724 58.4286 21.1256C59.5731 21.6859 60.607 22.4463 61.4895 23.3589C61.6732 23.5491 61.8544 23.7494 62.0262 23.9547C62.0823 24.0231 62.1415 24.0941 62.2001 24.1651C62.2958 24.2842 62.3864 24.4059 62.4745 24.5276C62.8079 24.9813 63.1094 25.4605 63.374 25.9675C63.4573 26.1271 63.5407 26.2869 63.6143 26.4491C63.6143 26.4567 63.6215 26.4618 63.6215 26.4643C63.6925 26.6113 63.7589 26.766 63.8201 26.9181C63.9056 27.1234 63.9868 27.3313 64.0578 27.5442C64.0821 27.6051 64.1042 27.6659 64.1216 27.7268C64.3296 28.363 64.4865 29.0221 64.5797 29.7041C64.5967 29.8486 64.6162 29.988 64.6286 30.1299C64.6754 30.5305 64.6949 30.9335 64.6949 31.3467L64.6996 31.3417Z" fill="black"/>
<path d="M37.15 49.5C37.15 54.7517 32.452 59 26.7082 59C20.9647 59 16.25 54.7517 16.25 49.5H21.256C21.256 52.2316 23.7014 54.4649 26.7082 54.4649C29.7151 54.4649 32.1206 52.2316 32.1206 49.5H37.15Z" fill="black"/>
<path d="M26.7126 20.0508C19.9073 20.0508 14.3496 25.8012 14.3496 32.9029C14.3496 40.0045 19.9073 45.7008 26.7126 45.7008C33.5179 45.7008 39.0496 39.9773 39.0496 32.9029C39.0496 25.8283 33.5179 20.0508 26.7126 20.0508ZM26.7126 40.4386C22.6802 40.4386 19.4139 37.0506 19.4139 32.9029C19.4139 28.7553 22.6825 25.3154 26.7126 25.3154C30.7427 25.3154 33.9876 28.7134 33.9876 32.9029C33.9876 37.0923 30.7285 40.4386 26.7126 40.4386Z" fill="black"/>
<path d="M53.3134 34.3008C46.5079 34.3008 40.9502 39.8382 40.9502 46.6768C40.9502 53.5158 46.5079 59.0008 53.3134 59.0008C60.1188 59.0008 65.6502 53.4896 65.6502 46.6768C65.6502 39.8644 60.1188 34.3008 53.3134 34.3008ZM53.3134 53.9334C49.2808 53.9334 46.0143 50.6709 46.0143 46.6768C46.0143 42.6827 49.2833 39.3702 53.3134 39.3702C57.3435 39.3702 60.5885 42.6426 60.5885 46.6768C60.5885 50.7114 57.329 53.9334 53.3134 53.9334Z" fill="black"/>
</svg>
