<svg width="152" height="40" viewBox="0 0 152 40" fill="none" xmlns="http://www.w3.org/2000/svg">
<path d="M25.6901 9.57039H8.72806L11.3629 0.331055H28.6544L25.6901 9.57039Z" fill="white"/>
<path d="M19.9263 30.3589H2.79957L0 39.9282C3.56807 39.9832 12.5486 40.0602 19.9263 39.9282C27.304 39.7962 33.1008 32.9987 34.5829 27.5541L41.9935 0.331055H32.442L26.1842 23.0994C24.7021 29.204 21.7378 29.8639 19.9263 30.3589Z" fill="white"/>
<path d="M78.2232 0L67.3543 39.9271H37.2178L48.416 0H78.2232ZM47.7573 30.3578H61.9198L67.8483 9.23933H54.0152L47.7573 30.3578Z" fill="white"/>
<path d="M99.467 9.57039H82.5049L85.1398 0.331055H102.431L99.467 9.57039Z" fill="white"/>
<path d="M93.7032 30.3589H76.5764L73.7769 39.9282C77.3449 39.9832 86.3255 40.0602 93.7032 39.9282C101.081 39.7962 106.878 32.9987 108.36 27.5541L115.77 0.331055H106.219L99.961 23.0994C98.4789 29.204 95.5147 29.8639 93.7032 30.3589Z" fill="white"/>
<path d="M152 0L141.131 39.9271H110.995L122.193 0H152ZM121.534 30.3578H135.697L141.625 9.23933H127.792L121.534 30.3578Z" fill="white"/>
</svg>
