<svg width="82" height="80" viewBox="0 0 82 80" fill="none" xmlns="http://www.w3.org/2000/svg">
<path d="M41.0001 0C48.9285 0 56.6788 2.34596 63.271 6.74121C69.8632 11.1365 75.0012 17.3836 78.0353 24.6927C81.0693 32.0017 81.8632 40.0444 80.3164 47.8036C78.7697 55.5628 74.9518 62.6902 69.3456 68.2843C63.7394 73.8784 56.5967 77.688 48.8206 79.2314C41.0446 80.7748 32.9845 79.9827 25.6597 76.9552C18.3348 73.9277 12.0741 68.8008 7.66938 62.2228C3.26461 55.6448 0.913574 47.9112 0.913574 40C0.913574 29.3913 5.13697 19.2172 12.6547 11.7157C20.1723 4.21427 30.3685 0 41.0001 0Z" fill="white"/>
<path d="M64.6083 17.0173C61.7675 14.1494 58.4259 11.8231 54.7478 10.1526C55.2471 9.14981 55.5605 8.06518 55.673 6.95107L55.512 6.88184C54.9916 7.87397 54.4078 8.83173 53.7644 9.7492C53.0511 10.7772 52.284 11.767 51.4663 12.7144L53.3582 12.7357C50.962 17.7438 44.1519 19.9364 44.1519 19.9364C44.1343 21.4845 41.7668 24.2217 41.7668 24.2217C44.4845 23.4322 47.0477 22.1869 49.3467 20.5392C65.6537 21.287 69.6328 30.815 70.7486 32.6133C70.9068 32.8672 70.7837 33.1081 70.7486 33.0694C67.0877 27.4454 61.8143 25.5917 61.4682 25.9194L63.1909 28.0427C58.8819 25.9763 54.2266 24.7242 49.4605 24.35C49.4605 24.35 60.7845 26.3173 66.9822 34.4126C70.09 38.4267 72.1557 43.1448 72.9958 48.1475C73.0347 48.418 73.0578 48.6303 73.068 48.7808C73.7949 46.0568 74.171 43.2515 74.1874 40.4326C74.2259 36.0904 73.3993 31.7838 71.7554 27.7632C70.1116 23.7425 67.6834 20.088 64.612 17.0118L64.6083 17.0173ZM46.9135 7.72931L46.4398 7.64807L46.0309 7.58252H45.9717L45.2436 7.48374H45.1927L44.7893 7.43574C44.5275 7.4062 44.2648 7.38127 44.0011 7.35634H43.9086L43.6125 7.33511C43.3017 7.30926 42.989 7.28803 42.6726 7.27326C42.4006 7.26126 42.1258 7.24741 41.8529 7.24372H40.5511C40.1283 7.24372 39.7092 7.26126 39.2911 7.28249L38.8738 7.30557C30.4466 7.79426 22.5281 11.4897 16.75 17.6304C10.9719 23.7711 7.77427 31.8894 7.81597 40.3126C7.8009 40.9497 7.83492 41.587 7.91773 42.2189C7.96153 42.5001 8.02553 42.7777 8.10924 43.0498C8.11417 43.0815 8.12287 43.1124 8.13515 43.1421C8.69383 44.8744 9.44773 46.5378 10.3824 48.1004C10.9457 49.0864 11.5737 50.0341 12.2623 50.9373C12.5493 51.3297 12.8582 51.7057 13.1875 52.0636L13.2883 52.1734L13.4077 52.3055C13.5233 52.431 13.6408 52.5612 13.7574 52.6747L13.8342 52.7523C15.5283 54.4517 17.4991 55.852 19.6627 56.8936C22.9843 58.5013 26.5909 59.4396 30.2762 59.6548C31.5565 59.7416 32.8414 59.7326 34.1203 59.628H34.3053C35.6874 59.5235 37.0497 59.2373 38.3567 58.7769C39.4568 58.4359 40.4872 57.902 41.3995 57.2001C42.5513 56.3524 43.5391 55.303 44.3147 54.1029C45.4633 52.3722 46.1019 50.3545 46.1577 48.2795C46.3427 43.3784 41.3838 37.8735 34.4154 37.2384C34.1943 37.2172 33.9658 37.2033 33.7382 37.1913H32.443L32.0674 37.2089L31.7445 37.2319L31.4614 37.2578C31.2763 37.2753 31.0858 37.2984 30.8952 37.327C30.4141 37.3929 29.9256 37.4775 29.4297 37.5809C24.8853 38.6204 26.4692 42.2549 26.5173 42.374C25.4447 42.2766 24.386 42.063 23.3597 41.737L23.3144 41.7222L23.1117 41.653C22.0161 41.2756 21.0075 40.6826 20.1457 39.9091H20.1327L20.0513 39.8297C19.4892 39.2777 19.0105 38.647 18.6302 37.9576H18.6173C17.9897 38.3502 17.3832 38.7754 16.8003 39.2315C16.3578 36.9072 16.2664 34.5299 16.5292 32.1785C17.0843 29.5161 21.3299 26.321 21.3299 26.321C21.3299 26.321 20.7998 29.0573 23.2366 29.0831C25.6735 29.109 28.5157 25.2834 28.6257 25.6148C28.7358 25.9462 30.9562 25.9776 30.9562 25.9776C30.9562 25.9776 29.9561 25.9776 29.0883 24.195C28.2205 22.4123 30.9211 19.7914 35.3878 18.1833C38.3989 16.9521 41.113 15.0958 43.3498 12.7375C44.46 12.8631 44.7588 15.9621 44.7588 15.9621C47.6995 14.1697 50.3532 11.9462 52.631 9.36609C50.7745 8.64714 48.8561 8.09865 46.8996 7.72746H46.9135V7.72931ZM38.2419 30.0608V30.07V30.0608Z" fill="#2188C6"/>
<path d="M60.7693 64.9237C57.8065 68.7957 53.5618 71.4919 48.7921 72.5315C47.9551 72.7014 47.1117 72.8423 46.2617 72.9543L45.9222 72.995L45.5975 73.03H45.4985C39.5863 73.5744 33.6281 72.7508 28.0868 70.6233C26.1482 69.8794 24.297 68.926 22.5664 67.78C20.7185 66.5378 18.9991 65.1153 17.4335 63.5334C12.0508 57.657 8.72276 50.1974 7.94873 42.2737C7.99236 42.5549 8.05637 42.8326 8.14024 43.1046C8.69843 44.8213 9.46294 46.4642 10.4171 47.9974C10.9789 48.9834 11.6057 49.9311 12.2933 50.8343C12.5812 51.2251 12.89 51.6002 13.2185 51.9578L13.3175 52.0676L13.4396 52.2024C13.5552 52.328 13.6727 52.4517 13.7893 52.5717L13.8661 52.6511C15.5602 54.3505 17.531 55.7509 19.6946 56.7924C23.0168 58.3997 26.6235 59.3386 30.3091 59.5555C31.5891 59.6409 32.8736 59.6319 34.1522 59.5287H34.3428C35.7224 59.421 37.0819 59.1336 38.3867 58.6738C39.4873 58.3344 40.518 57.8007 41.4296 57.098C42.5808 56.2506 43.5678 55.2011 44.342 54.0008C45.4907 52.2679 46.1286 50.2479 46.1831 48.1709C46.2432 43.0104 40.7052 37.1511 32.9319 37.2185C32.7552 37.2185 32.5794 37.2185 32.4037 37.2342H32.0336L31.6719 37.2646C31.4692 37.2822 31.2713 37.3034 31.0687 37.3292H31.0215C30.5117 37.3976 30.0038 37.488 29.4903 37.6062C26.8351 38.2127 26.2726 39.7073 26.2726 40.8687C26.277 41.3931 26.3822 41.9117 26.5825 42.3965H26.5594C25.4872 42.2987 24.4288 42.0851 23.4027 41.7595L23.3546 41.7438L23.152 41.6755C22.0554 41.2985 21.0465 40.704 20.1859 39.928H20.1702L20.0888 39.8513C19.7915 39.5626 19.5183 39.2501 19.2718 38.9171C19.0496 38.6163 18.8466 38.3018 18.664 37.9755C22.8284 35.3549 27.6132 33.8796 32.5332 33.6993L33.043 33.6781C33.7337 33.6553 34.427 33.6553 35.1227 33.6781C36.2169 33.7113 37.3138 33.796 38.4135 33.932C40.0758 34.1197 41.7171 34.4597 43.3169 34.9475H43.3345V34.9392H43.3475C42.948 34.225 42.4719 33.5564 41.9273 32.9451C41.2501 32.1613 39.4784 30.1008 38.3016 30.1174L38.6467 30.0962C39.3665 30.063 40.0915 30.063 40.8218 30.0962C44.3577 30.1966 47.832 31.0448 51.015 32.5846C54.198 34.1245 57.0172 36.3209 59.2862 39.0288L59.3788 39.1211L59.4861 39.2633C60.7904 40.9851 61.8779 42.8603 62.7242 44.8466C63.5586 47.2067 64.1092 49.6574 64.3645 52.147C64.8682 56.7081 63.5791 61.2863 60.7684 64.9182L60.7693 64.9237Z" fill="#162B4E"/>
<path d="M60.7696 64.922C57.8067 68.7939 53.5621 71.4901 48.7924 72.5298C47.9555 72.6997 47.1132 72.8406 46.2658 72.9526L45.9235 72.9923L45.6006 73.0274H45.4998C45.2731 73.0505 45.0436 73.0689 44.8142 73.0865C42.5603 73.2625 40.2949 73.2316 38.0466 72.9942C34.6159 72.7925 31.2477 71.989 28.0964 70.6207L27.8402 70.4868C28.2639 70.4656 28.6997 70.4868 29.1299 70.4868C34.8065 70.4259 40.2607 68.2755 44.446 64.4484C46.6477 62.5758 48.4336 60.2653 49.6892 57.6647C50.9449 55.064 51.6427 52.2305 51.7382 49.3453C51.7382 48.7554 51.7104 48.1572 51.6567 47.5618L51.6299 47.2904L51.5189 47.5442C50.8528 49.0652 49.868 50.4261 48.6308 51.5355C47.3936 52.6449 45.9326 53.4771 44.3461 53.9759L44.2721 53.999C44.9103 53.0814 45.3929 52.0653 45.7005 50.9913C45.9782 50.0677 46.1338 49.1118 46.1631 48.148C46.2223 43.2256 41.1737 37.6645 33.9592 37.2315H33.8612L33.4763 37.2158H32.0247C31.9009 37.2193 31.7774 37.2295 31.6546 37.2463C31.456 37.2635 31.255 37.2851 31.0514 37.3109H31.0061C30.4954 37.3764 29.9699 37.4697 29.4416 37.5879C24.9 38.6246 26.4811 42.2619 26.5301 42.3819C24.9361 42.4087 23.3634 42.0126 21.9731 41.234C20.5828 40.4555 19.4247 39.3224 18.6172 37.9507C22.788 35.3267 27.5803 33.8507 32.5076 33.6727L33.0174 33.6524C33.7094 33.6293 34.4052 33.6293 35.0972 33.6524C36.1846 33.6875 37.2747 33.7721 38.3676 33.9063C40.0374 34.0902 41.6862 34.4302 43.2923 34.9217H43.308C42.9057 34.2093 42.4287 33.5415 41.8851 32.9295C41.2135 32.1504 39.4556 30.1102 38.277 30.1028H38.2474C38.3676 30.1028 38.5018 30.0871 38.6174 30.0816C39.3391 30.0483 40.0635 30.0483 40.7907 30.0816C44.3231 30.1842 47.7936 31.0331 50.973 32.5724C54.1525 34.1117 56.9687 36.3063 59.2357 39.0114L59.3282 39.1037C59.3708 39.1489 59.4207 39.196 59.4587 39.244C60.8958 40.8743 61.9963 42.7717 62.6968 44.8273C63.5306 47.1878 64.0806 49.6388 64.3352 52.1287C64.851 56.6929 63.5692 61.2785 60.7604 64.9174L60.7696 64.922Z" fill="#21326F"/>
<path d="M56.5268 2.89817C56.5268 2.89817 53.248 11.5187 51.0443 12.4945C48.8405 13.4703 52.9547 12.6431 52.9547 12.6431L44.5107 19.0906C44.5107 19.0906 42.7714 23.291 41.7686 24.096C41.7686 24.096 47.9524 23.3076 52.9288 16.9257C57.5982 10.9353 56.5268 2.89355 56.5268 2.89355" fill="#162B4E"/>
<path d="M44.5698 16.0304C49.7114 12.8324 53.8568 8.26633 56.5396 2.8457C56.5396 2.8457 54.7161 9.30788 51.4696 12.3913L53.6086 12.0488C51.34 15.4331 48.1142 18.0681 44.3412 19.6188C44.3221 18.4169 44.3988 17.2155 44.5707 16.0258L44.5698 16.0304Z" fill="white"/>
<path d="M20.1178 31.9577C20.2391 31.9215 20.3666 31.9101 20.4925 31.9243C20.6184 31.9385 20.7401 31.9779 20.8503 32.0403C20.9605 32.1026 21.0569 32.1866 21.1337 32.2871C21.2106 32.3876 21.2662 32.5026 21.2973 32.6252L21.3297 32.6187C21.413 32.11 21.4222 30.9478 20.3907 31.222C19.3591 31.4961 18.5283 33.1966 18.5283 33.1966L18.668 33.1671C19.0322 32.6396 19.5333 32.2209 20.1178 31.9559V31.9577Z" fill="#3A9DD7"/>
<path d="M20.4878 30.4652C19.3776 30.7163 18.5273 33.1932 18.5273 33.1932L18.6698 32.9273C18.9474 32.4362 19.6126 31.4207 20.3906 31.2157C21.2057 31.0016 21.3704 31.6773 21.363 32.222C21.3691 32.2145 21.3733 32.2056 21.375 32.1961C21.4768 31.5324 21.87 30.1532 20.4878 30.4652Z" fill="#162B4E"/>
<path d="M32.8197 24.2791C32.7869 23.846 32.8662 23.4118 33.0501 23.0181C33.234 22.6244 33.5163 22.2846 33.8698 22.0312C35.192 21.3208 36.5686 20.7163 37.9868 20.2236C39.0877 19.7344 40.4255 19.0568 40.4431 18.7549C40.2683 19.9598 39.7641 21.0934 38.986 22.0312C37.8665 23.0615 36.6814 24.2791 32.8197 24.2791Z" fill="#162B4E"/>
<path d="M34.3107 23.8312C35.2189 23.5257 36.0469 23.021 36.7337 22.3541C37.1711 21.9082 37.5185 21.3826 37.757 20.8059C37.8258 20.6418 37.8592 20.465 37.855 20.2871C36.4786 20.7582 35.1446 21.345 33.8676 22.0411C33.5146 22.293 33.2324 22.6312 33.0481 23.0232C32.8637 23.4152 32.7834 23.8479 32.8147 24.2798C33.3229 24.1648 33.8233 24.0149 34.3107 23.8312Z" fill="#2797D2"/>
<path d="M70.7529 33.077C70.7529 33.077 65.6765 29.7056 62.209 29.8339C55.5394 25.6593 52.4124 25.0676 49.4639 24.3531C49.5684 24.1472 57.8958 25.2587 63.1943 28.0457L61.4013 25.8661C61.4013 25.8661 64.1555 25.6437 68.6463 30.3823C71.5744 33.4731 70.7529 33.0742 70.7529 33.0742V33.077Z" fill="#162B4E"/>
</svg>
