<svg width="80" height="80" viewBox="0 0 80 80" fill="none" xmlns="http://www.w3.org/2000/svg">
<path d="M40.0041 8.88709C33.8503 8.88629 27.8346 10.7103 22.7176 14.1286C17.6005 17.5468 13.6121 22.4057 11.2566 28.0908C8.90111 33.7759 8.2844 40.0318 9.48444 46.0673C10.6845 52.1029 13.6474 57.6471 17.9984 61.9987C22.3495 66.3503 27.8933 69.314 33.9287 70.5148C39.9641 71.7156 46.2201 71.0997 51.9055 68.745C57.5908 66.3902 62.4503 62.4024 65.8692 57.2858C69.2881 52.1692 71.1129 46.1537 71.1129 40C71.1129 31.749 67.8355 23.836 62.0016 18.0013C56.1677 12.1666 48.255 8.88816 40.0041 8.88709ZM40.0041 66.6694C34.729 66.671 29.572 65.1082 25.1852 62.1787C20.7983 59.2492 17.3788 55.0846 15.359 50.2115C13.3392 45.3385 12.8099 39.9759 13.8381 34.802C14.8662 29.6281 17.4056 24.8754 21.135 21.1448C24.8645 17.4142 29.6165 14.8734 34.79 13.8437C39.9636 12.814 45.3264 13.3416 50.2 15.3599C55.0737 17.3782 59.2393 20.7965 62.1702 25.1824C65.101 29.5684 66.6653 34.7249 66.6653 40C66.6653 47.0717 63.8566 53.854 58.8569 58.8552C53.8572 63.8565 47.0758 66.6672 40.0041 66.6694ZM40.0041 2.0519e-07C32.0926 -0.000800952 24.3587 2.34448 17.7802 6.73925C11.2017 11.134 6.07412 17.3809 3.046 24.6899C0.0178731 31.9988 -0.774838 40.0416 0.768113 47.8011C2.31106 55.5606 6.12037 62.6883 11.7143 68.2828C17.3083 73.8773 24.4356 77.6874 32.1949 79.2311C39.9543 80.7748 47.9971 79.9829 55.3064 76.9556C62.6157 73.9282 68.8631 68.8013 73.2585 62.2232C77.6539 55.6452 80 47.9114 80 40C80 29.392 75.7863 19.2185 68.2857 11.7172C60.7851 4.21582 50.612 0.00107443 40.0041 2.0519e-07ZM40.0041 75.5564C32.9713 75.5581 26.096 73.4741 20.2477 69.568C14.3995 65.662 9.84084 60.1094 7.14841 53.6125C4.45598 47.1155 3.75069 39.9661 5.12173 33.0682C6.49277 26.1704 9.87855 19.8341 14.8509 14.8607C19.8232 9.88718 26.1588 6.49996 33.0563 5.12735C39.9538 3.75473 47.1034 4.4584 53.601 7.14934C60.0985 9.84029 65.6522 14.3976 69.5595 20.245C73.4669 26.0925 75.5524 32.9672 75.5524 40C75.5524 49.4287 71.8074 58.4714 65.141 65.1393C58.4747 71.8072 49.4328 75.5543 40.0041 75.5564ZM40.0041 8.88709C33.8503 8.88629 27.8346 10.7103 22.7176 14.1286C17.6005 17.5468 13.6121 22.4057 11.2566 28.0908C8.90111 33.7759 8.2844 40.0318 9.48444 46.0673C10.6845 52.1029 13.6474 57.6471 17.9984 61.9987C22.3495 66.3503 27.8933 69.314 33.9287 70.5148C39.9641 71.7156 46.2201 71.0997 51.9055 68.745C57.5908 66.3902 62.4503 62.4024 65.8692 57.2858C69.2881 52.1692 71.1129 46.1537 71.1129 40C71.1129 31.749 67.8355 23.836 62.0016 18.0013C56.1677 12.1666 48.255 8.88816 40.0041 8.88709ZM40.0041 66.6694C34.729 66.671 29.572 65.1082 25.1852 62.1787C20.7983 59.2492 17.3788 55.0846 15.359 50.2115C13.3392 45.3385 12.8099 39.9759 13.8381 34.802C14.8662 29.6281 17.4056 24.8754 21.135 21.1448C24.8645 17.4142 29.6165 14.8734 34.79 13.8437C39.9636 12.814 45.3264 13.3416 50.2 15.3599C55.0737 17.3782 59.2393 20.7965 62.1702 25.1824C65.101 29.5684 66.6653 34.7249 66.6653 40C66.6653 47.0717 63.8566 53.854 58.8569 58.8552C53.8572 63.8565 47.0758 66.6672 40.0041 66.6694ZM40.0041 8.88709C33.8503 8.88629 27.8346 10.7103 22.7176 14.1286C17.6005 17.5468 13.6121 22.4057 11.2566 28.0908C8.90111 33.7759 8.2844 40.0318 9.48444 46.0673C10.6845 52.1029 13.6474 57.6471 17.9984 61.9987C22.3495 66.3503 27.8933 69.314 33.9287 70.5148C39.9641 71.7156 46.2201 71.0997 51.9055 68.745C57.5908 66.3902 62.4503 62.4024 65.8692 57.2858C69.2881 52.1692 71.1129 46.1537 71.1129 40C71.1129 31.749 67.8355 23.836 62.0016 18.0013C56.1677 12.1666 48.255 8.88816 40.0041 8.88709ZM40.0041 66.6694C34.729 66.671 29.572 65.1082 25.1852 62.1787C20.7983 59.2492 17.3788 55.0846 15.359 50.2115C13.3392 45.3385 12.8099 39.9759 13.8381 34.802C14.8662 29.6281 17.4056 24.8754 21.135 21.1448C24.8645 17.4142 29.6165 14.8734 34.79 13.8437C39.9636 12.814 45.3264 13.3416 50.2 15.3599C55.0737 17.3782 59.2393 20.7965 62.1702 25.1824C65.101 29.5684 66.6653 34.7249 66.6653 40C66.6653 47.0717 63.8566 53.854 58.8569 58.8552C53.8572 63.8565 47.0758 66.6672 40.0041 66.6694Z" fill="#5F3CD8"/>
</svg>
