<svg width="80" height="80" viewBox="0 0 80 80" fill="none" xmlns="http://www.w3.org/2000/svg">
<circle cx="40" cy="40" r="40" fill="#CCFFEE"/>
<path d="M31.508 35.7595C35.6767 35.7595 38.4474 37.7741 38.4474 41.4514C38.4474 41.8729 38.3965 42.1774 38.3457 42.5755H27.9751C28.0768 44.379 28.9917 45.1523 31.4573 45.1523C33.7196 45.1523 34.5075 44.6133 34.5075 43.6061V43.3719H38.3206V43.6297C38.3206 46.1827 35.6258 47.9629 31.5842 47.9629C27.3394 47.9628 24.4417 46.042 24.4417 41.8728C24.4417 38.1252 27.314 35.7596 31.508 35.7595ZM64.586 35.7595C68.9327 35.7596 71.8555 38.1252 71.8555 41.8728C71.8555 45.5735 68.9327 47.9628 64.586 47.9629C60.2393 47.9629 57.3163 45.5736 57.3163 41.8728C57.3163 38.1252 60.2393 35.7595 64.586 35.7595ZM44.3856 47.7287H40.573V32.0352H44.3856V47.7287ZM51.7447 35.9938H55.8626V38.8982H51.7447V43.091C51.7447 44.2621 52.2279 44.5665 53.575 44.5665H55.8626V47.7287H52.7107C49.7368 47.7287 47.9321 46.4404 47.932 43.4892V38.8982H45.9237V35.9938H47.932V33.7218H51.7447V35.9938ZM16.2024 44.3083H16.4566L20.2948 35.9933H24.4634L18.6425 47.7282H13.94L8.14453 35.9933H12.3893L16.2024 44.3083ZM64.586 38.8515C61.9936 38.8515 61.1036 39.8116 61.1031 41.8728C61.1031 43.934 61.9936 44.8474 64.586 44.8474C67.1532 44.8473 68.0684 43.9339 68.0684 41.8728C68.0684 39.8117 67.1532 38.8515 64.586 38.8515ZM31.4318 38.5C29.1696 38.5 28.2036 39.2028 28.0258 40.7252H34.7872C34.6855 39.1793 33.6687 38.5 31.4318 38.5Z" fill="#03162E"/>
</svg>
