<svg width="80" height="80" viewBox="0 0 80 80" fill="none" xmlns="http://www.w3.org/2000/svg">
<path fill-rule="evenodd" clip-rule="evenodd" d="M80 40C80 62.0914 62.0914 80 40 80C17.9086 80 0 62.0914 0 40C0 17.9086 17.9086 0 40 0C62.0914 0 80 17.9086 80 40ZM30.448 21.0187V18.112L49.552 12.224V15.1307L30.448 21.0187ZM59.984 58.6453C60.5062 58.0113 60.7675 57.2281 60.768 56.296C60.7675 55.3851 60.5062 54.6074 59.984 53.9733C59.4613 53.3387 58.6773 52.8587 57.632 52.5333L41.296 47.5147V50.5067L56.8907 55.184C57.232 55.28 57.488 55.4187 57.6587 55.6C57.8293 55.7813 57.9147 56.016 57.9147 56.2987C57.9147 56.5813 57.8293 56.8107 57.6587 56.9813C57.488 57.152 57.232 57.296 56.8907 57.408L41.296 62.1387V65.104L57.632 60.0853C58.6773 59.76 59.4613 59.28 59.984 58.6453ZM29.0667 45.3173C27.68 45.3173 26.3893 45.0667 25.2053 44.56C24.0213 44.0533 22.976 43.36 22.0853 42.464C21.1893 41.5733 20.4907 40.5227 19.9893 39.312C19.488 38.1067 19.232 36.8 19.232 35.392C19.232 33.984 19.4827 32.7147 19.9893 31.5307C20.4907 30.3413 21.1893 29.3013 22.0853 28.4107C22.9813 27.52 24.0213 26.8213 25.2053 26.3147C26.3893 25.808 27.68 25.5573 29.0667 25.5573C30.4533 25.5573 31.7387 25.808 32.9173 26.3147C34.096 26.816 35.1307 27.5147 36.0267 28.4107C36.9173 29.3067 37.6107 30.3467 38.1067 31.5307C38.6027 32.72 38.848 34.0053 38.848 35.392C38.848 36.7787 38.6027 38.1067 38.1067 39.312C37.6107 40.5173 36.9173 41.568 36.0267 42.464C35.136 43.36 34.096 44.0587 32.9173 44.56C31.7387 45.0613 30.4533 45.3173 29.0667 45.3173ZM29.0693 42.5547C30.0017 42.5543 30.8807 42.3676 31.7067 42C32.5333 41.6267 33.2587 41.12 33.888 40.4747C34.5173 39.8293 34.9973 39.072 35.344 38.208C35.6853 37.344 35.856 36.4053 35.856 35.3973C35.856 34.3893 35.6853 33.488 35.344 32.6293C35.0027 31.776 34.5173 31.024 33.888 30.3787C33.2587 29.7333 32.5387 29.2267 31.7227 28.8693C30.9067 28.5067 30.0213 28.3253 29.072 28.3253C28.1227 28.3253 27.2267 28.5067 26.3947 28.8693C25.5573 29.232 24.832 29.7333 24.2133 30.3787C23.5947 31.024 23.1093 31.776 22.7573 32.6293C22.4053 33.4827 22.2293 34.4053 22.2293 35.3973C22.2293 36.3893 22.4053 37.3387 22.7573 38.208C23.1093 39.072 23.5947 39.8293 24.2133 40.4747C24.832 41.12 25.5573 41.632 26.3947 42C27.2312 42.3676 28.121 42.5543 29.0693 42.5547ZM47.1307 44.56C48.3147 45.0667 49.6053 45.3173 50.992 45.3173C52.3787 45.3173 53.664 45.0613 54.8427 44.56C56.0213 44.0587 57.0613 43.36 57.952 42.464C58.8427 41.568 59.536 40.5173 60.032 39.312C60.528 38.1067 60.7733 36.7787 60.7733 35.392C60.7733 34.0053 60.528 32.72 60.032 31.5307C59.536 30.3467 58.8427 29.3067 57.952 28.4107C57.056 27.5147 56.0213 26.816 54.8427 26.3147C53.664 25.808 52.3787 25.5573 50.992 25.5573C49.6053 25.5573 48.3147 25.808 47.1307 26.3147C45.9467 26.8213 44.9067 27.52 44.0107 28.4107C43.1147 29.3013 42.416 30.3413 41.9147 31.5307C41.408 32.7147 41.1573 33.984 41.1573 35.392C41.1573 36.8 41.4133 38.1067 41.9147 39.312C42.416 40.5227 43.1147 41.5733 44.0107 42.464C44.9013 43.36 45.9467 44.0533 47.1307 44.56ZM53.632 42C52.8061 42.3676 51.9269 42.5543 50.9947 42.5547C50.0463 42.5543 49.1565 42.3676 48.32 42C47.4827 41.632 46.7573 41.12 46.1387 40.4747C45.52 39.8293 45.0347 39.072 44.6827 38.208C44.3307 37.3387 44.1547 36.3893 44.1547 35.3973C44.1547 34.4053 44.3307 33.4827 44.6827 32.6293C45.0347 31.776 45.52 31.024 46.1387 30.3787C46.7573 29.7333 47.4827 29.232 48.32 28.8693C49.152 28.5067 50.048 28.3253 50.9973 28.3253C51.9467 28.3253 52.832 28.5067 53.648 28.8693C54.464 29.2267 55.184 29.7333 55.8133 30.3787C56.4427 31.024 56.928 31.776 57.2693 32.6293C57.6107 33.488 57.7813 34.3893 57.7813 35.3973C57.7813 36.4053 57.6107 37.344 57.2693 38.208C56.9227 39.072 56.4427 39.8293 55.8133 40.4747C55.184 41.12 54.4587 41.6267 53.632 42Z" fill="white"/>
</svg>
