<svg width="36" height="24" viewBox="0 0 36 24" fill="none" xmlns="http://www.w3.org/2000/svg">
<path d="M26.9819 21.2308C26.9819 20.8292 26.8942 20.4462 26.7419 20.1C26.405 19.3523 24.9465 15.4985 24.9465 15.4985L21.7158 7.5C21.2912 6.45231 20.2758 5.76923 19.1496 5.76923H16.8512C15.7204 5.76923 14.705 6.45231 14.285 7.5L11.0543 15.4985L6.30964 0H0.277344L7.0158 22.0385C7.37118 23.2015 8.44657 24 9.66503 24H11.7789C12.9096 24 13.925 23.3169 14.345 22.2692L17.9958 13.2369L21.6696 22.3338C22.0942 23.3815 23.0819 23.6815 24.2127 23.6815C25.7404 23.6815 26.9819 22.7631 26.9819 21.2308Z" fill="white"/>
<path d="M21.6748 22.3339C22.1133 23.3355 23.1148 24.0001 24.2179 24.0001H26.3317C27.5502 24.0001 28.6256 23.2062 28.981 22.0385L32.7563 9.69238H26.724L24.9471 15.4985L22.884 22.2555C22.7086 22.8232 21.924 22.8601 21.6748 22.3339Z" fill="url(#paint0_linear_20_3793)"/>
<path d="M29.682 0L27.9189 5.76923H33.9512L35.7189 0H29.682Z" fill="url(#paint1_linear_20_3793)"/>
<defs>
<linearGradient id="paint0_linear_20_3793" x1="31.5009" y1="-2.04454" x2="25.7686" y2="22.1032" gradientUnits="userSpaceOnUse">
<stop stop-color="#47FCAA"/>
<stop offset="0.02" stop-color="#40F5B1"/>
<stop offset="0.14" stop-color="#24D9D3"/>
<stop offset="0.25" stop-color="#10C5EB"/>
<stop offset="0.35" stop-color="#04B9F9"/>
<stop offset="0.44" stop-color="#00B5FF"/>
<stop offset="0.55" stop-color="#04A5F4"/>
<stop offset="0.76" stop-color="#0F7DD7"/>
<stop offset="1" stop-color="#1D4AB3"/>
</linearGradient>
<linearGradient id="paint1_linear_20_3793" x1="32.9082" y1="-1.71231" x2="27.1805" y2="22.4354" gradientUnits="userSpaceOnUse">
<stop stop-color="#47FCAA"/>
<stop offset="0.02" stop-color="#40F5B1"/>
<stop offset="0.14" stop-color="#24D9D3"/>
<stop offset="0.25" stop-color="#10C5EB"/>
<stop offset="0.35" stop-color="#04B9F9"/>
<stop offset="0.44" stop-color="#00B5FF"/>
<stop offset="0.55" stop-color="#04A5F4"/>
<stop offset="0.76" stop-color="#0F7DD7"/>
<stop offset="1" stop-color="#1D4AB3"/>
</linearGradient>
</defs>
</svg>
