<svg width="132" height="30" viewBox="0 0 132 30" fill="none" xmlns="http://www.w3.org/2000/svg">
<g id="Group 21316">
<g id="Clip path group">
<mask id="mask0_2201_2274" style="mask-type:luminance" maskUnits="userSpaceOnUse" x="0" y="0" width="132" height="30">
<g id="clip0_7747_53282">
<path id="Vector" d="M0.336914 0.636719H131.186V29.26H0.336914V0.636719Z" fill="white"/>
</g>
</mask>
<g mask="url(#mask0_2201_2274)">
<g id="Group">
<path id="Vector_2" d="M58.0971 24.7252V17.2422H65.1643V24.7252H70.4651V5.06641H65.1629V12.5494H58.0971V5.06641H52.7949V24.7252H58.0971ZM87.8421 24.7252V20.0296H78.0366V17.2422H86.3701V12.5494H78.0366V9.76063H87.8435V5.06641H72.7358V24.7252H87.8421ZM95.2992 24.7252V17.6825H95.7122C97.3315 17.6825 98.0675 18.1813 98.8621 19.4721L102.131 24.7252H108.169L105.342 20.2954C104.341 18.7388 103.457 17.478 101.426 16.9792C104.782 16.6848 107.344 15.0123 107.344 11.2272C107.344 6.88603 104.046 5.06641 99.4523 5.06641H89.9998V24.7252H95.2992ZM99.5109 9.76063C101.013 9.76063 101.749 10.3767 101.749 11.6089C101.749 12.8124 101.013 13.4585 99.5109 13.4585H95.2992V9.76063H99.5109ZM124.402 24.7252V20.0296H114.598V17.2422H122.93V12.5494H114.598V9.76063H124.404V5.06641H109.296V24.7252H124.402ZM131.175 24.7225V19.7066H125.874V24.7225H131.175Z" fill="#F5F8FF"/>
<path id="Vector_3" d="M131.175 24.7229V19.707H125.874V24.7229H131.175Z" fill="#F5F8FF"/>
<path id="Vector_4" d="M17.2513 25.1501L17.3017 25.176L17.359 25.1719L41.344 23.7217L39.2108 27.5559L15.0091 29.0197L0.634766 21.9102L2.80605 18.0052L17.2513 25.1501ZM21.7247 8.71489L20.9492 5.04838L23.0209 1.19922L25.826 10.5618L21.7247 8.71489ZM18.2354 16.6258L9.02685 17.2596L1.95689 13.8139L4.14317 9.88572L18.234 16.6258H18.2354Z" fill="#282828" stroke="#F5F8FF" stroke-width="0.573417"/>
<path id="Vector_5" d="M41.726 23.4809L17.3552 24.9556L2.60059 17.7044L18.5779 16.7394L4.0522 9.60127L11.1862 3.58356L25.9804 10.8321L23.0799 0.636719L37.2171 7.54448L41.726 23.4809Z" fill="#F5F8FF"/>
</g>
</g>
</g>
</g>
</svg>
