<svg width="114" height="23" viewBox="0 0 114 23" fill="none" xmlns="http://www.w3.org/2000/svg">
<g id="ZWPUiB.tif">
<g id="Group">
<path id="Vector" d="M19.2675 7.6484C19.888 7.03785 20.4688 6.46577 21.0433 5.89989C24.0216 9.96031 23.395 16.8886 18.6396 20.4377C16.3848 18.1668 14.125 15.8909 11.8863 13.6373C10.1378 15.3858 8.47118 17.0524 6.74873 18.7748C9.70594 20.7653 12.8009 20.9043 15.9914 19.2973C16.5808 19.9054 17.148 20.4899 17.7089 21.0694C14.6437 23.5041 7.56901 24.1792 3.0817 18.7537C5.37871 16.4878 7.67697 14.2205 9.94296 11.9856C8.18452 10.2296 6.5055 8.55431 4.83021 6.88149C3.22689 8.78388 2.34333 12.508 4.26681 16.0646C3.66743 16.6354 3.06557 17.2088 2.4699 17.7771C-0.488542 13.8085 0.0686492 6.82441 4.87861 3.23804C6.00664 4.35738 7.1446 5.48293 8.27883 6.6122C9.41555 7.7452 10.5485 8.88192 11.6617 9.9963C13.3705 8.28502 15.0359 6.61593 16.7 4.94932C14.8237 3.243 10.7843 2.55303 7.51937 4.39957C6.92991 3.80019 6.34666 3.20577 5.76713 2.61631C10.0981 -0.541926 17.081 0.476902 20.439 5.06349C18.1668 7.29473 15.8822 9.53963 13.615 11.7659C15.3387 13.4648 17.004 15.1066 18.6706 16.7496C20.0357 15.4404 21.3126 11.4333 19.2688 7.6484H19.2675Z" fill="#F5F8FF"/>
<path id="Vector_2" d="M88.2254 15.9239C88.6473 15.945 88.9923 15.9624 89.3857 15.9822V18.2048H86.0922C85.3141 16.4439 84.5373 14.6879 83.7542 12.9158H82.1162V15.868C82.4512 15.9164 82.7863 15.9648 83.1536 16.0182V18.1738H78.0371V15.9971C78.3821 15.9686 78.7184 15.94 79.0845 15.909V7.19623C78.7532 7.15776 78.4156 7.11929 77.9863 7.06965C77.9863 6.42311 77.9676 5.7716 78.0036 5.12382C78.0098 5.01214 78.2481 4.82103 78.3759 4.82227C80.8305 4.85081 83.2951 4.77636 85.7336 4.99104C87.7539 5.1685 88.8211 6.36478 89.1015 8.2771C89.31 9.7042 88.764 11.4837 86.982 12.3735C86.9112 12.4083 86.8467 12.4567 86.7052 12.5448C87.2091 13.6666 87.7092 14.781 88.2229 15.9239H88.2254ZM82.141 7.25952V10.5381C83.0208 10.5381 83.8485 10.5915 84.6651 10.5245C85.6703 10.4413 86.1816 9.82085 86.1766 8.8467C86.1716 7.97431 85.6107 7.33025 84.6974 7.27192C83.8585 7.21732 83.0146 7.26076 82.141 7.26076V7.25952Z" fill="#F5F8FF"/>
<path id="Vector_3" d="M109.531 13.5772C109.499 13.2198 109.476 12.979 109.45 12.6961H107.212V15.8283H110.588V14.627H113.174C113.174 15.7451 113.188 16.8099 113.157 17.8746C113.153 18.0062 112.916 18.2407 112.787 18.2407C109.609 18.2407 106.431 18.2171 103.253 18.1973C103.234 18.1973 103.216 18.1824 103.141 18.1489V15.9797C103.476 15.9573 103.814 15.935 104.21 15.909V7.21355C103.86 7.17384 103.518 7.13661 103.085 7.08697C103.085 6.44043 103.082 5.81251 103.087 5.18334C103.09 4.79368 103.378 4.79492 103.656 4.79492C104.483 4.7974 105.308 4.80237 106.134 4.80361C108.24 4.80609 110.346 4.80361 112.453 4.80857C113.148 4.80857 113.178 4.84332 113.179 5.55191C113.181 6.31261 113.162 7.07332 113.185 7.83403C113.199 8.27581 113.06 8.48057 112.586 8.45327C111.938 8.41604 111.289 8.42225 110.593 8.40859V7.28056H107.197V10.1894C107.921 10.3619 108.663 10.2713 109.43 10.2502C109.468 9.96352 109.499 9.72773 109.545 9.38275C110.246 9.38275 110.941 9.36537 111.633 9.40012C111.741 9.40508 111.922 9.64583 111.926 9.77986C111.949 10.9104 111.952 12.0409 111.922 13.1714C111.918 13.3091 111.698 13.5511 111.566 13.5586C110.896 13.5983 110.222 13.5772 109.533 13.5772H109.531Z" fill="#F5F8FF"/>
<path id="Vector_4" d="M75.8142 11.7727C75.7373 12.5508 75.7175 13.6069 75.5127 14.6245C75.0647 16.8582 73.4676 18.227 71.1867 18.4379C69.8179 18.5645 68.5013 18.3821 67.3323 17.609C65.8618 16.6373 65.3294 15.1469 65.2351 13.4927C65.1606 12.181 65.147 10.8582 65.2338 9.54895C65.4225 6.69847 67.0618 4.7179 70.3056 4.62979C71.2723 4.60373 72.2018 4.75512 73.0655 5.17581C74.6515 5.94645 75.4085 7.30902 75.6318 8.98555C75.7435 9.817 75.7448 10.6633 75.813 11.7727H75.8142ZM68.088 11.5978C68.1588 12.4081 68.191 13.3128 68.3288 14.2025C68.4839 15.1978 69.2707 15.827 70.2572 15.863C71.5367 15.9101 72.285 15.4621 72.5456 14.3639C72.9687 12.5806 72.8968 10.7626 72.62 8.97687C72.4215 7.6962 71.6136 7.17996 70.3367 7.21595C69.1826 7.24945 68.4976 7.84511 68.294 9.10965C68.1675 9.89642 68.1575 10.7018 68.088 11.5965V11.5978Z" fill="#F5F8FF"/>
<path id="Vector_5" d="M37.1328 11.7309C37.0559 12.7907 37.0534 14.0714 36.8524 15.3198C36.567 17.0943 35.1883 18.2745 33.2983 18.437C31.6515 18.5785 30.1636 18.2335 29.1634 16.7729C28.6658 16.0482 28.4126 15.2279 28.4114 14.3431C28.4089 12.4953 28.399 10.6488 28.4114 8.801C28.4275 6.63056 29.625 5.08184 31.7595 4.7108C34.1111 4.30128 36.3635 5.14389 36.912 7.95591C37.1378 9.11248 37.0609 10.3286 37.1328 11.7309ZM31.2246 13.2709C31.2643 13.2784 31.3041 13.2846 31.345 13.292C32.1653 11.3115 32.9868 9.33213 33.7984 7.3739C32.6555 6.53873 31.4393 6.99789 31.2197 8.26242C31.1849 8.46346 31.175 8.6707 31.1738 8.87546C31.1676 10.2293 31.1663 11.582 31.1676 12.9359C31.1676 13.0476 31.2048 13.1605 31.2246 13.2722V13.2709ZM34.2427 9.81859C34.1893 9.81238 34.1372 9.80742 34.0838 9.80121C34.0565 9.82975 34.0168 9.85457 34.0019 9.88808C33.2362 11.7185 32.473 13.5502 31.7074 15.3806C31.5746 15.6983 31.6962 15.872 32.0002 15.9973C33.1097 16.454 34.1334 15.8484 34.2116 14.6608C34.2476 14.1086 34.2377 13.5514 34.2402 12.9979C34.2439 11.9381 34.2402 10.8784 34.2402 9.81859H34.2427Z" fill="#F5F8FF"/>
<path id="Vector_6" d="M53.2335 18.1712V16.002C53.6046 15.9672 53.9434 15.9349 54.3144 15.9002V7.19115C53.9744 7.15144 53.6356 7.11173 53.2013 7.06085C53.2013 6.4292 53.1827 5.79879 53.2174 5.17087C53.2248 5.04677 53.4222 4.89165 53.5661 4.82836C53.7063 4.76756 53.8912 4.80354 54.0563 4.80354C56.8869 4.80106 59.7163 4.79858 62.5469 4.80106C62.7666 4.80106 62.985 4.84077 63.2319 4.86435V8.46189C62.4377 8.67658 61.6485 8.54752 60.8034 8.55993C60.7736 8.12187 60.7475 7.74213 60.7178 7.30283H57.3324V10.3804H59.4967C59.5401 10.131 59.5835 9.87658 59.6332 9.58868H61.9761V13.6541H59.6108C59.5748 13.3773 59.5475 13.1751 59.5153 12.9318H57.3101V15.899C57.7246 15.9287 58.1254 15.9585 58.587 15.992V18.1736H53.2298L53.2335 18.1712Z" fill="#F5F8FF"/>
<path id="Vector_7" d="M100.893 8.96065H98.2433V7.54596C97.3783 7.1141 96.532 7.10541 95.6807 7.33996C95.1595 7.48391 94.7748 7.83758 94.575 8.34265C94.441 8.68267 94.2908 9.04503 94.2834 9.40119C94.2499 10.837 94.2201 12.2765 94.2834 13.711C94.333 14.8651 94.92 15.6308 95.8755 15.7896C96.4886 15.8914 97.1376 15.781 97.7705 15.7487C98.1415 15.7301 98.2395 15.4869 98.2222 15.1518C98.1465 13.7718 98.4207 14.0411 99.3775 14.0262C99.7895 14.02 100.203 14.0337 100.615 14.0411C100.653 14.0411 100.692 14.0672 100.807 14.1094C100.833 14.2844 100.89 14.4966 100.894 14.71C100.905 15.4074 100.891 16.1061 100.9 16.8035C100.905 17.1448 100.792 17.4041 100.478 17.5605C98.4567 18.5632 96.3458 18.794 94.2015 18.0929C92.4492 17.5208 91.6165 16.1322 91.377 14.3874C91.1276 12.5718 91.1313 10.7427 91.3696 8.92342C91.7059 6.3658 93.4097 4.7873 96.0555 4.63839C97.5806 4.55276 99.0524 4.77613 100.422 5.50954C100.756 5.68824 100.901 5.91285 100.895 6.2839C100.882 7.14513 100.891 8.00635 100.891 8.95941L100.893 8.96065Z" fill="#F5F8FF"/>
<path id="Vector_8" d="M40.9028 11.0236V8.70048C41.7789 8.70048 42.6203 8.67939 43.4592 8.71786C43.6292 8.7253 43.8302 8.93254 43.9444 9.09759C44.3725 9.72179 44.7721 10.3671 45.2325 11.0831C45.5961 10.5321 45.9709 10.0469 46.2563 9.51331C46.5938 8.8829 47.0306 8.58259 47.7777 8.68311C48.3212 8.75509 48.8834 8.69676 49.4989 8.69676V10.9032C49.4356 10.9503 49.3996 10.9987 49.3723 10.995C48.4838 10.8461 47.9638 11.2705 47.6015 12.0411C47.4029 12.4618 47.0865 12.8267 46.7874 13.2697C47.3558 14.1011 47.9043 14.9388 48.4974 15.7429C48.5992 15.8819 48.8871 15.9303 49.0931 15.9402C49.8364 15.9787 49.8402 15.9688 49.8426 16.7258C49.8439 17.0546 49.8315 17.3835 49.8426 17.7123C49.8551 18.0734 49.7074 18.2373 49.3314 18.2298C48.6923 18.2174 48.0482 18.2695 47.4141 18.2137C47.1783 18.1926 46.8941 17.9903 46.7502 17.7868C46.229 17.0559 45.7574 16.2902 45.2213 15.4674C44.6579 16.2976 44.1193 17.0621 43.618 17.8501C43.4393 18.1305 43.237 18.2373 42.9144 18.2298C42.1996 18.2137 41.4835 18.2248 40.7266 18.2248V16.0507C40.8333 16.0135 40.935 15.9378 41.0182 15.9539C41.7255 16.0842 42.1077 15.7119 42.4304 15.1473C42.7866 14.5255 43.206 13.9411 43.6279 13.2958C43.165 12.5946 42.7171 11.8885 42.2331 11.2085C42.1499 11.0918 41.9204 11.0496 41.7516 11.0285C41.5096 10.9987 41.2614 11.0211 40.9028 11.0211V11.0236Z" fill="#F5F8FF"/>
</g>
</g>
</svg>
