<svg width="126" height="26" viewBox="0 0 126 26" fill="none" xmlns="http://www.w3.org/2000/svg">
<g id="M3qJfe.tif">
<g id="Group">
<path id="Vector" d="M0.770508 17.9456C0.986814 16.9945 1.18826 16.0401 1.42108 15.0923C1.74636 13.7681 2.07 12.4438 2.44152 11.1328C2.75855 10.0132 3.31005 9.01262 4.19509 8.22169C4.72017 7.75276 5.32451 7.47866 6.11873 7.46875C6.00645 8.05988 5.88261 8.60642 5.8017 9.15957C5.6597 10.1354 5.60851 11.1129 5.84959 12.0855C6.13194 13.2281 6.83535 13.9596 7.98293 14.2271C8.56745 14.3625 9.17014 14.4764 9.76622 14.4896C11.0822 14.5194 12.3999 14.455 13.7159 14.4748C14.6719 14.4896 15.6346 14.5276 16.5807 14.6498C17.2891 14.7406 17.5384 15.1039 17.621 15.8172C17.7035 16.5421 17.5434 17.328 17.0959 18.2709H0.770508V17.9423V17.9456Z" fill="#F5F8FF"/>
<path id="Vector_2" d="M82.0963 21.782C79.6773 21.7441 77.5852 20.9515 75.9439 19.1319C75.7078 18.8693 75.4833 18.5853 75.3066 18.2815C74.0153 16.0507 73.6669 13.6565 74.2498 11.1682C75.1646 7.26968 78.7807 4.63603 83.2208 5.2222C87.7549 5.82158 90.7634 9.81913 90.2284 14.355C90.0518 15.8476 89.5696 17.2247 88.7292 18.4681C87.3009 20.5849 84.8224 21.8118 82.0963 21.782ZM87.1341 13.4303C87.0829 11.7609 86.9789 10.1015 86.2408 8.55596C85.4284 6.85523 84.0662 5.99991 82.1888 5.98505C80.3097 5.97019 78.9359 6.80405 78.1037 8.49817C77.501 9.72336 77.2814 11.0344 77.1956 12.3768C77.0701 14.3318 77.2368 16.2472 77.9501 18.0933C79.281 21.5327 83.3958 21.6433 85.2666 19.718C85.8528 19.1137 86.2392 18.407 86.5099 17.6227C86.9805 16.2621 87.0978 14.852 87.1341 13.4286V13.4303Z" fill="#F5F8FF"/>
<path id="Vector_3" d="M108.83 13.4666C108.732 16.5924 107.593 19.1583 104.776 20.7682C101.512 22.6324 97.121 21.9356 94.5782 19.1946C93.8582 18.4186 93.3943 17.4906 93.0871 16.49C92.4613 14.4557 92.3656 12.4099 93.0789 10.3773C94.1422 7.35392 96.8865 5.3345 100.096 5.16278C101.662 5.07857 103.171 5.31304 104.561 6.04617C107.154 7.41171 108.425 9.65899 108.777 12.4875C108.816 12.8111 108.813 13.1414 108.83 13.4683V13.4666ZM105.689 13.4105C105.717 11.7164 105.567 10.0635 104.819 8.52627C104.016 6.87507 102.679 6.00819 100.83 5.98508C98.9555 5.96196 97.5652 6.76114 96.7214 8.45857C96.1897 9.52854 95.9354 10.6662 95.8314 11.8419C95.6465 13.9554 95.7472 16.0409 96.5332 18.0487C96.8816 18.9371 97.4149 19.6817 98.2025 20.2299C100.481 21.8167 103.683 20.8789 104.844 18.2766C105.535 16.7245 105.73 15.0782 105.689 13.4105Z" fill="#F5F8FF"/>
<path id="Vector_4" d="M20.3206 18.2668C20.4907 17.2563 20.6823 16.3482 20.7797 15.4301C20.8325 14.9232 20.7879 14.3865 20.6806 13.8862C20.3405 12.2928 19.1285 11.3384 17.2643 11.0511C16.0506 10.8629 14.8568 11.0396 13.6531 11.1139C12.5864 11.1799 11.5148 11.2212 10.4465 11.2096C9.41614 11.1981 8.88611 10.6449 8.83987 9.63109C8.8052 8.88805 8.92243 8.17143 9.22295 7.49609H25.7151C25.4014 8.90456 25.1273 10.2371 24.8069 11.5597C24.5114 12.7783 24.1712 13.9869 23.841 15.1973C23.4084 16.7791 22.4028 17.8012 20.7962 18.214C20.6459 18.252 20.4841 18.2503 20.3206 18.2685V18.2668Z" fill="#F5F8FF"/>
<path id="Vector_5" d="M63.4198 14.1253C63.4198 14.8171 63.4198 15.4396 63.4198 16.0638C63.4215 16.9653 63.4066 17.8686 63.433 18.7701C63.471 20.0828 64.0373 20.6525 65.3451 20.7466C65.5647 20.7614 65.7876 20.7532 66.0006 20.7961C66.0749 20.811 66.1839 20.9513 66.174 21.0207C66.1608 21.133 66.0865 21.2799 65.994 21.3295C65.8834 21.3872 65.7265 21.3641 65.5895 21.3641C63.2266 21.3641 60.8638 21.3641 58.5009 21.3641C58.3903 21.3641 58.2565 21.3988 58.1773 21.3493C58.06 21.275 57.9428 21.1511 57.9081 21.0256C57.8916 20.9662 58.0485 20.7978 58.1492 20.7763C58.3605 20.7301 58.5868 20.7515 58.8047 20.7367C59.8004 20.6673 60.3073 20.2512 60.517 19.282C60.5913 18.9385 60.6144 18.5786 60.6144 18.2252C60.621 15.0813 60.6227 11.9375 60.6144 8.79358C60.6144 8.38573 60.5715 7.97624 60.5153 7.57169C60.413 6.83361 59.9721 6.39769 59.2373 6.2689C58.8873 6.20781 58.529 6.19129 58.1806 6.1236C58.0749 6.10378 57.9874 5.98489 57.8916 5.91059C57.9857 5.80326 58.0633 5.66952 58.1806 5.59686C58.2615 5.54733 58.3952 5.57705 58.5042 5.5787C61.0867 5.59356 63.6691 5.60017 66.2516 5.62824C67.2753 5.6398 68.2694 5.8561 69.2205 6.23257C71.4083 7.0978 72.4172 9.01484 71.8459 11.2373C71.5404 12.4262 70.7462 13.2436 69.6944 13.8033C68.3618 14.5117 66.9137 14.6025 65.4425 14.4291C64.7953 14.3532 64.1529 14.2376 63.4165 14.1253H63.4198ZM63.4198 6.68665C63.4198 7.40823 63.4198 8.11329 63.4198 8.81835C63.4198 10.0749 63.4347 11.3331 63.4115 12.5897C63.4049 12.9893 63.5486 13.2171 63.9284 13.2848C64.4667 13.3806 65.0066 13.5127 65.5498 13.5309C66.955 13.5804 68.0365 12.8423 68.5402 11.5362C68.9183 10.5587 68.9414 9.55973 68.6145 8.56571C68.2727 7.52876 67.5742 6.85342 66.491 6.59749C65.4838 6.35972 64.4881 6.41255 63.4215 6.68665H63.4198Z" fill="#F5F8FF"/>
<path id="Vector_6" d="M29.9902 21.8441V16.524C30.2924 16.4431 30.5021 16.4381 30.6127 16.808C30.7613 17.3033 30.9215 17.802 31.1494 18.2643C32.0658 20.1269 33.7896 21.0515 35.7248 20.7279C36.6693 20.5694 37.452 20.1318 37.8202 19.2039C38.2 18.2478 37.9705 17.3661 37.2968 16.6164C36.9335 16.2119 36.5339 15.8189 36.0897 15.5085C35.3054 14.9603 34.4584 14.5012 33.6641 13.9646C32.8947 13.4445 32.1252 12.9128 31.4185 12.3134C30.763 11.757 30.299 11.0403 30.1174 10.1768C29.5692 7.55962 31.26 5.35692 33.9564 5.16373C34.8497 5.09934 35.7067 5.24134 36.5471 5.53195C36.8064 5.62111 37.059 5.7334 37.3248 5.79779C37.7756 5.90842 38.2082 5.89026 38.5021 5.45765C38.6986 5.16704 38.9348 5.06301 39.3294 5.26281C39.3294 6.81328 39.3294 8.39347 39.3294 9.97532C39.3294 10.0034 39.3377 10.0381 39.3244 10.0562C39.2501 10.1553 39.1659 10.3336 39.0933 10.3303C38.9595 10.3254 38.7647 10.2428 38.7102 10.1355C38.5632 9.84652 38.5154 9.50308 38.3552 9.22237C37.9655 8.53713 37.5857 7.83702 37.1085 7.21287C36.5521 6.48469 35.7298 6.13298 34.8266 6.03887C33.9911 5.95135 33.2249 6.15115 32.7246 6.88593C32.2359 7.60585 32.2309 8.41329 32.6421 9.14146C32.9145 9.62526 33.3256 10.0793 33.7764 10.4079C34.6598 11.0519 35.6059 11.6133 36.5422 12.1813C37.5081 12.7675 38.4427 13.385 39.1923 14.242C40.2161 15.4111 40.6173 16.7568 40.2673 18.2759C39.838 20.1351 38.2429 21.5023 36.316 21.7285C35.3748 21.8392 34.4518 21.7797 33.5469 21.4941C33.1803 21.3785 32.8187 21.2497 32.4505 21.1391C31.7801 20.9393 31.1609 20.926 30.6557 21.5436C30.5335 21.6922 30.2693 21.7236 29.9902 21.8441Z" fill="#F5F8FF"/>
<path id="Vector_7" d="M45.5229 21.3169C45.4337 21.0296 45.3809 20.7918 45.764 20.7555C45.901 20.7423 46.0381 20.7472 46.1751 20.7307C47.293 20.6019 47.8725 20.0587 47.9303 18.9309C47.9964 17.6232 47.9848 16.3105 47.9766 14.9994C47.9766 14.7749 47.856 14.5272 47.7289 14.3307C46.2824 12.1082 44.8277 9.89063 43.3664 7.67803C43.1254 7.31476 42.8595 6.96306 42.5706 6.63777C42.242 6.26956 41.7862 6.16718 41.309 6.11764C41.2199 6.10774 41.0762 5.94757 41.0812 5.86501C41.0878 5.76924 41.2149 5.6355 41.3173 5.60247C41.4676 5.55459 41.6426 5.5777 41.8077 5.5777C43.6191 5.5777 45.4321 5.5777 47.2434 5.5777C47.3541 5.5777 47.4796 5.54633 47.5687 5.58926C47.7157 5.65861 47.8412 5.77585 47.9749 5.87327C47.8346 5.96078 47.6992 6.05325 47.5539 6.13251C47.5109 6.15562 47.4449 6.13746 47.392 6.14572C46.3237 6.30423 46.0315 6.79794 46.5912 7.716C47.7124 9.55709 48.8996 11.3569 50.1066 13.2508C50.28 13.0163 50.4104 12.8595 50.5194 12.6894C51.3813 11.3585 52.2466 10.031 53.0969 8.69186C53.3595 8.27741 53.6253 7.8547 53.8069 7.40228C54.0876 6.70052 53.835 6.31744 53.1019 6.15397C52.8691 6.10278 52.4414 6.29597 52.4546 5.87492C52.4695 5.42249 52.907 5.58926 53.1696 5.58596C54.4047 5.5678 55.6398 5.5777 56.8765 5.57936C57.04 5.57936 57.2183 5.55954 57.3636 5.61568C57.4561 5.65036 57.5337 5.80392 57.5519 5.9162C57.5618 5.97564 57.4313 6.11765 57.362 6.12095C56.1104 6.16388 55.4978 7.07039 54.8984 7.95543C53.6121 9.8576 52.3621 11.7845 51.0841 13.6917C50.8447 14.0483 50.7291 14.4033 50.7374 14.8343C50.7605 16.0628 50.7324 17.2929 50.7555 18.5214C50.7836 20.0257 51.307 20.5788 52.803 20.7456C52.912 20.7571 53.0457 20.7324 53.1233 20.7869C53.2158 20.8513 53.3198 20.9883 53.3132 21.0857C53.305 21.1815 53.1795 21.2938 53.0771 21.3466C52.9896 21.3929 52.8625 21.3681 52.7535 21.3681C50.4748 21.3681 48.1962 21.3681 45.9175 21.3664C45.7854 21.3664 45.6533 21.3367 45.5278 21.3202L45.5229 21.3169Z" fill="#F5F8FF"/>
<path id="Vector_8" d="M125.228 17.0494C124.807 18.3687 124.381 19.6897 123.97 21.0139C123.891 21.2698 123.746 21.3689 123.495 21.3623C123.329 21.359 123.164 21.3623 122.999 21.3623C119.178 21.3623 115.359 21.3623 111.538 21.3623C111.319 21.3623 111.094 21.3805 110.883 21.3342C110.789 21.3144 110.666 21.1592 110.663 21.0635C110.661 20.966 110.772 20.8257 110.87 20.7778C110.983 20.72 111.139 20.7497 111.274 20.7283C112.286 20.5631 112.815 19.9869 112.891 18.9631C112.905 18.7732 112.904 18.5801 112.904 18.3885C112.904 15.0795 112.904 11.7722 112.904 8.46318C112.904 8.29971 112.904 8.13459 112.894 7.97112C112.831 6.87307 112.349 6.33809 111.254 6.15645C111.119 6.13334 110.972 6.15315 110.848 6.10857C110.767 6.07885 110.652 5.95336 110.665 5.89887C110.691 5.78989 110.779 5.64789 110.874 5.61321C111.021 5.56037 111.198 5.57854 111.363 5.57854C113.48 5.57854 115.595 5.57854 117.712 5.57854C117.823 5.57854 117.948 5.54551 118.037 5.58844C118.186 5.65944 118.311 5.77833 118.445 5.87575C118.305 5.96326 118.168 6.11683 118.021 6.12508C115.914 6.25388 115.734 6.99031 115.729 8.66627C115.719 12.1387 115.726 15.6112 115.726 19.0837C115.726 19.2207 115.721 19.3578 115.736 19.4932C115.795 20.0447 115.942 20.2032 116.484 20.3039C116.591 20.3237 116.702 20.3435 116.811 20.3435C118.047 20.3435 119.284 20.3468 120.521 20.3353C122.078 20.3221 123.14 19.4833 123.949 18.2531C124.158 17.9344 124.343 17.5959 124.515 17.2541C124.67 16.9454 124.882 16.8793 125.227 17.0477L125.228 17.0494Z" fill="#F5F8FF"/>
<path id="Vector_9" d="M7.0645 21.1364C8.84449 21.9059 10.6426 21.7639 12.4193 21.7474C14.698 21.7275 16.975 21.6285 19.252 21.5558C19.5459 21.5459 19.8381 21.4947 20.1899 21.4551C19.9818 22.6968 19.3593 23.6182 18.4148 24.3348C17.4934 25.0349 16.4169 25.4526 15.2858 25.4609C12.3219 25.484 9.35636 25.3948 6.39081 25.347C6.34458 25.347 6.29834 25.2974 6.17285 25.2264C6.46016 23.9088 6.75407 22.5647 7.06615 21.1348L7.0645 21.1364Z" fill="#F5F8FF"/>
<path id="Vector_10" d="M20.3588 0.258846C20.0187 1.78785 19.7066 3.19137 19.3764 4.67579C18.7456 4.09457 18.0389 3.9988 17.2843 3.98559C15.6381 3.95587 13.9951 3.85515 12.3489 3.82543C10.3196 3.78745 8.2985 3.88487 6.29395 4.31914C6.63409 2.199 8.60892 0.539549 10.0009 0.415709C13.3974 0.115192 16.7939 0.248939 20.3588 0.258846Z" fill="#F5F8FF"/>
</g>
</g>
</svg>
