<svg width="94" height="18" viewBox="0 0 94 18" fill="none" xmlns="http://www.w3.org/2000/svg">
<g id="01_Galxe_A_Full Logo_White 1" clip-path="url(#clip0_2201_2399)">
<path id="Vector" fill-rule="evenodd" clip-rule="evenodd" d="M0.626953 17.3293L16.9712 3.74732C17.1715 3.57313 17.3337 3.35975 17.4478 3.12041C17.5619 2.88108 17.6256 2.62089 17.6348 2.35599C17.6441 2.09108 17.5986 1.82711 17.5014 1.58045C17.4041 1.33378 17.2572 1.10968 17.0695 0.922053C16.8815 0.734434 16.6567 0.58741 16.4093 0.49014C16.1619 0.39287 15.8971 0.347432 15.6313 0.356632C15.3655 0.365833 15.1044 0.429478 14.8644 0.543624C14.6243 0.65777 14.4103 0.81997 14.2357 1.02015L0.626953 17.3293ZM8.51153 2.86264L1.62974 8.01291L6.79107 1.14589C6.89664 1.00549 7.0312 0.889341 7.18562 0.805289C7.34003 0.721235 7.51079 0.671238 7.68623 0.658683C7.86166 0.646128 8.03776 0.671304 8.20263 0.73251C8.3675 0.793715 8.51724 0.889525 8.64183 1.01346C8.7666 1.13761 8.86313 1.28707 8.9249 1.45172C8.98668 1.61637 9.01226 1.79236 8.99993 1.96775C8.98753 2.14313 8.9376 2.31381 8.85334 2.46821C8.76909 2.62262 8.65246 2.75713 8.51153 2.86264ZM16.8437 11.1783L9.96184 16.3286L15.1232 9.46157C15.2287 9.32117 15.3633 9.20502 15.5177 9.12094C15.6721 9.03692 15.8428 8.9869 16.0183 8.97435C16.1938 8.96181 16.3699 8.98696 16.5347 9.04819C16.6995 9.10936 16.8494 9.2052 16.9739 9.32911C17.0987 9.45326 17.1952 9.60275 17.257 9.7674C17.3188 9.93204 17.3444 10.108 17.332 10.2834C17.3197 10.4588 17.2696 10.6295 17.1854 10.7839C17.1011 10.9383 16.9846 11.0728 16.8437 11.1783Z" fill="#F5F8FF"/>
<path id="Vector_2" fill-rule="evenodd" clip-rule="evenodd" d="M26.7476 8.84415C26.7476 6.60245 28.6571 4.66131 31.3036 4.66131C32.6156 4.66131 33.7874 5.13905 34.621 5.88981C34.6708 5.93467 34.7475 5.93299 34.7939 5.88455L36.3875 4.21802C36.4338 4.16958 36.4321 4.09276 36.3827 4.04738C35.0664 2.83714 33.2599 2.11523 31.3036 2.11523C27.3877 2.11523 24.1963 5.0609 24.1963 8.84415C24.1963 12.6274 27.3877 15.5731 31.3036 15.5731C33.0447 15.5731 34.7654 14.9904 36.0401 13.9913L36.4813 13.6455C36.5107 13.6225 36.5278 13.5874 36.5278 13.5501V12.9902V11.8752V11.7451V8.84415V7.87421C36.5278 7.80723 36.4734 7.75297 36.4063 7.75297H33.1784C33.145 7.75297 33.113 7.76673 33.09 7.79098L31.0258 9.97333C30.9527 10.0507 31.0076 10.1778 31.1141 10.1778H33.855C33.9221 10.1778 33.9765 10.2321 33.9765 10.299V11.7451V11.8752V12.2493C33.9765 12.2924 33.9536 12.3323 33.916 12.3535C33.1757 12.7707 32.2531 13.027 31.3036 13.027C28.6571 13.027 26.7476 11.0858 26.7476 8.84415ZM70.1199 2.4184H67.2606C67.161 2.4184 67.1039 2.53213 67.1634 2.6121L71.8233 8.85033C71.8561 8.89373 71.8554 8.95338 71.8226 8.99636L67.1677 15.0752C67.1069 15.155 67.164 15.27 67.2642 15.27H70.3593C70.3981 15.27 70.434 15.2519 70.4571 15.2212L73.4227 11.2515C73.4713 11.1865 73.5685 11.1865 73.6171 11.2515L76.5827 15.2212C76.6058 15.2519 76.6417 15.27 76.6799 15.27H79.775C79.8758 15.27 79.9329 15.155 79.8715 15.0752L75.2172 8.99636C75.1843 8.95338 75.1837 8.89373 75.2159 8.85033L79.8764 2.6121C79.9359 2.53213 79.8788 2.4184 79.7786 2.4184H76.9199C76.8816 2.4184 76.8464 2.43601 76.8233 2.46602L73.6165 6.65385C73.5679 6.71739 73.4719 6.71739 73.4233 6.65385L70.2165 2.46602C70.1934 2.43601 70.1576 2.4184 70.1199 2.4184ZM47.5653 2.41828H44.8076C44.7595 2.41828 44.716 2.44654 44.6965 2.49038L39.0941 15.0995C39.0585 15.1797 39.1173 15.2699 39.2052 15.2699H41.8543C41.9028 15.2699 41.9467 15.2412 41.9659 15.1967L43.0366 12.7239H49.3363L50.4071 15.1967C50.4263 15.2412 50.4701 15.2699 50.5186 15.2699H53.1678C53.2556 15.2699 53.3144 15.1797 53.2789 15.0995L47.6765 2.49037C47.657 2.44654 47.6134 2.41828 47.5653 2.41828ZM48.3388 10.4203H44.0341L46.0749 5.70695C46.1172 5.60941 46.2558 5.60941 46.298 5.70695L48.3388 10.4203ZM56.3269 2.41834C56.2597 2.41834 56.2054 2.47262 56.2054 2.53958V15.1487C56.2054 15.2157 56.2597 15.27 56.3269 15.27H58.3315H58.9997H63.436C63.4731 15.27 63.5083 15.253 63.5314 15.2238L65.1618 13.1627C65.225 13.0832 65.1679 12.9664 65.0664 12.9664H59.1212V2.53958C59.1212 2.47262 59.0668 2.41834 58.9997 2.41834H56.3269ZM85.7323 4.84317C85.7323 4.77621 85.787 4.72193 85.8538 4.72193H93.3256C93.3931 4.72193 93.4471 4.66765 93.4471 4.60069V2.53958C93.4471 2.47262 93.3931 2.41834 93.3256 2.41834H82.938C82.9368 2.41834 82.9356 2.41836 82.9344 2.4184C82.8694 2.4184 82.8165 2.47098 82.8165 2.53585V15.1488C82.8165 15.2158 82.8712 15.27 82.938 15.27H85.7323V15.27H93.5686C93.6361 15.27 93.6901 15.2157 93.6901 15.1487V13.0876C93.6901 13.0206 93.6361 12.9664 93.5686 12.9664H85.8538C85.787 12.9664 85.7323 12.9121 85.7323 12.8451V10.0566C85.7323 9.98958 85.787 9.93532 85.8538 9.93532H92.8397C92.9071 9.93532 92.9612 9.88106 92.9612 9.81408V7.75297C92.9612 7.68598 92.9071 7.63173 92.8397 7.63173H85.8538C85.787 7.63173 85.7323 7.57747 85.7323 7.51049V4.84317Z" fill="#F5F8FF"/>
</g>
<defs>
<clipPath id="clip0_2201_2399">
<rect width="93.0634" height="16.9738" fill="white" transform="translate(0.626953 0.355469)"/>
</clipPath>
</defs>
</svg>
