<svg width="104" height="28" viewBox="0 0 104 28" fill="none" xmlns="http://www.w3.org/2000/svg">
<g id="Group 21268">
<path id="Vector" d="M52.3013 5.94996V21.764C52.3013 21.8844 52.211 22.0049 52.0603 22.0049H50.4036C49.6506 22.0049 48.9277 21.6133 48.506 20.9808L41.0357 9.4441L41.2767 15.1974V21.7941C41.2767 21.9146 41.1863 22.035 41.0357 22.035H38.867C38.7465 22.035 38.626 21.9447 38.626 21.7941V5.94996C38.626 5.82947 38.7163 5.70898 38.867 5.70898H40.4935C41.2466 5.70898 41.9695 6.10057 42.3912 6.73313L49.8615 18.2397L49.6205 12.4864V5.94996C49.6205 5.82947 49.7108 5.70898 49.8615 5.70898H52.0302C52.211 5.70898 52.3013 5.79935 52.3013 5.94996Z" fill="#F5F8FF"/>
<path id="Vector_2" d="M74.5306 21.9748H72.2413C72.0907 21.9748 71.9702 21.8242 72.0305 21.6736L78.1151 5.91984C78.1754 5.79935 78.2958 5.70898 78.4163 5.70898H81.308C81.4586 5.70898 81.5791 5.79935 81.6093 5.91984L87.724 21.6736C87.7842 21.8242 87.6638 21.9748 87.5132 21.9748H85.2239C85.1335 21.9748 85.0432 21.9146 85.013 21.8242L80.1032 8.87178C80.0429 8.69105 79.7417 8.69105 79.6815 8.87178L74.7716 21.8242C74.7113 21.9146 74.621 21.9748 74.5306 21.9748Z" fill="#F5F8FF"/>
<path id="Vector_3" d="M103.689 21.6133L99.1103 15.7697C101.701 15.2877 103.207 13.5407 103.207 10.8598C103.207 7.78739 101.219 5.70898 97.6644 5.70898H91.2786C91.0979 5.70898 90.9473 5.85959 90.9473 6.04032C90.9473 7.2452 91.9112 8.2091 93.116 8.2091H97.4235C99.5621 8.2091 100.586 9.29349 100.586 10.8899C100.586 12.4864 99.5923 13.5708 97.4235 13.5708H91.3388C91.1581 13.5708 91.0075 13.7214 91.0075 13.9021V21.7338C91.0075 21.8543 91.0979 21.9748 91.2485 21.9748H93.4173C93.5378 21.9748 93.6582 21.8844 93.6582 21.7338V15.9203H96.1584L100.134 21.1013C100.556 21.6736 101.219 21.9748 101.942 21.9748H103.598C103.719 21.9748 103.809 21.764 103.689 21.6133Z" fill="#F5F8FF"/>
<path id="Vector_4" d="M67.6635 5.70898H57.5727C57.392 5.70898 57.2715 5.82947 57.2715 6.0102C57.2715 7.21508 58.2655 8.2091 59.4704 8.2091H67.6635C67.784 8.2091 67.9045 8.11874 67.9045 7.96813V5.91984C67.8744 5.79935 67.784 5.70898 67.6635 5.70898ZM67.6635 19.4747H60.1331C60.0126 19.4747 59.8921 19.3843 59.8921 19.2337V15.1673C59.8921 15.0468 59.9825 14.9263 60.1331 14.9263H67.0912C67.2117 14.9263 67.3322 14.8359 67.3322 14.6853V12.637C67.3322 12.5165 67.2418 12.396 67.0912 12.396H57.6028C57.4221 12.396 57.2715 12.5467 57.2715 12.7274V21.6133C57.2715 21.7941 57.4221 21.9447 57.6028 21.9447H67.6635C67.784 21.9447 67.9045 21.8543 67.9045 21.7037V19.6554C67.8744 19.5651 67.784 19.4747 67.6635 19.4747Z" fill="#F5F8FF"/>
<path id="Vector_5" d="M22.4804 1.67272L16.8175 10.0767C16.4259 10.649 17.179 11.3418 17.7212 10.8599L23.2937 6.01027C23.4443 5.88978 23.6552 5.98015 23.6552 6.191V21.3423C23.6552 21.5532 23.3841 21.6435 23.2636 21.4929L6.39534 1.31125C5.85315 0.648573 5.06998 0.287109 4.19644 0.287109H3.594C2.02766 0.287109 0.732422 1.58235 0.732422 3.17881V24.5051C0.732422 26.1016 2.02766 27.3968 3.62413 27.3968C4.61815 27.3968 5.55193 26.8847 6.09412 26.0112L11.757 17.6072C12.1486 17.0349 11.3956 16.3421 10.8534 16.824L5.28083 21.6435C5.13022 21.764 4.91937 21.6737 4.91937 21.4628V6.34161C4.91937 6.13076 5.19046 6.04039 5.31095 6.191L22.1792 26.3727C22.7214 27.0353 23.5347 27.3968 24.3781 27.3968H24.9806C26.577 27.3968 27.8723 26.1016 27.8723 24.5051V3.17881C27.8421 1.58235 26.5469 0.287109 24.9504 0.287109C23.9564 0.287109 23.0226 0.799181 22.4804 1.67272Z" fill="#F5F8FF"/>
</g>
</svg>
