<svg width="165" height="66" viewBox="0 0 165 66" fill="none" xmlns="http://www.w3.org/2000/svg">
<path fill-rule="evenodd" clip-rule="evenodd" d="M36.361 29.3079C34.2895 23.2173 27.7321 23.3482 27.7321 23.3482H22.6416V28.0518H18.1085V32.5366H22.6788V35.7847H26.0259V32.5002H22.6788V28.1247H27.9179C31.3241 28.2961 32.1538 31.9897 32.1538 31.9897C32.7888 36.7575 27.4349 37.8601 27.4349 37.8601V42.3449C34.1862 41.9533 36.1886 37.4535 36.7787 34.6168C37.0897 33.1211 37.1101 31.5099 36.361 29.3079ZM20.0035 41.1894H23.5449V37.7142H20.0035V41.1894ZM17.2539 37.7124H20.002V35.0157H17.2539V37.7124Z" fill="url(#paint0_linear_2476_530)"/>
<path d="M46.6486 39.7722V24.7881H49.6668V39.7722H46.6486ZM50.8227 39.7722V36.754C51.1367 36.754 51.4292 36.6256 51.7003 36.3687C51.9001 36.1404 52.0072 35.8692 52.0214 35.5553V29.0051C52.0214 28.7197 51.9001 28.4414 51.6575 28.1702C51.4292 27.9419 51.1509 27.8206 50.8227 27.8063V24.7881C52.4067 24.7881 53.6055 25.4945 54.4189 26.9073C54.8327 27.6351 55.0397 28.3344 55.0397 29.0051V35.5553C55.0397 37.1821 54.319 38.3951 52.8777 39.1943C52.1641 39.5796 51.4791 39.7722 50.8227 39.7722ZM56.6665 35.8978V28.684C56.6665 27.8563 56.9733 27.05 57.587 26.2651C58.4004 25.2234 59.4992 24.6954 60.8835 24.6811V27.6993C60.2841 27.7136 59.8988 27.9919 59.7275 28.5341C59.699 28.5912 59.6847 28.6412 59.6847 28.684V35.8978C59.6847 36.1261 59.806 36.3473 60.0486 36.5613C60.277 36.7611 60.5552 36.861 60.8835 36.861V39.8792C59.2851 39.8792 58.0793 39.2085 57.2659 37.8671C56.8663 37.1821 56.6665 36.5257 56.6665 35.8978ZM62.0394 39.8792V36.861C62.0394 36.861 62.2035 36.7968 62.5317 36.6684C62.7315 36.5257 62.8671 36.3758 62.9384 36.2188C63.0098 36.0333 63.0454 35.7693 63.0454 35.4268V35.17L65.9995 35.8764C65.9995 37.1179 65.5 38.1454 64.501 38.9588C63.7447 39.5724 62.9241 39.8792 62.0394 39.8792ZM62.0394 27.6993V24.6811C63.0811 24.6811 64.023 25.1377 64.8649 26.0511C65.6213 26.8788 65.9995 27.7707 65.9995 28.7268L63.0454 29.4974V29.1763C63.0454 28.8196 63.0098 28.5555 62.9384 28.3843C62.8813 28.2416 62.7743 28.1132 62.6173 27.999C62.4746 27.8848 62.3462 27.8063 62.232 27.7635L62.0394 27.6993ZM66.7487 27.7421V24.7881H76.0174V27.7421H72.8921V39.7722H69.8739V27.7421H66.7487ZM82.1609 39.7508V24.7881H89.9526V27.7849H85.1791V30.8246H87.9405V33.8428H85.1791V39.7508H82.1609ZM91.5795 25.837C91.5795 25.2519 91.8435 24.8095 92.3715 24.5098C92.6141 24.3671 92.8709 24.2958 93.1421 24.2958C93.7414 24.2958 94.191 24.5598 94.4907 25.0878C94.6191 25.3304 94.6833 25.5801 94.6833 25.837C94.6833 26.4364 94.4193 26.8859 93.8913 27.1856C93.6487 27.314 93.399 27.3782 93.1421 27.3782C92.5284 27.3782 92.0718 27.1071 91.7721 26.5648C91.6437 26.3365 91.5795 26.0939 91.5795 25.837ZM91.7293 39.7722V28.2131H94.5977V39.7722H91.7293ZM96.567 39.7722V30.8888C96.567 30.1753 96.8881 29.476 97.5303 28.791C98.3152 27.9776 99.2927 27.5637 100.463 27.5495V30.3965C99.8635 30.4678 99.5353 30.7461 99.4782 31.2313V39.7722H96.567ZM101.448 30.3965V27.5495C102.832 27.5495 103.924 28.0989 104.723 29.1977C105.151 29.7971 105.365 30.3608 105.365 30.8888V39.7722H102.454V31.2313C102.454 30.7604 102.19 30.4892 101.662 30.4179C101.59 30.4036 101.519 30.3965 101.448 30.3965ZM106.713 36.9466V35.8549C106.728 34.9416 107.113 34.2352 107.869 33.7358C108.055 33.6359 108.804 33.3576 110.117 32.9009C111.644 32.3872 112.407 31.9305 112.407 31.531V31.0386C112.393 30.5249 112.079 30.2466 111.465 30.2038V27.5709C112.536 27.5709 113.435 27.9348 114.163 28.6626C114.819 29.3333 115.147 30.0611 115.147 30.846V36.4329C115.162 36.861 115.361 37.0893 115.747 37.1179V39.7722C114.876 39.7722 114.177 39.5439 113.649 39.0872C113.092 39.5296 112.372 39.7579 111.487 39.7722V37.1393C111.601 37.1393 111.708 37.125 111.808 37.0965C112.208 36.9823 112.407 36.7112 112.407 36.2831V34.5278C112.022 34.7561 111.273 35.0273 110.16 35.3412C109.703 35.4554 109.439 35.5339 109.368 35.5767C109.196 35.6623 109.104 35.8264 109.089 36.069V36.3687C109.089 36.4543 109.097 36.5399 109.111 36.6256C109.196 36.968 109.603 37.1393 110.331 37.1393V39.7722C109.375 39.7722 108.561 39.5296 107.891 39.0444C107.106 38.4736 106.713 37.7743 106.713 36.9466ZM106.863 30.6319C106.878 29.9041 107.177 29.2405 107.762 28.6412C108.504 27.9276 109.368 27.5709 110.352 27.5709V30.2038C109.696 30.2181 109.361 30.6747 109.346 31.5738L106.863 30.6319ZM117.095 39.7722V30.8888C117.095 30.1753 117.416 29.476 118.059 28.791C118.843 27.9776 119.821 27.5637 120.991 27.5495V30.3965C120.392 30.4678 120.064 30.7461 120.006 31.2313V39.7722H117.095ZM121.976 30.3965V27.5495C123.36 27.5495 124.452 28.0989 125.251 29.1977C125.679 29.7971 125.893 30.3608 125.893 30.8888V39.7722H122.982V31.2313C122.982 30.7604 122.718 30.4892 122.19 30.4179C122.118 30.4036 122.047 30.3965 121.976 30.3965ZM127.52 36.4543V30.846C127.534 30.1039 127.848 29.4046 128.462 28.7482C129.204 27.9633 130.153 27.5709 131.309 27.5709V30.3108C130.709 30.3536 130.381 30.5463 130.324 30.8888V36.4543C130.324 36.7968 130.574 36.9895 131.073 37.0323C131.159 37.0465 131.245 37.0537 131.33 37.0537V39.7722C129.817 39.7722 128.704 39.18 127.991 37.9955C127.677 37.4675 127.52 36.9538 127.52 36.4543ZM132.293 30.3322V27.5709C133.421 27.5709 134.334 28.0061 135.033 28.8766C135.533 29.4903 135.783 30.1824 135.783 30.953L133.171 31.9591V31.2527C133.142 30.6533 132.85 30.3465 132.293 30.3322ZM132.293 39.7936V37.0323C132.907 37.0323 133.264 36.8682 133.364 36.5399C133.407 36.4115 133.428 36.2617 133.428 36.0904V35.384L136.039 36.3901C136.054 37.3605 135.611 38.2096 134.712 38.9374C133.97 39.5368 133.164 39.8222 132.293 39.7936ZM137.281 36.4543V30.846C137.295 30.1467 137.616 29.4617 138.244 28.791C139.015 27.9919 139.957 27.5851 141.07 27.5709V30.268C140.656 30.268 140.371 30.4464 140.214 30.8032C140.171 30.8888 140.149 30.9673 140.149 31.0386V32.1089H143.339V31.06C143.325 30.532 142.954 30.268 142.226 30.268V27.5709C143.267 27.5709 144.181 27.9276 144.966 28.6412C145.651 29.2691 146 29.9969 146.015 30.8246V34.8703H140.149V36.4543C140.249 36.8682 140.563 37.0965 141.091 37.1393V39.7722C139.75 39.7722 138.687 39.2228 137.902 38.124C137.488 37.5389 137.281 36.9823 137.281 36.4543ZM142.226 39.7722V37.1607C142.996 37.1464 143.489 36.7825 143.703 36.069L146.036 36.9466C145.822 37.86 145.28 38.5949 144.409 39.1514C143.738 39.5653 143.011 39.7722 142.226 39.7722Z" fill="#F5F8FF"/>
<defs>
<linearGradient id="paint0_linear_2476_530" x1="3.51117" y1="56.6074" x2="39.0534" y2="19.6972" gradientUnits="userSpaceOnUse">
<stop stop-color="white"/>
<stop offset="0.5" stop-color="#929292"/>
<stop offset="1" stop-color="#535353"/>
</linearGradient>
</defs>
</svg>
