<svg width="128" height="35" viewBox="0 0 128 35" fill="none" xmlns="http://www.w3.org/2000/svg">
<g clip-path="url(#clip0_2300_7151)">
<path d="M17.2476 11.3186V17.7481H10.7983C7.2152 17.7444 3.63389 17.7426 0.0507812 17.739V0.603516C5.77944 0.603516 11.5099 0.603516 17.2386 0.603516C17.2404 4.17582 17.244 7.74632 17.2458 11.3186H17.2476Z" fill="#AEAEAE"/>
<path d="M17.2474 11.3186C17.2456 7.74632 17.242 4.17582 17.2402 0.603516H19.1029C19.3281 0.87914 19.674 0.792669 19.9532 0.837706C23.9921 1.48263 27.3609 3.34715 30.0757 6.3718C32.268 8.81459 33.6462 11.6663 34.1686 14.9198C34.3145 15.8313 34.4262 16.741 34.4226 17.703H23.6985C23.5832 15.8295 22.9275 14.1974 21.4935 12.9381C20.2811 11.8735 18.8489 11.3799 17.251 11.3186H17.2474Z" fill="#717171"/>
<path d="M0.0507812 17.7383C3.63389 17.7419 7.2152 17.7437 10.7983 17.7473C10.892 19.8568 11.7027 21.6042 13.423 22.8851C14.2571 23.5048 15.1849 23.9047 16.2207 24.0452C16.527 24.0866 16.8332 24.1371 17.1899 24.1911V34.8162C16.4675 34.9657 15.7163 34.8054 14.9777 34.7099C12.6412 34.4054 10.4434 33.665 8.42939 32.4328C4.2626 29.8874 1.61625 26.2376 0.486736 21.4979C0.360633 20.9683 0.292177 20.4261 0.200303 19.8892C0.180487 19.7739 0.189494 19.6496 0.0525827 19.5956V17.7383H0.0507812Z" fill="#717171"/>
<path d="M57.9843 23.7042H55.3668V16.8389C55.329 16.8262 55.2929 16.8118 55.2551 16.7992C54.1292 18.6781 53.0033 20.5571 51.8702 22.4504H50.5515C49.4346 20.6237 48.3123 18.7898 47.1918 16.9577C47.1539 16.9686 47.1161 16.9794 47.0783 16.9884V23.7096H44.4932V11.7875H46.7972C48.2474 14.1817 49.7282 16.6281 51.2559 19.1501C52.7529 16.6371 54.1958 14.2141 55.6532 11.7695H57.9861V23.7042H57.9843Z" fill="#F5F8FF"/>
<path d="M96.6288 12.5989C96.3333 13.3195 96.0577 13.9896 95.7659 14.703C95.3587 14.5247 95.0038 14.3517 94.6345 14.2112C93.6131 13.8239 92.5575 13.7014 91.4802 13.8833C91.0568 13.9554 90.6569 14.1139 90.3795 14.4796C89.9706 15.0219 90.0913 15.683 90.702 15.9838C91.1037 16.1802 91.5414 16.3117 91.9756 16.4342C92.8871 16.6954 93.8185 16.8936 94.7174 17.1908C95.9622 17.6016 96.9368 18.3384 97.117 19.7345C97.2935 21.0982 96.7747 22.2097 95.647 23.0005C94.8741 23.541 93.995 23.7986 93.0493 23.8815C91.4604 24.0202 89.9183 23.867 88.4285 23.2798C87.9655 23.0978 87.526 22.869 87.1152 22.5141C87.4305 21.826 87.7403 21.1468 88.0646 20.4389C88.8915 20.9721 89.7328 21.3522 90.6533 21.5251C91.5721 21.6981 92.4872 21.7503 93.4023 21.4819C93.696 21.3954 93.9176 21.2387 94.1067 21.0207C94.404 20.6785 94.3931 20.1975 94.0941 19.8552C93.7482 19.4571 93.2636 19.3111 92.7844 19.1742C91.8729 18.9148 90.9542 18.6752 90.039 18.4212C89.4878 18.2663 88.9779 18.0231 88.506 17.6916C86.8216 16.5081 86.9999 13.732 88.787 12.4818C89.4427 12.0224 90.1759 11.7252 90.956 11.6315C92.4296 11.4532 93.8959 11.4784 95.3245 11.9918C95.7533 12.1467 96.1496 12.3431 96.6288 12.5953V12.5989Z" fill="#F5F8FF"/>
<path d="M127.791 23.7189H125.173C125.017 23.5441 125.09 23.346 125.089 23.1676C125.081 21.9066 125.071 20.6456 125.092 19.3864C125.099 18.9054 125.011 18.437 124.935 17.9722C124.851 17.457 124.519 17.0823 124.018 16.8733C122.673 16.3095 121.197 17.1633 121.077 18.6117C120.961 19.988 121.048 21.3698 121.028 22.7479C121.024 23.0541 121.028 23.3586 121.028 23.7009H118.322V14.5134H120.832C120.996 14.8034 120.853 15.1025 120.963 15.4249C121.509 15.0682 122.039 14.7098 122.68 14.5458C123.606 14.3098 124.521 14.2954 125.416 14.6107C126.636 15.0394 127.364 15.9275 127.648 17.1742C127.728 17.52 127.784 17.8803 127.785 18.2334C127.8 20.0385 127.791 21.8417 127.791 23.7189Z" fill="#F5F8FF"/>
<path d="M62.3396 19.8575C62.7594 21.8067 65.0328 22.2427 67.236 20.8808C67.2883 20.9186 67.3513 20.9492 67.3982 20.9997C67.8179 21.4518 68.234 21.9094 68.6538 22.3652C67.9584 23.1776 67.0775 23.6046 66.0615 23.7721C64.3591 24.0513 62.7234 23.891 61.3164 22.8029C59.6915 21.5455 59.2646 19.8341 59.6843 17.9011C60.0644 16.1483 61.6803 14.745 63.4638 14.4531C64.3771 14.3036 65.2652 14.3451 66.1425 14.6099C68.5727 15.3449 69.6302 17.8597 69.2266 19.8593H62.3415L62.3396 19.8575ZM66.6704 18.2849C66.6632 17.2688 65.6904 16.3807 64.3717 16.4456C63.1953 16.505 62.4279 17.1878 62.3396 18.2849H66.6704Z" fill="#F5F8FF"/>
<path d="M108.856 17.3561C108.47 16.758 108.193 16.1401 107.881 15.5186C108.622 14.9421 109.456 14.6791 110.32 14.5188C111.576 14.2864 112.828 14.2738 114.048 14.7385C115.26 15.2015 115.97 16.0824 116.215 17.3435C116.256 17.5542 116.314 17.765 116.314 17.9776C116.321 19.8745 116.319 21.7715 116.319 23.7026H113.803V22.71C113.262 23.2793 112.722 23.6594 112.039 23.7729C110.596 24.0125 109.216 23.944 108.157 22.7695C107.123 21.6255 107.321 19.5989 108.87 18.8207C109.54 18.4838 110.257 18.3325 111.001 18.3198C111.857 18.3054 112.715 18.3162 113.572 18.3162C113.531 17.2029 113.034 16.6913 111.99 16.585C110.859 16.4697 109.823 16.7219 108.858 17.3525L108.856 17.3561ZM113.596 19.8853C112.718 19.9123 111.884 19.7988 111.063 20.0006C110.484 20.1429 110.225 20.4113 110.193 20.8833C110.158 21.4022 110.403 21.7444 110.953 21.9444C112.408 22.474 113.709 21.4958 113.594 19.8853H113.596Z" fill="#F5F8FF"/>
<path d="M85.8472 23.7082H83.4224C83.2441 23.4506 83.4495 23.1317 83.2567 22.8597C82.0623 24.0055 80.6392 24.0847 79.1458 23.674C77.8127 23.3065 76.9768 22.2274 77.1119 20.734C77.2146 19.5901 78.1261 18.72 79.4899 18.4497C80.4843 18.2516 81.4841 18.3399 82.4821 18.3092C82.6929 18.302 82.9108 18.3597 83.1126 18.2588C83.127 17.2932 82.6046 16.7005 81.6642 16.5942C80.5131 16.4645 79.443 16.6735 78.4468 17.3563C78.0072 16.8014 77.8019 16.1421 77.4344 15.5368C78.155 14.9585 78.98 14.6973 79.8429 14.5316C81.1508 14.2775 82.4515 14.2631 83.7035 14.773C85.0726 15.3314 85.795 16.4105 85.8364 17.8571C85.8923 19.781 85.8508 21.7068 85.8508 23.7082H85.8472ZM83.1072 19.8819C82.2389 19.9089 81.3616 19.7882 80.4969 20.026C80.0681 20.1449 79.8033 20.4241 79.7565 20.8781C79.7114 21.3177 79.9312 21.6996 80.387 21.8797C81.1166 22.168 81.839 22.0995 82.4983 21.6798C83.1414 21.2708 83.2603 20.6457 83.1072 19.8801V19.8819Z" fill="#F5F8FF"/>
<path d="M107.013 16.7487C106.327 17.118 105.662 17.4764 104.961 17.8548C104.43 17.0891 103.756 16.5667 102.778 16.5973C102.133 16.6171 101.567 16.8423 101.117 17.3089C100.178 18.2835 100.241 20.1426 101.237 21.0524C102.297 22.0197 103.745 21.7892 104.988 20.42C105.655 20.7839 106.334 21.1532 107.036 21.5369C106.4 22.8196 105.379 23.5096 104.039 23.7618C102.345 24.0806 100.778 23.8176 99.3874 22.7421C96.8869 20.8056 97.1121 16.2478 100.501 14.8607C102.308 14.1221 104.069 14.1365 105.756 15.1958C106.327 15.5561 106.75 16.0551 107.013 16.7487Z" fill="#F5F8FF"/>
<path d="M70.9291 12.4881H73.6222C73.7537 13.1943 73.6114 13.9275 73.7105 14.7039H75.9335V16.7792H73.6907C73.6907 18.1087 73.6475 19.3895 73.7069 20.665C73.7447 21.4936 74.35 21.8684 75.1607 21.6792C75.3895 21.6252 75.6093 21.5315 75.8795 21.4414C76.22 21.9909 76.3713 22.6304 76.6109 23.2321C76.4073 23.5491 76.0668 23.6248 75.7588 23.7131C74.8472 23.9743 73.9195 23.9599 73.0133 23.6896C71.7703 23.3203 71.0245 22.2791 70.9777 20.8235C70.9417 19.7318 70.9687 18.6365 70.9597 17.5448C70.9579 17.3125 71.0155 17.0693 70.8984 16.8369C70.4643 16.7252 70.0013 16.8873 69.5527 16.727V14.7724C69.9977 14.6553 70.4517 14.7724 70.9327 14.6877V12.4863L70.9291 12.4881Z" fill="#F5F8FF"/>
</g>
<defs>
<clipPath id="clip0_2300_7151">
<rect width="127.742" height="34.2747" fill="white" transform="translate(0.0498047 0.601562)"/>
</clipPath>
</defs>
</svg>
