<svg width="180" height="25" viewBox="0 0 180 25" fill="none" xmlns="http://www.w3.org/2000/svg">
<g clip-path="url(#clip0_2494_357)">
<path d="M25.3603 24.9872C25.1955 24.9945 25.0571 25.0047 24.9187 25.0062C24.246 25.0077 23.5733 25.0091 22.9006 25.0062C22.7799 25.0062 22.6562 25.0062 22.5385 24.9828C22.4457 24.9639 22.3471 24.9259 22.272 24.869C21.9438 24.6225 21.6243 24.3642 21.299 24.1118C20.644 23.6011 19.9889 23.0919 19.3324 22.5826C18.7671 22.1464 18.2004 21.7116 17.6337 21.2768C17.4526 21.1382 17.3496 20.9616 17.3466 20.7311C17.3452 20.5895 17.3466 20.4495 17.3466 20.2817C17.2951 20.3123 17.2612 20.3284 17.2318 20.3517C16.8623 20.6333 16.4943 20.9164 16.1248 21.198C16.0969 21.2199 16.0674 21.2403 16.0395 21.2622C15.957 21.3235 15.8775 21.3235 15.7966 21.2549C15.5817 21.074 15.3638 20.8945 15.1504 20.7121C14.5086 20.1635 13.8682 19.6134 13.2279 19.0648C12.5198 18.4564 11.8118 17.8494 11.1038 17.2409C11.067 17.2088 11.0257 17.1811 10.9904 17.1461C10.827 16.9841 10.6239 16.9316 10.4016 16.9301C10.1646 16.9287 9.92613 16.9272 9.68914 16.9272C8.33045 16.9272 6.97177 16.9214 5.61309 16.9316C5.29955 16.9345 5.07139 16.847 4.87855 16.5916C4.44283 16.0153 3.98356 15.4594 3.53459 14.8947C2.77944 13.9463 2.02429 12.9994 1.27061 12.0495C1.16904 11.9211 1.08219 11.781 0.98651 11.6468C0.930573 11.568 0.924685 11.4819 0.943821 11.3929C1.10869 10.5641 1.2765 9.73539 1.43548 8.90517C1.51938 8.47036 1.58563 8.03263 1.66217 7.59636C1.69897 7.38771 1.73136 7.17615 1.78435 6.97187C1.80937 6.87703 1.86237 6.77927 1.93008 6.70924C2.30103 6.32404 2.68081 5.94468 3.05765 5.56531C3.88935 4.73072 4.72252 3.89758 5.55274 3.06152C5.71908 2.89373 5.92075 2.78721 6.13566 2.69091C7.27501 2.18169 8.41142 1.66517 9.54929 1.15158C9.80543 1.03631 10.0527 0.88894 10.3206 0.814527C10.6356 0.725522 10.9683 0.691963 11.2951 0.646731C11.5954 0.604418 11.8986 0.578154 12.2019 0.547514C12.433 0.524168 12.6656 0.5052 12.8967 0.484773C13.2485 0.452673 13.6003 0.420573 13.9521 0.387014C14.17 0.366587 14.3893 0.347619 14.6072 0.324273C14.8957 0.293632 15.1842 0.260073 15.4727 0.227973C15.7568 0.197333 16.0409 0.166692 16.3265 0.13751C16.6827 0.102492 17.0404 0.0776874 17.3952 0.0353739C17.8854 -0.0229896 18.3564 -0.00256236 18.8304 0.178364C19.6445 0.490609 20.4762 0.76054 21.299 1.0509C22.2647 1.39233 23.2274 1.73959 24.1945 2.0781C25.6062 2.57127 27.0193 3.06444 28.4354 3.54594C28.7328 3.64662 28.9123 3.80857 28.9859 4.12228C29.1861 4.97001 29.4069 5.81336 29.6277 6.65671C29.8618 7.55113 30.1076 8.44263 30.3402 9.33706C30.5787 10.2577 30.8068 11.1813 31.0438 12.102C31.0689 12.1969 31.0556 12.2757 31.0085 12.3544C30.8319 12.6477 30.6567 12.941 30.4771 13.2328C29.9913 14.0251 29.5026 14.8145 29.0154 15.6068C28.8314 15.9059 28.6474 16.205 28.4634 16.5041C28.3338 16.7171 28.1542 16.8791 27.9482 17.0206C27.0178 17.6539 26.089 18.2886 25.1631 18.9276C24.5345 19.361 23.9104 19.8016 23.2863 20.2408C23.2244 20.2846 23.167 20.3342 23.1111 20.3853C22.9963 20.4903 22.9874 20.5268 23.0493 20.6639C23.089 20.753 23.1346 20.8405 23.1817 20.9251C23.5129 21.5292 23.8486 22.1303 24.1768 22.7359C24.5257 23.3808 24.8702 24.0271 25.2146 24.6735C25.2647 24.7669 25.3044 24.8647 25.3603 24.9858V24.9872ZM14.7087 13.6793C14.7087 13.7099 14.7073 13.7245 14.7117 13.7347C14.8236 13.9857 14.9281 14.241 15.0532 14.4847C15.1695 14.7109 15.3564 14.8655 15.617 14.9181C15.854 14.9648 16.0895 14.9487 16.3206 14.8918C16.4443 14.8612 16.5826 14.8305 16.6768 14.7546C16.9551 14.5285 17.2598 14.4993 17.5851 14.5956C17.9502 14.705 18.2048 14.9487 18.3034 15.3091C18.4212 15.7366 18.2843 16.1174 17.9752 16.4297C17.9001 16.5056 17.7985 16.5668 17.697 16.6062C17.3937 16.7215 17.1008 16.6821 16.8255 16.5114C16.6768 16.418 16.5179 16.3465 16.3412 16.3261C16.2161 16.313 16.091 16.3115 15.9659 16.31C15.5228 16.3042 15.0782 16.2984 14.6351 16.2954C14.5468 16.2954 14.4997 16.2648 14.4644 16.1802C14.4261 16.0868 14.3658 16.0022 14.3142 15.9132C14.0493 15.455 13.7828 14.9998 13.5208 14.5402C13.4178 14.3592 13.3265 14.171 13.222 13.9915C13.116 13.8121 12.9629 13.6764 12.7524 13.6428C12.6141 13.6195 12.4669 13.6282 12.327 13.6428C12.0988 13.6691 12.0459 13.6545 11.9325 13.459C11.329 12.423 10.7225 11.3871 10.1263 10.3467C10.0056 10.1366 9.85695 10.0447 9.61112 10.0447C8.05077 10.0505 6.49042 10.0447 4.93007 10.0447C4.21761 10.0447 3.50368 10.0447 2.79122 10.0462C2.62046 10.0462 2.62046 10.0476 2.566 10.211C2.55716 10.2359 2.5498 10.2621 2.54539 10.2869C2.51006 10.497 2.48945 10.7101 2.43499 10.9143C2.3761 11.1347 2.45118 11.2966 2.58366 11.4629C3.01791 12.0116 3.44332 12.566 3.87168 13.119C4.05422 13.3539 4.23527 13.5918 4.42369 13.8237C4.50907 13.9288 4.54882 13.9244 4.63125 13.8165C4.7446 13.6676 4.85794 13.5188 4.96687 13.3671C5.20092 13.0417 5.43203 12.7148 5.66314 12.388C5.70877 12.3238 5.76324 12.2727 5.84714 12.2713C6.15627 12.2669 6.4654 12.2552 6.77452 12.264C6.97177 12.2698 7.14842 12.2421 7.29709 12.1079C7.46932 11.9517 7.68129 11.9036 7.90357 11.8992C8.32898 11.8905 8.73968 12.1662 8.88099 12.5631C9.00906 12.922 8.95607 13.2751 8.73232 13.5742C8.47766 13.9157 7.97717 14.1054 7.49581 13.8398C7.38247 13.7771 7.27059 13.7099 7.15283 13.6574C6.85107 13.5217 6.5493 13.599 6.35647 13.8675C6.09444 14.2323 5.84126 14.6044 5.58071 14.9706C5.52624 15.0479 5.51447 15.1107 5.58512 15.1822C5.62928 15.2259 5.66314 15.2799 5.70436 15.3266C5.78826 15.4229 5.88394 15.4973 6.02084 15.5032C6.15038 15.509 6.27992 15.5221 6.40946 15.5236C7.92123 15.5236 9.43153 15.5236 10.9433 15.525C11.0051 15.525 11.0684 15.5323 11.1288 15.5426C11.3187 15.5747 11.4585 15.6958 11.5969 15.8139C12.2092 16.3407 12.8216 16.8689 13.4325 17.3985C13.9492 17.845 14.4644 18.2944 14.9825 18.7394C15.2666 18.9845 15.5537 19.2253 15.8437 19.4631C15.9556 19.555 15.9879 19.5507 16.1028 19.4646C16.2676 19.342 16.431 19.2195 16.5944 19.0954C17.1994 18.6373 17.803 18.1777 18.4065 17.7195C18.5081 17.6422 18.6126 17.5707 18.7406 17.4773C18.7406 17.5546 18.7406 17.5969 18.7406 17.6393C18.7406 18.4388 18.7406 19.2399 18.7406 20.0395C18.7406 20.1066 18.7406 20.1722 18.745 20.2394C18.7539 20.3634 18.801 20.4597 18.9114 20.5399C19.2588 20.7909 19.5988 21.0535 19.9374 21.3147C20.881 22.0442 21.8216 22.7752 22.7637 23.5063C22.7887 23.5252 22.8196 23.5384 22.8785 23.5719C22.8623 23.4975 22.8579 23.4537 22.8417 23.4158C22.7872 23.2859 22.7342 23.1532 22.6695 23.0277C22.3957 22.5053 22.1175 21.9844 21.8422 21.4621C21.6184 21.0375 21.3962 20.6129 21.1754 20.1883C21.1003 20.0424 21.0988 20.0292 21.2254 19.9329C21.4992 19.7258 21.7774 19.5244 22.0586 19.3274C22.9845 18.681 23.9119 18.0376 24.8392 17.3941C25.4325 16.9812 26.0286 16.5727 26.6189 16.1554C26.8368 16.0007 27.0488 15.8373 27.2489 15.6607C27.3476 15.5732 27.4123 15.4477 27.4918 15.3383L27.4698 15.3047C27.4006 15.3047 27.3314 15.3047 27.2607 15.3047C25.3103 15.3047 23.3599 15.3047 21.4094 15.3047C21.2755 15.3047 21.14 15.2974 21.0061 15.3047C20.853 15.3149 20.7544 15.2522 20.6793 15.1238C20.4703 14.7678 20.2553 14.4147 20.0434 14.0601C19.9948 13.9799 19.9506 13.8982 19.8976 13.8208C19.8461 13.7435 19.7784 13.6924 19.6768 13.6924C19.5782 13.6924 19.4811 13.6764 19.3824 13.6764C17.9207 13.6749 16.459 13.6749 14.9973 13.6749C14.9031 13.6749 14.8103 13.6749 14.7058 13.6749L14.7087 13.6793ZM28.4575 6.44514C28.4531 6.39991 28.4545 6.3824 28.4501 6.36635C28.3294 5.91404 28.1925 5.46464 28.0954 5.00648C28.0291 4.6957 27.8554 4.53958 27.5654 4.44619C26.928 4.24192 26.2965 4.02306 25.665 3.8042C24.4521 3.38544 23.2391 2.96376 22.0277 2.54063C20.9207 2.15397 19.8137 1.76585 18.7068 1.37773C18.4212 1.27706 18.1327 1.22307 17.825 1.26976C17.5424 1.31208 17.2554 1.32667 16.9698 1.35439C16.4663 1.404 15.9629 1.45361 15.4595 1.50322C15.0635 1.54261 14.6675 1.58492 14.2701 1.62286C13.9315 1.65496 13.5915 1.68122 13.2529 1.71187C12.8025 1.75272 12.352 1.79503 11.9016 1.83589C11.4497 1.8782 11.0095 1.96429 10.5974 2.1671C10.1263 2.40055 9.65233 2.62817 9.1754 2.85287C8.49385 3.17387 7.80641 3.48612 7.12781 3.81149C6.97325 3.88591 6.82751 3.98804 6.69503 4.09893C6.42271 4.32801 6.2284 4.6242 6.02084 4.90873C6.00612 4.92915 6.00024 4.95542 5.98699 4.98752C6.15774 4.98752 6.31819 4.98752 6.47717 4.98752C8.22594 4.98752 9.97471 4.98752 11.7235 4.98898C12.0503 4.98898 12.3785 4.99189 12.7053 4.98898C13.0086 4.98752 13.2338 5.09695 13.3309 5.4019C13.3457 5.45005 13.3736 5.49528 13.4089 5.57115C13.4693 5.49966 13.5193 5.45151 13.5576 5.3946C13.799 5.04296 14.0375 4.6884 14.2774 4.3353C14.3201 4.27256 14.3643 4.21128 14.4099 4.15146C14.4541 4.0931 14.5041 4.05078 14.588 4.05078C14.6955 4.05078 14.8015 4.03181 14.9089 4.03035C16.1013 4.0289 17.2936 4.03035 18.4874 4.02744C18.6346 4.02744 18.7818 4.00847 18.9276 3.98512C19.1278 3.95448 19.3088 3.86548 19.4855 3.76918C19.6503 3.67871 19.8255 3.62473 20.0139 3.66266C20.5689 3.77356 20.9398 4.17772 20.9266 4.73947C20.9163 5.1772 20.5659 5.6908 19.9565 5.72581C19.7048 5.7404 19.4855 5.63681 19.2735 5.52008C19.1322 5.44275 18.9865 5.40336 18.826 5.40336C18.1533 5.4019 17.4806 5.3946 16.8079 5.3946C16.3191 5.3946 15.8304 5.4019 15.3417 5.4019C15.2166 5.4019 15.1327 5.45734 15.0635 5.5551C14.8 5.92571 14.538 6.29486 14.2657 6.65963C14.1744 6.78219 14.1567 6.89017 14.2362 7.02294C14.4776 7.42711 14.7161 7.8342 14.9516 8.24128C15.0311 8.37844 15.1386 8.43388 15.302 8.43388C17.0861 8.4295 18.8702 8.43242 20.6557 8.43388C20.7235 8.43388 20.7897 8.43388 20.8574 8.43096C20.9693 8.42513 21.0635 8.39157 21.1238 8.28651C21.2784 8.02242 21.4389 7.76124 21.5949 7.49715C21.7789 7.18782 21.96 6.87849 22.141 6.56625C22.1866 6.48746 22.2514 6.45828 22.3397 6.45828C22.5458 6.45828 22.7519 6.45536 22.958 6.45536C24.6655 6.45536 26.3746 6.45536 28.0821 6.45536C28.2014 6.45536 28.3221 6.44806 28.456 6.44514H28.4575ZM29.5085 11.8759C29.4099 11.87 29.3451 11.8642 29.2789 11.8642C28.5296 11.8627 27.7818 11.8598 27.0326 11.8598C26.4997 11.8598 25.9653 11.8627 25.4325 11.8627C25.3088 11.8627 25.1955 11.889 25.0895 11.9576C24.9923 12.0203 24.8863 12.0714 24.7833 12.121C24.6067 12.2071 24.4138 12.2158 24.2313 12.1706C23.5174 11.9941 23.2333 11.3316 23.5129 10.7261C23.6955 10.3307 24.1179 10.0943 24.5522 10.1658C24.6935 10.1892 24.8407 10.2402 24.9629 10.3132C25.1793 10.443 25.4104 10.4824 25.6547 10.4824C26.7529 10.4824 27.8525 10.4854 28.9506 10.4854C29.0021 10.4854 29.0537 10.4795 29.1199 10.4751C29.1096 10.4066 29.1066 10.354 29.0934 10.3044C29.0095 9.99802 28.9182 9.69307 28.8387 9.38375C28.7519 9.04962 28.6812 8.71257 28.5929 8.37989C28.5237 8.11726 28.4943 8.09975 28.222 8.09829C26.6027 8.09391 24.985 8.09245 23.3657 8.08954C23.2038 8.08954 23.0434 8.10267 22.8814 8.09829C22.771 8.09537 22.6989 8.12747 22.6444 8.22815C22.562 8.37989 22.4634 8.52288 22.3765 8.67317C22.1425 9.07588 21.907 9.47859 21.6803 9.88713C21.6023 10.0287 21.5051 10.0826 21.3388 10.0812C18.9762 10.0754 16.6121 10.0754 14.2495 10.0812C14.0419 10.0812 13.905 10.0184 13.802 9.83898C13.5297 9.3604 13.2456 8.88912 12.9673 8.41345C12.6435 7.86192 12.327 7.30601 11.9943 6.75885C11.7882 6.4218 11.8221 6.47724 11.4968 6.47579C9.27255 6.46995 7.04832 6.46703 4.82409 6.46411C4.62683 6.46411 4.42958 6.46557 4.23233 6.47579C4.17934 6.4787 4.11457 6.49767 4.07777 6.53415C3.92468 6.68298 3.78042 6.84202 3.63174 6.99668C3.40652 7.23305 3.18719 7.4738 3.04293 7.77C2.93842 7.98302 2.86482 8.2048 2.90751 8.44847C2.92223 8.5331 2.95608 8.57103 3.04735 8.56812C3.16805 8.56374 3.28876 8.57395 3.41094 8.57395C5.66167 8.57395 7.9124 8.57395 10.1631 8.57395C10.328 8.57395 10.4943 8.59146 10.6592 8.58563C10.7814 8.58271 10.8491 8.63961 10.905 8.73445C11.2127 9.25535 11.5262 9.77186 11.8324 10.2942C12.143 10.8224 12.4507 11.3535 12.7539 11.8875C12.8334 12.0262 12.932 12.0947 13.0969 12.0889C13.3074 12.0816 13.5179 12.0933 13.7284 12.0933C15.7053 12.0933 17.6837 12.0933 19.6606 12.0933C19.93 12.0933 20.1979 12.1064 20.4673 12.1079C20.5866 12.1079 20.6749 12.1546 20.7352 12.2538C20.8147 12.388 20.8913 12.5237 20.9693 12.6565C21.1562 12.9746 21.3446 13.2912 21.5331 13.6078C21.5816 13.6895 21.6464 13.7406 21.748 13.742C21.8731 13.7435 21.9982 13.761 22.1234 13.761C23.9575 13.761 25.7916 13.761 27.6258 13.7595C27.8451 13.7595 28.0645 13.7435 28.2838 13.7391C28.3544 13.7391 28.3986 13.7114 28.4354 13.6516C28.5885 13.4065 28.7445 13.1642 28.8991 12.9191C29.0654 12.6565 29.2318 12.3938 29.3937 12.1283C29.4379 12.0553 29.4658 11.9736 29.51 11.8729L29.5085 11.8759Z" fill="#F5F8FF"/>
<path d="M52.1717 12.5047C53.6364 12.5047 55.0466 12.5193 56.4538 12.4974C56.9823 12.4886 57.5152 12.4303 58.0348 12.3325C58.89 12.172 59.3375 11.5898 59.3552 10.7027C59.3729 9.75723 58.8856 9.0058 58.0745 8.84238C57.5034 8.72857 56.9131 8.66437 56.3302 8.6527C54.9509 8.62644 53.5701 8.64394 52.157 8.64394V7.09293C53.0108 7.09293 53.8292 7.07543 54.6491 7.09731C55.9268 7.12941 57.2178 7.08272 58.4764 7.25927C60.7595 7.58027 61.8827 9.70178 60.9803 11.8116C60.6344 12.6229 60.0559 13.2328 59.2257 13.5611C58.7414 13.7537 58.6943 14.0003 58.9798 14.4C59.7379 15.4535 60.4828 16.5157 61.232 17.5765C61.3056 17.6801 61.3704 17.791 61.5044 17.9996C60.7639 17.9996 60.1162 18.0273 59.473 17.9806C59.3154 17.969 59.1476 17.7355 59.0328 17.5721C58.3174 16.5551 57.6241 15.5235 56.9028 14.5109C56.7953 14.3592 56.5819 14.2191 56.4008 14.1943C55.8474 14.1199 55.285 14.1155 54.7271 14.063C54.2281 14.0163 54.0544 14.2614 54.0618 14.7152C54.0765 15.5352 54.0839 16.3552 54.0942 17.1752C54.0971 17.4101 54.0942 17.6451 54.0942 17.9412H52.1688V12.5047H52.1717Z" fill="#F5F8FF"/>
<path d="M119.48 14.8757V17.8931C119.414 17.9398 119.373 17.9967 119.331 17.9952C117.817 17.9602 116.296 17.9894 114.787 17.8683C111.99 17.6421 110.551 15.2332 110.305 13.2225C110.08 11.3841 110.567 9.70759 111.98 8.40171C112.653 7.77868 113.452 7.32199 114.384 7.2607C116.072 7.14835 117.767 7.1075 119.524 7.03455V8.65267C118.397 8.65267 117.31 8.641 116.223 8.65559C114.814 8.67602 113.582 9.0977 112.838 10.3744C111.231 13.1321 112.581 15.9642 115.962 16.3114C116.225 16.3391 116.495 16.3289 116.761 16.3304C117.436 16.3333 117.874 16.0274 118.073 15.4126C118.267 14.8144 118.37 14.7706 119.482 14.8771L119.48 14.8757Z" fill="#F5F8FF"/>
<path d="M134.502 7.10761C135.103 7.10761 135.64 7.05362 136.157 7.1295C136.429 7.17035 136.738 7.38775 136.907 7.61537C138.275 9.46841 139.61 11.3448 140.966 13.2066C141.237 13.5787 141.555 13.9172 141.851 14.2703C141.917 14.2469 141.982 14.2236 142.048 14.2002V7.14992H143.916V17.9443C142.728 18.2215 142.261 17.9705 141.628 17.0513C140.295 15.1122 138.905 13.211 137.532 11.2996C136.548 9.92948 135.558 8.5667 134.502 7.10615V7.10761Z" fill="#F5F8FF"/>
<path d="M76.8797 17.9851C76.6633 16.3976 76.6633 16.4092 78.1015 16.3436C78.8949 16.3071 79.703 16.3056 80.4758 16.1481C82.6809 15.7001 83.4906 13.8194 83.3007 11.9984C83.0946 10.0345 81.8183 8.85408 79.7958 8.63668C79.0053 8.55205 78.2016 8.52725 77.4067 8.55205C76.9135 8.56664 76.7796 8.35216 76.8105 7.94653C76.8399 7.57154 76.5632 6.9952 77.2639 6.97624C79.02 6.92955 80.7717 6.96019 82.4263 7.68973C85.2997 8.95622 86.1211 12.7849 84.6299 15.2668C83.5259 17.1038 81.8654 17.8931 79.7958 17.9778C78.8419 18.0172 77.8851 17.9851 76.8812 17.9851H76.8797Z" fill="#F5F8FF"/>
<path d="M74.3419 17.9733C74.1947 17.9952 74.1167 18.0142 74.0372 18.0171C72.3503 18.0667 72.3297 18.074 71.7291 16.5201C70.5456 13.4604 69.3871 10.3904 68.2212 7.32344C68.205 7.27967 68.2242 7.22276 68.2271 7.1717C68.2507 7.16148 68.2727 7.14251 68.2963 7.14105C69.5544 7.00876 70.3983 7.53404 70.8282 8.71687C71.7894 11.3593 72.7477 14.0031 73.7207 16.6426C73.8812 17.0774 74.1108 17.4874 74.3404 17.9762L74.3419 17.9733Z" fill="#F5F8FF"/>
<path d="M152.078 17.988H150.232V7.15137H152.078V17.988Z" fill="#F5F8FF"/>
<path d="M158.773 7.12512H160.373C160.392 7.30605 160.426 7.47968 160.429 7.65477C160.461 9.68582 160.486 11.7169 160.52 13.7465C160.534 14.5811 160.793 15.3646 161.543 15.7717C162.418 16.2473 162.441 16.9652 162.422 17.8246C161.328 17.8494 160.42 17.5912 159.758 16.6982C158.982 15.6535 158.733 14.441 158.696 13.2008C158.64 11.2777 158.683 9.35023 158.689 7.42424C158.689 7.34982 158.729 7.27541 158.773 7.12512Z" fill="#F5F8FF"/>
<path d="M164.318 17.8756C164.205 17.0177 164.186 16.3392 165.073 15.811C165.771 15.3966 166.005 14.5664 166.023 13.7347C166.065 11.73 166.113 9.72663 166.16 7.72184C166.164 7.54383 166.18 7.36582 166.193 7.14404H167.936C167.936 7.61387 167.939 8.07786 167.936 8.54331C167.922 10.2052 167.91 11.8671 167.885 13.529C167.866 14.7707 167.573 15.9132 166.681 16.8586C166.04 17.5357 165.268 17.8319 164.321 17.8756H164.318Z" fill="#F5F8FF"/>
<path d="M171.011 16.3174C172.054 16.3174 173.012 16.3816 173.958 16.3042C176.055 16.1335 177.216 15.315 177.799 13.3496C177.908 12.9819 177.903 12.4858 178.149 12.2859C178.349 12.1225 178.843 12.3136 179.206 12.3472C179.412 12.3662 179.618 12.3866 179.936 12.4158C179.827 12.9221 179.76 13.3802 179.63 13.8209C178.816 16.5771 177.157 17.8261 174.061 17.9924C173.212 18.0376 172.358 17.9997 171.507 18.0187C171.05 18.0289 170.788 17.918 170.902 17.3869C170.969 17.0819 170.969 16.7624 171.011 16.3188V16.3174Z" fill="#F5F8FF"/>
<path d="M179.863 7.1251V8.43536C178.922 8.50685 177.989 8.51707 177.079 8.66298C176.277 8.79138 175.441 8.95479 174.725 9.31081C173.546 9.89882 172.991 10.9727 172.915 12.2801C172.903 12.4814 172.884 12.6828 172.863 12.9308C172.298 12.9308 171.796 12.9323 171.296 12.9308C170.961 12.9293 170.774 12.7718 170.883 12.4347C171.206 11.4382 171.434 10.392 171.909 9.47131C172.706 7.92614 174.185 7.28122 175.849 7.14844C177.144 7.04485 178.453 7.12802 179.864 7.12802L179.863 7.1251Z" fill="#F5F8FF"/>
<path d="M131.145 16.3684V17.9574H122.808V16.3684H131.145Z" fill="#F5F8FF"/>
<path d="M89.0062 17.9457V16.3932H97.335C97.3659 16.8922 97.3953 17.3839 97.4292 17.9457H89.0062Z" fill="#F5F8FF"/>
<path d="M49.3454 7.15283C49.3174 7.67373 49.2939 8.13334 49.2659 8.66299C48.524 8.66299 47.8616 8.66299 47.1992 8.66299C45.2546 8.66007 43.3086 8.66007 41.3641 8.65277C40.0378 8.6484 39.9701 8.55939 40.238 7.15429H49.3439L49.3454 7.15283Z" fill="#F5F8FF"/>
<path d="M67.1908 9.77917C67.3836 10.373 67.6456 10.9567 67.7472 11.5666C67.8252 12.0349 67.8149 12.5762 67.6515 13.0154C67.0907 14.5168 66.468 15.9949 65.8115 17.4584C65.6996 17.7093 65.3301 17.9238 65.0387 17.9968C64.6692 18.0887 64.2585 18.0186 63.7212 18.0186C64.6604 15.1282 65.866 12.461 67.1893 9.77917H67.1908Z" fill="#F5F8FF"/>
<path d="M136.151 17.9398H134.262V9.99071C134.317 9.96882 134.371 9.94694 134.426 9.92505C135.147 10.7742 136.108 11.4965 136.141 12.7571C136.185 14.4672 136.152 16.1787 136.152 17.9398H136.151Z" fill="#F5F8FF"/>
<path d="M131.183 7.14258V8.53892H122.744C122.71 8.02678 122.683 7.61678 122.652 7.14258H131.183Z" fill="#F5F8FF"/>
<path d="M43.9681 10.7772C44.5849 10.7174 45.0854 10.6692 45.6756 10.6108V17.9398H43.9681V10.7772Z" fill="#F5F8FF"/>
<path d="M97.3777 7.16443V8.53743H89.0165V7.16443H97.3777Z" fill="#F5F8FF"/>
<path d="M122.819 13.1905V11.7621H130.355C130.32 12.2567 130.289 12.6959 130.254 13.1905H122.819Z" fill="#F5F8FF"/>
<path d="M96.4105 11.7693V13.189H89.0283V11.7693H96.4105Z" fill="#F5F8FF"/>
<path d="M115.581 11.7621H119.457V13.1905H115.581V11.7621Z" fill="#F5F8FF"/>
</g>
<defs>
<clipPath id="clip0_2494_357">
<rect width="179" height="25" fill="white" transform="translate(0.936317 0.00756836)"/>
</clipPath>
</defs>
</svg>
