<svg width="108" height="44" viewBox="0 0 108 44" fill="none" xmlns="http://www.w3.org/2000/svg">
<g id="Group 21271">
<g id="&#229;&#174;&#154;&#231;&#168;&#191;">
<g id="Sender-svg">
<g id="2">
<g id="logo-b/black">
<path id="&#229;&#189;&#162;&#231;&#138;&#182;&#231;&#187;&#147;&#229;&#144;&#136;" d="M59.9145 24.8274C59.9145 25.0045 59.901 25.2563 59.8739 25.5831H51.3633C51.5123 26.3865 51.9016 27.023 52.5313 27.4927C53.1609 27.9625 53.9429 28.1974 54.8773 28.1974C56.0689 28.1974 57.0506 27.8025 57.8224 27.0128L59.1833 28.5854C58.6958 29.1709 58.0797 29.6134 57.335 29.913C56.5902 30.2125 55.7507 30.3623 54.8163 30.3623C53.6247 30.3623 52.5753 30.124 51.668 29.6475C50.7608 29.1709 50.06 28.5071 49.5658 27.6561C49.0715 26.8051 48.8244 25.8418 48.8244 24.7662C48.8244 23.7041 49.0647 22.7476 49.5454 21.8966C50.0262 21.0457 50.6931 20.3819 51.5461 19.9053C52.3992 19.4288 53.3606 19.1905 54.4304 19.1905C55.4866 19.1905 56.4311 19.4254 57.2639 19.8951C58.0966 20.3649 58.7466 21.0252 59.2138 21.8762C59.681 22.7272 59.9145 23.7109 59.9145 24.8274ZM54.4304 21.2329C53.6179 21.2329 52.9307 21.4745 52.3688 21.9579C51.8068 22.4413 51.4649 23.0846 51.343 23.888H57.4975C57.3891 23.0982 57.0574 22.4583 56.5022 21.9681C55.947 21.478 55.2564 21.2329 54.4304 21.2329ZM68.0303 19.1905C69.398 19.1905 70.4948 19.5922 71.3208 20.3955C72.1468 21.1988 72.5598 22.3902 72.5598 23.9697V30.2193H70.0208V24.2964C70.0208 23.3433 69.7974 22.6251 69.3506 22.1417C68.9037 21.6584 68.2673 21.4167 67.4413 21.4167C66.5069 21.4167 65.7689 21.6992 65.2273 22.2643C64.6857 22.8293 64.4148 23.6429 64.4148 24.7049V30.2193H61.8759V19.313H64.293V20.7223C64.7127 20.2185 65.2408 19.8372 65.8773 19.5785C66.5137 19.3198 67.2314 19.1905 68.0303 19.1905ZM86.0378 15.0649V30.2193H83.6004V28.8101C83.1807 29.3275 82.6627 29.7155 82.0466 29.9742C81.4305 30.2329 80.75 30.3623 80.0053 30.3623C78.9626 30.3623 78.0249 30.1308 77.1921 29.6679C76.3593 29.2049 75.706 28.548 75.2321 27.697C74.7581 26.846 74.5211 25.8691 74.5211 24.7662C74.5211 23.6633 74.7581 22.6898 75.2321 21.8456C75.706 21.0014 76.3593 20.3478 77.1921 19.8849C78.0249 19.422 78.9626 19.1905 80.0053 19.1905C80.723 19.1905 81.3797 19.313 81.9755 19.5581C82.5713 19.8032 83.0791 20.1708 83.4989 20.661V15.0649H86.0378ZM80.31 28.1769C80.9193 28.1769 81.4677 28.0374 81.9552 27.7583C82.4427 27.4791 82.8286 27.0809 83.113 26.5635C83.3973 26.0461 83.5395 25.447 83.5395 24.7662C83.5395 24.0854 83.3973 23.4863 83.113 22.9689C82.8286 22.4515 82.4427 22.0532 81.9552 21.7741C81.4677 21.495 80.9193 21.3554 80.31 21.3554C79.7006 21.3554 79.1522 21.495 78.6647 21.7741C78.1772 22.0532 77.7913 22.4515 77.507 22.9689C77.2226 23.4863 77.0804 24.0854 77.0804 24.7662C77.0804 25.447 77.2226 26.0461 77.507 26.5635C77.7913 27.0809 78.1772 27.4791 78.6647 27.7583C79.1522 28.0374 79.7006 28.1769 80.31 28.1769ZM99.0893 24.8274C99.0893 25.0045 99.0758 25.2563 99.0487 25.5831H90.5381C90.6871 26.3865 91.0764 27.023 91.7061 27.4927C92.3357 27.9625 93.1177 28.1974 94.0521 28.1974C95.2437 28.1974 96.2254 27.8025 96.9972 27.0128L98.3581 28.5854C97.8706 29.1709 97.2545 29.6134 96.5098 29.913C95.765 30.2125 94.9255 30.3623 93.9911 30.3623C92.7995 30.3623 91.7501 30.124 90.8428 29.6475C89.9356 29.1709 89.2348 28.5071 88.7406 27.6561C88.2463 26.8051 87.9992 25.8418 87.9992 24.7662C87.9992 23.7041 88.2395 22.7476 88.7203 21.8966C89.201 21.0457 89.8679 20.3819 90.7209 19.9053C91.574 19.4288 92.5354 19.1905 93.6052 19.1905C94.6614 19.1905 95.6059 19.4254 96.4387 19.8951C97.2714 20.3649 97.9214 21.0252 98.3886 21.8762C98.8558 22.7272 99.0893 23.7109 99.0893 24.8274ZM93.6052 21.2329C92.7927 21.2329 92.1055 21.4745 91.5436 21.9579C90.9816 22.4413 90.6397 23.0846 90.5178 23.888H96.6723C96.5639 23.0982 96.2322 22.4583 95.677 21.9681C95.1218 21.478 94.4312 21.2329 93.6052 21.2329ZM103.468 20.9061C104.199 19.7624 105.485 19.1905 107.327 19.1905V21.6209C107.11 21.5801 106.914 21.5596 106.738 21.5596C105.749 21.5596 104.978 21.849 104.422 22.4277C103.867 23.0063 103.59 23.8403 103.59 24.9296V30.2193H101.051V19.313H103.468V20.9061ZM40.386 30.3623C39.1383 30.3623 37.9329 30.1831 36.7699 29.8247C35.6069 29.4664 34.6866 28.9912 34.0088 28.3991L35.0486 26.0386C35.7109 26.5684 36.5235 27.0008 37.4862 27.3357C38.449 27.6707 39.4156 27.8382 40.386 27.8382C41.5875 27.8382 42.4848 27.6435 43.0778 27.2539C43.6709 26.8644 43.9674 26.3503 43.9674 25.7115C43.9674 25.244 43.8018 24.8584 43.4706 24.5546C43.1394 24.2508 42.7197 24.0132 42.2114 23.8418C41.703 23.6704 41.0099 23.4756 40.1318 23.2575C38.8995 22.9615 37.9021 22.6654 37.1396 22.3694C36.3771 22.0734 35.7225 21.6098 35.1756 20.9788C34.6288 20.3478 34.3554 19.4948 34.3554 18.4197C34.3554 17.516 34.598 16.6941 35.0832 15.9541C35.5684 15.214 36.3001 14.6258 37.2783 14.1895C38.2564 13.7533 39.4541 13.5352 40.8712 13.5352C41.8571 13.5352 42.8275 13.6598 43.7826 13.9091C44.7376 14.1584 45.5617 14.5167 46.2549 14.9842L45.3075 17.3446C44.599 16.924 43.8596 16.6045 43.0894 16.3864C42.3192 16.1683 41.5721 16.0592 40.8481 16.0592C39.662 16.0592 38.7801 16.2618 38.2025 16.6669C37.6249 17.072 37.336 17.6095 37.336 18.2795C37.336 18.7469 37.5016 19.1286 37.8328 19.4247C38.164 19.7207 38.5837 19.9544 39.0921 20.1258C39.6004 20.2972 40.2936 20.4919 41.1716 20.7101C42.3731 20.9905 43.3589 21.2826 44.1291 21.5865C44.8993 21.8903 45.5579 22.3538 46.1047 22.977C46.6515 23.6003 46.9249 24.4416 46.9249 25.5011C46.9249 26.4048 46.6823 27.2228 46.1971 27.9551C45.7119 28.6874 44.9764 29.2716 43.9905 29.7079C43.0047 30.1442 41.8032 30.3623 40.386 30.3623Z" fill="#F5F8FF"/>
<path id="&#229;&#189;&#162;&#231;&#138;&#182;&#231;&#187;&#147;&#229;&#144;&#136;_2" fill-rule="evenodd" clip-rule="evenodd" d="M19.197 18.2369C19.8401 18.4718 20.4308 18.7788 20.9554 19.156C21.6536 19.6579 22.2348 20.2849 22.6657 21.0341C22.8873 21.4194 23.0612 21.8228 23.1888 22.2406C23.3179 22.6614 23.4004 23.0968 23.4382 23.5428C23.7053 26.6784 21.7705 30.3248 18.3274 33.0335L18.172 33.1543C17.5732 33.6144 16.93 34.0464 16.2463 34.4427L0.477704 43.5823C0.0149769 40.509 0.86855 37.3524 2.82003 34.9189C3.66367 33.8665 4.7126 32.9494 5.94927 32.2327L15.1606 26.8937C16.416 26.1661 17.2141 24.9498 17.4512 23.6269C17.64 22.5749 17.4741 21.4557 16.9018 20.4604C16.4415 19.6602 15.7806 19.0483 15.0183 18.6513C14.1519 18.1994 13.1542 18.0253 12.1718 18.1677C12.2273 18.1415 12.283 18.1161 12.3389 18.0916C13.1748 17.884 14.0007 17.7521 14.8022 17.6948C16.402 17.5808 17.9049 17.7643 19.197 18.2369ZM24.27 0.3125C24.7328 3.38579 23.8792 6.54233 21.9277 8.97583C21.0841 10.0283 20.0351 10.9453 18.7985 11.6621L9.58709 17.001C8.3317 17.7287 7.53366 18.9449 7.29651 20.2679C7.10777 21.3199 7.2736 22.4391 7.84596 23.4343C8.3062 24.2346 8.96713 24.8465 9.72941 25.2435C10.5958 25.6953 11.5935 25.8695 12.5759 25.727C12.5204 25.7533 12.4647 25.7787 12.4089 25.8032C11.5729 26.0107 10.747 26.1427 9.94551 26.2C8.34574 26.3139 6.84287 26.1304 5.55073 25.6578C4.9076 25.4229 4.31698 25.116 3.79232 24.7388C3.09415 24.2368 2.51289 23.6099 2.08203 22.8607C1.86046 22.4754 1.68658 22.072 1.55895 21.6542C1.42987 21.2333 1.34729 20.7979 1.30952 20.352C1.04247 17.2163 2.97722 13.57 6.4203 10.8613L6.57574 10.7404C7.17454 10.2804 7.81768 9.84835 8.50141 9.45206L24.27 0.3125Z" fill="#F5F8FF"/>
</g>
</g>
</g>
</g>
</g>
</svg>
