<svg width="76" height="54" viewBox="0 0 76 54" fill="none" xmlns="http://www.w3.org/2000/svg">
<g id="Group 21314">
<g id="Group">
<path id="Vector" d="M3.41413 41.9434V46.3849H7.37786V41.9434H10.6875V53.1021H7.37786V48.9465H3.41413V53.1021H0.104492V41.9434H3.41413Z" fill="#F5F8FF"/>
<path id="Vector_2" d="M24.7288 47.5191C24.7288 50.7974 22.1516 53.2492 18.6462 53.2492C15.1407 53.2492 12.5635 50.813 12.5635 47.5191C12.5635 44.2251 15.1407 41.8516 18.6462 41.8516C22.1516 41.8516 24.7288 44.2564 24.7288 47.5191ZM15.9554 47.5347C15.9554 49.2228 17.2283 50.4801 18.6932 50.4801C20.158 50.4801 21.337 49.2228 21.337 47.5347C21.337 45.8466 20.158 44.6207 18.6932 44.6207C17.2283 44.6207 15.9554 45.8466 15.9554 47.5347Z" fill="#F5F8FF"/>
<path id="Vector_3" d="M38.0335 47.5191C38.0335 50.7974 35.4563 53.2492 31.9508 53.2492C28.4454 53.2492 25.8682 50.813 25.8682 47.5191C25.8682 44.2251 28.4454 41.8516 31.9508 41.8516C35.4563 41.8516 38.0335 44.2564 38.0335 47.5191ZM29.2601 47.5347C29.2601 49.2228 30.533 50.4801 31.9978 50.4801C33.4627 50.4801 34.6416 49.2228 34.6416 47.5347C34.6416 45.8466 33.4627 44.6207 31.9978 44.6207C30.533 44.6207 29.2601 45.8466 29.2601 47.5347Z" fill="#F5F8FF"/>
<path id="Vector_4" d="M47.0739 53.1021L44.4771 49.0248L43.2198 50.427V53.1021H39.9102V41.9434H43.2198V46.24L46.9603 41.9434H50.7791L46.737 46.4789L51.0337 53.1021H47.0699H47.0739Z" fill="#F5F8FF"/>
<path id="Vector_5" d="M61.7813 41.9473V44.4932H55.9688V46.2439H61.2368V48.7898H55.9688V50.5562H61.9379V53.1021H52.6553V41.9434H61.7773L61.7813 41.9473Z" fill="#F5F8FF"/>
<path id="Vector_6" d="M75.0584 47.5208C75.0584 50.8813 72.6222 53.1099 68.9444 53.1099H64.1699V41.9512H69.058C72.6731 41.9512 75.0584 44.1641 75.0584 47.5247V47.5208ZM71.6822 47.5521C71.6822 45.7543 70.5855 44.5597 68.9914 44.5597H67.4796V50.5131H69.152C70.6639 50.5131 71.6822 49.3342 71.6822 47.5521Z" fill="#F5F8FF"/>
</g>
<g id="Group_2">
<path id="Vector_7" d="M8.98001 28.1803C10.77 28.9519 12.6696 29.4572 14.6514 29.7078C13.4255 29.183 12.2544 28.4427 11.1812 27.487C8.32984 24.9451 5.90146 20.3899 7.63266 15.2277C9.10927 10.8214 12.9868 7.56655 17.5067 6.93988C20.3894 6.53645 23.5581 7.08479 25.9786 8.40473C26.1784 8.5144 26.3703 8.64757 26.5622 8.76899L22.2577 11.2091C22.0306 11.3775 22.199 11.6595 22.5006 11.6165C22.5006 11.6165 29.0689 10.8331 34.9832 8.92174C35.1359 8.87082 35.2025 8.79641 35.2104 8.72199C35.2182 8.7024 35.2378 8.68674 35.2417 8.66324C35.273 8.4204 35.2025 8.16973 35.0263 7.98173C29.9071 2.36122 22.2381 -0.685997 14.7063 1.21362C8.65884 2.73722 3.63368 7.39813 1.65181 13.3085C0.543377 16.6181 0.284873 20.9892 2.7485 23.8366C4.05668 25.1958 6.12472 26.9465 8.98001 28.1803Z" fill="#F5F8FF"/>
<path id="Vector_8" d="M26.4808 27.9936C23.8331 29.9206 20.8368 30.7314 17.5193 30.7314C14.3663 30.7314 11.3935 30.136 8.65183 28.9493C5.16594 27.4413 2.82766 25.2401 1.54297 23.7713C2.49865 26.846 4.32385 29.7052 6.94414 32.0435C12.3218 36.8376 19.6735 38.1105 26.1244 35.361C29.8727 33.7668 32.9551 30.9429 35.5049 27.8212C38.2741 24.4333 40.6554 20.7633 43.17 17.1873C45.9665 13.2079 49.0647 9.17761 53.8117 7.49733C58.3199 5.89931 63.6545 6.6239 67.9785 8.49218C71.4644 10.0001 73.8027 12.2013 75.0874 13.6701C74.1317 10.5955 72.3065 7.73625 69.6862 5.39796C64.3086 0.599969 56.9569 -0.672968 50.506 2.07658C46.8478 3.63544 43.8632 6.33015 41.3448 9.35386C38.3759 12.9142 35.9319 16.8583 33.1823 20.5831C31.3924 23.0076 29.5633 25.4673 27.2328 27.4061C26.986 27.6137 26.7315 27.8095 26.4769 27.9936" fill="#F5F8FF"/>
<path id="Vector_9" d="M73.7775 13.6741C72.2539 11.7392 70.0253 10.2861 67.6439 9.25604C65.8539 8.48053 63.9543 7.97919 61.9685 7.72852C63.1945 8.25336 64.3656 8.99362 65.4427 9.95322C68.2941 12.4952 70.7224 17.0503 68.9913 22.2126C67.5146 26.6189 63.6371 29.8698 59.1172 30.5004C56.2345 30.9038 53.0658 30.3555 50.6453 29.0355C50.4455 28.9259 50.2536 28.7927 50.0617 28.6713L54.3662 26.2311C54.5933 26.0627 54.4249 25.7807 54.1233 25.8238C54.1233 25.8238 47.555 26.6072 41.6407 28.5185C41.488 28.5694 41.4214 28.6439 41.4136 28.7183C41.4057 28.7379 41.3861 28.7535 41.3822 28.777C41.3509 29.0199 41.4214 29.2705 41.5976 29.4585C43.2779 31.2994 45.1932 33.1168 47.5902 34.421C54.2957 38.0714 62.9908 37.4839 68.9599 32.6546C72.4615 29.8189 74.9408 25.7337 75.5988 21.253C76.0061 18.4799 75.5439 15.9106 73.7814 13.6702L73.7775 13.6741Z" fill="#F5F8FF"/>
</g>
</g>
</svg>
