<svg width="142" height="24" viewBox="0 0 142 24" fill="none" xmlns="http://www.w3.org/2000/svg">
<g id="Group 21315">
<path id="Vector" d="M3.07211 0.363281H15.7098L7.28468 18.2667H0.96582L3.07211 0.363281Z" fill="#F5F8FF"/>
<path id="Vector_2" d="M24.1348 23.5343H11.4971L19.9222 5.63086H26.2411L24.1348 23.5343Z" fill="#AEAEAE"/>
<g id="Group">
<path id="Vector_3" d="M117.338 5.63086H121.856L125.763 13.5114V5.63086H128.396V18.2686H125.763V15.6357H123.878L119.971 7.75526V18.2686H117.338V5.63086Z" fill="#F5F8FF"/>
<path id="Vector_4" d="M99.9621 5.63086H89.4307V7.73715H93.38V18.2686H96.0128V7.73715H99.9621V5.63086Z" fill="#F5F8FF"/>
<path id="Vector_5" d="M141.034 5.63086H134.189V7.73715H131.556V18.2686H141.034V16.1623H134.189V13.0029H139.981V10.8966H134.189V7.73715H141.034V5.63086Z" fill="#F5F8FF"/>
<path id="Vector_6" d="M62.0486 5.63086H55.2032V7.73715H52.5703V18.2686H62.0486V16.1623H55.2032V13.0029H60.9955V10.8966H55.2032V7.73715H62.0486V5.63086Z" fill="#F5F8FF"/>
<path id="Vector_7" d="M41.5118 11.4233L46.4713 5.63086H49.9373L44.5681 11.9018L50.4637 18.2686H46.8754L41.5118 12.4763V18.2686H38.8789V5.63086H41.5118V11.4233Z" fill="#F5F8FF"/>
<path id="Vector_8" d="M64.1533 5.63086L68.6298 12.7394V18.2686H71.2627V12.7396L75.7392 5.63086H72.6278L69.9463 9.88911L67.2647 5.63086H64.1533Z" fill="#F5F8FF"/>
<path id="Vector_9" opacity="0.9" d="M87.0603 6.0254C87.0603 6.0254 85.2173 5.36719 82.5845 5.36719C78.8985 5.36719 77.582 6.81526 77.582 9.05319C77.582 11.0278 78.6352 12.3443 81.5313 13.0025C83.9009 13.541 84.6907 13.6607 84.6907 14.7138C84.6907 15.767 83.7692 16.0303 82.0579 16.0303C80.0832 16.0303 77.582 14.9771 77.582 14.9771V17.61C78.3281 17.9171 80.2149 18.5315 82.5845 18.5315C85.349 18.5315 87.5869 17.7416 87.5869 14.8455C87.5869 12.081 85.9982 11.333 82.8477 10.6329C80.4782 10.1063 80.2149 9.44812 80.2149 9.05319C80.2149 8.15311 80.8731 7.60512 82.5845 7.60512C83.6376 7.60512 85.1346 7.92658 87.0603 8.39497V6.0254Z" fill="#F5F8FF"/>
<path id="Vector_10" fill-rule="evenodd" clip-rule="evenodd" d="M108.124 18.5315C112.168 18.5315 114.442 15.6353 114.442 11.9493C114.442 8.26333 112.168 5.36719 108.124 5.36719C104.079 5.36719 101.805 8.26333 101.805 11.9493C101.805 15.6353 104.079 18.5315 108.124 18.5315ZM108.124 16.1619C110.483 16.1619 111.81 14.3084 111.81 11.9493C111.81 9.59029 110.483 7.73676 108.124 7.73676C105.765 7.73676 104.438 9.59029 104.438 11.9493C104.438 14.3084 105.765 16.1619 108.124 16.1619Z" fill="#F5F8FF"/>
</g>
</g>
</svg>
