<svg width="126" height="18" viewBox="0 0 126 18" fill="none" xmlns="http://www.w3.org/2000/svg">
<g id="Group 21267" style="mix-blend-mode:luminosity">
<g id="Group">
<path id="Vector" d="M32.0975 2.33984H30.1377V16.8551H39.324V15.0386H32.0975V2.33984Z" fill="#F5F8FF"/>
<path id="Vector_2" d="M44.9098 6.33398C41.9245 6.33398 39.8398 8.50914 39.8398 11.6239V11.8675C39.8398 15.0191 41.9264 17.1374 45.0314 17.1374C47.1665 17.1374 48.6666 16.2127 49.6177 14.3115L49.6895 14.168L48.0368 13.379L47.9715 13.5283C47.4012 14.8336 46.4733 15.4417 45.0514 15.4417C43.1362 15.4417 41.8462 14.21 41.7253 12.2888H49.8369V11.421C49.8369 8.37796 47.8564 6.33398 44.9092 6.33398H44.9098ZM41.7641 10.6953C42.0486 9.02159 43.2125 8.029 44.9098 8.029C46.6072 8.029 47.7711 9.02223 47.945 10.6953H41.7641Z" fill="#F5F8FF"/>
<path id="Vector_3" d="M55.2077 6.33398C52.9401 6.33398 51.3158 7.48489 50.7526 9.49203L50.7112 9.63937L52.501 10.2029L52.5398 10.0374C52.8586 8.67845 53.7561 7.98894 55.207 7.98894C56.658 7.98894 57.5251 8.75405 57.5251 10.1434V10.716H54.2934C51.9048 10.716 50.4209 11.9263 50.4209 13.8759C50.4209 15.8256 51.9411 17.1374 54.2934 17.1374C55.9151 17.1374 57.0292 16.5532 57.6965 15.3519L57.7081 16.8466L59.3841 16.8595V10.2449C59.3841 7.79637 57.8225 6.33398 55.207 6.33398H55.2077ZM57.5258 12.3095V12.3748C57.5258 14.2915 56.3496 15.4824 54.4563 15.4824C53.114 15.4824 52.2805 14.8511 52.2805 13.8352C52.2805 12.8801 53.0558 12.3095 54.3548 12.3095H57.5258Z" fill="#F5F8FF"/>
<path id="Vector_4" d="M62.4132 7.83761H62.3918V6.62014H60.5742V16.8555H62.4326V10.6325C62.4326 9.13844 63.2272 8.31581 64.6698 8.31581H66.1266V6.58008H64.7914C63.5538 6.58008 62.7946 6.98008 62.4132 7.83761Z" fill="#F5F8FF"/>
<path id="Vector_5" d="M72.5223 6.4375C70.408 6.4375 69.4374 7.44236 68.9932 8.32444H68.966V6.62038H67.1484V16.8558H69.0068V11.7281C69.0068 9.46436 70.1771 8.11249 72.137 8.11249C73.877 8.11249 74.7596 9.0146 74.7596 10.7949V16.8558H76.6179V10.6935C76.6179 8.14803 74.9717 6.43815 72.5223 6.43815V6.4375Z" fill="#F5F8FF"/>
<path id="Vector_6" d="M91.2389 2.33984L89.1892 15.4825L86.5304 2.33984H83.3083L80.6696 15.4845H80.6502L78.6004 2.33984H76.6348L79.0214 16.8551H82.2479L84.9067 3.62969H84.9326L87.5914 16.8551H90.818L93.2246 2.33984H91.2389Z" fill="#F5F8FF"/>
<path id="Vector_7" d="M97.6374 6.33398C94.6527 6.33398 92.5674 8.50914 92.5674 11.6239V11.8675C92.5674 15.0191 94.654 17.1374 97.7589 17.1374C99.894 17.1374 101.394 16.2127 102.345 14.3115L102.417 14.168L100.764 13.379L100.699 13.5283C100.129 14.8336 99.2009 15.4417 97.779 15.4417C95.8638 15.4417 94.5738 14.21 94.4529 12.2888H102.564V11.421C102.564 8.37796 100.584 6.33398 97.6367 6.33398H97.6374ZM94.4917 10.6953C94.7755 9.02159 95.94 8.029 97.6374 8.029C99.3347 8.029 100.499 9.02223 100.673 10.6953H94.4917Z" fill="#F5F8FF"/>
<path id="Vector_8" d="M109.131 6.33603C106.843 6.33603 105.825 7.46819 105.405 8.20229H105.372V2.33984H103.514V16.8551H105.332V15.1917H105.364C105.875 16.0997 106.939 17.1394 109.132 17.1394C111.998 17.1394 113.999 14.9727 113.999 11.8696V11.6059C113.999 8.50278 111.998 6.33603 109.132 6.33603H109.131ZM112.099 11.646V11.8288C112.099 14.0253 110.775 15.4444 108.725 15.4444C106.676 15.4444 105.372 14.0253 105.372 11.8288V11.646C105.372 9.45013 106.688 8.03105 108.725 8.03105C110.762 8.03105 112.099 9.45013 112.099 11.646Z" fill="#F5F8FF"/>
<path id="Vector_9" d="M120.862 8.28372H119.986L125.344 4.81484V2.33984H115.204V4.07557H123.362L117.883 7.62522V9.8566H120.314C121.286 9.8566 123.545 10.1041 123.545 12.3969V12.539C123.545 14.2405 122.214 15.383 120.232 15.383C118.101 15.383 116.778 14.1455 116.778 12.1532V11.6305H114.858V12.1532C114.858 15.182 116.968 17.1388 120.233 17.1388C123.498 17.1388 125.445 15.341 125.445 12.5591V12.3361C125.445 9.87469 123.646 8.28372 120.862 8.28372Z" fill="#F5F8FF"/>
</g>
<g id="Group_2">
<path id="Vector_10" d="M8.05335 17.5293C8.01262 17.5707 7.95571 17.592 7.89817 17.5875L7.20372 17.5306C7.14876 17.5248 7.10091 17.4925 7.0744 17.444L5.80059 15.106C5.77731 15.0569 5.78443 14.9923 5.81999 14.9529L8.26479 12.6801C8.28289 12.6633 8.30553 12.6543 8.32945 12.6543C8.34238 12.6543 8.35531 12.6569 8.36695 12.6621L11.4099 14.0094C11.4325 14.0197 11.439 14.0404 11.4402 14.0482C11.4428 14.0598 11.4422 14.0773 11.4273 14.0928L8.054 17.5287L8.05335 17.5293Z" fill="#F5F8FF"/>
<path id="Vector_11" d="M19.0823 3.07123L17.9501 3.12164C17.8531 3.12681 17.7568 3.10096 17.674 3.04861C17.5311 2.95944 17.4425 2.91097 17.2783 2.82696C16.9983 2.68221 16.7009 2.56395 16.3679 2.45862C16.3362 2.44893 16.3414 2.40499 16.3744 2.40628C17.279 2.41403 18.1622 2.59562 18.9802 2.97624L19.0894 3.02664C19.1121 3.03569 19.1062 3.06929 19.0817 3.07059L19.0823 3.07123Z" fill="#F5F8FF"/>
<path id="Vector_12" d="M5.80297 1.34944C5.78357 1.25638 5.79585 1.15622 5.83594 1.07027L6.2724 0.210809C6.31184 0.115169 6.43082 0.0595947 6.52199 0.128093L10.6544 3.28614C10.7385 3.35076 10.7417 3.47677 10.6615 3.54527C10.5833 3.61118 10.5083 3.6771 10.4365 3.74172C9.81383 4.30393 9.27651 4.95079 8.8407 5.66227L8.81678 5.70169C8.7463 5.81865 8.68293 5.92851 8.62797 6.02867C8.59305 6.092 8.55878 6.15597 8.5258 6.2193C8.49283 6.28392 8.42687 6.32011 8.36027 6.31817C8.33312 6.31688 8.30467 6.31042 8.27945 6.29685L7.40718 5.81413L7.39555 5.80702H7.39425C7.37291 5.79345 7.35222 5.77859 7.33283 5.76243C7.33153 5.76243 7.33024 5.75984 7.33024 5.75984C7.25653 5.69975 7.20221 5.62155 7.17118 5.53173L5.80232 1.34879L5.80297 1.34944Z" fill="#F5F8FF"/>
<path id="Vector_13" d="M16.3668 3.74227C16.3965 3.77199 16.3913 3.82563 16.3603 3.85471C15.7001 4.47249 13.7202 6.32583 13.7202 6.32583C13.4933 6.53779 13.3381 6.81178 13.2721 7.11679C13.2062 7.42181 13.2346 7.73522 13.3543 8.02343L15.1628 12.4002C15.2747 12.6704 15.4589 12.9004 15.6963 13.0665C15.9316 13.2326 16.209 13.3288 16.4974 13.3431L20.2309 13.2442C20.569 13.2623 20.6227 13.3631 20.6311 13.7011C20.6434 14.2484 20.6027 14.8436 20.5089 15.4685L20.4947 15.5531C20.3983 16.0765 20.3466 16.894 18.7392 17.3987L18.7088 17.4071L18.7068 17.4097C18.3208 17.5383 17.9212 17.6365 17.5197 17.7018C17.1201 17.767 16.7082 17.8 16.2963 17.8C16.1689 17.8 16.0396 17.7968 15.9129 17.7903C15.4357 17.7664 14.9585 17.6972 14.4936 17.5848C13.5295 17.3509 12.6307 16.9341 11.8218 16.3454L11.8011 16.3312C11.6653 16.2368 11.5367 16.1334 11.4158 16.0216L11.4073 16.0139C11.3446 15.9563 11.3427 15.8581 11.4022 15.7974L11.6026 15.5938L11.6104 15.5841L13.2178 13.8949C13.2909 13.8174 13.3543 13.7282 13.4053 13.6287C13.4428 13.5641 13.4745 13.4917 13.5017 13.4116L14.1134 11.575C14.1412 11.4923 14.1664 11.4083 14.1884 11.3243C14.2375 11.0781 14.2155 10.8222 14.1231 10.5863L14.1147 10.5656C14.0112 10.3156 13.8392 10.1081 13.6155 9.96207C12.2602 9.08193 10.8299 8.14686 9.41581 7.22794L9.40935 7.22342C9.36603 7.19046 9.34663 7.1323 9.36344 7.08061C9.37314 7.05864 9.42228 6.94749 9.42228 6.94749L9.44426 6.90354C9.51992 6.74781 9.60462 6.58755 9.69579 6.42664C9.7139 6.39562 9.732 6.36396 9.75205 6.33035C10.334 5.36039 11.344 4.05374 12.8486 3.33903C13.3588 3.0967 13.909 2.96875 14.4393 2.96875C14.4451 2.96875 14.4509 2.96875 14.4567 2.96875C15.1486 2.97263 15.812 3.24662 16.3286 3.70673C16.3286 3.70673 16.3577 3.73128 16.3668 3.74033V3.74227Z" fill="#F5F8FF"/>
<path id="Vector_14" d="M22.2714 3.87888C22.2637 3.8776 22.2547 3.87695 22.2451 3.87695C22.2541 3.87695 22.2624 3.87695 22.2701 3.87824V3.87953L22.2714 3.87888Z" fill="#181826"/>
<path id="Vector_15" d="M24.501 8.60409L22.6466 4.12518C22.5839 3.96944 22.4293 3.86928 22.2612 3.87316L18.7347 3.97461L18.604 3.97978C18.5568 3.98172 18.5122 3.99012 18.4689 4.00821L17.2074 4.52648C17.1634 4.54651 17.1214 4.57236 17.0871 4.60467L14.3947 7.12296C14.2725 7.23799 14.2324 7.41635 14.2977 7.57338L14.4981 8.05933C14.9132 9.06225 15.6142 10.7586 15.9478 11.5657L16.1483 12.0549C16.2129 12.2113 16.3675 12.3108 16.5369 12.3056L20.2096 12.1983C20.2574 12.197 20.3059 12.1867 20.3499 12.168L21.6418 11.6303C21.6825 11.6129 21.72 11.5877 21.7523 11.5573L24.4054 9.0532C24.5263 8.93753 24.5644 8.75982 24.5004 8.60538L24.501 8.60409ZM23.1309 8.66095C22.688 9.07776 22.2392 9.49974 21.7931 9.92042C21.5713 10.1304 21.3489 10.3405 21.1284 10.5479C21.0721 10.6009 21.0068 10.6448 20.9363 10.6752C20.7663 10.7476 20.5348 10.8393 20.4139 10.8872C20.2936 10.9363 20.2089 10.9686 20.1455 10.9957C20.0725 11.0267 19.9949 11.0435 19.9154 11.0461C19.4336 11.0616 18.8827 11.0771 18.3473 11.092L17.1518 11.1243C17.0768 11.1263 17.0089 11.0823 16.9804 11.0138C16.6448 10.2022 16.0254 8.70231 15.6258 7.73687C15.5967 7.66578 15.6142 7.58565 15.6698 7.53331L15.8592 7.35689C16.1153 7.1165 16.4353 6.81795 16.7599 6.51423C17.0858 6.20793 17.4182 5.89774 17.7046 5.62956C17.7557 5.58239 17.8145 5.54491 17.8792 5.51777C17.9115 5.5042 17.9458 5.48869 17.9865 5.47189C18.1508 5.40404 18.4663 5.27156 18.6836 5.18368C18.745 5.15847 18.8103 5.1449 18.8789 5.14297C19.2468 5.13069 19.949 5.11259 20.3324 5.10225C20.6939 5.09256 20.8426 5.08868 20.9144 5.08674L21.6418 5.06477C21.7194 5.06284 21.7892 5.10742 21.8183 5.1798L22.1578 6.00178H22.1591L23.1742 8.45546C23.2033 8.52654 23.1865 8.60796 23.1303 8.66095H23.1309Z" fill="#765DFF"/>
<path id="Vector_16" d="M21.2065 8.47949L19.8001 8.59646C19.6657 8.60744 19.5383 8.66043 19.4348 8.74702L19.3947 8.78063L18.5302 9.50891L18.3556 9.65625C18.2063 9.78226 17.9754 9.70665 17.892 9.50568L17.4401 8.41164C17.411 8.34185 17.4051 8.26753 17.42 8.20097C17.4336 8.13764 17.4659 8.08013 17.5151 8.03877L18.0543 7.58449L18.7216 7.02228C18.8244 6.93569 18.9518 6.8827 19.0863 6.87171L20.6588 6.74118C20.7901 6.73019 20.9194 6.81614 20.9757 6.95249L21.4276 8.04588C21.5111 8.2475 21.4005 8.46334 21.2059 8.47949H21.2065Z" fill="#FFB800"/>
<path id="Vector_17" d="M2.68678 8.99622C2.57297 8.9387 2.48827 8.84759 2.43913 8.7345L0.732747 4.60067L0.731454 4.59357C0.70559 4.50051 0.710116 4.39841 0.743739 4.30794L1.12135 3.40259C1.15433 3.30631 1.24873 3.26172 1.32762 3.26172C1.36836 3.26172 1.40715 3.2727 1.43884 3.29403L12.8727 10.792L12.9173 10.8192C12.9781 10.8554 13.0356 10.8896 13.0725 10.942C13.1061 10.9878 13.1197 11.0467 13.1106 11.1055L12.5242 12.867C12.5067 12.933 12.486 13.0002 12.4589 13.0564C12.4136 13.1494 12.3011 13.1882 12.206 13.1468L2.68678 8.99622Z" fill="#F5F8FF"/>
<path id="Vector_18" d="M21.9771 15.3922C21.9552 15.3818 21.9371 15.3534 21.9455 15.3159C21.9758 15.1776 22.0198 14.9689 22.0386 14.8461C22.1071 14.3989 22.1524 13.9983 22.1666 13.5362C22.1718 13.3618 22.1724 13.1879 22.1634 13.0134C22.1556 12.8609 22.1466 12.7033 22.2222 12.5643C22.3347 12.3575 22.5377 12.2218 22.7091 12.0674C22.8371 11.9524 23.1902 11.6467 23.3156 11.5278C23.4436 11.4063 23.571 11.2848 23.6965 11.1601C23.7184 11.1381 23.7411 11.1162 23.7618 11.0929C23.7844 11.0683 23.8128 11.0341 23.8529 11.0373C23.8853 11.0399 23.9092 11.0632 23.9124 11.0948C23.9163 11.1297 23.9092 11.175 23.9053 11.2099C23.9001 11.2493 23.8749 11.4302 23.8691 11.4696C23.8445 11.6377 23.8309 11.6525 23.7941 11.8186C23.7197 12.1501 23.6286 12.4784 23.518 12.8002C23.4094 13.1168 23.2813 13.427 23.1339 13.7275C22.9891 14.0222 22.8248 14.3072 22.6425 14.5799C22.5487 14.7201 22.4627 14.8532 22.3612 14.9883C22.3101 15.0568 22.2474 15.144 22.1957 15.2125C22.1511 15.272 22.1084 15.3262 22.0509 15.3741C22.0231 15.3967 21.9972 15.4012 21.9778 15.3922H21.9771Z" fill="#F5F8FF"/>
</g>
</g>
</svg>
