<svg width="90" height="19" viewBox="0 0 90 19" fill="none" xmlns="http://www.w3.org/2000/svg">
<g id="Group 21276">
<g id="Layer_6" style="mix-blend-mode:luminosity">
<path id="Vector" d="M37.0056 0.919922C32.0206 0.919922 27.9785 4.96205 27.9785 9.94701C27.9785 14.932 32.0206 18.9741 37.0056 18.9741C41.9906 18.9741 46.0327 14.932 46.0327 9.94701C46.0327 4.96205 41.9906 0.919922 37.0056 0.919922ZM37.0056 14.7949C34.3276 14.7949 32.1577 12.625 32.1577 9.94701C32.1577 7.26898 34.3276 5.09913 37.0056 5.09913C39.6836 5.09913 41.8535 7.26898 41.8535 9.94701C41.8535 12.625 39.6836 14.7949 37.0056 14.7949Z" fill="#F5F8FF"/>
<path id="Vector_2" d="M58.0701 0.919922C53.0851 0.919922 49.043 4.96205 49.043 9.94701C49.043 14.932 53.0851 18.9741 58.0701 18.9741C63.055 18.9741 67.0972 14.932 67.0972 9.94701C67.0972 4.96205 63.055 0.919922 58.0701 0.919922ZM58.0701 14.7949C55.392 14.7949 53.2222 12.625 53.2222 9.94701C53.2222 7.26898 55.392 5.09913 58.0701 5.09913C60.7481 5.09913 62.9179 7.26898 62.9179 9.94701C62.9179 12.625 60.7481 14.7949 58.0701 14.7949Z" fill="#F5F8FF"/>
<path id="Vector_3" d="M0.707031 1.25586H5.07681L8.51045 12.4829L10.8508 6.68883C11.1584 5.92989 11.8939 5.43507 12.7097 5.43507H14.3747C15.1938 5.43507 15.9294 5.92989 16.2336 6.68883L18.574 12.4829L19.8612 8.27693H24.231L21.4961 17.2204C21.2386 18.063 20.4596 18.6414 19.577 18.6414H18.0457C17.2266 18.6414 16.4911 18.1465 16.1868 17.3876L13.5422 10.8446L10.8976 17.3876C10.59 18.1465 9.85448 18.6414 9.0387 18.6414H7.50744C6.62479 18.6414 5.84579 18.0663 5.58835 17.2204L0.707031 1.25586Z" fill="#F5F8FF"/>
<path id="Vector_4" d="M22.0067 1.25586L20.7295 5.43507H25.0993L26.3798 1.25586H22.0067Z" fill="#F5F8FF"/>
<path id="Vector_5" d="M81.5861 5.43507V1.25586H74.1471C72.3015 1.25586 70.8037 2.75369 70.8037 4.59923V18.8085H74.8158V12.289H81.5861V8.27693H74.8158V5.43507H81.5861Z" fill="url(#paint0_linear_2201_2341)"/>
<path id="Vector_6" d="M89.6107 1.25586H85.5986V5.43507H89.6107V1.25586Z" fill="url(#paint1_linear_2201_2341)"/>
<path id="Vector_7" d="M89.6107 8.27539H85.5986V18.807H89.6107V8.27539Z" fill="url(#paint2_linear_2201_2341)"/>
</g>
</g>
<defs>
<linearGradient id="paint0_linear_2201_2341" x1="81.6228" y1="0.165922" x2="69.2223" y2="17.8757" gradientUnits="userSpaceOnUse">
<stop stop-color="#47FCAA"/>
<stop offset="0.5" stop-color="#00B5FF"/>
<stop offset="0.58" stop-color="#01AEFA"/>
<stop offset="0.69" stop-color="#069DEE"/>
<stop offset="0.81" stop-color="#0D81DA"/>
<stop offset="0.95" stop-color="#185ABE"/>
<stop offset="1" stop-color="#1D4AB3"/>
</linearGradient>
<linearGradient id="paint1_linear_2201_2341" x1="89.1693" y1="0.423361" x2="79.9383" y2="17.6584" gradientUnits="userSpaceOnUse">
<stop stop-color="#47FCAA"/>
<stop offset="0.5" stop-color="#00B5FF"/>
<stop offset="0.58" stop-color="#01AEFA"/>
<stop offset="0.69" stop-color="#069DEE"/>
<stop offset="0.81" stop-color="#0D81DA"/>
<stop offset="0.95" stop-color="#185ABE"/>
<stop offset="1" stop-color="#1D4AB3"/>
</linearGradient>
<linearGradient id="paint2_linear_2201_2341" x1="93.4121" y1="2.69531" x2="84.1844" y2="19.927" gradientUnits="userSpaceOnUse">
<stop stop-color="#47FCAA"/>
<stop offset="0.5" stop-color="#00B5FF"/>
<stop offset="0.58" stop-color="#01AEFA"/>
<stop offset="0.69" stop-color="#069DEE"/>
<stop offset="0.81" stop-color="#0D81DA"/>
<stop offset="0.95" stop-color="#185ABE"/>
<stop offset="1" stop-color="#1D4AB3"/>
</linearGradient>
</defs>
</svg>
