<svg width="75" height="22" viewBox="0 0 75 22" fill="none" xmlns="http://www.w3.org/2000/svg">
<g id="LJSF70D2J97L7 1" clip-path="url(#clip0_2201_2351)">
<path id="Vector" d="M55.9972 20.6227H73.5671L71.4529 15.7733H61.99V12.5116H69.3378V8.01495H61.9908V4.89934H71.4504L73.5711 0.0830673L55.9972 0.0507812V20.6227ZM18.8952 0.0507812L20.7847 4.80249H24.8611V20.6227H30.442V4.80249H34.5814L36.4692 0.0507812H18.8952ZM10.2145 15.8887C11.8759 15.8887 12.8329 15.2301 12.8329 14.0565V14C12.8329 12.9119 11.9879 12.1968 10.1581 12.1968H5.99098V15.8887H10.2145ZM9.42585 8.30472C11.0873 8.30472 12.0165 7.73164 12.0165 6.55885V6.50154C12.0165 5.41431 11.1715 4.78392 9.53863 4.78392H5.9918V8.30472H9.42585ZM36.4079 17.3263L39.4775 13.661C41.4388 15.2236 43.6266 16.0477 45.9288 16.0477C47.4072 16.0477 48.2031 15.536 48.2031 14.6836V14.6271C48.2031 13.8038 47.5494 13.3486 44.8492 12.7231C40.6142 11.7577 37.3461 10.5639 37.3461 6.47248V6.41598C37.3453 2.72084 40.2734 0.0507812 45.0478 0.0507812C48.4303 0.0507812 51.0733 0.960442 53.2333 2.6934L50.4767 6.58629C48.6575 5.30696 46.6684 4.62491 44.9056 4.62491C43.5702 4.62491 42.9164 5.19395 42.9164 5.90425V5.96075C42.9164 6.87041 43.5988 7.26834 46.3554 7.89307C50.9319 8.88748 53.7735 10.3646 53.7735 14.0872V14.1437C53.7735 18.2077 50.5617 20.6227 45.7302 20.6227C42.2062 20.6227 38.8523 19.5144 36.4079 17.3263ZM0.669922 0.319563H10.7776C13.2546 0.319563 15.0003 0.949142 16.155 2.12274C16.9428 2.92424 17.4217 3.98323 17.4217 5.357V5.4135C17.4217 7.73245 16.1264 9.10541 14.3816 9.87867C16.7745 10.6802 18.2946 12.0539 18.2946 14.7724V14.8297C18.2946 18.2642 15.5355 20.3539 10.8331 20.3539H0.670739V0.32037L0.669922 0.319563Z" fill="#F5F8FF"/>
</g>
<defs>
<clipPath id="clip0_2201_2351">
<rect width="73.5517" height="21.7931" fill="white" transform="translate(0.462891 0.0507812)"/>
</clipPath>
</defs>
</svg>
