<svg width="165" height="65" viewBox="0 0 165 65" fill="none" xmlns="http://www.w3.org/2000/svg">
<g clip-path="url(#clip0_2476_463)">
<path d="M64.6725 40.5225V38.6598C64.6725 37.2312 64.665 35.799 64.6762 34.3704C64.6762 34.0253 64.5981 33.7359 64.4012 33.4465C63.1748 31.6172 61.9632 29.7805 60.7517 27.9438C60.1347 27.005 59.5252 26.0588 58.9195 25.1126C58.8488 25.005 58.8266 24.864 58.7671 24.6934C59.529 24.5932 60.2388 24.6562 60.9449 24.6451C61.6362 24.634 62.3274 24.6451 63.067 24.6451C64.1522 26.5486 65.2411 28.4558 66.3188 30.3445C66.3783 30.3445 66.4043 30.3519 66.4266 30.3482C66.4489 30.3482 66.4712 30.3371 66.4898 30.3222C66.527 30.2925 66.5716 30.2666 66.5939 30.2257C67.6642 28.4373 68.7345 26.6488 69.8048 24.8603C69.8383 24.801 69.8643 24.7379 69.9015 24.66H77.4086C77.8397 26.3074 78.2857 27.9586 78.7019 29.6209C79.1182 31.2832 79.5047 32.953 79.9358 34.7489C81.0507 31.3203 82.1285 28.0106 83.2174 24.6711H86.525C86.878 25.7694 87.246 26.89 87.5953 28.018C87.9446 29.1497 88.2643 30.2888 88.6247 31.4168C88.9815 32.5374 89.3717 33.6468 89.788 34.8862C90.6799 31.3946 91.5384 28.0365 92.3969 24.6748H96.0576C95.6674 25.9809 95.2808 27.2425 94.9129 28.5078C94.5227 29.8436 94.1473 31.1831 93.7645 32.5226C93.3334 34.0179 92.8986 35.5095 92.4712 37.0049C92.1776 38.0327 91.8952 39.0605 91.5979 40.0846C91.5607 40.2182 91.4752 40.3369 91.4009 40.4891H88.2234C87.0973 36.9603 85.9638 33.402 84.7894 29.71C83.5704 33.3723 82.4815 36.9492 81.3294 40.5002H78.2411C77.7394 38.8638 77.2339 37.2275 76.7397 35.5875C76.2119 33.8324 75.6916 32.0736 75.1751 30.3148C74.7179 28.7564 74.2757 27.1905 73.826 25.6321C73.8148 25.5913 73.774 25.5616 73.7108 25.48C73.5658 25.6618 73.4135 25.8288 73.2908 26.0106C71.8303 28.2183 70.3772 30.4261 68.924 32.6339C68.7419 32.9085 68.5784 33.1905 68.4075 33.4725C68.27 33.7025 68.2477 33.9548 68.2514 34.222C68.2588 36.0587 68.2514 37.8917 68.2514 39.7284C68.2514 39.9659 68.2514 40.1996 68.2514 40.5039C67.6382 40.541 67.0473 40.5187 66.4601 40.5225C65.8915 40.5262 65.3191 40.5225 64.665 40.5225H64.6725Z" fill="#F5F8FF"/>
<path d="M13.5605 33.8546C14.222 33.5244 14.8873 33.3834 15.6491 33.6283C16.1323 33.7804 16.4519 34.1107 16.6377 34.4817C16.8272 34.8565 16.9573 35.2943 16.9833 35.7544C17.0614 37.0531 17.3847 38.3073 18.1912 39.3499C18.7412 40.0623 19.5105 40.541 20.3913 40.8119C21.1123 41.0345 21.8481 40.938 22.5802 40.938C22.7995 40.938 23.0225 40.8156 23.2864 40.7339C23.238 40.5892 23.2269 40.4482 23.1563 40.3443C22.7177 39.7098 22.6137 39.0568 22.7995 38.2813C22.9928 37.4687 23.212 36.6449 23.1377 35.7804C23.0745 35.0234 22.8887 34.2999 22.5356 33.6431C22.2792 33.1645 21.8518 32.8008 21.2386 32.5893C22.3387 32.17 22.6917 31.2535 22.9742 30.3037C23.2641 29.3315 23.2083 28.3334 22.9073 27.3872C22.6025 26.4262 22.6508 25.5505 23.16 24.6933C23.2046 24.6154 23.238 24.5301 23.2975 24.3965C21.417 23.9475 19.7483 24.1702 18.3844 25.5913C17.8232 26.1775 17.4665 26.9048 17.2695 27.6803C17.1097 28.3111 17.0762 28.9716 16.961 29.6098C16.8124 30.4409 16.5336 31.1793 15.6343 31.5281C15.1846 31.7025 14.7498 31.6654 14.3112 31.606C14.0436 31.5689 13.7946 31.4131 13.5419 31.3092V21.2388C13.7463 21.2277 13.9284 21.2129 14.1142 21.2129C17.3847 21.2092 20.6551 21.2129 23.9256 21.2054C24.431 21.2054 24.8993 21.339 25.3601 21.5023C26.8653 22.0366 28.0211 23.0013 28.7346 24.4373C29.0356 25.0384 29.2549 25.6729 29.3107 26.3668C29.3404 26.7082 29.4482 27.0532 29.4333 27.4094C29.3515 29.3612 28.5711 30.9382 26.947 32.0699C26.7723 32.1886 26.6014 32.3148 26.4304 32.4372C26.3933 32.4632 26.371 32.5077 26.3041 32.5856C26.4862 32.6784 26.6609 32.7637 26.8318 32.8565C27.7498 33.35 28.4522 34.0624 28.9502 34.9752C29.2772 35.5726 29.6005 36.1923 29.6637 36.8639C29.7641 37.9362 29.8384 39.0085 29.3218 40.0475C28.9799 40.7302 28.6045 41.387 28.0805 41.9139C27.4339 42.5632 26.6683 43.079 25.7838 43.3795C25.1 43.6133 24.4013 43.7543 23.6729 43.8508C22.937 43.9473 22.2123 43.9435 21.4802 43.951C19.0942 43.9695 16.7046 43.9584 14.3186 43.9584C14.0808 43.9584 13.8467 43.9584 13.6162 43.9584C13.501 43.3758 13.4564 35.3685 13.5605 33.8546Z" fill="#F5F8FF"/>
<path d="M96.6631 24.6637H100.19V30.6117H106.794V24.6637H110.366V40.5039H106.913L106.809 33.9029H100.253L100.209 40.5039H96.6631V24.6637Z" fill="#F5F8FF"/>
<path d="M151.502 40.5077H140.405L140.364 24.6489L151.212 24.6415V27.9253H143.906V30.7935H150.755V34.0811H143.906V37.2053L151.502 37.2313V40.5077Z" fill="#F5F8FF"/>
<path d="M42.1803 24.8121H45.7629C45.7629 24.8121 45.7629 25.1089 45.7629 25.2648C45.7629 28.5301 45.7964 31.7953 45.7481 35.0606C45.7332 36.1552 45.343 37.1607 44.7558 38.1329C44.2095 39.0383 42.4479 40.5151 40.9874 40.8008C39.891 41.0976 38.9545 41.0642 37.6575 40.9492C36.3604 40.8342 34.3461 39.7581 33.3204 38.1848C32.7741 37.3426 32.566 36.4001 32.4247 35.4168C32.1906 33.7842 32.3318 32.1478 32.3021 30.5152C32.2724 28.8714 32.2947 27.2277 32.2947 25.5802V24.7973C32.9079 24.7713 33.4951 24.7861 34.086 24.7824C34.6583 24.7824 35.881 24.7824 35.881 24.7824C35.881 24.7824 35.881 25.224 35.881 25.4318C35.881 28.3148 35.881 31.2016 35.881 34.0847C35.881 35.2164 36.2266 36.2108 37.1149 36.9641C37.6129 37.3871 38.174 37.632 38.8393 37.6654C39.5974 37.7025 40.2738 37.5503 40.8982 37.0939C41.4779 36.6672 41.7938 36.081 42.0317 35.4391C42.1803 35.0383 42.184 34.6116 42.184 34.1886C42.1766 31.3055 42.184 28.4187 42.184 25.5357C42.184 25.3019 42.184 25.0718 42.184 24.8121H42.1803Z" fill="#F5F8FF"/>
<path d="M128.022 40.4892H123.99C123.99 40.4892 123.109 38.3296 122.667 37.2536H116.568C116.141 38.3333 115.301 40.4558 115.301 40.4558H111.361C111.361 40.4558 115.899 29.9364 118.177 24.6675H121.128C123.421 29.9253 128.022 40.4892 128.022 40.4892ZM121.459 34.2072C120.849 32.6822 120.27 31.2425 119.686 29.8028C119.66 29.7398 119.575 29.699 119.493 29.6285C118.887 31.1795 118.3 32.6785 117.702 34.2072H121.459Z" fill="#F5F8FF"/>
<path d="M58.2132 25.9735C57.4216 26.8566 56.6486 27.7212 55.8533 28.6117C55.0023 27.7175 53.8836 27.5579 52.7055 27.6507C52.0663 27.6989 50.9439 27.9475 50.9588 29.2536C51.1186 30.159 51.9102 30.4929 52.7129 30.7824C53.367 31.0161 54.062 31.146 54.7124 31.3983C55.5411 31.7174 56.3736 32.0328 57.05 32.6673C57.7375 33.3166 58.0943 34.1218 58.2132 35.0086C58.3136 35.773 58.295 36.5671 58.046 37.3203C57.6595 38.5151 56.9088 39.4242 55.8422 40.0735C54.8202 40.6969 53.6904 40.9492 52.4974 40.9492C52.1852 40.9492 51.8768 40.9418 51.5646 40.9492C49.9925 40.9826 48.6398 40.3889 47.391 39.4984C47.1681 39.3388 46.9562 39.1681 46.7109 38.9826C47.1569 38.4669 47.5508 37.9993 47.9559 37.5466C48.3462 37.1051 48.7512 36.6747 49.1824 36.2071C49.305 36.3036 49.4314 36.3964 49.5503 36.5003C50.4571 37.2832 51.4791 37.7507 52.7055 37.6505C53.2295 37.6097 53.7089 37.4019 54.1252 37.094C54.9279 36.4966 54.8127 35.2758 53.9171 34.7897C53.2109 34.4075 52.4454 34.2035 51.6984 33.9363C51.0406 33.7025 50.3679 33.491 49.7361 33.2016C49.2715 32.9864 48.8107 32.7081 48.4391 32.363C47.863 31.8324 47.3762 31.1682 47.2535 30.3668C47.2089 30.0662 47.1904 29.7657 47.2052 29.4688C47.2944 27.8844 47.7961 26.5301 49.1786 25.5542C50.2973 24.7676 51.4902 24.3483 52.8467 24.3446C53.3707 24.3446 53.9022 24.3038 54.4225 24.3557C55.8533 24.4967 57.1615 24.942 58.2132 25.9661V25.9735Z" fill="#F5F8FF"/>
<path d="M132.876 24.6415V37.2239L139.32 37.2313V40.4854H129.327V24.6563L132.876 24.6415Z" fill="#F5F8FF"/>
</g>
<defs>
<clipPath id="clip0_2476_463">
<rect width="138.002" height="22.7529" fill="white" transform="translate(13.501 21.2054)"/>
</clipPath>
</defs>
</svg>
