<svg width="146" height="28" viewBox="0 0 146 28" fill="none" xmlns="http://www.w3.org/2000/svg">
<g id="Group 21317">
<path id="Vector" d="M17.5342 27.3196H27.3362L17.5342 17.5176V27.3196Z" fill="#F5F8FF"/>
<path id="Vector_2" d="M27.337 0.363282L21.6191 0.363281L27.337 6.08112V0.363282Z" fill="#F5F8FF"/>
<path id="Vector_3" fill-rule="evenodd" clip-rule="evenodd" d="M17.9426 17.5159C17.8056 17.5159 17.6693 17.5123 17.5342 17.5054V11.3696L24.2061 5.17424C25.1469 6.45822 25.7025 8.04225 25.7025 9.75602C25.7025 14.0417 22.2282 17.5159 17.9426 17.5159ZM22.4635 3.44833L17.5342 8.02552V2.00665C17.6693 1.99965 17.8056 1.99609 17.9426 1.99609C19.6293 1.99609 21.1904 2.53429 22.4635 3.44833Z" fill="#F5F8FF"/>
<path id="Vector_4" fill-rule="evenodd" clip-rule="evenodd" d="M16.7187 1.99609H9.36719V9.24856L12.6659 12.5472L16.7187 8.7839V1.99609ZM16.7187 12.128L12.6029 15.9498L9.36719 12.7141V27.318H16.7187V12.128Z" fill="#F5F8FF"/>
<path id="Vector_5" fill-rule="evenodd" clip-rule="evenodd" d="M8.5492 1.99609H0.380859V12.5162L6.50759 6.38949L8.5492 8.43111V1.99609ZM8.5492 11.8966L6.50759 9.85502L0.380859 15.9818V27.318H8.5492V11.8966Z" fill="#F5F8FF"/>
<path id="Vector_6" d="M37.0508 20.2593V6.78159H42.8462C44.5021 6.78159 45.7793 7.23084 46.6778 8.12935C47.3709 8.82251 47.7175 9.70819 47.7175 10.7864V10.8249C47.7175 11.9031 47.3837 12.776 46.7163 13.4434C46.0488 14.111 45.1631 14.5473 44.0592 14.7527L48.1988 20.2593H46.3312L42.4226 15.0222H42.3841H38.5718V20.2593H37.0508ZM38.5718 13.6552H42.7114C43.7384 13.6552 44.5726 13.4049 45.2145 12.9043C45.8563 12.4037 46.1772 11.7298 46.1772 10.8826V10.8441C46.1772 10.0099 45.8691 9.36162 45.253 8.89952C44.6496 8.42458 43.8089 8.18713 42.7307 8.18713H38.5718V13.6552ZM51.4121 15.8887C51.5148 16.9028 51.8935 17.7114 52.5481 18.3147C53.2155 18.9052 54.0049 19.2004 54.9163 19.2004C56.1101 19.2004 57.1562 18.7319 58.0547 17.7948L58.9789 18.6227C57.8622 19.8679 56.4951 20.4904 54.8778 20.4904C53.4787 20.4904 52.2978 20.009 51.3351 19.0463C50.3852 18.0708 49.9103 16.8193 49.9103 15.2918C49.9103 13.8414 50.3659 12.6155 51.2773 11.6143C52.1887 10.6003 53.3247 10.0932 54.6853 10.0932C56.1101 10.0932 57.2396 10.5938 58.074 11.595C58.9083 12.5963 59.3255 13.8542 59.3255 15.3688C59.3255 15.5614 59.319 15.7346 59.3062 15.8887H51.4121ZM51.4121 14.6949H57.8237C57.7339 13.7322 57.4129 12.9365 56.861 12.3074C56.3219 11.6657 55.5838 11.3447 54.6468 11.3447C53.7996 11.3447 53.0744 11.6593 52.4711 12.2882C51.8678 12.9172 51.5148 13.7194 51.4121 14.6949ZM62.4792 20.2593V11.6143H61.1122V10.3243H62.4792V9.45788C62.4792 8.32831 62.768 7.47473 63.3456 6.89711C63.8591 6.38367 64.5715 6.12695 65.4828 6.12695C66.1118 6.12695 66.6573 6.21038 67.1194 6.37725V7.66727C66.529 7.50039 66.0476 7.41696 65.6753 7.41696C64.5201 7.41696 63.9425 8.12294 63.9425 9.5349V10.3435H67.1001V11.6143H63.9617V20.2593H62.4792ZM67.9524 20.2593V18.2377H69.7238V20.2593H67.9524Z" fill="#F5F8FF"/>
<path id="Vector_7" d="M79.1766 20.2593V11.6143H77.8096V10.3243H79.1766V9.45788C79.1766 8.32831 79.4654 7.47473 80.043 6.89711C80.5564 6.38367 81.2688 6.12695 82.1802 6.12695C82.8091 6.12695 83.3547 6.21038 83.8168 6.37725V7.66727C83.2264 7.50039 82.745 7.41696 82.3728 7.41696C81.2175 7.41696 80.6399 8.12294 80.6399 9.5349V10.3435H83.7975V11.6143H80.6592V20.2593H79.1766ZM85.7265 8.12935V6.49278H87.4209V8.12935H85.7265ZM85.8228 20.2593V10.305H87.3053V20.2593H85.8228ZM90.7459 20.2593V10.305H92.2285V12.0379C93.0115 10.7415 94.1475 10.0932 95.6364 10.0932C96.8174 10.0932 97.7484 10.4591 98.428 11.1907C99.1087 11.9096 99.4485 12.8723 99.4485 14.0788V20.2593H97.9659V14.4446C97.9659 13.5076 97.7224 12.776 97.2343 12.2497C96.7597 11.7106 96.0857 11.441 95.2128 11.441C94.3529 11.441 93.6405 11.7298 93.0756 12.3074C92.5109 12.8851 92.2285 13.636 92.2285 14.5602V20.2593H90.7459ZM105.575 20.4711C104.574 20.4711 103.702 20.1952 102.957 19.6432C102.225 19.0913 101.859 18.3339 101.859 17.3712V17.3327C101.859 16.293 102.244 15.4908 103.014 14.926C103.784 14.3613 104.818 14.0788 106.114 14.0788C107.141 14.0788 108.155 14.22 109.156 14.5024V14.1943C109.156 13.3215 108.9 12.654 108.386 12.1919C107.873 11.7298 107.148 11.4988 106.21 11.4988C105.235 11.4988 104.227 11.7363 103.188 12.2112L102.745 10.9982C103.977 10.4335 105.184 10.151 106.365 10.151C107.777 10.151 108.848 10.5168 109.58 11.2485C110.273 11.9416 110.62 12.9172 110.62 14.1751V20.2593H109.156V18.7768C108.271 19.9064 107.077 20.4711 105.575 20.4711ZM105.864 19.2774C106.788 19.2774 107.572 19.0271 108.213 18.5265C108.855 18.0259 109.176 17.3841 109.176 16.6011V15.6769C108.2 15.3945 107.231 15.2533 106.268 15.2533C105.358 15.2533 104.645 15.4395 104.131 15.8117C103.618 16.1711 103.361 16.6525 103.361 17.2557V17.2942C103.361 17.8975 103.599 18.3789 104.073 18.7383C104.561 19.0977 105.158 19.2774 105.864 19.2774ZM113.76 20.2593V10.305H115.243V12.0379C116.026 10.7415 117.162 10.0932 118.65 10.0932C119.832 10.0932 120.763 10.4591 121.442 11.1907C122.123 11.9096 122.463 12.8723 122.463 14.0788V20.2593H120.98V14.4446C120.98 13.5076 120.737 12.776 120.249 12.2497C119.774 11.7106 119.1 11.441 118.227 11.441C117.367 11.441 116.655 11.7298 116.09 12.3074C115.526 12.8851 115.243 13.636 115.243 14.5602V20.2593H113.76ZM130.111 20.4904C128.673 20.4904 127.46 19.9834 126.472 18.9693C125.496 17.9553 125.009 16.7423 125.009 15.3303V15.2918C125.009 13.867 125.496 12.6477 126.472 11.6336C127.46 10.6067 128.673 10.0932 130.111 10.0932C131.652 10.0932 132.98 10.6838 134.097 11.8646L133.115 12.9043C132.165 11.9031 131.157 11.4025 130.092 11.4025C129.091 11.4025 128.244 11.7748 127.551 12.5192C126.87 13.2638 126.53 14.1751 126.53 15.2533V15.2918C126.53 16.37 126.877 17.2879 127.57 18.0451C128.276 18.7897 129.149 19.1618 130.188 19.1618C131.292 19.1618 132.306 18.6677 133.231 17.6793L134.174 18.565C133.019 19.8486 131.664 20.4904 130.111 20.4904ZM137.229 15.8887C137.331 16.9028 137.71 17.7114 138.365 18.3147C139.032 18.9052 139.821 19.2004 140.733 19.2004C141.927 19.2004 142.972 18.7319 143.871 17.7948L144.795 18.6227C143.679 19.8679 142.312 20.4904 140.694 20.4904C139.295 20.4904 138.114 20.009 137.152 19.0463C136.201 18.0708 135.727 16.8193 135.727 15.2918C135.727 13.8414 136.182 12.6155 137.094 11.6143C138.005 10.6003 139.141 10.0932 140.502 10.0932C141.927 10.0932 143.056 10.5938 143.89 11.595C144.724 12.5963 145.142 13.8542 145.142 15.3688C145.142 15.5614 145.135 15.7346 145.123 15.8887H137.229ZM137.229 14.6949H143.64C143.55 13.7322 143.229 12.9365 142.677 12.3074C142.138 11.6657 141.4 11.3447 140.463 11.3447C139.616 11.3447 138.89 11.6593 138.288 12.2882C137.684 12.9172 137.331 13.7194 137.229 14.6949Z" fill="#F5F8FF"/>
</g>
</svg>
