<svg width="90" height="29" viewBox="0 0 90 29" fill="none" xmlns="http://www.w3.org/2000/svg">
<g id="Clip path group">
<mask id="mask0_2201_2364" style="mask-type:luminance" maskUnits="userSpaceOnUse" x="0" y="0" width="90" height="29">
<g id="clippath">
<path id="Vector" d="M89.4674 0.976562H0.212891V28.7061H89.4674V0.976562Z" fill="white"/>
</g>
</mask>
<g mask="url(#mask0_2201_2364)">
<g id="Group">
<g id="Group_2">
<path id="Vector_2" d="M35.1954 14.9019C35.8713 14.5206 36.4086 14.044 36.7985 13.4894C37.2405 12.8568 37.4831 12.1029 37.4744 11.323C37.4744 9.83258 36.9198 8.66274 35.8193 7.85685C34.7361 7.05962 33.237 6.65234 31.3739 6.65234H24.6408V23.94H31.6426C33.601 23.94 35.1781 23.4807 36.3133 22.5795C37.4571 21.6696 38.0377 20.4045 38.0377 18.8014C38.0377 17.8308 37.7604 16.9903 37.2231 16.3057C36.7379 15.6991 36.062 15.2225 35.1954 14.8846V14.9019ZM28.2717 9.78059H31.0706C31.9459 9.78059 32.6131 9.95389 33.0377 10.2832C33.4623 10.6125 33.6703 11.0457 33.6703 11.609C33.6703 12.1723 33.4623 12.6315 33.0377 12.9608C32.6044 13.2988 31.9459 13.4634 31.0706 13.4634H28.2717V9.78059ZM33.5403 20.2485C33.055 20.6384 32.3098 20.8377 31.3393 20.8377H28.2717V16.609H31.3393C32.3098 16.609 33.055 16.7996 33.5403 17.1722C34.0256 17.5449 34.2595 18.0388 34.2595 18.68C34.2595 19.356 34.0256 19.8672 33.5403 20.2572V20.2485ZM42.951 11.0198H39.2769V23.9487H42.951V11.0198ZM79.1988 12.9608C78.6095 12.2676 77.8729 11.713 77.0324 11.349C76.1745 10.9678 75.2126 10.7771 74.1814 10.7771C72.9076 10.7771 71.7551 11.0631 70.7672 11.635C69.788 12.1983 68.9735 13.0128 68.4189 14.0007C67.8556 14.9972 67.5697 16.1497 67.5697 17.4322C67.5697 18.7147 67.847 19.9452 68.3929 20.9591C68.9302 21.9556 69.736 22.7788 70.7326 23.3247C71.7378 23.8793 72.9163 24.1566 74.2334 24.1566C75.8539 24.1566 77.2317 23.7494 78.3235 22.9435C79.3721 22.1722 80.1 21.0804 80.4986 19.7112H76.8071C76.6164 20.1792 76.3391 20.5691 75.9492 20.8551C75.4813 21.1844 74.8833 21.349 74.1728 21.349C73.5489 21.349 73.0203 21.2017 72.587 20.8984C72.1537 20.6038 71.8244 20.1618 71.6078 19.5899C71.4691 19.2173 71.3738 18.8187 71.3305 18.4201H80.5679L80.5852 18.3074C80.7499 17.2676 80.7066 16.2797 80.4639 15.3698C80.23 14.4859 79.7967 13.6627 79.2161 12.9608H79.1988ZM71.3738 16.0284C71.4258 15.7598 71.5038 15.4998 71.5991 15.2398C71.8244 14.6593 72.1537 14.2173 72.5697 13.914C72.9856 13.6194 73.4969 13.4634 74.1035 13.4634C74.8574 13.4634 75.4813 13.7061 75.9492 14.1913C76.3911 14.6506 76.6424 15.2745 76.6944 16.0197H71.3652L71.3738 16.0284ZM43.0377 6.66101H39.2162V9.78059H43.0377V6.66101ZM63.1329 12.4842C62.717 11.9816 62.2057 11.5657 61.6165 11.2797C60.9319 10.9504 60.1347 10.7771 59.2335 10.7771C58.1416 10.7771 57.1538 11.0457 56.3132 11.583C55.4727 12.1116 54.8054 12.8655 54.3375 13.8187C53.8695 14.7632 53.6269 15.8811 53.6269 17.1289C53.6269 18.3767 53.8782 19.4253 54.3721 20.3785C54.8747 21.3317 55.5593 22.1029 56.4259 22.6488C57.2924 23.1948 58.2803 23.4721 59.3635 23.4721C60.178 23.4721 60.9232 23.2987 61.5818 22.9435C62.0844 22.6748 62.5264 22.3109 62.873 21.8603V23.2641C62.873 24.1393 62.6477 24.8065 62.1971 25.2571C61.7465 25.6991 61.0532 25.9244 60.152 25.9244C59.3721 25.9244 58.7569 25.7511 58.3323 25.3958C57.9856 25.1098 57.6737 24.7372 57.6044 23.94H54.0688C54.1035 25.0492 54.4241 25.8031 54.8921 26.453C55.412 27.1896 56.1312 27.7615 57.0498 28.1601C57.9596 28.55 59.0168 28.7493 60.1867 28.7493C62.1537 28.7493 63.7135 28.2554 64.8314 27.2849C65.9579 26.3057 66.5298 24.9365 66.5298 23.2121V11.0111H63.1503V12.4756L63.1329 12.4842ZM62.483 18.8447C62.2664 19.304 61.9284 19.6939 61.5038 19.9625C61.0879 20.2225 60.5853 20.3525 60.0134 20.3525C59.1815 20.3525 58.5316 20.0665 58.0376 19.4859C57.5437 18.9053 57.2924 18.1081 57.2924 17.1203C57.2924 16.1324 57.5437 15.3352 58.0376 14.7546C58.5316 14.1827 59.1988 13.888 60.0134 13.888C60.8279 13.888 61.5558 14.1827 62.0671 14.7632C62.5784 15.3525 62.8383 16.1497 62.8383 17.1376C62.8383 17.7788 62.717 18.3508 62.483 18.836V18.8447ZM89.4674 14.1133V11.0198H86.8157V6.66101H83.1676V11.0198H80.9059V14.1133H83.1676V19.174C83.1676 21.9903 83.7221 24.0526 87.1797 23.992L89.3461 23.9487V21.0544H88.2715C86.7377 21.0544 86.8244 20.1618 86.8244 18.4981V14.122H89.4674V14.1133ZM52.7257 14.1133V11.0198H50.0741V6.66101H46.4259V11.0198H44.1642V14.1133H46.4259V19.174C46.4259 21.9903 46.9805 24.0526 50.438 23.992L52.6044 23.9487V21.0544H51.5299C49.9961 21.0544 50.0827 20.1618 50.0827 18.4981V14.122H52.7257V14.1133ZM9.36359 9.78059H14.8662L20.4987 15.3785C20.8627 15.7424 20.8627 16.3317 20.4987 16.7043L13.2717 23.966H7.60449L9.32026 22.3022L15.6114 16.0457L9.39825 9.78925" fill="#F5F8FF"/>
<path id="Vector_3" d="M11.6249 16.0185H6.12233L0.48976 10.4206C0.125809 10.0567 0.125809 9.46743 0.48976 9.10348L7.70811 1.8418H13.3753L11.6596 3.50557L5.36843 9.76205L11.5816 16.0185" fill="#F5F8FF"/>
</g>
</g>
</g>
</g>
</svg>
